<?xml version="1.0" encoding="utf-8"?>
<!-- Generator: Adobe Illustrator 21.0.0, SVG Export Plug-In . SVG Version: 6.00 Build 0)  -->
<svg version="1.1" id="Camada_1" xmlns="http://www.w3.org/2000/svg" xmlns:xlink="http://www.w3.org/1999/xlink" x="0px" y="0px"
	 viewBox="0 0 1481.1 975.8" style="enable-background:new 0 0 1481.1 975.8;" xml:space="preserve">
<style type="text/css">
	.st0{fill:#E8E8E8;}
	.st1{fill:#161616;}
	.st2{fill:#EC615B;}
	.st3{fill:#5222D0;}
	.st4{fill:#FFFFFF;stroke:#161616;stroke-width:2;stroke-miterlimit:10;}
	.st5{opacity:0.15;fill:#6D6C6C;enable-background:new    ;}
	.st6{opacity:0.17;fill:#6D6C6C;enable-background:new    ;}
	.st7{opacity:0.19;fill:#6D6C6C;enable-background:new    ;}
	.st8{fill:#FFFFFF;}
	.st9{opacity:0.2;fill:#6D6C6C;enable-background:new    ;}
	.st10{opacity:0.27;fill:#6D6C6C;enable-background:new    ;}
	.st11{opacity:0.16;fill:#6D6C6C;enable-background:new    ;}
	.st12{opacity:0.22;fill:#6D6C6C;enable-background:new    ;}
	.st13{fill:none;stroke:#FFFFFF;stroke-width:2;stroke-miterlimit:10;}
	.st14{opacity:0.24;fill:#6D6C6C;enable-background:new    ;}
	.st15{opacity:0.3;fill:#32198E;enable-background:new    ;}
	.st16{fill:#161616;stroke:#161616;stroke-width:2;stroke-miterlimit:10;}
	.st17{fill:#B74949;}
	.st18{opacity:0.18;fill:#6D6C6C;enable-background:new    ;}
	.st19{opacity:8.000000e-02;fill:#6D6C6C;enable-background:new    ;}
	.st20{opacity:0.32;fill:#6D6C6C;enable-background:new    ;}
	.st21{opacity:0.12;fill:#6D6C6C;enable-background:new    ;}
	.st22{opacity:0.13;fill:#6D6C6C;enable-background:new    ;}
	.st23{opacity:0.32;fill:#32198E;enable-background:new    ;}
	.st24{opacity:0.33;fill:#32198E;enable-background:new    ;}
</style>
<g id="background">
	<g>
		<g>
			<path class="st0" d="M113,872.1c-13.7-11.2-28-21.9-40.7-34.2c-5.9-5.7-11.4-11.9-15.6-19c-2.2-3.6-4-7.5-5.3-11.5
				c-1.1-3.3-2.2-8.4,2.6-8.9c1.8-0.2,3.7,0.2,5.4,0.7c1.9,0.5,2.7-2.4,0.8-2.9c-5.7-1.4-13.9-1-13,7c1.1,9,7,18.2,12.4,25.1
				c14,18,33.8,31.5,51.3,45.8C112.4,875.4,114.5,873.3,113,872.1L113,872.1z"/>
		</g>
	</g>
	<g>
		<g>
			<path class="st0" d="M60.7,796.8c-5.8-6.9-10.3-14.9-12.9-23.6c-1.2-3.9-1.7-7.9-2.9-11.7c-0.8-2.4-2.3-4.6-0.1-6.7
				c1-0.9,2.5-1.5,3.6-2.3c3.4-2.3,5.3-5,1.1-7.9c-2.4-1.6-5.4-1.9-8-3.2c-3.5-1.9-6.2-5-8.2-8.3c-4.2-6.8-6.5-14.8-9-22.3
				c-3-8.9-5.9-18-8.5-27c-5.2-18.2-9.5-36.6-13-55.1c-0.3,0.6-0.7,1.2-1,1.8c18.8-6.2,37.5,9.7,50.9,21
				c13.8,11.6,26.2,24.9,37.1,39.3c22.5,30,38.2,64.6,48,100.7c6,22.1,9.8,44.8,11.9,67.6c0.2,1.9,3.2,1.9,3,0
				c-7.3-78.7-36.3-158.4-98.4-210.3C40.1,637,20.9,621.1,1.1,627.6c-0.8,0.3-1.2,1-1,1.8c3.7,19.8,8.4,39.4,14.1,58.8
				c2.7,9.1,5.5,18.1,8.6,27c2.5,7.2,4.8,14.9,9.2,21.2c1.7,2.4,3.6,4.6,6,6.3c2.9,2.1,6.3,2.3,9.2,4.1c3.8,2.3-1.7,4.1-3.7,5.5
				c-1.5,1.1-2.9,2.4-3.2,4.4c-0.4,3,2.2,6.5,2.9,9.3c1,4.3,1.9,8.5,3.5,12.7c2.9,7.4,7,14.2,12.1,20.3
				C59.8,800.4,61.9,798.3,60.7,796.8L60.7,796.8z"/>
		</g>
	</g>
	<g>
		<g>
			<path class="st0" d="M17.9,644.8c41.8,47.2,74.3,102.3,95.5,161.7c5.9,16.5,10.8,33.3,14.9,50.3c0.5,1.9,3.3,1.1,2.9-0.8
				C116.4,794.4,89.8,735.7,53,684c-10.2-14.4-21.2-28.2-32.9-41.4C18.7,641.3,16.6,643.4,17.9,644.8L17.9,644.8z"/>
		</g>
	</g>
	<g>
		<g>
			<path class="st0" d="M24.7,710.6c4.8,1.2,9.5,2.8,14.1,4.7c1.8,0.7,2.6-2.2,0.8-2.9c-4.6-1.9-9.3-3.5-14.1-4.7
				C23.7,707.2,22.9,710.1,24.7,710.6L24.7,710.6z"/>
		</g>
	</g>
	<g>
		<g>
			<path class="st0" d="M59.9,777c6.5-0.2,11.9,3.2,17.2,6.4c4.8,2.9,9.5,5.8,14.1,9c9.5,6.6,18.1,14.4,23.8,24.6
				c0.9,1.7,3.5,0.2,2.6-1.5c-6-10.6-15-18.8-24.9-25.6c-5.2-3.6-10.7-7-16.2-10.2c-5.2-3.1-10.5-5.7-16.7-5.6
				C58,774,58,777,59.9,777L59.9,777z"/>
		</g>
	</g>
	<g>
		<g>
			<path class="st0" d="M99.7,759c-2.7-16.2-2.6-32.6,0.3-48.7c0.3-1.9-2.6-2.7-2.9-0.8c-3,16.7-3.1,33.6-0.3,50.3
				C97.1,761.7,100,760.9,99.7,759L99.7,759z"/>
		</g>
	</g>
	<g>
		<g>
			<path class="st0" d="M94.6,690.5c2.1-19.8,6.3-39.6,13.3-58.2c5.9-15.7,14.7-31.1,29.8-39.5c-0.8-0.4-1.5-0.9-2.3-1.3
				c1.6,27.8,17.9,52.5,18.6,80.4c0.4-0.5,0.7-1,1.1-1.4c-3.8,1-7.6,2-11.4,3c-1.1,0.3-1.5,1.7-0.7,2.5c4.6,4.4,5.5,10.6,5.7,16.7
				c0.1,3.2,1.8,18.7-1.9,19.7c-0.9,0.3-1.4,1.4-0.9,2.2c11.1,17.8,6,38.9,2.9,58.1c-3.2,19.8-3.6,39.8-1.3,59.6
				c0.2,1.9,3.2,1.9,3,0c-2.6-22.3-1.3-44.2,2.5-66.2c3.1-17.8,5.6-36.9-4.4-53.1c-0.3,0.7-0.6,1.5-0.9,2.2c2.7-0.7,3.6-2.8,4-5.4
				c0.7-4.8,0.2-10.1,0.1-14.9c-0.1-7.6-0.9-15.5-6.7-21c-0.2,0.8-0.4,1.7-0.7,2.5c3.8-1,7.6-2,11.4-3c0.6-0.2,1.1-0.8,1.1-1.4
				c-0.7-28-16.9-52.6-18.6-80.4c-0.1-1.1-1.2-1.9-2.3-1.3c-14.9,8.3-23.9,23-30.1,38.5c-7.9,19.7-12.3,40.8-14.5,61.9
				C91.4,692.4,94.4,692.4,94.6,690.5L94.6,690.5z"/>
		</g>
	</g>
	<g>
		<g>
			<path class="st0" d="M130.9,606.5c-10.7,40.5-16.2,82.3-16.3,124.2c0,1.9,3,1.9,3,0c0.1-41.7,5.5-83.1,16.1-123.4
				C134.3,605.4,131.4,604.6,130.9,606.5L130.9,606.5z"/>
		</g>
	</g>
	<g>
		<g>
			<path class="st0" d="M1305,546.6c6.4,20.6,11.2,41.6,14.2,63c1.5,10.8,2.6,21.8,3.1,32.7c0.2,2.8,0.3,5.7,0.4,8.5
				c0.1,1.7-0.4,4.5,0.2,6.1c0.6,1.5,2.7,2.5,3.9,3.5c2.1,1.7,4.2,3.4,6.2,5.1c0.1-0.8,0.2-1.6,0.3-2.4c-2.8,1.7-5.5,2.5-8.8,2.6
				c-0.7,0-1.2,0.5-1.4,1.1c-2.9,9-0.8,18.5,5.7,25.5c0.4-0.9,0.7-1.7,1.1-2.6c-10.4-0.4-10.6,11.6-9.6,19
				c1.4,10.3,3.4,20.6,6.3,30.6c5.8,19.6,15.5,38.2,31.4,51.6c1.5,1.2,3.6-0.9,2.1-2.1c-13.4-11.3-22.4-26.5-28.2-43
				c-2.7-7.8-4.8-15.8-6.4-23.8c-1.3-6.7-7.8-29.7,4.4-29.3c1.4,0.1,1.9-1.6,1.1-2.6c-5.7-6.2-7.5-14.6-4.9-22.5
				c-0.5,0.4-1,0.7-1.4,1.1c3.8,0,7-0.9,10.3-3c0.7-0.5,1.1-1.7,0.3-2.4c-3.7-3-8.8-5.6-9.4-10.6c-0.6-5.3-0.4-10.8-0.8-16.1
				c-0.7-9.9-1.7-19.8-3.2-29.7c-3-20.7-7.7-41.1-13.9-61.1C1307.3,543.9,1304.4,544.7,1305,546.6L1305,546.6z"/>
		</g>
	</g>
	<g>
		<g>
			<path class="st0" d="M1309.9,551.1c-4.1-5.4,3.6-9.4,8.1-8.3c4.5,1.2,8.2,4.8,11.3,8c5.7,5.8,10.2,12.6,14.1,19.7
				c8.1,14.6,14.9,30.2,20.9,45.7c12.3,31.9,20.8,65.3,25.3,99.1c2.5,19.2,3.8,38.5,3.8,57.8c0,1.9,3,1.9,3,0
				c0-40.2-5.5-80.3-16.3-118.9c-5.3-18.8-11.8-37.2-19.5-55.2c-7.1-16.6-14.7-34.4-26.9-48c-4.9-5.5-13.2-14-21.4-11.1
				c-5,1.7-8.3,8.1-4.9,12.7C1308.5,554.1,1311.1,552.7,1309.9,551.1L1309.9,551.1z"/>
		</g>
	</g>
	<g>
		<g>
			<path class="st0" d="M1381.9,661c5.1-17.1,11-33.8,17.7-50.3c3.5-8.5,7.2-17,11.2-25.3c1.9-3.9,3.8-7.9,5.8-11.8
				c1.3-2.5,5.2-13.5,9.3-12.5c1.2,0.3,2-0.7,1.8-1.8c-1-6.2,6-11.5,9.7-15.6c3.3-3.6,6.5-7.2,9.8-10.8c6.8-7.4,13.5-14.8,20.3-22.3
				c-0.8-0.2-1.7-0.4-2.5-0.7c10.3,25.5,7.6,53.4,1.6,79.6c-3.1,13.4-7,26.7-10.3,40.1c-2.3,9.3-4.8,23.4-16.2,25.4
				c-0.8,0.1-1.2,1.1-1,1.8c2.9,11.9-5.1,22.9-10.4,32.9c-5,9.4-9.6,19.1-13.8,29c-8.2,19.3-14.7,39.2-19.6,59.5
				c-0.5,1.9,2.4,2.7,2.9,0.8c5.4-22.5,12.8-44.4,22.3-65.5c4.5-10,9.5-19.8,14.8-29.4c4.8-8.7,9.2-17.9,6.8-28
				c-0.3,0.6-0.7,1.2-1,1.8c9.7-1.7,13.9-11.5,16.4-20.1c4.1-14.4,7.8-29.2,11.3-43.8c6.7-27.8,10.3-57.7-0.7-84.9
				c-0.4-1-1.7-1.6-2.5-0.7c-8.5,9.3-17,18.7-25.5,28c-4,4.4-8.3,8.6-12,13.3c-2.4,3.2-3.7,6.2-3.1,10.2c0.6-0.6,1.2-1.2,1.8-1.8
				c-7.2-1.8-10.7,10-13.1,14.7c-4.8,9.5-9.3,19.1-13.4,28.8c-8.2,19-15.2,38.6-21.1,58.4C1378.4,662,1381.3,662.8,1381.9,661
				L1381.9,661z"/>
		</g>
	</g>
	<g>
		<g>
			<path class="st0" d="M1460.1,536.5c-31.2,58.2-63,118.2-70.5,184.7c-0.2,1.9,2.8,1.9,3,0c7.5-66,39.2-125.6,70.1-183.2
				C1463.7,536.3,1461.1,534.8,1460.1,536.5L1460.1,536.5z"/>
		</g>
	</g>
	<g>
		<g>
			<path class="st0" d="M1330,576.5c24.3,64.3,38.8,132.1,43.1,200.7c0.1,1.9,3.1,1.9,3,0c-4.3-68.9-18.8-136.9-43.2-201.5
				C1332.2,574,1329.3,574.7,1330,576.5L1330,576.5z"/>
		</g>
	</g>
	<g>
		<g>
			<path class="st0" d="M66.4,544.3c61-10.9,124-10.3,184.8,1.8c30.1,6,59.6,14.7,88,26.1c29.7,11.9,58.2,26.2,87.3,39.4
				c109.8,49.8,227.3,82.4,347,96.6c67.9,8.1,136.5,10.2,204.7,6.4c1.9-0.1,1.9-3.1,0-3c-122.4,6.9-245.7-5.6-364.3-36.7
				c-59.5-15.6-117.8-35.9-174.1-60.6c-29.2-12.8-57.7-27.2-87-39.7c-28-11.9-56.9-21.5-86.5-28.3c-65.7-15-134.3-16.7-200.7-4.8
				C63.7,541.7,64.5,544.6,66.4,544.3L66.4,544.3z"/>
		</g>
	</g>
	<g>
		<g>
			<path class="st0" d="M610.4,672.7c56.9,2.9,111.8-17.6,165.3-34c56-17.1,112.2-33.7,168.5-49.9c56-16.1,112-33,168.9-45.9
				c56.7-12.8,114.5-18.9,172.6-20.6c64.7-2,129.4,0.9,194,3.9c1.9,0.1,1.9-2.9,0-3c-114.1-5.2-229.7-10.3-342.5,11.6
				c-57.2,11.1-113.2,28.1-169.2,44c-56.3,16.1-112.5,32.6-168.6,49.5c-31.1,9.4-62.1,19.6-93.4,28.2c-31.2,8.6-63.2,14.8-95.7,13.2
				C608.5,669.6,608.5,672.6,610.4,672.7L610.4,672.7z"/>
		</g>
	</g>
	<g>
		<g>
			<path class="st0" d="M367.6,570.1c39.5,11.4,80.5,3.5,119.9-4.1c42.2-8.1,84.8-13.6,127.8-15.3c85.2-3.2,169.9,9,254.8,12.4
				c47,1.9,94.2,0.8,140.6-6.9c1.9-0.3,1.1-3.2-0.8-2.9c-83.5,13.9-168.3,5.6-252.1-0.7c-41.9-3.2-83.9-5.9-126-5.2
				c-41.7,0.7-83.4,4.7-124.6,12c-45.6,8-93,21.2-138.9,7.9C366.5,566.7,365.7,569.6,367.6,570.1L367.6,570.1z"/>
		</g>
	</g>
	<g>
		<g>
			<path class="st0" d="M544.6,762.8c12.8-5.3,26.6-8,40.5-7.6c12.9,0.4,24.5,4.6,37,7.2c9.3,2,18.6,2,26.1-4.6
				c2.9-2.5,5.4-5.1,9.6-3.8c3.1,0.9,5.7,3,8.6,4.3c3.4,1.6,6.9,2.2,10.5,1.5c8.6-1.7,15.1-8.8,22.6-12.9
				c12.7-6.8,24.9,2.3,37.3,5.6c25.8,6.9,53.4,4.8,79.8,4.5c32.5-0.3,65.1-0.1,97.4-4.1c1.9-0.2,1.9-3.2,0-3
				c-29,3.5-58.3,3.7-87.5,4c-27.8,0.3-57.2,2.9-84.6-3.3c-6.4-1.4-12.4-3.5-18.5-6c-5.3-2.2-10.8-4.3-16.6-3.5
				c-9.1,1.2-15.9,8.4-23.6,12.8c-4,2.3-8.4,3.9-13,2.6c-5-1.5-9.1-5.9-14.6-6.1c-5.2-0.1-7.7,4.1-11.5,6.8
				c-5.3,3.7-12,3.8-18.2,2.8c-13.2-2.1-25.5-7.2-39-7.8c-14.7-0.7-29.4,2-43.1,7.7C542,760.6,542.8,763.5,544.6,762.8L544.6,762.8z
				"/>
		</g>
	</g>
	<g>
		<g>
			<path class="st0" d="M608.4,673.6c1.8,0.3,3.5,0.7,5.3,1c1.9,0.4,2.6-2.2,0.8-2.9c-1.1-0.4-2.2-0.8-3.4-1.2
				c-1.6-0.6-2.7,2-1.2,2.7c9.2,4.8,18.8,8.6,28.8,11.3c1.9,0.5,2.7-2.4,0.8-2.9c-9.8-2.6-19.1-6.3-28.1-11
				c-0.4,0.9-0.8,1.8-1.2,2.7c1.1,0.4,2.2,0.8,3.4,1.2c0.3-1,0.5-1.9,0.8-2.9c-1.8-0.3-3.5-0.7-5.3-1
				C607.3,670.3,606.5,673.2,608.4,673.6L608.4,673.6z"/>
		</g>
	</g>
	<g>
		<g>
			<path class="st0" d="M474,812.2c-2.2-2.6-4.2-5.3-5.9-8.3c-0.8-1.5-1.8-3.1-2.3-4.8c-0.7-1.1-0.8-2.4-0.4-3.7
				c-0.3-1.4,0.1-2.5,1.1-3.3c1.5-4.1-0.3-8.4-1.3-12.6c-1.5-6.6-3-13.2-4.5-19.8c-0.8-3.5-1.6-6.9-2.3-10.4
				c-0.4-1.6-0.7-3.1-1.1-4.7c-0.6-2.8-1.2-4.1,0.9-6.4c1-2.1,2.5-2.5,4.5-0.9c0.9,0.9,1.8,1.8,2.7,2.7c1,1.3,1.7,2.8,2.5,4.2
				c1.4,2.6,2.8,5.2,4.1,7.8c3.1,6.2,5.8,12.6,8.1,19.1c4.4,12.2,7.4,24.8,9.2,37.7c0.5-0.6,1-1.3,1.4-1.9c0.2,0.2,0.3,0.5,0.5,0.7
				c0.5-1.9-2.4-2.7-2.9-0.8c-0.4,1.8,0.5,3.1,2.4,3.1c1.1,0,1.6-0.9,1.4-1.9c-2.3-16.5-6.6-32.6-13.2-47.9
				c-3.1-7.2-6.4-15.2-11-21.6c-2.5-3.5-7-6.7-11.3-4.2c-4.9,2.8-2.6,9.7-1.6,14c2,8.8,4,17.6,5.9,26.4c0.9,4.2,2.8,8.9,3,13.2
				c0.1,3.5-2.8,5.1-2.3,8.6c1,6.5,5.9,13.1,10,17.9C473.1,815.7,475.2,813.6,474,812.2L474,812.2z"/>
		</g>
	</g>
	<g>
		<g>
			<path class="st0" d="M483.2,769.2c-1.5-9-1.3-18.2,0.8-27.1c0.5-2.3,1.2-4.5,2-6.7c1.4-3.8,3.4-3.4,5.4-0.6
				c2.6,3.7,4.6,7.8,6.1,12c6.1,17.4,3.4,36.1,0.8,53.8c-0.3,1.9,2.6,2.7,2.9,0.8c3.3-22.3,6.7-47.6-6.8-67.5
				c-1.5-2.2-3.5-5.9-6.6-5.4c-3.3,0.6-4.4,5.1-5.3,7.7c-3.6,10.9-4.2,22.5-2.3,33.7C480.7,771.9,483.6,771.1,483.2,769.2
				L483.2,769.2z"/>
		</g>
	</g>
	<g>
		<g>
			<path class="st0" d="M488.6,746.2c3,15.6,4.1,31.3,3.6,47.1c-0.1,1.9,2.9,1.9,3,0c0.6-16.1-0.7-32.1-3.7-47.9
				C491.1,743.5,488.3,744.3,488.6,746.2L488.6,746.2z"/>
		</g>
	</g>
	<g>
		<g>
			<path class="st0" d="M120.8,533c-2.9-6.4-9.4-10.9-13.5-16.5c-4.5-6.2-8.3-12.9-12-19.5c-0.3,0.7-0.6,1.5-0.9,2.2
				c20.1-3.6,31.7,16.2,35.6,32.9c0.4,1.9,3.3,1.1,2.9-0.8c-4.3-18.5-17.5-38.8-39.3-35c-1,0.2-1.3,1.4-0.9,2.2
				c3.7,6.7,7.4,13.4,12,19.5c4.1,5.6,10.7,10.3,13.5,16.5C119,536.3,121.6,534.8,120.8,533L120.8,533z"/>
		</g>
	</g>
	<g>
		<g>
			<path class="st0" d="M129.5,516.9c1.5-15.7,16.5-25.5,22.3-39.4c-0.7,0.3-1.5,0.6-2.2,0.9c6.7,4.3,1.7,19.9-0.2,25.9
				c-2.8,8.8-7.4,16.8-13.3,23.8c-1.2,1.5,0.9,3.6,2.1,2.1c7.4-8.7,12.7-18.8,15.4-29.9c1.7-7,4.9-19.7-2.5-24.5
				c-0.9-0.6-1.9,0.1-2.2,0.9c-6,14.4-20.8,23.8-22.4,40.2C126.3,518.8,129.3,518.8,129.5,516.9L129.5,516.9z"/>
		</g>
	</g>
	<g>
		<g>
			<path class="st0" d="M1017.5,562.3c-0.9-2.3-1.8-4.6-2.7-6.9c-0.5-1.1-0.9-2.3-1.4-3.4c-0.6-0.8-0.6-1.7-0.1-2.6
				c0.9,0.8,2.7,0.3,2.6-1.1c-0.5-5-1-10.1-1.5-15.1c-0.1-1.2-1.3-5.9-0.6-6.8c3.1-4.3,5.2,2.8,5.5,3.9c2.7,9.2,2.6,19.8,2.5,29.3
				c0,1.9,3,1.9,3,0c0.1-7.8-0.3-15.5-1.4-23.2c-0.7-4.9-1.5-12-6.3-14.9c-3.1-1.9-5.7,0.1-6.3,3.4c-0.6,3.2,0.4,7,0.7,10.1
				c0.4,4.4,0.9,8.8,1.3,13.2c0.9-0.4,1.7-0.7,2.6-1.1c-1.7-1.6-4.3-1.3-5.3,0.9c-0.7,1.5-0.1,3.1,0.4,4.6c1.2,3.5,2.8,6.9,4.1,10.4
				C1015.3,564.9,1018.2,564.1,1017.5,562.3L1017.5,562.3z"/>
		</g>
	</g>
	<g>
		<g>
			<path class="st0" d="M1024.2,546c-0.4-14,2.5-27.7,8.6-40.4c-0.8,0.1-1.6,0.2-2.4,0.3c6.5,5.4,2.2,20,1.1,27
				c-1.5,9.4-3.4,18.8-5.8,28c-0.5,1.9,2.4,2.7,2.9,0.8c2.9-11.2,5.1-22.6,6.7-34.1c1-7.4,3.9-18.3-2.8-23.9
				c-0.7-0.6-1.9-0.6-2.4,0.3c-6.3,13.1-9.4,27.3-9,41.9C1021.3,547.9,1024.3,547.9,1024.2,546L1024.2,546z"/>
		</g>
	</g>
	<g>
		<g>
			<path class="st0" d="M499.4,852.1c6.3-6.4,16.1,2.2,23.4,1.8c3.5-0.2,6.7-1.5,9.9-2.6c4.3-1.4,8.4-1.9,12.9-1.5
				c17.8,1.5,35.1,2.8,53,1.6c1.9-0.1,1.9-3.1,0-3c-9.7,0.6-19.3,0.8-29,0.4c-9.8-0.4-20-2.8-29.7-2.1c-3.9,0.3-7.5,1.6-11.2,2.8
				c-5.4,1.7-9.5,1.4-14.7-0.5c-5.7-2.1-12.1-3.8-16.8,1C495.9,851.4,498,853.5,499.4,852.1L499.4,852.1z"/>
		</g>
	</g>
	<g>
		<g>
			<path class="st0" d="M310.5,876.4c7-7.6,19.3-8.1,26.7-0.9c0.1-0.8,0.2-1.6,0.3-2.4c-5.2,2.5-10.5,3.6-16.2,3.3
				c-1.9-0.1-1.9,2.9,0,3c6.3,0.3,12.1-0.9,17.8-3.7c0.9-0.4,1-1.7,0.3-2.4c-8.6-8.3-22.9-7.9-31,0.9
				C307.1,875.7,309.2,877.8,310.5,876.4L310.5,876.4z"/>
		</g>
	</g>
	<g>
		<g>
			<path class="st0" d="M31.8,903.4c-5.1-0.4-10.2,1.1-14.1,4.6c-2.4,2.2-5.8,6.3-2.7,9.2c3.5,3.2,11.9,1.1,16,0.7
				c7.5-0.8,14.8-2.2,22.1-4.1c1.9-0.5,1.1-3.4-0.8-2.9c-8.8,2.3-17.7,3.8-26.8,4.4c-1.8,0.1-3.7,0.3-5.5,0.3
				c-4.5-0.2-2.4-3.6-0.2-5.5c3.3-3,7.6-4.1,12-3.7C33.8,906.5,33.7,903.5,31.8,903.4L31.8,903.4z"/>
		</g>
	</g>
	<g>
		<g>
			<path class="st0" d="M174.7,820.9c0.2-0.8,0.8-1.3,1.6-1.3c0.7-0.1,1.4-0.2,2-0.3c1.6-0.2,3.1-0.1,4.7,0.1
				c3.1,0.4,5.9,1.5,8.6,3.2c0.1-0.9,0.2-1.8,0.4-2.7c-3.7,1.3-7.4,1.6-11.3,1c-1.9-0.3-2.7,2.6-0.8,2.9c4.4,0.7,8.6,0.4,12.9-1
				c1.2-0.4,1.5-2,0.4-2.7c-5.2-3.3-12-4.9-18.1-3.2c-3.3,0.9-5.9,6-1.2,7C175.8,824.2,176.6,821.3,174.7,820.9L174.7,820.9z"/>
		</g>
	</g>
	<g>
		<g>
			<path class="st0" d="M257.5,133.2c-23.8-8.4-40.8-31.5-43.4-56.5c-2.7-25.8,11.8-50.4,33.6-63.6c23.5-14.2,56.9-14.3,76.2,7.2
				c9.9,10.9,16,25.8,19.6,39.9c3.7,14.5,4.3,30.6-4,43.7c-8.4,13.1-23.4,20.4-37.5,25.9c-14.9,5.9-32.8,10.5-47.4,1.3
				c-1.6-1-3.1,1.6-1.5,2.6c13.1,8.2,28.9,6.1,42.9,1.5c13.7-4.5,28.2-10.8,38.8-21c23.7-22.7,14-60.2-0.8-85.1
				c-7.8-13.2-19.5-22.9-34.4-26.9c-14.2-3.8-29.4-2.5-42.9,3c-24.8,10.2-44.2,34-45.8,61.2c-1.8,30,17.5,59.7,45.8,69.7
				C258.5,136.8,259.3,133.9,257.5,133.2L257.5,133.2z"/>
		</g>
	</g>
	<g>
		<g>
			<path class="st0" d="M1009.4,713.7c68.2-4.3,136-13.5,202.8-27.6c19.3-4.1,38.5-8.6,57.6-13.5c1.9-0.5,1.1-3.4-0.8-2.9
				c-66.2,16.9-133.6,29.1-201.6,36.2c-19.3,2-38.6,3.6-57.9,4.8C1007.5,710.8,1007.5,713.8,1009.4,713.7L1009.4,713.7z"/>
		</g>
	</g>
	<g>
		<g>
			<path class="st0" d="M853.1,785.9c8.8,1.5,17.8,1.4,26.5-0.7c5.4-1.3,9.3-3.4,14.9-1.6c3.5,1.1,6.8,1.5,10.4,0.8
				c4-0.8,7.7-2.8,11.1-5c3.7-2.5,7.4-6,11.9-6.9c5.2-1,9.9,3.1,14.9,4.2c3.6,0.8,7.3,0.7,10.9,0.1c1.9-0.3,1.1-3.2-0.8-2.9
				c-6.3,1.1-11.2-0.5-16.9-3c-2.4-1.1-4.7-1.7-7.4-1.5c-8.1,0.9-13.7,8.5-21.2,11.2c-4.8,1.7-8.7,1.1-13.4-0.4
				c-3.6-1.1-6.2-0.5-9.7,0.6c-9.9,3.1-20,4-30.2,2.3C852.1,782.7,851.2,785.6,853.1,785.9L853.1,785.9z"/>
		</g>
	</g>
	<g>
		<g>
			<path class="st1" d="M357.6,916c77.7,0,155.4,0,233.1,0c3.9,0,3.9-6,0-6c-77.7,0-155.4,0-233.1,0C353.7,910,353.7,916,357.6,916
				L357.6,916z"/>
		</g>
	</g>
	<g>
		<g>
			<path class="st1" d="M607.4,914.2c9.1,0,18.2,0,27.3,0c3.9,0,3.9-6,0-6c-9.1,0-18.2,0-27.3,0
				C603.5,908.2,603.5,914.2,607.4,914.2L607.4,914.2z"/>
		</g>
	</g>
	<g>
		<g>
			<path class="st1" d="M654.9,913.3c2.9,0,5.9,0,8.8,0c3.9,0,3.9-6,0-6c-2.9,0-5.9,0-8.8,0C651,907.3,651,913.3,654.9,913.3
				L654.9,913.3z"/>
		</g>
	</g>
	<g>
		<g>
			<path class="st1" d="M106.9,938c57.5,0,114.9,0,172.4,0c3.9,0,3.9-6,0-6c-57.5,0-114.9,0-172.4,0C103.1,932,103.1,938,106.9,938
				L106.9,938z"/>
		</g>
	</g>
	<g>
		<g>
			<path class="st1" d="M296,938c15,0,29.9,0,44.9,0c3.9,0,3.9-6,0-6c-15,0-29.9,0-44.9,0C292.2,932,292.2,938,296,938L296,938z"/>
		</g>
	</g>
	<g>
		<g>
			<path class="st1" d="M366.4,936.2c0.9,0,1.8,0,2.6,0c1.6,0,3.1-1.4,3-3s-1.3-3-3-3c-0.9,0-1.8,0-2.6,0c-1.6,0-3.1,1.4-3,3
				C363.5,934.8,364.7,936.2,366.4,936.2L366.4,936.2z"/>
		</g>
	</g>
	<g>
		<g>
			<path class="st1" d="M75.3,938.8c2.1,0,4.1,0,6.2,0c3.9,0,3.9-6,0-6c-2.1,0-4.1,0-6.2,0C71.4,932.8,71.4,938.8,75.3,938.8
				L75.3,938.8z"/>
		</g>
	</g>
	<g>
		<g>
			<path class="st1" d="M867.7,828.9c80.6,0,161.2,0,241.9,0c3.9,0,3.9-6,0-6c-80.6,0-161.2,0-241.9,0
				C863.8,822.9,863.8,828.9,867.7,828.9L867.7,828.9z"/>
		</g>
	</g>
	<g>
		<g>
			<path class="st1" d="M1141.2,825.4c73,0,146,0,219,0c3.9,0,3.9-6,0-6c-73,0-146,0-219,0C1137.4,819.4,1137.4,825.4,1141.2,825.4
				L1141.2,825.4z"/>
		</g>
	</g>
	<g>
		<g>
			<path class="st1" d="M1379.6,823.6c5.9,0,11.7,0,17.6,0c3.9,0,3.9-6,0-6c-5.9,0-11.7,0-17.6,0
				C1375.7,817.6,1375.7,823.6,1379.6,823.6L1379.6,823.6z"/>
		</g>
	</g>
	<g>
		<g>
			<path class="st1" d="M1302.2,790.2c16.7,0,33.4,0,50.1,0c3.9,0,3.9-6,0-6c-16.7,0-33.4,0-50.1,0
				C1298.3,784.2,1298.3,790.2,1302.2,790.2L1302.2,790.2z"/>
		</g>
	</g>
	<g>
		<g>
			<path class="st1" d="M1369,789.3c4.1,0,8.2,0,12.3,0c3.9,0,3.9-6,0-6c-4.1,0-8.2,0-12.3,0C1365.2,783.3,1365.2,789.3,1369,789.3
				L1369,789.3z"/>
		</g>
	</g>
	<g>
		<g>
			<path class="st1" d="M819.3,846.5c21.4,0,42.8,0,64.2,0c3.9,0,3.9-6,0-6c-21.4,0-42.8,0-64.2,0
				C815.5,840.5,815.5,846.5,819.3,846.5L819.3,846.5z"/>
		</g>
	</g>
	<g>
		<g>
			<path class="st1" d="M906.4,845.6c9.1,0,18.2,0,27.3,0c3.9,0,3.9-6,0-6c-9.1,0-18.2,0-27.3,0
				C902.5,839.6,902.5,845.6,906.4,845.6L906.4,845.6z"/>
		</g>
	</g>
	<g>
		<g>
			<path class="st1" d="M946,860.6c6.2,0,12.3,0,18.5,0c3.9,0,3.9-6,0-6c-6.2,0-12.3,0-18.5,0C942.1,854.6,942.1,860.6,946,860.6
				L946,860.6z"/>
		</g>
	</g>
	<g>
		<g>
			<path class="st1" d="M520.1,359.2c-3.6-4.5,10-7.3,12.2-8.2c4.3-1.9,7-5.4,8-10c1-4.7,0-9.7,1.4-14.3c2.1-6.8,9.9-6.4,15.7-6.1
				c3.9,0.2,3.8-5.8,0-6c-6.6-0.4-14.2-0.2-18.8,5.2c-4.1,4.8-3.3,11.3-3.8,17.2c-0.4,5.3-2.4,7.9-7.6,9.4c-3,0.9-6,1.4-8.5,3.3
				c-4.6,3.3-6.5,9.1-2.8,13.7C518.2,366.5,522.5,362.2,520.1,359.2L520.1,359.2z"/>
		</g>
	</g>
	<g>
		<g>
			<path class="st1" d="M541.4,364.2c-2.7-3.2,3.5-6.4,5.5-7.6c2.7-1.6,5-3.1,7-5.5c4.1-4.9,6.8-14.2,14.2-14.6c3.8-0.2,3.9-6.2,0-6
				c-12.3,0.6-13.3,13.4-21.7,19.4c-3.6,2.5-7.9,3.9-10.2,7.9c-2.1,3.6-1.7,7.5,0.9,10.6C539.6,371.4,543.9,367.1,541.4,364.2
				L541.4,364.2z"/>
		</g>
	</g>
	<g>
		<g>
			<path class="st1" d="M1010,40.5c-0.4,6.4-5.4,14.1,0.6,19.5c5.2,4.6,11.7,1.2,17.6,1.6c6.5,0.5,3.7,6.5,2.9,10.9
				c-0.6,3.3-0.9,6.9,0.6,10.1c2.4,5,8.9,8.2,13.7,4.6c3-2.3,0-7.5-3-5.2c-4.9,3.7-5.9-5.2-5.4-7.9c0.5-2.9,1.5-5.8,1.6-8.8
				c0.1-4.2-2.1-7.5-6-8.9c-4.8-1.7-9.1,0.2-13.9,0.1c-8.7-0.2-2.9-10.8-2.6-16C1016.3,36.6,1010.3,36.6,1010,40.5L1010,40.5z"/>
		</g>
	</g>
	<g>
		<g>
			<path class="st1" d="M1044.4,47.4c-2.5,5.4-4.9,11.8-0.9,17.2c1.5,2,3.5,3.2,5.9,3.6c1.6,0.2,3.7-0.5,5.1,0.1
				c2.3,0.9,3.6,3.6,2.5,6c-1.7,3.5,3.5,6.5,5.2,3c2.1-4.5,1.3-9.7-2.7-13c-2.2-1.8-4.2-1.8-6.9-2.1c-7.3-0.7-5.3-6.8-3-11.7
				C1051.2,47,1046,43.9,1044.4,47.4L1044.4,47.4z"/>
		</g>
	</g>
	<g>
		<g>
			<path class="st1" d="M1363.1,254.8c-2.2-5.7,3.1-13.9,9.8-11.8c5.1,1.7,7.4,9.3,4,13.5c-2.4,3,1.8,7.2,4.2,4.2
				c6.2-7.5,3.1-20.6-6.6-23.5c-10.7-3.2-21,9-17.1,19.1C1358.7,260,1364.5,258.4,1363.1,254.8L1363.1,254.8z"/>
		</g>
	</g>
	<g>
		<g>
			<path class="st1" d="M195.7,492.2c-0.6-7.1,8.4-11.1,12.2-4.4c3.2,5.8-3.1,10.9-8.6,9c-3.6-1.3-5.2,4.5-1.6,5.8
				c11.1,4,21.6-8.6,14.9-18.6c-7.2-10.7-23.9-4.4-22.8,8.2C190,496,196,496.1,195.7,492.2L195.7,492.2z"/>
		</g>
	</g>
	<g>
		<g>
			<path class="st2" d="M230.5,211.9c-2.3,3.8-2.5,8.7,0.5,12.2c1.5,1.7,3.6,2.8,5.8,3.2c3.1,0.5,5.4-1.2,8.1,0.1
				c2.7,1.4,2.1,3.1,2.4,5.9c0.1,1.7,0.2,3.3,0.4,5c0.2,1.8,0.4,3.6,1.7,5c1.2,1.3,2.7,1.8,4.4,2.1c1.2,0.2,2.4,0.1,3.7,0.1
				c1,0,2.1,0,3.1,0.2c1.9,0.5,2.7,1.8,2.5,3.7c-1.5,1.1-0.1,3.7,1.5,2.6c3-2.2,2-5.6-0.6-7.8c-1.2-1-2.5-1.5-4.1-1.7
				c-5.2-0.7-8.2,1.3-9.4-6c-0.6-3.6,0.7-11.1-3-13.5c-1.7-1.1-3.2-0.6-4.9,0.1c-2.7,1.1-4.9,2-7.7,0.3c-3.8-2.3-3.9-6.8-1.8-10.2
				C234.1,211.8,231.5,210.3,230.5,211.9L230.5,211.9z"/>
		</g>
	</g>
	<g>
		<g>
			<path class="st2" d="M270.9,223.8c-2,3.5-4.4,8.8-1.3,12.4c2,2.4,5.4,2.1,8,3.6c4.1,2.3,6,7.1,5.2,11.6c-0.3,1.9,2.6,2.7,2.9,0.8
				c0.8-4.5-0.2-8.9-3.3-12.3c-1.3-1.5-3-2.6-4.8-3.4c-2.1-0.9-5.7-2-6.4-4.6c-0.5-1.9,1.5-5.1,2.3-6.6
				C274.4,223.6,271.8,222.1,270.9,223.8L270.9,223.8z"/>
		</g>
	</g>
	<g>
		<g>
			<path class="st2" d="M833.8,539.6c-3.4-7,3-15.2,10.6-12.5c7.9,2.8,7.6,13.6,0.1,16.6c-1.8,0.7-1,3.6,0.8,2.9
				c9.7-3.9,11-17.8,0.9-22c-10.4-4.4-19.6,6.9-14.9,16.6C832.1,542.9,834.7,541.3,833.8,539.6L833.8,539.6z"/>
		</g>
	</g>
	<g>
		<g>
			<path class="st2" d="M465.5,515.9c-6.4-1.3,3.9-8.2,5-8.9c1.6-1.1,3.1-2.3,3.9-4.2c2.7-6.1-2.2-18.3,8.6-18.9
				c1.9-0.1,1.9-3.1,0-3c-4.2,0.2-7.3,2.5-9.2,6.1c-3.1,5.8,0.6,13.7-5.4,17.7c-3.4,2.3-7,3.8-7.4,8.3c-0.2,2.7,0.9,5.1,3.7,5.7
				C466.6,519.2,467.4,516.3,465.5,515.9L465.5,515.9z"/>
		</g>
	</g>
	<g>
		<g>
			<path class="st2" d="M484.7,507.2c-2.8-3.9-1.2-9.4,3.5-10.9c3.2-1,5.6-0.5,7.4-3.8c1.8-3.4,1.5-7.4,3.5-10.9
				c2.5-4.5,6.7-7.6,11.5-9.1c1.8-0.6,1.1-3.5-0.8-2.9c-4.5,1.4-8.4,3.9-11.3,7.6c-1.5,1.9-2.8,4.1-3.6,6.5
				c-1.1,3.2-0.6,7.5-4.2,9.2c-2.2,1.1-4.4,0.5-6.5,2.1c-1.4,1-2.4,2.5-3,4c-1.4,3.3-1.1,6.8,1,9.7
				C483.2,510.3,485.8,508.8,484.7,507.2L484.7,507.2z"/>
		</g>
	</g>
	<g>
		<g>
			<path class="st3" d="M383,47.3c-1.8-3.6,5.9-2.3,6.2-2.2c1.1,0.4,2.2,1.3,3.2,1.9c1.6,0.9,3.4,1.8,5.3,1.9c2.5,0.1,4.6-1,6.2-2.8
				c4.6-5.6,2.9-20.1,13.7-15.8c3.2,1.3,6.8,3.2,10.3,1.6c2.8-1.3,3.4-4.1,3-6.9c-0.2-1.4-1.8-4.2-1.4-5.6c0.8-2.7,3.3-2.9,5.2-2
				c0.9,0.4,1.7,1,2.7,1.3c3,1.1,5.9,0.9,7.7-1.9c1-1.6-1.6-3.1-2.6-1.5c-2,3.2-10-3.4-13.6-1.4c-2.9,1.5-2.8,4.5-2.1,7.3
				c0.8,3.3,2.8,8.1-3.3,8c-2.7,0-5.2-2.3-7.8-2.8c-3.1-0.6-5.9,0.2-7.9,2.6c-5,5.9-3.1,21.3-14.7,15c-3.4-1.8-6.2-3.6-10-1.9
				c-2.9,1.3-4.3,3.8-2.8,6.7C381.3,50.5,383.8,49,383,47.3L383,47.3z"/>
		</g>
	</g>
	<g>
		<g>
			<path class="st0" d="M502.1,128.9c-4.5-1.1-5.1-6.9-2.9-10.3c3.1-4.8,10.4-4.5,15.3-3.6c8.2,1.5,15.8,4.7,24.1,1.6
				c8-3,14-9.5,23-9.7c9.4-0.2,18.3,3.9,27.8,3.6C606,110,621.1,101.8,637,98c9.4-2.3,18.6-2.5,28-0.1c9,2.3,17.4,6,26.4,8.2
				c9.4,2.4,18.7,2,28.2,1.2c10.4-0.8,21.1-1.6,30.5,3.8c-0.2-0.6-0.5-1.1-0.7-1.7c-5,14.7-21.2,20.7-35.5,21.5
				c-17.9,1-35.3-5.5-53.3-4.8c-18.2,0.7-33.6,11.8-51.5,13.5c-18.3,1.8-35.6-6.9-53.8-6.4c-18.5,0.5-42.6,10.6-57.2-5.9
				c-1.3-1.4-3.4,0.7-2.1,2.1c11.5,12.9,29.7,10.6,45,8.3c11.3-1.7,21.6-1.8,32.9,0.4c9.6,1.9,19.2,4.5,29,4.7
				c19.8,0.5,36.5-12.3,56-13.6c19.7-1.3,38.8,6.6,58.5,4.4c14.7-1.6,30-8.5,35-23.5c0.2-0.6-0.1-1.4-0.7-1.7
				c-17.6-10.3-38.8-0.6-57.7-4.9c-10.4-2.4-20.1-7-30.6-9.2c-9.1-2-18.1-1.5-27.1,0.7c-9.6,2.3-18.7,6.1-28.1,9
				c-10.8,3.3-21.1,4.3-32.3,2c-8.9-1.9-17.1-3.4-25.5,0.8c-3.9,2-7.5,4.7-11.5,6.5c-6.8,3-13.3,1.2-20.2-0.5
				c-7.3-1.7-18.3-2.9-22.4,5.2c-2.6,5.1-0.8,12.4,5.2,13.8C503.2,132.2,504,129.3,502.1,128.9L502.1,128.9z"/>
		</g>
	</g>
	<g>
		<g>
			<path class="st0" d="M85.7,283c13.6-1.8,26.5,5.2,40,3.5c5.5-0.7,10.6-3.1,15.7-5.2c2.4-1,4.9-1.9,7.5-2.5
				c4.9-1.1,9.3,0.2,14.1,1.2c13.4,2.9,28.4-0.3,41.8-2.2c6.6-0.9,13.1-1.9,19.7-3c7.5-1.3,15-3.3,22.5-4.1
				c7.9-0.8,17.2,2.7,14,12.4c-2.7,8.3-12.8,10.7-20.4,11.3c-13.2,1-26.3-2.8-39.5-0.3c-12.3,2.3-23.3,8.7-35.2,12.2
				c-6.6,2-13.2,2.8-20,1.9c-6.8-1-13.2-2.7-20.2-2.2c-14.2,0.9-29.3,9.2-43.5,5.9c-8.7-2-13.2-10-9-18.3c4.1-8,13.5-10.1,21.7-10.1
				c1.9,0,1.9-3,0-3c-11.5,0-25.1,5-26.3,18.2c-1.1,12.2,10.9,17.2,21.2,16.8c7.5-0.3,14.9-2.5,22.2-4.2c9.5-2.2,18.2-3,27.8-1.2
				c7.1,1.3,13.7,2,20.9,0.6c7.4-1.4,14.4-4.4,21.3-7.2c7-2.8,14.1-5.7,21.6-6.8c8.8-1.3,17.6,0.1,26.4,0.6
				c11.5,0.7,29.8,0.2,34-13.4c1.5-4.9,0.4-10.6-3.9-13.8c-4.2-3.1-9.9-2.9-14.8-2.3c-18,2.5-35.7,6.6-53.9,8.6
				c-10.2,1.1-20,2.4-30,0c-8.1-2-14.5-0.6-22.1,2.5c-4,1.6-7.9,3.4-12.1,4.2c-5.2,1-10.6,0.3-15.8-0.6c-8.5-1.6-16.8-3.8-25.4-2.7
				C83.8,280.2,83.8,283.2,85.7,283L85.7,283z"/>
		</g>
	</g>
	<g>
		<g>
			<path class="st0" d="M1304.2,401.9c-18.9,6.6-41-9-54.6-20.8c-0.2,0.8-0.4,1.7-0.7,2.5c9.6-3.9,19.7-4.1,29.9-3.5
				c10.1,0.5,20.2,1.2,30.3,1.5c21.5,0.6,43.1,0.1,64.5-1.5c11.1-0.8,22.1-1.9,33.1-3.2c5.4-0.7,11.9-2,17,0.5
				c7.1,3.6,6.5,11.4-0.3,14.4c-3.5,1.5-7.3,2-11,2.7c-5.8,1-11.6,2.1-17.4,3.1c-10.6,1.9-21.2,3.8-31.9,5.7
				c-6.1,1.1-12.2,2.2-18.3,3.3c-5.7,1-11.6,2.5-17.5,2.6c-10,0.1-17.5-8.7-27.5-7.6c-1.9,0.2-1.9,3.2,0,3
				c5.7-0.7,10.2,2.4,15.1,4.7c4,1.9,7.9,2.9,12.3,2.9c11.5-0.1,23.4-3.6,34.7-5.7c12.2-2.2,24.5-4.4,36.7-6.6
				c5.8-1,11.6-2.1,17.4-3.1c3.9-0.7,8-1.6,11.4-3.9c5.7-3.9,5.9-11.1,1.1-15.8c-7.5-7.4-20.4-3.5-29.5-2.5
				c-24.6,2.7-49.4,4.1-74.2,4c-13.6,0-27.2-0.5-40.8-1.4c-12.1-0.7-24.4-1.3-35.8,3.3c-0.9,0.4-1.6,1.7-0.7,2.5
				c14.4,12.5,37.4,28.6,57.5,21.6C1306.8,404.2,1306.1,401.3,1304.2,401.9L1304.2,401.9z"/>
		</g>
	</g>
	<g>
		<g>
			<path class="st0" d="M845.6,930.2c-0.9-5.7,7.2-4.8,10.4-3.7c2.5,0.8,4.9,1.8,7.5,2.1c6.2,0.8,12.3-1.3,18.1-3.2
				c5.6-1.9,11.5-4,17.5-3.4c7.2,0.7,13,6.6,11.9,14.2c-1.2,7.9-9.3,11.6-16.5,9.4c-4.9-1.5-9.2-4.6-14.3-5.4
				c-10.8-1.6-22.1,7.8-32.5,2.8c-1.7-0.8-3.3,1.7-1.5,2.6c6.2,3,12.4,1.6,18.7-0.2c4-1.1,8.2-2.5,12.4-2.4
				c4.9,0.1,8.9,2.5,13.2,4.3c6.1,2.6,12.5,3.1,17.9-1.3c4.6-3.7,6.6-9.6,5.2-15.3c-4.2-16.5-23.2-11.4-34.6-7.6
				c-5.4,1.8-11.1,3.5-16.9,2.3c-3.7-0.8-7.2-3.1-11.2-3c-4.8,0.1-9.1,3.6-8.3,8.6C843,932.9,845.9,932.1,845.6,930.2L845.6,930.2z"
				/>
		</g>
	</g>
	<g>
		<g>
			<path class="st0" d="M730.3,896.9c4.8-4.5,11.4-6.4,17.9-5c2.7,0.6,10.2,2.6,5.5,6.2c-2.5,1.9-8,1.7-11,1.7c-1.9,0-1.9,3,0,3
				c4.4,0,12.1-0.2,15.4-3.7c2.8-3-0.4-6.3-3.1-7.8c-8.6-5-19.7-3.1-26.8,3.5C726.8,896.1,728.9,898.2,730.3,896.9L730.3,896.9z"/>
		</g>
	</g>
	<g>
		<g>
			<path class="st0" d="M674.7,963.2c-0.8-0.3-1.5-0.6-2.3-0.9c-0.1,0.8-0.2,1.6-0.3,2.4c6.1-4.4,13-1.2,19.5,0.3
				c5.5,1.3,10.3,0.7,15.7-0.6c6.7-1.6,13.5-2.6,20.4-3c3.2-0.2,6.4-0.3,9.6-0.4c3-0.1,10.5-1.6,7.9,3.5c-3.1,6.1-12.1,6.3-17.6,4.5
				c-4.7-1.5-9.1-3.7-14.1-2.5c-5.2,1.2-9.6,4.5-15,5.6c-7.2,1.5-14.3,0.8-21.2-1.7c-1.8-0.6-2.6,2.2-0.8,2.9
				c6.8,2.4,13.9,3.2,21.1,2c8.1-1.4,15.3-7.7,23.7-5.4c6,1.7,10.9,4.4,17.3,2.5c4.1-1.2,9.9-4.8,10.7-9.4c1-5.4-5.7-5.2-9.2-5.1
				c-8.1,0.2-16.3,0.6-24.4,1.8c-4.4,0.7-8.6,1.9-12.9,2.7c-5.3,1-9.6,0-14.7-1.4c-6-1.7-12.2-2.7-17.6,1.1c-0.8,0.6-1,1.6-0.3,2.4
				c1.5,1.7,3.1,2.1,5.2,1.7C677.4,965.8,676.6,962.9,674.7,963.2L674.7,963.2z"/>
		</g>
	</g>
	<g>
		<g>
			<path class="st0" d="M1087.7,905.9c5.8-2.4,11.9-3.7,18.2-3.6c6.5,0.1,12,2.6,18.2,4c9.1,2.2,15.9-3.4,23.3-7.7
				c11.7-6.9,23.3-2.4,35.5,0.1c8.7,1.8,18,2.1,25.5-3.2c1.6-1.1,0.1-3.7-1.5-2.6c-9.4,6.8-21,3.5-31.3,1
				c-9.7-2.3-19.3-3.6-28.4,1.4c-4,2.2-7.7,5.1-11.9,7c-6.4,2.9-11.6,0.6-17.8-1.2c-10.1-2.9-20.8-2.1-30.5,1.9
				C1085.1,903.7,1085.9,906.6,1087.7,905.9L1087.7,905.9z"/>
		</g>
	</g>
</g>
<g id="girl_hand_l">
	<path class="st4" d="M392.4,413.5c8.9-3.4,24.5,14.9,32.2,26.9c11.8,18.1,13.7,33.9,19.5,70.5c2.2,14.2,5.8,36.7,10.7,65.1
		c8.8,8.6,12.1,17,13.4,22.2c1.8,6.7,2.3,15.3,0,16.1c-2.5,0.9-6.9-7.5-8.7-6.7c-2.4,1.1,5.4,14.6,0.7,20.8
		c-4.8,6.3-22.8,5.3-32.2-4c-8.8-8.7-5.3-19.8-6.7-46.3c-0.5-9-1.9-33.5-9.4-57.7c-9.2-29.5-18.8-31-24.2-57.1
		C383.9,444.9,382.8,417.2,392.4,413.5z"/>
	<path class="st5" d="M405.6,439.3c5.5-1.2,15.1,23.7,15.7,25.1c8.8,23,4.6,32.8,8.5,66.7c3.2,27.6,5,43.3,13.9,62.7
		c8.6,18.6,18.6,29.5,14.8,34.5c-3.8,5.1-18.7,0.2-30.4-4.5c-1.1-2.5-2.7-6.4-4-11.2c-3.3-11.7-3.1-21-3.1-25.5
		c0-2.5-0.1-31.5-5.8-56.8c-3.1-13.5-4.5-11.5-8.1-25.5C399.2,474.4,399.5,440.6,405.6,439.3z"/>
	<path class="st6" d="M419.1,487.7c1.1,10.4,2.5,25.9,3.1,44.8c0.9,29.1-0.5,53.3-1.3,53.3c-0.7,0,0.2-17.4-3.6-41.2
		c-2.5-15.8-6.2-28.6-9-37.1c1.9-1.9,4.2-4.5,6.3-8.1C417.2,494.8,418.5,490.6,419.1,487.7z"/>
</g>
<g id="girl_leg_l">
	<path class="st1" d="M412.2,842.4c-2.6,4.8-3,10,3,55.3c0.7,5.6,1.4,10.2,1.8,13.4c15.3,2.4,36.9,4.3,62.5,1.8
		c15.5-1.5,33.6-3.2,34.6-9.1c0.8-4.8-9.7-13.4-57.7-29.8c-2.2-16-4.5-32-6.7-48C421.6,827.9,414.3,838.7,412.2,842.4z"/>
	<path class="st4" d="M351.9,557.3c9.4,12.8,22.8,31.2,38.5,53.7c37.2,53.2,55.8,79.8,62.3,97.6c19.2,52.7,14.2,103.9,12.3,121.3
		c-1.1,10-2.5,18.2-3.6,23.8c-7.6,2.9-18.5,6.1-31.8,7.2c-11.9,1-22.1-0.1-29.6-1.4c-2.3-13.6-4.2-28.9-5.1-45.5
		c-1.3-24.7-0.1-46.8,2.2-65.7c-25.7-19.7-42.3-40-52.4-54.1c-27-38.1-34.2-71.1-38.5-92.3c-6.1-29.4-1.9-37.4,2-41.6
		C321.2,546.8,349.4,556.5,351.9,557.3z"/>
	<path class="st7" d="M354.8,641.7c10.3,8.7,23.7,21.6,36.7,39.3c3.6,5,18.5,26.3,31.6,60.5c18,47.4,19.5,91.6,18.7,116.6
		c-4.4,1.6-10.6,3.3-18,3.9c-9.9,0.7-18-1-23.2-2.6c-3.2-19.5-5.6-42-5.8-67c-0.1-16.2,0.6-31.3,1.9-45.1
		c-2.5-1.4-50.8-28.6-50.2-74.1C346.6,660.5,350.6,649.7,354.8,641.7z"/>
	<path class="st5" d="M367.7,718.3c2.2-3,29.7,5.4,40.6,25.8c8.2,15.3,1.6,27.1,1.9,48.9c0.2,16.3,4.4,39.5,22.5,67.6
		c-10.5-0.2-21-0.4-31.6-0.6c-2.9-18.6-5.2-39.8-5.8-63.1c-0.5-18.4,0.1-35.4,1.3-50.9c-3.9-2-8.9-5.1-14.2-9.7
		C376.5,731.1,366.1,720.5,367.7,718.3z"/>
</g>
<g id="girl_leg_r">
	<path class="st1" d="M235.5,834.5c-7.6,4.9-8.9,11.7-15.8,26.7c-4.8,10.4-12,24.3-23.1,40.1c6.3,7.1,16.8,17,32.2,24.3
		c21.1,10,50.7,14.8,55.3,6.1c4.9-9.4-20.8-31.7-28.5-38.3c2.1-4.7,5.5-12.2,9.7-21.3c11.1-23.8,13.3-27.3,11.5-31.6
		C272.6,830.3,249.3,825.7,235.5,834.5z"/>
	<path class="st4" d="M267.6,534.7c-6,16.5-12.1,33-18.1,49.4c-9.9,28.6-5.6,48.4-2.4,57.9c3.5,10.5,9.6,19.5,21.7,37.4
		c9.4,13.8,17.9,24.9,24.1,32.6c-12.4,12.9-26.5,29.6-39.8,50.6c-17.9,28.4-28.5,55.1-35,76c5.9,4.5,14.8,10.2,26.5,14.5
		c13.1,4.8,24.7,5.9,32.6,6c13.9-10.7,32.9-27.4,50.6-51.9c13.9-19.1,32.6-44.8,38.6-80.8c10.2-61.3-23.1-111.2-35-129
		C309.9,565.1,284.1,545.5,267.6,534.7z"/>
	<g>
		<g>
			<path class="st8" d="M309.7,570.7c7.7,10.7,15.3,21.5,22.6,32.4c0.9-0.5,1.7-1,2.6-1.5c-6.5-8.7-12.3-18-17.3-27.7
				c-0.7,0.7-1.4,1.4-2.1,2.1c4.1,2.8,6.4,7,8.9,11.1c2.9,4.8,5.9,9.6,8.8,14.4c5.7,9.3,11.4,18.7,17.1,28c0.9-0.5,1.7-1,2.6-1.5
				c-8.7-13.6-17.4-27.2-26.2-40.8c-1-1.6-3.6-0.1-2.6,1.5c10.8,18,21.7,35.9,32.5,53.9c1,1.7,3.6,0.2,2.6-1.5
				c-7.9-13.4-15.7-26.9-23.6-40.3c-0.8,0.6-1.6,1.2-2.4,1.8c11.3,12.5,13.3,30.7,25.6,42.4c1.4,1.3,3.5-0.8,2.1-2.1
				c-12.3-11.6-14.3-29.9-25.6-42.4c-1.2-1.3-3.2,0.4-2.4,1.8c7.9,13.4,15.7,26.9,23.6,40.3c0.9-0.5,1.7-1,2.6-1.5
				c-10.8-18-21.7-35.9-32.5-53.9c-0.9,0.5-1.7,1-2.6,1.5c8.7,13.6,17.4,27.2,26.2,40.8c1,1.6,3.6,0.1,2.6-1.5
				c-6.4-10.5-12.8-21-19.2-31.4c-4.7-7.8-9-17.9-16.8-23.2c-1.3-0.9-2.7,0.8-2.1,2.1c5,9.7,10.7,18.9,17.3,27.7
				c1.1,1.5,3.7,0.1,2.6-1.5c-7.3-11-14.8-21.8-22.6-32.4C311.2,567.6,308.6,569.1,309.7,570.7L309.7,570.7z"/>
		</g>
	</g>
	<path class="st9" d="M316,575.1c-5.2,7.5-12.4,19.9-15.5,36.2c-9.5,49.4,30.5,71.3,21.6,114.6c-4.7,22.8-16.6,20.7-43.2,68.1
		c-13.5,24.1-22.1,45.3-27.2,59.7c-6.5-2-13.6-4.6-21.1-8c-4.4-2-8.5-4-12.2-6.1c5.9-18.4,14.8-40.6,28.2-64.4
		c15.2-26.9,31.9-47.9,46-63.4c-3.9-5-9.7-12.6-16.4-22.1c-18.5-26.2-27.9-39.6-31-55c-3.5-17-0.6-31.5,1.4-41.3
		c3-14.8,8.1-26.4,12.2-34.3C277.8,564.4,296.9,569.8,316,575.1z"/>
	<path class="st6" d="M292.5,569c-11.3,12.9-26.1,34.1-24.9,59.7c1.8,40.1,41.4,55.4,35.7,88.3c-1.6,9.1-14.2,23.7-39.5,52.6
		c-13.9,15.9-25.7,28.6-33.8,37.1c6.2-15.2,15.2-33.4,28.2-52.6c11.5-17,23.3-30.6,33.8-41.3c-3.1-4.7-8.6-13.1-15.5-23.5
		c-24.1-36.2-28.8-41.9-31.5-54.5c-3.2-14.8-1.1-27.3,0.5-36.6c2.9-17.3,9-30.6,13.6-39C270.2,562.4,281.4,565.7,292.5,569z"/>
</g>
<g id="torso_girll">
	<path class="st2" d="M344.2,395c-14.2,8.4-41.2,26.9-61.8,60.9c-26.2,43.3-26.2,85.6-25.3,102c4.9,1.6,9.9,3.2,15,4.7
		c34.1,10.2,67.1,17.1,98.3,21.5c2.6-8.9,5.4-17.9,8.4-27.2c4.5-13.7,9.2-26.8,14-39.3c16.6-8.6,22.4-19.7,24.3-24.3
		c7.7-18,0.4-36.8-7.5-57.1c-4.4-11.4-6.7-17.2-12.2-23.4C380.2,393.3,351.8,394.5,344.2,395z"/>
	<path class="st10" d="M377.9,418.7c-27.3,3.6-41.9,16-47.8,21.8c-33.3,32.9-21.8,88.4-18.7,103.4c2.8,13.5,7,24.3,10.3,31.6
		c-21.1-5.7-42.1-11.5-63.2-17.2c-1.3-15.3-2.6-54.6,20.1-96.5c21.1-38.8,51.4-58.7,64.9-66.5c1.9,0.1,3.8,0.3,5.7,0.4
		c2.9,3.4,6.4,7,10.7,10.7C366.3,412,372.6,415.9,377.9,418.7z"/>
	<path class="st9" d="M290.4,443.8c-2.8,14.7-5.1,36-2.1,61.2c3.6,29.6,13.1,52.5,20.5,66.9c-17.2-4.4-34.5-8.8-51.7-13.1
		c-0.8-13.8-0.4-34.5,6.2-58.3C270.5,474.5,282.1,455.5,290.4,443.8z"/>
</g>
<g id="boy_leg_l">
	<path class="st1" d="M1135.8,774.2c-6.3,14.1-5.1,27.3-4.1,33.5c19.7,8.7,37.2,12.7,50.6,14.7c4.4,0.7,58.8,8.4,64.1-6.5
		c1.3-3.7-0.8-7.5-2.9-11.2c-11.7-20.5-41.3-21.7-45.3-21.8c-1.1-21.3-14.8-37.1-28.8-38.2C1149.6,743.2,1137.2,771.1,1135.8,774.2z
		"/>
	<path class="st4" d="M1161.8,430.2c13,18.7,30.5,47.8,43.2,86.4c20.7,62.9,17.3,115.7,15,145.6c-2,26.6-7.4,64.4-22.5,108
		c-4.1,2.6-22.2,13.4-45.1,8.5c-13.6-2.9-22.8-10.1-27.2-14.1c8.1-17.8,17.9-44.6,21.6-78c4.1-36.4-0.9-64.9-7.5-101.5
		c-15-82.7-35.7-114.1-17.8-137.2C1130.1,436.7,1144.8,431.7,1161.8,430.2z"/>
	<path class="st11" d="M1168.9,475.9c6.8,33.1,12.2,71.1,14.3,113.3c3.6,74.9-4.5,139.5-15,189.8c-4.5,0.6-15.4,1.3-27-4.5
		c-6.9-3.5-11.6-8.1-14.3-11.3c12.5-28.8,17-53.3,18.8-69.8c2.8-25.9,0.5-46.7-3.8-85.5c-2.5-22.7-5.4-41.3-7.5-54
		C1145.9,528,1157.4,501.9,1168.9,475.9z"/>
	<path class="st12" d="M1147,525.7c8.6,22.4,21.5,65.1,17.1,119.4c-4.2,52.3-22.6,91.2-34.3,111.8c19.6-56.6,20.6-91.3,17.6-112.8
		c-0.8-5.5-4.2-27.3-8.1-59.4c-1.6-13.3-2.8-24.2-3.5-31.2C1139.6,544.2,1143.3,534.9,1147,525.7z"/>
</g>
<g id="boy_leg_r">
	<path class="st1" d="M991.1,730.9c-8.3,4.1-10.8,10.8-22.2,32.5c-7.6,14.4-14,25.9-18.2,33.3c12.8,9.2,33.1,21.3,60.2,27.7
		c16,3.8,49.3,9.1,53.1,0c4.2-10.1-30-33.4-44.4-42.8c14.8-14.4,15.5-35.3,5.5-46C1016.6,726.5,1001.2,725.9,991.1,730.9z"/>
	<path class="st4" d="M1136.1,428.1c33,29.1-5.6,126.1-37.3,203.7c-13.7,33.5-35.1,82-66.6,138.7c-5.5,0.8-22,2.4-39.6-7.1
		c-17.7-9.5-25.4-24.4-27.7-29.3c9.2-15.9,20.3-37.3,30.9-63.4c4.2-10.3,22.3-56.3,32.5-121.3c4-25.7,7.6-59.6,7.1-99.9
		c5.9-6,38.8-38.3,77.7-30.9C1119,419.7,1128.7,421.6,1136.1,428.1z"/>
	<path class="st13" d="M719.2,712.7"/>
	<g>
		<g>
			<path class="st8" d="M1146.8,468.1c-0.1,3.5-0.2,7-0.2,10.5c1,0,2,0,3,0c-0.5-5.6-0.2-10.9,0.9-16.4c-1-0.1-2-0.3-2.9-0.4
				c0.6,11.8-2.1,24.2-4.2,35.8c-2.1,11.7-4.9,23.3-8.2,34.7c1,0.3,1.9,0.5,2.9,0.8c5.5-20.8,10.1-41.7,13.9-62.9
				c0.3-1.9-2.6-2.7-2.9-0.8c-3.8,21.1-8.4,42.1-13.9,62.9c-0.5,1.9,2.4,2.7,2.9,0.8c3.5-12,6.3-24.3,8.5-36.6
				c2-11.2,4.6-23.3,4-34.7c-0.1-1.6-2.6-2.1-2.9-0.4c-1.2,5.7-1.5,11.4-1,17.2c0.2,1.9,3,2,3,0c0.1-3.5,0.2-7,0.2-10.5
				C1149.9,466.2,1146.9,466.2,1146.8,468.1L1146.8,468.1z"/>
		</g>
	</g>
	<g>
		<g>
			<path class="st8" d="M1134.1,526c0.1,7.7,0.3,15.4,0.4,23.1c0,1.9,3,1.9,3,0c-0.1-7.7-0.3-15.4-0.4-23.1
				C1137,524,1134,524,1134.1,526L1134.1,526z"/>
		</g>
	</g>
	<path class="st7" d="M1092.5,459.2c0.3,20.1-0.8,47.5-6.7,79.3c-6.3,33.7-15.9,59.8-29.9,99.1c-11.4,32.2-16.9,41.8-28.5,77.5
		c-7.1,21.7-12.1,39.9-15.3,52.1c-5.5-0.7-16.9-3-28.3-11.5c-10.6-7.9-16-17.3-18.4-22.2c18.4-32.3,30.1-60.6,37.5-81.2
		c22.9-63.7,28.3-119.1,31.4-153.2c1.3-14.2,2-26,2.3-33.7C1055.2,463.3,1073.9,461.3,1092.5,459.2z"/>
	<path class="st14" d="M1082.2,462.1c-7.8,34.3-16.8,61.3-23.9,80.2c-5.8,15.6-14.7,36.6-32.4,78.5c-6.5,15.5-9.8,23.2-11.4,26.7
		c-9.8,22-25.5,52.9-50.6,89.3c22.5-40.4,48.3-98,62-170.6c6.9-36.6,9.4-70,9.7-98.9C1035.5,467.2,1035.5,467.2,1082.2,462.1z"/>
</g>
<g id="boy_torso">
	<path class="st3" d="M1113.8,216.2c1.6,3.9,4.4,9.6,9.5,15.4c3.7,4.2,8.4,9.6,15.4,11.7c13.6,4.2,26.8-6.6,28.6-8.1
		c13.2,7.8,26.4,15.6,39.5,23.4c1.2,16.3,1.3,40.9-5.1,69.6c-6.1,27.3-12,30.6-16.8,57.1c-7.3,39.8-1.9,75.3-3.7,75.4
		c-0.3,0-0.7-0.8-1.5-5.1c-51.5,3.9-103,7.8-154.5,11.7c-1.5-30.9-1.3-56.9-0.7-76.1c0.8-30,3.2-66.3,13.2-108.4
		c7.1-30.1,12.7-40.3,21.2-48.3C1077.3,217,1102.5,215.9,1113.8,216.2z"/>
	<path class="st15" d="M1173.4,238.8c-1.7,18.3-4.9,45.5-11,78.1c-1.8,9.8-6.9,36.8-11,50c-5,16.2-24.5,62.5-119.9,100.1
		c29.1-3.4,59.1-6.4,89.8-8.9c19.2-1.6,38.2-3,56.9-4.1c6.6-23.5,12.7-50.1,17.1-79.5c6.7-44.5,8-84.7,6.9-118.6
		C1192.6,250.2,1183,244.5,1173.4,238.8z"/>
</g>
<g id="boy_head">
	<path class="st4" d="M1132.2,156c-3.5,17.9-5.1,37.7-19.6,59.6c-2,3-3.7,5.3-4.9,6.8c1.2,2.4,13.9,27,40.9,30.7
		c15.4,2.1,27.5-3.8,32.1-6.3c-0.7-6-1.1-13.2-0.5-21.3c0.8-11.9,3.3-21.8,5.8-29.3c11.6-1.5,23.1-3,34.7-4.5
		c2.3-5.1,4.5-10.2,6.8-15.4c3.2-0.1,6.3-0.2,9.5-0.3c-2.4-7-6-18.1-10.2-31.8c-7.8-25.8-7.7-29.5-11.9-35.3
		c-11.6-15.9-37.6-26-54.7-17.5C1143.7,99.5,1138.7,122.6,1132.2,156z"/>
	<g>
		<g>
			<path class="st1" d="M1236.5,174.6c-5.7,0.1-11.3-0.3-16.9-1.1c-1.9-0.3-2.7,2.6-0.8,2.9c5.9,0.9,11.7,1.3,17.7,1.2
				C1238.5,177.6,1238.5,174.6,1236.5,174.6L1236.5,174.6z"/>
		</g>
	</g>
	<g>
		<g>
			<path class="st1" d="M1240.5,128.7c-5.1-2.8-11.2-1.2-14.5,3.5c-1.1,1.6,1.5,3.1,2.6,1.5c2.3-3.3,6.9-4.3,10.4-2.4
				C1240.7,132.2,1242.2,129.6,1240.5,128.7L1240.5,128.7z"/>
		</g>
	</g>
	<g>
		<g>
			<path class="st1" d="M1237.9,146.7c0.5-2.3,0.4-4.6-0.7-6.7c-0.8-1.5-2.5-3.3-4.4-2.5c-2,0.8-1.9,3.6-1.5,5.3
				c0.4,2.1,1.5,4,3.1,5.4c0.9,0.8,2.6,0.3,2.6-1.1c0-2.5-0.6-4.7-1.7-7c-0.8-1.7-3.4-0.2-2.6,1.5s1.2,3.5,1.3,5.4
				c0.9-0.4,1.7-0.7,2.6-1.1c-1.7-1.4-2.3-3.2-2.4-5.3c0.1-0.2,0-0.4-0.3-0.4c0.2,0.1,0.4,0.3,0.5,0.5c0.3,0.4,0.6,1,0.7,1.5
				c0.4,1.2,0.4,2.3,0.1,3.5C1234.5,147.8,1237.4,148.6,1237.9,146.7L1237.9,146.7z"/>
		</g>
	</g>
	<g>
		<g>
			<path class="st1" d="M1211.5,132.7c-5.8-1.9-11.9,0.5-15.3,5.5c-1.1,1.6,1.5,3.1,2.6,1.5c2.6-3.9,7.4-5.5,11.9-4.1
				C1212.5,136.1,1213.3,133.3,1211.5,132.7L1211.5,132.7z"/>
		</g>
	</g>
	<g>
		<g>
			<path class="st1" d="M1213.1,149.4c0.2-2.7-0.9-6.9-3.7-8c-3.7-1.5-3.7,3.7-3.3,5.9c0.5,2.2,2.3,6.3,5.3,4.6c1.2-0.7,1.4-2,1-3.2
				c-0.7-1.9-1.8-3.6-2.6-5.4c-0.8,0.6-1.6,1.2-2.4,1.8c0.4,0.4,0.7,0.8,0.8,1.4c0.5,1.9,3.4,1.1,2.9-0.8c-0.3-1.1-0.8-1.9-1.6-2.7
				c-1.3-1.2-3.1,0.3-2.4,1.8c0.4,0.7,0.7,1.4,1.1,2.2c0.3,0.6,0.6,1.7,1.1,2.2c0.2,0.7,0.4,0.7,0.7,0c-0.1-0.2-0.3-0.5-0.4-0.7
				c-0.3-0.6-0.5-1.2-0.6-1.9c-0.1-0.6,0-1.4-0.2-2c0.1-0.4,0-0.5-0.1,0c0.2,0.3,0.5,0.6,0.6,0.9c0.7,1.2,0.9,2.6,0.8,4
				C1209.9,151.3,1212.9,151.3,1213.1,149.4L1213.1,149.4z"/>
		</g>
	</g>
	<path class="st2" d="M1218.9,115.3c-0.8-5.3-2.9-13.9-8.5-22.8c-2-3.1-6.3-9.8-13.1-14.3c-13-8.6-33-7.9-47.6,2.6
		c-14.2,10.3-21.3,28.8-18.2,47.1C1160.7,123.7,1189.8,119.5,1218.9,115.3z"/>
	<g>
		<g>
			<path class="st1" d="M1266.7,105.7c-44.9,5.7-89.7,11.4-134.6,17.1c-5.7,0.7-5.7,9.7,0,9c44.9-5.7,89.7-11.4,134.6-17.1
				C1272.3,114,1272.4,105,1266.7,105.7L1266.7,105.7z"/>
		</g>
	</g>
	<path class="st16" d="M1160.6,126.7c7.9,2.9,12.5,8.4,17.9,15c11.3,13.8,7.9,18.9,15.9,27.5c12.6,13.7,25.4,5.6,36.7,19
		c9.6,11.4,8.3,26.8,7.9,30.2c-0.4,3.4-2.1,17.1-13.2,26.5c-9.6,8.1-22.7,10-23.5,8.2c-0.3-0.7,0.8-2.3,7.9-7.1
		c-2.1,1.5-5.3,3.3-9.6,4.1c-4.9,0.9-9.5,0-9.6-0.7c0-0.5,2.6-0.5,4.6-2.7c1.2-1.3,1.7-2.8,2-4.1c-3.9,2.6-8.9,4.8-13.6,3.4
		c-12.8-3.9-15.1-32.6-15.9-42.1c-2.4-30.8,6.4-47.6-4.3-58.4c-0.9-0.9-5.2-5.3-9.9-4.4c-6,1.1-10.6,10.5-8.6,16.7
		c1.7,5.3,7.7,6.8,7.3,7.8c-0.6,1.3-10.7-0.7-19.2-7.5c-3.1-2.5-5.6-4.5-6.9-8.2c-2.3-6.4,0.4-13.7,4-18
		C1138,122.9,1152,123.5,1160.6,126.7z"/>
	<path class="st12" d="M1148.7,166.4c1.9,0.2,4.6,0.3,4.8-0.4c0.1-0.3-0.6-0.8-0.6-0.8s2.3,2.9,5.1,3.3c1.4,0.2,2.5-0.3,3.3-0.7
		c-5.1,10.7-10.3,23.7-14.6,38.7c-4.5,15.5-7,29.7-8.3,41.8c-4.4-1.4-12.4-4.6-19.8-11.8c-5.4-5.2-8.5-10.7-10.3-14.4
		c6-9,9.5-16.9,11.6-22.3c1.9-5,2.6-8.3,6-19.7c2.8-9.2,5-16.8,6.5-22c0.8,0.7,2,1.8,3.6,2.9
		C1138.3,162.6,1142.8,165.7,1148.7,166.4z"/>
	<path class="st17" d="M1181,72.8c-11.7,2.3-20.4,11.7-21.7,22.8c-1.6,13.2,8.1,22.2,9,23c-12.4,1.5-24.8,3.1-37.2,4.6
		c-0.2-2.9-0.3-6.9,0.4-11.5c2.4-14.8,11-23.9,12.8-25.8c2.9-3,13.1-12.7,28.2-13.6C1176,72.1,1178.9,72.5,1181,72.8z"/>
</g>
<g id="boy_hand_l">
	<path class="st4" d="M1203.8,257.6c8-1.2,16.2,12.7,20,19.1c22,37.4,12.8,80.6,10,93.2c-2.2,9.9-6.3,27.4-19.1,46.7
		c-12.2,18.6-26.6,30.1-35.8,36.4c-15.4,5.9-43.4,14-77.1,8.5c-11.7-1.9-21.9-5.1-30.4-8.5c-14.4,0.9-28.8,1.7-43.2,2.6
		c-2.3-0.4-5.5-1-9.3-2.4c-4.6-1.7-9-3.4-9-5c0-1.8,5-4.6,29.4-8.4c-1.2,0.2-17.2,3.3-27.9-7.9c-10-10.4-10.6-28.2-3-35.2
		c6.4-5.9,16.8-3.3,35.8,1.8c18.8,5,33.9,11.8,44.9,17.6c4.2,1.9,36.9,16,66.8-1.2c22.8-13.1,30.4-36.6,32.2-43.1
		c7.2-25.8-5.9-34.9-1.2-72.2C1187.5,293.2,1191.8,259.3,1203.8,257.6z"/>
	<g>
		<g>
			<path class="st1" d="M1004.6,419c11.6,0.9,22.7,3.7,33.3,8.5c1.7,0.8,3.3-1.8,1.5-2.6c-11.1-5.1-22.7-8.1-34.8-9
				C1002.7,415.9,1002.7,418.9,1004.6,419L1004.6,419z"/>
		</g>
	</g>
	<g>
		<g>
			<path class="st1" d="M1003.9,406.8c13.3-0.4,24.6,7.7,37,11.5c1.8,0.6,2.6-2.3,0.8-2.9c-12.6-3.9-24.1-12-37.8-11.6
				C1002,403.9,1001.9,406.9,1003.9,406.8L1003.9,406.8z"/>
		</g>
	</g>
	<g>
		<g>
			<path class="st1" d="M1016.7,396.2c10.9,0.9,20.5,6.1,29.9,11.4c1.7,0.9,3.2-1.6,1.5-2.6c-9.9-5.5-19.9-10.8-31.4-11.8
				C1014.7,393,1014.7,396,1016.7,396.2L1016.7,396.2z"/>
		</g>
	</g>
	<path class="st18" d="M1191.6,276c-5.9,23.7,9.8,39.7,15.1,66.8c0.9,4.8,8,43.7-12.8,71.3c-23.2,30.8-69.2,31.9-78.2,32.2
		c-23.5,0.6-32.4-6.3-69.2-4.4c-3.5,0.2-35.5,2-35.8,6.5c-0.1,2.4,8.8,5.1,15.5,6c8.8,1.2,13.4-0.8,24.6-1.7
		c4.8-0.4,11.7-0.7,20.2,0c10.2,4.2,23.4,8.3,39.2,9.9c4.3,0.4,17.7,1.6,34.9-0.9c0,0,14.4-2,25.8-6c28.3-9.8,56.3-51.1,64.2-96.1
		c8.9-50.7-10.9-88.9-22-97.4c-1.5-1.2-5.8-4.5-10.3-3.4C1195.5,260.4,1192.5,272.3,1191.6,276z"/>
	<path class="st6" d="M1233.8,306.1c-1.6,0-1.6,19.1-6,43.1c-2.7,14.6-8.2,44.3-21.5,65c-23.7,36.9-72.1,45.2-90.5,47.4
		c15.8,2.2,40.1,2.7,63.8-9.9c51.4-27.4,56.4-93.5,57.3-105.5C1238.3,326,1235.4,306.1,1233.8,306.1z"/>
</g>
<g id="magnifying_glass">
	<path class="st1" d="M370.3,684.5c41.4-36.8,83-73.4,124.8-109.7c78.8-68.5,158.3-136.1,238.6-202.9c-6.3-18.7-14.4-51.1-9.6-90.5
		c1.5-12.5,14.3-104.6,98.7-152.2c7-4,103.9-56.4,194.7,1.4c59.9,38.1,90.9,107.6,83.6,175.5c-10.8,100.9-100.4,145.6-105.6,148.1
		c-64.6,30.8-142.3,21.7-200.2-23.3c-87,71.6-173.8,143.3-260.5,215.2c-38,31.5-75.9,63-113.8,94.6c-7.9-3.8-21-11.4-32.8-25.3
		C378.3,703.8,373.1,692.2,370.3,684.5z"/>
	<ellipse class="st4" cx="914.6" cy="289.3" rx="158.6" ry="152"/>
	<g>
		<g>
			<path class="st0" d="M927.5,145.7c-29,61.4-59.5,122.2-91.4,182.2c-9,16.9-18.1,33.8-27.3,50.6c-0.9,1.7,1.7,3.2,2.6,1.5
				c32.7-59.6,64-119.9,93.8-181c8.4-17.2,16.7-34.5,25-51.9C931,145.5,928.4,144,927.5,145.7L927.5,145.7z"/>
		</g>
	</g>
	<g>
		<g>
			<path class="st0" d="M976.4,160.6c-31.8,50.2-62,101.3-90.7,153.3c-0.9,1.7,1.7,3.2,2.6,1.5c28.7-52,58.9-103.1,90.7-153.3
				C980,160.5,977.4,159,976.4,160.6L976.4,160.6z"/>
		</g>
	</g>
	<g>
		<g>
			<path class="st0" d="M880.4,331.5c-13.2,25.7-27.3,51-42.4,75.7c-1,1.7,1.6,3.2,2.6,1.5c15-24.7,29.2-50,42.4-75.7
				C883.9,331.3,881.3,329.7,880.4,331.5L880.4,331.5z"/>
		</g>
	</g>
	<g>
		<g>
			<path class="st0" d="M935.9,256.5c-16.8,31.6-33.5,63.2-50.3,94.8c-0.9,1.7,1.7,3.2,2.6,1.5c16.8-31.6,33.5-63.2,50.3-94.8
				C939.4,256.3,936.8,254.8,935.9,256.5L935.9,256.5z"/>
		</g>
	</g>
	<path class="st19" d="M909.9,136.8c-11.1,4-84.2,31.4-107.6,104.8c-2.7,8.5-11.1,35.9-4.8,67.6C809.6,369.6,870,418.5,949,434.9
		c-6,2-14.4,4.4-24.8,5.7c-62.8,7.9-111.5-34.9-117.2-40c-12.4-11.3-50.7-49.7-51.4-110.5c-0.1-5.3,0.2-65.3,45.7-108.6
		c26.5-25.2,57.5-34.4,70.5-38.1C887,139.1,900.3,137.5,909.9,136.8z"/>
</g>
<g id="grl_hand_r">
	<path class="st4" d="M324.7,445.3c7.2-0.9,18-1,25.9,5.4c17,13.8,3.9,43.8,12.3,75.5c4.5,17,16.4,39.9,51,62.6
		c13.7,6.9,25.1,12.1,33,15.7c11.3,5.1,18.5,8,18.4,11.9s-7.2,6.8-12.3,8.5c6.1,5.7,9.2,12.9,7.1,18.4c-1.6,4.3-6,6.4-10.9,8.8
		c-5.6,2.8-10.3,3.4-15.7,4.1c-10.1,1.3-15.1,1.9-19.7,0c-7.1-3-10.3-9.6-15-19.1c-2.6-5.2-5.8-13.3-7.5-23.8
		c-11.3-5.2-27.5-14.2-43.6-29.3c-6.3-5.9-64.7-61.9-46.3-110.3C304.2,466.9,310.1,455.9,324.7,445.3z"/>
	<g>
		<g>
			<path class="st1" d="M414.1,643.8c2.5,5.5,6.3,10.1,11.2,13.8c1.5,1.2,3-1.4,1.5-2.6c-4.4-3.3-7.8-7.7-10.1-12.7
				C415.9,640.6,413.3,642.1,414.1,643.8L414.1,643.8z"/>
		</g>
	</g>
	<g>
		<g>
			<path class="st1" d="M426.1,642.2c3,5.8,7.5,10.6,13,14.2c1.6,1,3.1-1.6,1.5-2.6c-5.1-3.2-9.2-7.7-12-13.1
				C427.8,639,425.2,640.5,426.1,642.2L426.1,642.2z"/>
		</g>
	</g>
	<g>
		<g>
			<path class="st1" d="M438.7,635.4c2.8,5.9,7.6,10.6,13.5,13.4c1.7,0.8,3.3-1.8,1.5-2.6c-5.5-2.6-9.8-6.8-12.4-12.3
				C440.4,632.1,437.9,633.6,438.7,635.4L438.7,635.4z"/>
		</g>
	</g>
	<path class="st9" d="M327.2,445.5c-2.2,9.9-4.6,25.5-2.5,44.3c5.5,47.6,36.3,79,41.4,84.1c25.4,25.2,42,21.8,52.1,44.3
		c2.7,6,7.5,19.6,20.5,26.7c5.1,2.7,9.9,3.7,13.1,4.1c-1.7,1.4-4.5,3.3-8.2,4.9c-6.2,2.7-11.6,2.8-20.1,2.9
		c-6.3,0.1-9.5,0.1-12.3-1.2c-5.9-2.7-8.7-8.3-9.8-11.1c-4-10.8-7.9-21.6-11.9-32.4c-19.5-10-47.1-27.8-68.9-58.3
		c-9.1-12.7-24.3-34.5-23-60.7c0.6-11.9,4.4-20.2,5.3-22.2C310,456.2,321.8,448.6,327.2,445.5z"/>
	<path class="st20" d="M298.9,499.2c0.6-0.2,4.4,11.8,11.9,25.8c18.3,34.6,44.7,55.8,63.6,70.6c8.6,6.7,15.9,11.7,20.5,14.8
		c5.6,9.4,8.8,17.5,10.7,23.4c1.6,4.9,2.5,9.3,6.2,13.9c3.8,5,8.7,7.8,12.3,9.4c-2.7,0.1-6.8-0.1-11.1-2.1
		c-8.2-3.8-11.8-11.7-15.6-20.1c-2.2-4.8-4.8-12-6.2-21.3c-52.2-26.4-71.8-59.7-79.2-75.5C304.4,521.9,298.1,499.6,298.9,499.2z"/>
</g>
<g id="girl_head">
	<path class="st4" d="M381.7,354c-7.1,2.8-2.9,16.8-14.3,29.5c-5.6,6.3-12.4,9.3-17.1,11c3,4.5,8.9,11.8,18.6,17.6
		c6.9,4.2,13.5,6.2,18.1,7.1c1.5-2.7,4-6.9,7.1-11.9c11.1-17.5,15.1-19.4,15.7-25.2C411.3,367.9,390.8,350.4,381.7,354z"/>
	<g>
		<g>
			<path class="st1" d="M380.4,381c4.1,8.2,8.4,16.3,15.2,22.6c1.4,1.3,3.5-0.8,2.1-2.1c-6.6-6.1-10.7-14.1-14.7-22
				C382.1,377.8,379.5,379.3,380.4,381L380.4,381z"/>
		</g>
	</g>
	<g>
		<g>
			<path class="st1" d="M377.4,375.6c4.6,9,9.6,17.9,18.4,23.4c1.5,0.9,3-1.1,1.8-2.4c-2.9-3.1-5.9-6.2-8.7-9.3
				c-0.7,0.7-1.4,1.4-2.1,2.1c1.7,1.8,3.5,3.5,5.5,4.9c0.7,0.5,2.9,1.5,3.3,2.1c0.6,1,0,2.6-0.3,3.6c1,0.3,1.9,0.5,2.9,0.8
				c0.1-0.5,0.1-1,0.2-1.4c0.2-1.3-1.4-2.7-2.5-1.5c0-1.1-0.3-2.2-1-3.1c-0.9,0.5-1.7,1-2.6,1.5c1.1,1.5,2.2,3,3.3,4.5
				c0.8-0.6,1.6-1.2,2.4-1.8c-0.9-1-1.6-2-2.3-3.1c-0.9-1.3-3.4-0.5-2.7,1.2c0.6,1.3,0.8,1.8,1.7,2.9c1.2,1.5,3.3-0.6,2.1-2.1
				c-0.3-0.5-0.6-1-0.9-1.6c-0.9,0.4-1.8,0.8-2.7,1.2c0.9,1.3,1.8,2.5,2.8,3.7c1.1,1.3,3.4-0.4,2.4-1.8c-1.1-1.5-2.2-3-3.3-4.5
				c-1.1-1.6-3.4-0.2-2.6,1.5c1,2,3,6.7,5.7,3.7c-0.8-0.5-1.7-1-2.5-1.5c-0.1,0.5-0.1,1-0.2,1.4c-0.3,1.9,2.4,2.7,2.9,0.8
				c0.7-2.4,2.4-3.5,0.4-5.9c-0.9-1.1-2.4-1.6-3.5-2.3c-2.3-1.5-4.3-3.3-6.2-5.3c-1.3-1.4-3.4,0.7-2.1,2.1c2.9,3.1,5.8,6.2,8.7,9.3
				c0.6-0.8,1.2-1.6,1.8-2.4c-8.3-5.2-12.9-13.8-17.3-22.3C379.1,372.3,376.5,373.9,377.4,375.6L377.4,375.6z"/>
		</g>
	</g>
	<path class="st4" d="M473.7,327.5c-2,8.9-6.1,22.1-15.5,35.7c-16.5,23.9-38.9,34-48.5,37.7c-5.5-2.1-12.7-5.8-19.5-12.1
		c-18.6-17.3-20-41-20.2-47.1c-2-0.5-4.9-1.6-7.4-4c-6.4-6.2-7.9-18.5-2-23.6c6.7-5.8,19.5,1.3,20.9,2c3.1,1.7,5.3,3.8,6.7,5.4
		c5.5-16.6,18.7-29.1,34.4-31.7C444,286.3,467.4,301.9,473.7,327.5z"/>
	<g>
		<g>
			<path class="st1" d="M449.5,351.4c-4,9-9.9,16.7-17.5,23c-1.5,1.2,0.6,3.3,2.1,2.1c7.9-6.4,13.9-14.3,18-23.6
				C452.9,351.1,450.3,349.6,449.5,351.4L449.5,351.4z"/>
		</g>
	</g>
	<g>
		<g>
			<path class="st1" d="M428.2,367.7c-0.4,3.4,0.8,6.7,3.1,9.2c1.3,1.4,3.4-0.7,2.1-2.1c-1.8-2-2.5-4.4-2.2-7.1
				C431.4,365.8,428.4,365.8,428.2,367.7L428.2,367.7z"/>
		</g>
	</g>
	<g>
		<g>
			<path class="st1" d="M422.1,350.6c2.6-3.6,5.7-6.8,9.2-9.7c-0.8-0.5-1.7-1-2.5-1.5c-1.3,4-4.1,7.2-7.8,9.2
				c0.6,0.8,1.2,1.6,1.8,2.4c2.3-2.8,4.6-5.5,6.9-8.3c1.2-1.5-0.9-3.6-2.1-2.1c-2.3,2.8-4.6,5.5-6.9,8.3c-1.1,1.3,0.3,3.2,1.8,2.4
				c4.4-2.4,7.6-6.3,9.2-11c0.5-1.6-1.4-2.3-2.5-1.5c-3.7,3-6.9,6.4-9.6,10.3C418.4,350.7,421,352.2,422.1,350.6L422.1,350.6z"/>
		</g>
	</g>
	<g>
		<g>
			<path class="st1" d="M455.3,359.4c1.3-2.2,3-4.1,4.9-5.8c-0.8-0.5-1.7-1-2.5-1.5c-0.9,3-2.7,5.7-5.3,7.6c0.7,0.6,1.5,1.1,2.2,1.7
				c0.6-1.6,1.5-3.1,2.6-4.4c1.2-1.5-0.9-3.6-2.1-2.1c-1.4,1.8-2.5,3.6-3.3,5.7c-0.5,1.2,1.2,2.5,2.2,1.7c3.2-2.4,5.5-5.5,6.6-9.3
				c0.5-1.5-1.4-2.4-2.5-1.5c-2.1,1.8-3.9,4-5.4,6.4C451.6,359.5,454.2,361,455.3,359.4L455.3,359.4z"/>
		</g>
	</g>
	<g>
		<g>
			<path class="st1" d="M411.8,343.2c1.5,3.5,2.3,7.1,2.3,10.8c0,1,1.5,1,1.5,0c0-4-0.9-7.9-2.5-11.6
				C412.7,341.5,411.4,342.3,411.8,343.2L411.8,343.2z"/>
		</g>
	</g>
	<g>
		<g>
			<path class="st1" d="M407.6,340.6c1,1.6,1.7,3.2,2.3,4.9c0.3,0.9,1.7,0.5,1.4-0.4c-0.6-1.9-1.4-3.6-2.4-5.3
				C408.4,339,407.1,339.8,407.6,340.6L407.6,340.6z"/>
		</g>
	</g>
	<g>
		<g>
			<path class="st1" d="M430.7,332.4c3.7-1.1,7.2,1.4,7.3,5.3c0,1.4,2.3,1.5,2.3,0c-0.2-5.3-5-8.9-10.2-7.5
				C428.7,330.6,429.3,332.8,430.7,332.4L430.7,332.4z"/>
		</g>
	</g>
	<g>
		<g>
			<path class="st1" d="M457.5,347.1c1.6-1,3.5-1.1,5.2-0.1c1.2,0.8,2.4-1.2,1.1-1.9c-2.3-1.4-5.2-1.4-7.4,0.1
				C455.2,346,456.3,347.9,457.5,347.1L457.5,347.1z"/>
		</g>
	</g>
	<g>
		<g>
			<path class="st1" d="M408.7,372.8c2.4,4.3,6.5,7.4,11.3,8.7c1.9,0.5,2.7-2.4,0.8-2.9c-4.1-1.1-7.4-3.6-9.5-7.3
				C410.3,369.6,407.7,371.1,408.7,372.8L408.7,372.8z"/>
		</g>
	</g>
	<path class="st3" d="M388.1,325.5c2.2-3.8,7.5-11.9,17.7-17.5c7-3.9,13.6-5,17.6-5.4c2.2,2.9,5.8,6.7,11.1,9.1
		c12.5,5.7,22.6-1.8,30,3.2c3.9,2.6,7.8,8.9,6.3,26.1c6.6,6.8,11,7.2,13.4,6.7c10-2,17.2-24.5,10.9-40.9c-1.9-4.9-4.4-7.7-25.6-24.6
		c-29.9-23.8-33.6-25.2-37.5-26.1c-20.6-4.8-38.8,5.6-41.9,7.4c-4,2.3-4.9,3.4-27.8,27.5c-17.8,18.7-19.5,20.4-21.1,25
		c-4.2,11.6-3.4,28.4,7.3,40.7c10.1,11.5,23.7,13.2,27.2,13.6c-1.5-3.4-3.1-8.2-3.9-14.1c-1-7.6,0-13.9,0.9-18
		c-0.7-0.5-4.7-3.8-5-9.4c-0.2-4.1,1.7-9.3,6.1-11C378.7,315.9,385.4,318.8,388.1,325.5z"/>
	<path class="st3" d="M383.8,275.2c-4.1-8.1-16.1-9.3-18.2-9.5c-16.7-1.7-30.1,13.2-38,21.9c-14,15.5-10,20.1-23.6,38.8
		c-18,24.8-31.5,25.9-34.3,43c-0.2,1.3-2.7,18.5,8.7,28.9c9.8,9,25.6,9.1,36,3.7c14.1-7.3,12.9-22,23.1-46.7
		C357.5,307.1,391.7,290.8,383.8,275.2z"/>
	<path class="st21" d="M399.9,311.6c-3.2,8-7,20.7-6.8,36.6c0.3,25.4,10.7,44,15.9,52c-5.7-2.4-15.2-7.5-23.5-17.5
		c-3.4-4.1-11.4-13.8-13.5-28.7c-1-6.7-0.4-12.3,0.2-16.1c-0.6-0.5-4.7-4.2-4.5-10c0.1-3.8,2.1-8.9,6.4-10.4
		c4.8-1.7,11.4,1.4,14,8.1c1-2,2.4-4.5,4.5-7.1C395.2,315.4,397.8,313.2,399.9,311.6z"/>
	<path class="st22" d="M382.3,384.8c-0.8,1.8-1.7,3.6-2.8,5.4c-5,8.4-11.5,14-16.6,17.4c-1.8-1.1-4.2-2.8-6.6-5.4
		c-2.6-2.8-4.2-5.6-5.1-7.6c3.9-1.2,13.6-4.9,20.2-14.6c2.3-3.5,3.7-6.9,4.5-9.7C378,375.2,380.1,380,382.3,384.8z"/>
	<path class="st18" d="M373.5,336.2c0.5,6.9,1.8,15.9,5.2,26c4.7,13.7,11.5,23.8,16.7,30.2c-5.2-4.2-11.4-10.5-16.4-19.3
		c-3.3-5.9-8.2-14.4-7.6-26C371.6,342.6,372.6,338.8,373.5,336.2z"/>
	<path class="st23" d="M388.8,266c-4.2,4.1-30.4,30.5-26.8,68c1.5,16,7.9,28.1,12.5,35.2c-3.2-0.2-9.4-0.9-16.1-4.8
		c-6.7-3.9-10.5-9-12.2-11.6c-1.3-2.1-2.9-5.5-3.9-9.8c0,0-1.8-8.4,1.5-18.8C347.3,312.8,363.1,290.6,388.8,266z"/>
	<path class="st24" d="M334.7,282.2c2.3,1.5-10.4,28.2-24.4,51.5c-12.6,20.9-18.8,26.7-19.7,39.5c-0.9,13.3,4.7,24.7,9.7,32.4
		c-2.5,0.2-11.9,0.5-20.1-6c-4.5-3.6-6.9-7.8-8-10.4c-2.4-7-4.5-17.2-0.3-26.8c2.8-6.5,6.1-7,16.4-17.4c9.1-9.2,18.1-18.3,24.7-31.8
		c3.4-6.9,4.6-11.9,10.4-19.7C327.2,288.3,333.4,281.3,334.7,282.2z"/>
</g>
</svg>
