<svg id="Capa_1" enable-background="new 0 0 512 512" height="512" viewBox="0 0 512 512" width="512" xmlns="http://www.w3.org/2000/svg"><g><path d="m457.792 147.611c-12.943-22.373-30.951-40.053-53.523-52.549-23.679-13.108-51.182-19.754-81.745-19.754-8.284 0-15 6.716-15 15v129.63c0 8.284 6.716 15 15 15 30.563 0 58.066-6.646 81.745-19.755 22.572-12.496 40.58-30.176 53.523-52.549 2.687-4.647 2.687-10.376 0-15.023z" fill="#ffa64d"/><path d="m240.89 0h-173.698c-8.284 0-15 6.716-15 15v482c0 8.284 6.716 15 15 15h86.218c107.034 0 194.113-87.079 194.113-194.114v-211.252c0-58.798-47.835-106.634-106.633-106.634z" fill="#ffea80"/><path d="m240.89 0h-41.032v506.369c84.677-20.872 147.666-97.454 147.666-188.483v-211.252c-.001-58.798-47.836-106.634-106.634-106.634z" fill="#fc6"/><path d="m354.56 512h-271.843l34.175-30h237.668c8.284 0 15 6.716 15 15s-6.716 15-15 15z" fill="#8e562b"/><path d="m156.749 204.938c-57.652 0-104.557 46.904-104.557 104.557v187.505c0 8.284 6.716 15 15 15 107.035 0 194.114-87.079 194.114-194.114v-8.391c.001-57.653-46.904-104.557-104.557-104.557z" fill="#fc6"/><path d="m252.031 150.5c7.846 0 15.363-6.899 15-15-.364-8.127-6.591-15-15-15-7.846 0-15.363 6.899-15 15 .365 8.127 6.591 15 15 15z" fill="#754723"/><path d="m199.858 214.244v245.206c37.794-35.44 61.449-85.788 61.449-141.564v-8.391c0-42.292-25.241-78.799-61.449-95.251z" fill="#ffa64d"/><path d="m354.56 482h-154.702v30h154.702c8.284 0 15-6.716 15-15s-6.716-15-15-15z" fill="#754723"/></g></svg>