<?xml version="1.0" encoding="iso-8859-1"?>
<!-- Generator: Adobe Illustrator 21.0.0, SVG Export Plug-In . SVG Version: 6.00 Build 0)  -->
<svg version="1.1" id="Capa_1" xmlns="http://www.w3.org/2000/svg" xmlns:xlink="http://www.w3.org/1999/xlink" x="0px" y="0px"
	 viewBox="0 0 512 512" style="enable-background:new 0 0 512 512;" xml:space="preserve">
<path style="fill:#6095C4;" d="M512,256c0,79.987-36.686,151.406-94.145,198.343C373.75,490.381,317.409,512,256,512
	s-117.76-21.619-161.865-57.668C36.676,407.395,0,335.976,0,256C0,114.615,114.615,0,256,0S512,114.615,512,256z"/>
<path style="fill:#FFB133;" d="M417.855,454.343C373.75,490.381,317.409,512,256,512s-117.76-21.619-161.865-57.668
	C131.197,326.363,256,292.091,256,292.091S380.792,326.363,417.855,454.343z"/>
<path style="fill:#FFFFFF;" d="M341.655,359.727c0,0,48.583,50.678,33.797,68.963c-14.785,18.286-33.374-22.465-44.781-8.359
	c-11.406,14.106,17.743,42.841-1.69,57.469s-23.235-40.229-38.022-33.437c-14.786,6.792-6.237,56.424-34.964,56.424
	s-20.178-49.633-34.964-56.424c-14.786-6.792-18.588,48.065-38.022,33.437s9.716-43.363-1.69-57.469
	c-11.406-14.106-29.995,26.645-44.78,8.359c-14.785-18.286,33.797-68.963,33.797-68.963"/>
<path style="fill:#FFDF5E;" d="M450.64,305.568c0,0-64.884,96.264-194.636,117.195C126.236,401.832,61.353,305.568,61.353,305.568
	c10.479-49.297,31.66-87.879,56.344-117.809C40.199,76.661,132.92,0.001,132.92,0.001s0,0.014,0.014,0.028l85.883,109.06
	c22.018-10.716,37.186-14.916,37.186-14.916s15.168,4.2,37.172,14.916L379.073,0.001c0,0,92.72,76.66,15.237,187.758
	C418.98,217.689,440.161,256.27,450.64,305.568z"/>
<g>
	<path style="fill:#FFB133;" d="M255.997,422.771C126.244,401.841,61.361,305.563,61.361,305.563
		C96.662,139.447,253.513,94.88,255.969,94.195c-1.507,0.712-62.511,30.139-96.809,129.167
		c-22.604,65.247-1.256,138.25,54.669,178.772C226.304,411.162,240.355,418.515,255.997,422.771z"/>
	<path style="fill:#FFB133;" d="M394.324,187.772c-33.251-40.326-72.851-64.898-101.135-78.669L379.073,0.001
		C379.073,0.001,471.808,76.676,394.324,187.772z"/>
</g>
<g>
	<ellipse style="fill:#3C363F;" cx="185.072" cy="263.837" rx="21.377" ry="33.271"/>
	<ellipse style="fill:#3C363F;" cx="326.928" cy="263.837" rx="21.377" ry="33.271"/>
	<ellipse style="fill:#3C363F;" cx="256" cy="320.209" rx="35.579" ry="29.309"/>
</g>
<path style="fill:#FFFFFF;" d="M287.134,302.077c-13.113,0-24.617,6.866-31.133,17.194c-6.516-10.328-18.019-17.194-31.133-17.194
	c-20.32,0-36.793,16.473-36.793,36.793s16.473,36.793,36.793,36.793c13.113,0,24.617-6.866,31.133-17.194
	c6.516,10.328,18.019,17.194,31.133,17.194c20.32,0,36.793-16.473,36.793-36.793S307.454,302.077,287.134,302.077z"/>
<path style="fill:#EAEAEA;" d="M209.006,338.87c0-16.677,11.098-30.753,26.308-35.268c-3.313-0.981-6.814-1.525-10.446-1.525
	c-20.32,0-36.793,16.473-36.793,36.793s16.473,36.793,36.793,36.793c3.632,0,7.132-0.543,10.446-1.525
	C220.104,369.623,209.006,355.546,209.006,338.87z"/>
<g>
	<path style="fill:#BA4C20;" d="M294.879,327.146c-1.837,0-3.596-1.041-4.426-2.814c-1.144-2.443-0.091-5.35,2.351-6.494
		l73.488-34.418c2.442-1.144,5.35-0.091,6.494,2.352s0.091,5.35-2.351,6.494l-73.488,34.418
		C296.277,326.998,295.572,327.146,294.879,327.146z"/>
	<path style="fill:#BA4C20;" d="M375.337,398.18c-0.694,0-1.398-0.148-2.068-0.462l-73.488-34.418
		c-2.443-1.144-3.495-4.051-2.351-6.494c1.144-2.442,4.052-3.496,6.494-2.352l73.489,34.418c2.443,1.144,3.495,4.051,2.351,6.494
		C378.933,397.14,377.174,398.18,375.337,398.18z"/>
	<path style="fill:#BA4C20;" d="M392.549,342.958h-83.72c-2.697,0-4.884-2.186-4.884-4.884c0-2.697,2.186-4.884,4.884-4.884h83.72
		c2.697,0,4.884,2.186,4.884,4.884C397.433,340.773,395.246,342.958,392.549,342.958z"/>
	<path style="fill:#BA4C20;" d="M217.122,327.146c-0.694,0-1.398-0.148-2.068-0.462l-73.488-34.418
		c-2.443-1.144-3.495-4.051-2.351-6.494c1.144-2.442,4.052-3.495,6.494-2.352l73.488,34.418c2.443,1.144,3.495,4.051,2.351,6.494
		C220.719,326.105,218.959,327.146,217.122,327.146z"/>
	<path style="fill:#BA4C20;" d="M136.664,398.18c-1.837,0-3.595-1.041-4.426-2.814c-1.144-2.443-0.091-5.35,2.351-6.494
		l73.488-34.418c2.443-1.144,5.35-0.091,6.494,2.352s0.091,5.35-2.351,6.494l-73.488,34.418
		C138.062,398.032,137.358,398.18,136.664,398.18z"/>
	<path style="fill:#BA4C20;" d="M203.173,342.958h-83.72c-2.697,0-4.884-2.186-4.884-4.884c0-2.697,2.186-4.884,4.884-4.884h83.72
		c2.697,0,4.884,2.186,4.884,4.884C208.057,340.773,205.87,342.958,203.173,342.958z"/>
</g>
<g>
	<ellipse style="fill:#5C5560;" cx="193.567" cy="261.036" rx="6.977" ry="16.976"/>
	<ellipse style="fill:#5C5560;" cx="334.493" cy="261.036" rx="6.977" ry="16.976"/>
</g>
<path style="fill:#E86523;" d="M137.176,164.652c-0.265,0.433-0.544,0.852-0.809,1.284c-4.981,7.744-11.134,15.084-18.669,21.823
	C40.199,76.661,132.92,0.001,132.92,0.001s0,0.014,0.014,0.028c0.321,0.656,5.163,11.024,10.227,26.986
	c2.916,9.223,5.903,20.331,8.121,32.512c0.656,3.586,1.241,7.256,1.744,10.995C157.018,100.578,155.386,135.392,137.176,164.652z"/>
<path style="fill:#EAEAEA;" d="M137.176,164.652c-0.265,0.433-0.544,0.852-0.809,1.284c-6.391-1.619-11.498-5.023-12.572-11.582
	c-3.251-19.995,15.349-15.349,15.349-24.655c0-9.293-25.116,0-25.116-16.744s25.116-8.372,25.116-22.325
	s-26.037-15.809-20.456-29.763c5.582-13.954,32.596-1.34,32.596-1.34l1.744,10.995C157.018,100.578,155.386,135.392,137.176,164.652
	z"/>
<path style="fill:#FF8E4F;" d="M374.831,164.652c0.265,0.433,0.544,0.852,0.809,1.284c4.981,7.744,11.134,15.084,18.669,21.823
	C471.806,76.661,379.086,0.001,379.086,0.001s0,0.014-0.014,0.028c-0.321,0.656-5.163,11.024-10.227,26.986
	c-2.916,9.223-5.903,20.331-8.121,32.512c-0.656,3.586-1.241,7.256-1.744,10.995C354.989,100.578,356.622,135.392,374.831,164.652z"
	/>
<path style="fill:#FFFFFF;" d="M374.831,164.652c0.265,0.433,0.544,0.852,0.809,1.284c6.391-1.619,11.498-5.023,12.572-11.582
	c3.251-19.995-15.349-15.349-15.349-24.655c0-9.293,25.116,0,25.116-16.744s-25.116-8.372-25.116-22.325S398.9,74.82,393.319,60.866
	c-5.582-13.954-32.596-1.34-32.596-1.34l-1.744,10.995C354.989,100.578,356.622,135.392,374.831,164.652z"/>
<path style="fill:#EAEAEA;" d="M271.27,338.87c0-16.677,11.098-30.753,26.308-35.268c-3.313-0.981-6.814-1.525-10.446-1.525
	c-13.113,0-24.617,6.866-31.133,17.194v39.198l0,0c6.516,10.328,18.019,17.194,31.133,17.194c3.632,0,7.132-0.543,10.446-1.525
	C282.368,369.623,271.27,355.546,271.27,338.87z"/>
<g>
</g>
<g>
</g>
<g>
</g>
<g>
</g>
<g>
</g>
<g>
</g>
<g>
</g>
<g>
</g>
<g>
</g>
<g>
</g>
<g>
</g>
<g>
</g>
<g>
</g>
<g>
</g>
<g>
</g>
</svg>
