<?xml version="1.0" encoding="iso-8859-1"?>
<!-- Generator: Adobe Illustrator 21.0.0, SVG Export Plug-In . SVG Version: 6.00 Build 0)  -->
<svg version="1.1" id="Capa_1" xmlns="http://www.w3.org/2000/svg" xmlns:xlink="http://www.w3.org/1999/xlink" x="0px" y="0px"
	 viewBox="0 0 512 512" style="enable-background:new 0 0 512 512;" xml:space="preserve">
<path style="fill:#FF8E4F;" d="M512,256c0,91.209-47.7,171.28-119.515,216.618C352.977,497.57,306.176,512,256,512
	c-25.213,0-49.58-3.647-72.589-10.439c-31.033-9.153-59.611-24.043-84.511-43.426C38.713,411.293,0,338.171,0,256
	C0,114.615,114.615,0,256,0S512,114.615,512,256z"/>
<path style="fill:#A03510;" d="M372.955,134.764L365.693,9.175c-0.479-8.277-10.959-11.541-16.053-4.999l-60.213,77.341"/>
<path style="fill:#BA4C20;" d="M392.485,472.618C352.977,497.57,306.176,512,256,512c-25.213,0-49.58-3.647-72.589-10.439
	c-31.033-9.153-59.611-24.043-84.511-43.426l21.776-376.623h223.952c14.173,0,25.885,11.054,26.704,25.204l1.624,28.044
	L392.485,472.618z"/>
<path style="fill:#A03510;" d="M175.008,81.523l8.403,420.039c-31.033-9.153-59.611-24.043-84.511-43.426l21.776-376.623
	L175.008,81.523z"/>
<ellipse style="fill:#3C363F;" cx="341.608" cy="165.773" rx="20.431" ry="31.799"/>
<ellipse style="fill:#5C5560;" cx="348.839" cy="163.088" rx="6.669" ry="16.226"/>
<path style="fill:#BA4C20;" d="M201.127,81.522l-36.288,23.126l-11.549,7.361l-8.856,5.655
	c-11.202,7.081-25.766-1.481-24.993-14.737l5.415-93.756c0.48-8.268,10.963-11.536,16.057-5.001L201.127,81.522z"/>
<ellipse style="fill:#3C363F;" cx="256.575" cy="165.773" rx="20.431" ry="31.799"/>
<ellipse style="fill:#5C5560;" cx="263.805" cy="163.088" rx="6.669" ry="16.226"/>
<path style="fill:#D8D8D8;" d="M237.282,205.105h204.032v122.296c0,18.057-10.703,34.397-27.255,41.613l-75.634,32.969
	c-28.342,12.354-61.129-2.681-70.259-32.22l-44.985-145.54C220.247,214.728,227.345,205.105,237.282,205.105z"/>
<path style="fill:#EAEAEA;" d="M409.87,242.616v93.795c0,20.898-12.377,39.81-31.528,48.172c-0.014,0-0.014,0.014-0.027,0.014
	l-39.889,17.39c-28.34,12.35-61.135-2.68-70.257-32.22l-44.983-145.542c-2.934-9.496,4.161-19.125,14.097-19.125h164.252
	L409.87,242.616z"/>
<path style="fill:#3C363F;" d="M434.645,205.105h-60.459c-11.54,0-20.894,9.355-20.894,20.894l0,0
	c0,11.54,9.355,20.894,20.894,20.894h60.459c11.54,0,20.894-9.355,20.894-20.894l0,0
	C455.539,214.459,446.185,205.105,434.645,205.105z"/>
<path style="fill:#5C5560;" d="M438.423,211.774h-30.229c-5.77,0-10.447,4.677-10.447,10.447l0,0c0,5.77,4.677,10.447,10.447,10.447
	h30.229c5.77,0,10.447-4.677,10.447-10.447l0,0C448.87,216.451,444.193,211.774,438.423,211.774z"/>
<g>
	<circle style="fill:#D8D8D8;" cx="294.484" cy="305.737" r="16.004"/>
	<circle style="fill:#D8D8D8;" cx="352.277" cy="305.737" r="16.004"/>
	<circle style="fill:#D8D8D8;" cx="325.601" cy="340.417" r="16.004"/>
</g>
<path style="fill:#F9B7D2;" d="M164.843,104.647l-11.557,7.367l-8.85,5.653c-0.313,0.199-0.627,0.387-0.951,0.554
	c-0.052,0.031-0.104,0.052-0.157,0.084c-11.024,5.883-24.639-2.55-23.886-15.381l5.413-93.748
	c0.481-8.276,10.961-11.536,16.06-5.005c4.65,11.337,11.431,29.111,17.816,46.122c1.797,4.786,3.553,9.498,5.235,14.002
	c2.884,7.774,5.517,14.89,7.586,20.511C174.258,92.181,171.468,100.415,164.843,104.647z"/>
<g>
</g>
<g>
</g>
<g>
</g>
<g>
</g>
<g>
</g>
<g>
</g>
<g>
</g>
<g>
</g>
<g>
</g>
<g>
</g>
<g>
</g>
<g>
</g>
<g>
</g>
<g>
</g>
<g>
</g>
</svg>
