<svg xmlns="http://www.w3.org/2000/svg" viewBox="0 0 175 175">
  <defs>
    <style>
      .cls-1 {
        fill: #e7d952;
      }
    </style>
  </defs>
  <title>Ativo 1</title>
  <g id="Camada_2" data-name="Camada 2">
    <g id="Camada_1-2" data-name="Camada 1">
      <rect class="cls-1" width="175" height="175" rx="31.11" ry="31.11"/>
      <g>
        <rect x="74.38" y="120.49" width="5.03" height="18.58" rx="2.14" ry="2.14"/>
        <circle cx="66.1" cy="73.96" r="7.86"/>
        <circle cx="110.63" cy="73.96" r="7.86"/>
        <path d="M88.36,84.86h5.78a7.48,7.48,0,0,1,6.48,11.23l-2.89,5-2.89,5a7.48,7.48,0,0,1-13,0l-2.89-5-2.89-5a7.48,7.48,0,0,1,6.48-11.23Z"/>
        <path d="M52.71,17.8h70.13V28H91.12l31.73,29.5V70.23L91.78,41.28,52.71,72.45V59.54l32.06-25.6L78.43,28H52.71Z"/>
        <path d="M76,157.2a28.18,28.18,0,0,1-10-1.69A23.73,23.73,0,0,1,58.39,151a19.55,19.55,0,0,1-4.86-6.74A20.39,20.39,0,0,1,51.85,136a22.61,22.61,0,0,1,1.29-8,20.17,20.17,0,0,1,4-6.4v-.2l-4.36-.89v-6.25h70.41v8.63H93.5a20.31,20.31,0,0,1,5,7,20.62,20.62,0,0,1,1.59,8q0,8.93-6.35,14.13T76,157.2Zm-.1-9.12q7.74,0,12.35-3.27a10.65,10.65,0,0,0,4.61-9.22,14,14,0,0,0-1.69-6.84,22.62,22.62,0,0,0-4.76-5.85H63.85A17.2,17.2,0,0,0,60,127.6a12.49,12.49,0,0,0-1.44,6.1,15.19,15.19,0,0,0,1,5.4,12,12,0,0,0,3.12,4.61,15.69,15.69,0,0,0,5.4,3.17A23,23,0,0,0,75.95,148.08Z"/>
      </g>
    </g>
  </g>
</svg>
