<?xml version="1.0" encoding="iso-8859-1"?>
<!-- Generator: Adobe Illustrator 21.0.0, SVG Export Plug-In . SVG Version: 6.00 Build 0)  -->
<svg version="1.1" id="Capa_1" xmlns="http://www.w3.org/2000/svg" xmlns:xlink="http://www.w3.org/1999/xlink" x="0px" y="0px"
	 viewBox="0 0 512 512" style="enable-background:new 0 0 512 512;" xml:space="preserve">
<path style="fill:#BA4C20;" d="M512,256c0,13.479-1.045,26.718-3.051,39.633c-3.333,21.42-9.31,41.963-17.607,61.262
	c-0.387,0.92-0.784,1.829-1.191,2.738c-5.235,11.818-11.327,23.155-18.213,33.938c-2.936,4.598-6.019,9.101-9.237,13.49
	C416.131,470.685,340.887,512,256,512S95.869,470.685,49.288,407.061c-3.208-4.389-6.29-8.892-9.226-13.49
	c-6.52-10.219-12.34-20.929-17.366-32.068c-0.293-0.616-0.575-1.233-0.846-1.86c-8.913-20.104-15.308-41.576-18.798-64
	C1.045,282.718,0,269.479,0,256c0-2.947,0.052-5.872,0.157-8.788C4.786,109.892,117.561,0,256,0
	c138.449,0,251.225,109.902,255.843,247.223C511.948,250.138,512,253.064,512,256z"/>
<path style="fill:#C6C6C6;" d="M471.939,393.571c-2.936,4.598-6.019,9.101-9.237,13.49C416.131,470.685,340.887,512,256,512
	S95.869,470.685,49.288,407.061c-3.208-4.389-6.29-8.892-9.226-13.49l59.653-59.653c38.578-38.567,87.845-59.894,138.261-64
	c5.998-0.491,12.006-0.731,18.024-0.731s12.027,0.24,18.024,0.731c50.416,4.106,99.683,25.433,138.261,64L471.939,393.571z"/>
<circle style="fill:#D8D8D8;" cx="256.951" cy="270.346" r="104.605"/>
<circle style="fill:#C6C6C6;" cx="412.285" cy="108.231" r="60.082"/>
<circle style="fill:#F9B7D2;" cx="412.285" cy="108.231" r="31.692"/>
<g>
	<polyline style="fill:#FFFFFF;" points="219.541,315.486 235.009,357.467 251.336,357.467 251.336,272.572 	"/>
	<polyline style="fill:#FFFFFF;" points="292.459,315.486 276.991,357.467 260.664,357.467 260.664,272.572 	"/>
</g>
<circle style="fill:#C6C6C6;" cx="98.22" cy="108.231" r="60.082"/>
<circle style="fill:#EAEAEA;" cx="258.341" cy="262.019" r="66.048"/>
<circle style="fill:#F9B7D2;" cx="98.22" cy="108.231" r="31.692"/>
<path style="fill:#EAEAEA;" d="M507.099,244.893c0,25.851-9.864,51.712-29.592,71.44c-46.864,46.853-122.838,46.853-169.691,0
	l-50.291-50.291L256,264.516l-1.526,1.526l-42.757,42.757l-7.534,7.534c-23.427,23.427-54.136,35.14-84.846,35.14
	s-61.409-11.713-84.846-35.14c-39.455-39.455-39.455-103.424,0-142.879l65.223-65.223c38.578-38.567,87.845-59.894,138.261-64
	c5.998-0.491,12.006-0.731,18.024-0.731c6.019,0,12.027,0.24,18.025,0.731c50.416,4.106,99.683,25.433,138.261,64l65.223,65.223
	C497.236,193.181,507.099,219.042,507.099,244.893z"/>
<path style="fill:#FFFFFF;" d="M274.024,44.231v221.811h-36.049V44.231c5.998-0.491,12.006-0.731,18.024-0.731
	S268.027,43.739,274.024,44.231z"/>
<path style="fill:#E86523;" d="M291.867,255.492c-21.523-14.863-50.211-14.863-71.734,0c-4.985,3.442-5.631,10.569-1.347,14.853
	l19.084,19.084c10.013,10.013,26.247,10.013,36.26,0l19.084-19.084C297.497,266.061,296.851,258.935,291.867,255.492z"/>
<ellipse style="fill:#3C363F;" cx="176.421" cy="211.644" rx="22.037" ry="28.687"/>
<ellipse style="fill:#5C5560;" cx="181.791" cy="206.984" rx="8.242" ry="10.728"/>
<ellipse style="fill:#3C363F;" cx="335.579" cy="211.644" rx="22.037" ry="28.687"/>
<ellipse style="fill:#5C5560;" cx="340.961" cy="206.984" rx="8.242" ry="10.728"/>
<path style="fill:#D8D8D8;" d="M211.717,308.799l-7.534,7.534c-23.427,23.427-54.136,35.14-84.846,35.14
	s-61.409-11.713-84.846-35.14c-39.455-39.455-39.455-103.424,0-142.879l65.223-65.223c38.578-38.567,87.845-59.894,138.261-64
	c5.998-0.491,12.006-0.731,18.024-0.731c-54.335,0-238.237,147.999-163.004,250.399C121.02,332.048,170.6,324.88,211.717,308.799z"
	/>
<ellipse style="fill:#FF8E4F;" cx="263.837" cy="264.119" rx="17.241" ry="8.882"/>
<g>
</g>
<g>
</g>
<g>
</g>
<g>
</g>
<g>
</g>
<g>
</g>
<g>
</g>
<g>
</g>
<g>
</g>
<g>
</g>
<g>
</g>
<g>
</g>
<g>
</g>
<g>
</g>
<g>
</g>
</svg>
