<?xml version="1.0" encoding="utf-8"?>
<!-- Generator: Adobe Illustrator 21.0.0, SVG Export Plug-In . SVG Version: 6.00 Build 0)  -->
<svg version="1.1" id="Camada_1" xmlns="http://www.w3.org/2000/svg" xmlns:xlink="http://www.w3.org/1999/xlink" x="0px" y="0px"
	 viewBox="0 0 1348.8 911.1" style="enable-background:new 0 0 1348.8 911.1;" xml:space="preserve">
<style type="text/css">
	.st0{fill:#E8E8E8;}
	.st1{fill:#161616;}
	.st2{fill:#FFFFFF;}
	.st3{fill:#EC615B;}
	.st4{opacity:9.000000e-02;fill:#6D6C6C;enable-background:new    ;}
	.st5{opacity:0.13;fill:#6D6C6C;enable-background:new    ;}
	.st6{opacity:7.000000e-02;fill:#6D6C6C;enable-background:new    ;}
	.st7{opacity:0.14;fill:#6D6C6C;enable-background:new    ;}
	.st8{opacity:0.25;fill:#6D6C6C;enable-background:new    ;}
	.st9{fill:#191919;}
	.st10{opacity:0.16;fill:#6D6C6C;enable-background:new    ;}
	.st11{fill:#5222D0;}
	.st12{opacity:0.12;fill:#6D6C6C;enable-background:new    ;}
	.st13{opacity:0.21;fill:#6D6C6C;enable-background:new    ;}
	.st14{opacity:0.15;fill:#6D6C6C;enable-background:new    ;}
	.st15{opacity:0.17;fill:#6D6C6C;enable-background:new    ;}
	.st16{fill:#FFFFFF;stroke:#161616;stroke-width:2;stroke-miterlimit:10;}
	.st17{fill:#161616;stroke:#161616;stroke-width:2;stroke-miterlimit:10;}
	.st18{opacity:0.22;fill:#6D6C6C;enable-background:new    ;}
	.st19{fill:#321693;}
</style>
<g id="background">
	<g>
		<g>
			<path class="st0" d="M1212.1,808.1c-14.9-22.8-24.6-48.6-28.3-75.6c-0.5,0.6-1,1.3-1.4,1.9c3.4-0.3,6.3,0.4,9,2.5
				c1.5,1.2,3.6-0.9,2.1-2.1c-3.4-2.6-6.9-3.8-11.1-3.4c-1.1,0.1-1.6,0.9-1.4,1.9c3.8,27.3,13.5,53.3,28.6,76.3
				C1210.6,811.2,1213.2,809.7,1212.1,808.1L1212.1,808.1z"/>
		</g>
	</g>
	<g>
		<g>
			<path class="st0" d="M1193.4,735.3c-3.4-35.1,2-70.5,15.8-103c-0.9,0-1.7,0-2.6,0c1.5,2.2,2.6,4.3,3.5,6.8c0.6,1.8,3.5,1,2.9-0.8
				c-1-2.7-2.1-5.1-3.8-7.5c-0.6-0.8-2.1-1.1-2.6,0c-14,33-19.6,68.9-16.2,104.5C1190.6,737.2,1193.6,737.3,1193.4,735.3
				L1193.4,735.3z"/>
		</g>
	</g>
	<g>
		<g>
			<path class="st0" d="M1213.9,637.8c3.5-8.5,7.4-16.9,11.8-24.9c3.7-6.7,9-20.2,18.6-18.3c9.7,1.9,12.9,14.8,15,22.9
				c2.3,9,3.3,18.3,3.6,27.5c0.6,17.4-0.8,34.9-2,52.2c-1.3,18.4-3.4,36.8-7.7,54.8c-4.7,20-11.7,39.3-20.6,57.7
				c-0.8,1.7,1.7,3.3,2.6,1.5c8.8-18.1,15.8-37.1,20.5-56.7c4.9-20.1,7.1-40.6,8.4-61.2c1.3-20.5,3.3-41.5,0.8-62
				c-1.5-12.3-5.1-39.3-21.9-40.1c-8.8-0.4-13.4,8.8-17.1,15.2c-5.7,9.8-10.6,20-14.9,30.5C1210.3,638.8,1213.2,639.6,1213.9,637.8
				L1213.9,637.8z"/>
		</g>
	</g>
	<g>
		<g>
			<path class="st0" d="M1263.2,709.4c3.4-6.8,7.4-13.2,12.2-19c2.3-2.8,13.1-17.2,17.4-13.9c0.9,0.7,1.2,4.1,1.4,5.3
				c0.6,2.5,1,5.1,1.2,7.7c0.4,4,0.5,7.9,0.3,11.9c-0.4,8.5-1.9,17-4,25.3c-7.6,30.3-21.2,58.9-38.9,84.5c-1.1,1.6,1.5,3.1,2.6,1.5
				c20.5-29.5,37.2-64.9,42.3-100.8c1.2-8.5,1.6-17.1,0.4-25.6c-0.5-3.7-1.2-15.7-7.3-14.5c-2.8,0.6-5.4,3.8-7.4,5.6
				c-3.2,3-6.3,6.2-9.1,9.5c-5.4,6.4-10,13.4-13.7,20.9C1259.7,709.6,1262.3,711.1,1263.2,709.4L1263.2,709.4z"/>
		</g>
	</g>
	<g>
		<g>
			<path class="st0" d="M477,811.9c-13.2-15.1-24.1-32.1-32.3-50.4c-0.2,0.7-0.4,1.4-0.5,2.1c4-1.8,8-2.5,12.4-2.2
				c1.9,0.1,1.9-2.9,0-3c-4.9-0.3-9.4,0.6-13.9,2.6c-0.8,0.4-0.8,1.4-0.5,2.1c8.4,18.6,19.4,35.7,32.8,51
				C476.1,815.5,478.3,813.4,477,811.9L477,811.9z"/>
		</g>
	</g>
	<g>
		<g>
			<path class="st0" d="M456.8,757.2c-7.9-13.8-12.9-29.1-14.3-44.9c-0.9-10-2.7-45.8,16-36c6.6,3.5,10.4,11,13.8,17.3
				c4,7.3,7.5,14.9,10.6,22.6c5.6,14.1,9.7,28.8,12.2,43.7c3,17.7,3.7,35.7,2.3,53.7c-0.2,1.9,2.9,1.9,3,0
				c2.8-36.1-3.3-72.6-17.9-105.8c-3.6-8.2-7.6-16.6-12.6-24.1c-3.6-5.4-8.5-10.7-15.2-11.9c-16-2.9-15.8,21.2-15.8,31.2
				c0.1,19.6,5.4,38.8,15.2,55.8C455.2,760.3,457.8,758.8,456.8,757.2L456.8,757.2z"/>
		</g>
	</g>
	<g>
		<g>
			<path class="st0" d="M491.8,732c-0.6-7.5,1.6-41.7,15.8-34.5c11.3,5.7,13.7,23.4,14.3,34.6c0.7,12.7,0.2,25.5-0.1,38.2
				c-0.4,13.3-1.4,26.5-6,39.1c-0.7,1.8,2.2,2.6,2.9,0.8c5.7-15.4,6-31.8,6.3-48c0.3-15.3,1.6-31.6-2.5-46.6
				c-2.3-8.3-10.5-26.6-22.3-21.1c-5,2.4-7.2,9.2-8.8,14.1c-2.4,7.7-3.2,15.6-2.6,23.6C488.9,734,491.9,734,491.8,732L491.8,732z"/>
		</g>
	</g>
	<g>
		<g>
			<path class="st0" d="M449.2,674.3c12.9,28.8,23.5,58.5,31.6,89c0.5,1.9,3.4,1.1,2.9-0.8c-8.2-30.7-18.8-60.7-31.9-89.7
				C451,671,448.4,672.5,449.2,674.3L449.2,674.3z"/>
		</g>
	</g>
	<g>
		<g>
			<path class="st0" d="M440.9,713.8c15.3,5.4,27.7,16.5,34.8,31.1c0.9,1.7,3.4,0.2,2.6-1.5c-7.5-15.3-20.6-26.8-36.6-32.5
				C439.9,710.3,439.1,713.2,440.9,713.8L440.9,713.8z"/>
		</g>
	</g>
	<g>
		<g>
			<path class="st0" d="M470.8,687.8c-2.7,8.9-4.1,18-4.4,27.2c-0.1,1.9,2.9,1.9,3,0c0.3-9,1.7-17.8,4.3-26.4
				C474.2,686.7,471.3,685.9,470.8,687.8L470.8,687.8z"/>
		</g>
	</g>
	<g>
		<g>
			<path class="st0" d="M491,713.8c9.4,11,16.1,23.6,20.1,37.5c0.5,1.9,3.4,1.1,2.9-0.8c-4.1-14.4-11.1-27.5-20.8-38.8
				C491.9,710.2,489.8,712.3,491,713.8L491,713.8z"/>
		</g>
	</g>
	<g>
		<g>
			<path class="st0" d="M505.9,713c6.5,32.3,5.4,64.2,2,96.8c-0.2,1.9,2.8,1.9,3,0c3.5-32.8,4.5-65-2.1-97.6
				C508.4,710.3,505.5,711.1,505.9,713L505.9,713z"/>
		</g>
	</g>
	<g>
		<g>
			<path class="st0" d="M311.1,453c0,7.1,0,14.2,0,21.4c0,1.9,3,1.9,3,0c0-7.1,0-14.2,0-21.4C314.1,451.1,311.1,451.1,311.1,453
				L311.1,453z"/>
		</g>
	</g>
	<g>
		<g>
			<path class="st0" d="M312.6,476.4c35,0,69.9,0,104.9,0c1.9,0,1.9-3,0-3c-35,0-69.9,0-104.9,0
				C310.7,473.4,310.7,476.4,312.6,476.4L312.6,476.4z"/>
		</g>
	</g>
	<g>
		<g>
			<path class="st0" d="M312.6,454.2c35.2,0,70.4,0,105.6,0c1.9,0,1.9-3,0-3c-35.2,0-70.4,0-105.6,0
				C310.7,451.2,310.7,454.2,312.6,454.2L312.6,454.2z"/>
		</g>
	</g>
	<g>
		<g>
			<path class="st0" d="M416.7,452.5c0,7.3,0,14.6,0,21.9c0,1.9,3,1.9,3,0c0-7.3,0-14.6,0-21.9C419.7,450.5,416.7,450.5,416.7,452.5
				L416.7,452.5z"/>
		</g>
	</g>
	<g>
		<g>
			<path class="st0" d="M350.6,476c0,6.1,0,12.2,0,18.3c0,1.9,3,1.9,3,0c0-6.1,0-12.2,0-18.3C353.6,474.1,350.6,474.1,350.6,476
				L350.6,476z"/>
		</g>
	</g>
	<g>
		<g>
			<path class="st0" d="M352.3,496.9c27.9,0,55.8,0,83.7,0c1.9,0,1.9-3,0-3c-27.9,0-55.8,0-83.7,0
				C350.3,493.9,350.3,496.9,352.3,496.9L352.3,496.9z"/>
		</g>
	</g>
	<g>
		<g>
			<path class="st0" d="M418.4,476.6c6.2,0,12.4,0,18.7,0c1.9,0,1.9-3,0-3c-6.2,0-12.4,0-18.7,0
				C416.4,473.6,416.4,476.6,418.4,476.6L418.4,476.6z"/>
		</g>
	</g>
	<g>
		<g>
			<path class="st0" d="M435.7,476.2c0,6.2,0,12.4,0,18.7c0,1.9,3,1.9,3,0c0-6.2,0-12.4,0-18.7C438.7,474.3,435.7,474.3,435.7,476.2
				L435.7,476.2z"/>
		</g>
	</g>
	<g>
		<g>
			<path class="st0" d="M426.1,495.8c0,6.8,0,13.5,0,20.3c0,1.9,3,1.9,3,0c0-6.8,0-13.5,0-20.3C429.1,493.8,426.1,493.8,426.1,495.8
				L426.1,495.8z"/>
		</g>
	</g>
	<g>
		<g>
			<path class="st0" d="M428,517.7c23,0,46,0,69,0c1.9,0,1.9-3,0-3c-23,0-46,0-69,0C426,514.7,426,517.7,428,517.7L428,517.7z"/>
		</g>
	</g>
	<g>
		<g>
			<path class="st0" d="M437.4,497.1c20,0,40,0,60,0c1.9,0,1.9-3,0-3c-20,0-40,0-60,0C435.5,494.1,435.5,497.1,437.4,497.1
				L437.4,497.1z"/>
		</g>
	</g>
	<g>
		<g>
			<path class="st0" d="M495.7,495.4c0,6.5,0,12.9,0,19.4c0,1.9,3,1.9,3,0c0-6.5,0-12.9,0-19.4C498.7,493.5,495.7,493.5,495.7,495.4
				L495.7,495.4z"/>
		</g>
	</g>
	<g>
		<g>
			<path class="st0" d="M427.5,514.6c-19.1,0-38.2,0-57.3,0c-1.9,0-1.9,3,0,3c19.1,0,38.2,0,57.3,0
				C429.4,517.6,429.4,514.6,427.5,514.6L427.5,514.6z"/>
		</g>
	</g>
	<g>
		<g>
			<path class="st0" d="M371.4,515.9c0-6.4,0-12.8,0-19.3c0-1.9-3-1.9-3,0c0,6.4,0,12.8,0,19.3C368.4,517.8,371.4,517.8,371.4,515.9
				L371.4,515.9z"/>
		</g>
	</g>
	<g>
		<g>
			<path class="st0" d="M248.1,24.2c0,72.3,0,144.5,0,216.8c0,1.9,3,1.9,3,0c0-72.3,0-144.5,0-216.8
				C251.1,22.3,248.1,22.3,248.1,24.2L248.1,24.2z"/>
		</g>
	</g>
	<g>
		<g>
			<path class="st0" d="M249.4,243.2c70.4,0,140.8,0,211.2,0c19.9,0,39.9,0,59.8,0c1.9,0,1.9-3,0-3c-70.4,0-140.8,0-211.2,0
				c-19.9,0-39.9,0-59.8,0C247.5,240.2,247.5,243.2,249.4,243.2L249.4,243.2z"/>
		</g>
	</g>
	<g>
		<g>
			<path class="st0" d="M250.1,24.2c69.6,0,139.2,0,208.8,0c19.7,0,39.3,0,59,0c1.9,0,1.9-3,0-3c-69.6,0-139.2,0-208.8,0
				c-19.7,0-39.3,0-59,0C248.2,21.2,248.2,24.2,250.1,24.2L250.1,24.2z"/>
		</g>
	</g>
	<g>
		<g>
			<path class="st0" d="M519.5,23.6c0,72.3,0,144.6,0,217c0,1.9,3,1.9,3,0c0-72.3,0-144.6,0-217C522.5,21.7,519.5,21.7,519.5,23.6
				L519.5,23.6z"/>
		</g>
	</g>
	<g>
		<g>
			<path class="st0" d="M262.9,35.2c0,65.3,0,130.6,0,195.8c0,1.9,3,1.9,3,0c0-65.3,0-130.6,0-195.8
				C265.9,33.2,262.9,33.2,262.9,35.2L262.9,35.2z"/>
		</g>
	</g>
	<g>
		<g>
			<path class="st0" d="M264.2,233.1c80.2,0,160.4,0,240.5,0c1.9,0,1.9-3,0-3c-80.2,0-160.4,0-240.5,0
				C262.3,230.1,262.2,233.1,264.2,233.1L264.2,233.1z"/>
		</g>
	</g>
	<g>
		<g>
			<path class="st0" d="M264.8,35.3c79.2,0,158.5,0,237.7,0c1.9,0,1.9-3,0-3c-79.2,0-158.5,0-237.7,0
				C262.9,32.3,262.9,35.3,264.8,35.3L264.8,35.3z"/>
		</g>
	</g>
	<g>
		<g>
			<path class="st0" d="M503.7,34.6c0,65.3,0,130.7,0,196c0,1.9,3,1.9,3,0c0-65.3,0-130.7,0-196C506.7,32.7,503.7,32.7,503.7,34.6
				L503.7,34.6z"/>
		</g>
	</g>
	<g>
		<g>
			<path class="st0" d="M380.6,35.5c0,31.9,0,63.7,0,95.6c0,1.9,3,1.9,3,0c0-31.9,0-63.7,0-95.6C383.6,33.5,380.6,33.5,380.6,35.5
				L380.6,35.5z"/>
		</g>
	</g>
	<g>
		<g>
			<path class="st0" d="M382.1,129.5c-38.1,0-76.3,0-114.4,0c-1.9,0-1.9,3,0,3c38.1,0,76.3,0,114.4,0
				C384,132.5,384,129.5,382.1,129.5L382.1,129.5z"/>
		</g>
	</g>
	<g>
		<g>
			<path class="st0" d="M395.5,35.5c0,31.6,0,63.1,0,94.7c0,1.9,3,1.9,3,0c0-31.6,0-63.1,0-94.7C398.5,33.5,395.5,33.5,395.5,35.5
				L395.5,35.5z"/>
		</g>
	</g>
	<g>
		<g>
			<path class="st0" d="M397,133.4c35.2,0,70.4,0,105.6,0c1.9,0,1.9-3,0-3c-35.2,0-70.4,0-105.6,0C395,130.4,395,133.4,397,133.4
				L397,133.4z"/>
		</g>
	</g>
	<g>
		<g>
			<path class="st0" d="M266.8,147.4c38.3,0,76.6,0,114.8,0c1.9,0,1.9-3,0-3c-38.3,0-76.6,0-114.8,0
				C264.9,144.4,264.8,147.4,266.8,147.4L266.8,147.4z"/>
		</g>
	</g>
	<g>
		<g>
			<path class="st0" d="M380.1,146.3c0,28.1,0,56.1,0,84.2c0,1.9,3,1.9,3,0c0-28.1,0-56.1,0-84.2
				C383.1,144.4,380.1,144.4,380.1,146.3L380.1,146.3z"/>
		</g>
	</g>
	<g>
		<g>
			<path class="st0" d="M395,148.5c0,27.3,0,54.6,0,82c0,1.9,3,1.9,3,0c0-27.3,0-54.6,0-82C398,146.6,395,146.6,395,148.5L395,148.5
				z"/>
		</g>
	</g>
	<g>
		<g>
			<path class="st0" d="M396.1,150.5c36.1,0,72.2,0,108.3,0c1.9,0,1.9-3,0-3c-36.1,0-72.2,0-108.3,0
				C394.2,147.5,394.1,150.5,396.1,150.5L396.1,150.5z"/>
		</g>
	</g>
	<g>
		<g>
			<path class="st0" d="M470.9,36.2c-22.5,25.4-43.6,52-63.4,79.6c-1.1,1.6,1.5,3.1,2.6,1.5c19.6-27.4,40.6-53.8,62.9-79
				C474.3,36.9,472.2,34.7,470.9,36.2L470.9,36.2z"/>
		</g>
	</g>
	<g>
		<g>
			<path class="st0" d="M470.7,73.2c-10.4,12.6-20.8,25.2-31.2,37.7c-1.2,1.5,0.9,3.6,2.1,2.1c10.4-12.6,20.8-25.2,31.2-37.7
				C474,73.8,471.9,71.7,470.7,73.2L470.7,73.2z"/>
		</g>
	</g>
	<g>
		<g>
			<path class="st0" d="M278.3,229.4c26.2-26.2,52.4-52.5,78.6-78.7c1.4-1.4-0.8-3.5-2.1-2.1c-26.2,26.2-52.4,52.5-78.6,78.7
				C274.9,228.6,277,230.7,278.3,229.4L278.3,229.4z"/>
		</g>
	</g>
	<g>
		<g>
			<path class="st0" d="M323.6,220.2c8.9-11.4,18.3-22.2,28.4-32.5c1.4-1.4-0.8-3.5-2.1-2.1c-10.1,10.3-19.6,21.1-28.4,32.5
				C320.3,219.6,322.4,221.8,323.6,220.2L323.6,220.2z"/>
		</g>
	</g>
	<g>
		<g>
			<path class="st0" d="M1006.3,20.9c0,72.3,0,144.5,0,216.8c0,1.9,3,1.9,3,0c0-72.3,0-144.5,0-216.8
				C1009.3,19,1006.3,19,1006.3,20.9L1006.3,20.9z"/>
		</g>
	</g>
	<g>
		<g>
			<path class="st0" d="M1007.6,239.9c70.4,0,140.8,0,211.2,0c19.9,0,39.9,0,59.8,0c1.9,0,1.9-3,0-3c-70.4,0-140.8,0-211.2,0
				c-19.9,0-39.9,0-59.8,0C1005.7,236.9,1005.7,239.9,1007.6,239.9L1007.6,239.9z"/>
		</g>
	</g>
	<g>
		<g>
			<path class="st0" d="M1008.3,21c69.6,0,139.2,0,208.8,0c19.7,0,39.3,0,59,0c1.9,0,1.9-3,0-3c-69.6,0-139.2,0-208.8,0
				c-19.7,0-39.3,0-59,0C1006.4,18,1006.4,21,1008.3,21L1008.3,21z"/>
		</g>
	</g>
	<g>
		<g>
			<path class="st0" d="M1277.7,20.3c0,72.3,0,144.6,0,217c0,1.9,3,1.9,3,0c0-72.3,0-144.6,0-217
				C1280.7,18.4,1277.7,18.4,1277.7,20.3L1277.7,20.3z"/>
		</g>
	</g>
	<g>
		<g>
			<path class="st0" d="M1021.1,31.9c0,65.3,0,130.6,0,195.8c0,1.9,3,1.9,3,0c0-65.3,0-130.6,0-195.8
				C1024.1,29.9,1021.1,29.9,1021.1,31.9L1021.1,31.9z"/>
		</g>
	</g>
	<g>
		<g>
			<path class="st0" d="M1022.4,229.8c80.2,0,160.4,0,240.5,0c1.9,0,1.9-3,0-3c-80.2,0-160.4,0-240.5,0
				C1020.4,226.8,1020.4,229.8,1022.4,229.8L1022.4,229.8z"/>
		</g>
	</g>
	<g>
		<g>
			<path class="st0" d="M1023,32c79.2,0,158.5,0,237.7,0c1.9,0,1.9-3,0-3c-79.2,0-158.5,0-237.7,0C1021.1,29,1021.1,32,1023,32
				L1023,32z"/>
		</g>
	</g>
	<g>
		<g>
			<path class="st0" d="M1261.9,31.3c0,65.3,0,130.7,0,196c0,1.9,3,1.9,3,0c0-65.3,0-130.7,0-196
				C1264.9,29.4,1261.9,29.4,1261.9,31.3L1261.9,31.3z"/>
		</g>
	</g>
	<g>
		<g>
			<path class="st0" d="M1138.8,32.2c0,31.9,0,63.7,0,95.6c0,1.9,3,1.9,3,0c0-31.9,0-63.7,0-95.6
				C1141.8,30.2,1138.8,30.2,1138.8,32.2L1138.8,32.2z"/>
		</g>
	</g>
	<g>
		<g>
			<path class="st0" d="M1140.3,126.2c-38.1,0-76.3,0-114.4,0c-1.9,0-1.9,3,0,3c38.1,0,76.3,0,114.4,0
				C1142.2,129.2,1142.2,126.2,1140.3,126.2L1140.3,126.2z"/>
		</g>
	</g>
	<g>
		<g>
			<path class="st0" d="M1153.7,32.2c0,31.6,0,63.1,0,94.7c0,1.9,3,1.9,3,0c0-31.6,0-63.1,0-94.7
				C1156.7,30.2,1153.7,30.2,1153.7,32.2L1153.7,32.2z"/>
		</g>
	</g>
	<g>
		<g>
			<path class="st0" d="M1155.2,130.1c35.2,0,70.4,0,105.6,0c1.9,0,1.9-3,0-3c-35.2,0-70.4,0-105.6,0
				C1153.2,127.1,1153.2,130.1,1155.2,130.1L1155.2,130.1z"/>
		</g>
	</g>
	<g>
		<g>
			<path class="st0" d="M1025,144.1c38.3,0,76.6,0,114.8,0c1.9,0,1.9-3,0-3c-38.3,0-76.6,0-114.8,0
				C1023,141.1,1023,144.1,1025,144.1L1025,144.1z"/>
		</g>
	</g>
	<g>
		<g>
			<path class="st0" d="M1138.3,143.1c0,28.1,0,56.1,0,84.2c0,1.9,3,1.9,3,0c0-28.1,0-56.1,0-84.2
				C1141.3,141.1,1138.3,141.1,1138.3,143.1L1138.3,143.1z"/>
		</g>
	</g>
	<g>
		<g>
			<path class="st0" d="M1153.2,145.3c0,27.3,0,54.6,0,82c0,1.9,3,1.9,3,0c0-27.3,0-54.6,0-82
				C1156.2,143.3,1153.2,143.3,1153.2,145.3L1153.2,145.3z"/>
		</g>
	</g>
	<g>
		<g>
			<path class="st0" d="M1154.3,147.2c36.1,0,72.2,0,108.3,0c1.9,0,1.9-3,0-3c-36.1,0-72.2,0-108.3,0
				C1152.3,144.2,1152.3,147.2,1154.3,147.2L1154.3,147.2z"/>
		</g>
	</g>
	<g>
		<g>
			<path class="st0" d="M1229.1,32.9c-22.5,25.4-43.6,52-63.4,79.6c-1.1,1.6,1.5,3.1,2.6,1.5c19.6-27.4,40.6-53.8,62.9-79
				C1232.5,33.6,1230.4,31.5,1229.1,32.9L1229.1,32.9z"/>
		</g>
	</g>
	<g>
		<g>
			<path class="st0" d="M1228.9,69.9c-10.4,12.6-20.8,25.2-31.2,37.7c-1.2,1.5,0.9,3.6,2.1,2.1c10.4-12.6,20.8-25.2,31.2-37.7
				C1232.2,70.5,1230.1,68.4,1228.9,69.9L1228.9,69.9z"/>
		</g>
	</g>
	<g>
		<g>
			<path class="st0" d="M1036.5,226.1c26.2-26.2,52.4-52.5,78.6-78.7c1.4-1.4-0.8-3.5-2.1-2.1c-26.2,26.2-52.4,52.5-78.6,78.7
				C1033.1,225.3,1035.2,227.4,1036.5,226.1L1036.5,226.1z"/>
		</g>
	</g>
	<g>
		<g>
			<path class="st0" d="M1081.8,217c8.9-11.4,18.3-22.2,28.4-32.5c1.4-1.4-0.8-3.5-2.1-2.1c-10.1,10.3-19.6,21.1-28.4,32.5
				C1078.5,216.3,1080.6,218.5,1081.8,217L1081.8,217z"/>
		</g>
	</g>
	<g>
		<g>
			<path class="st0" d="M1000.9,344.7c35.3,0,70.7,0,106,0c1.9,0,1.9-3,0-3c-35.3,0-70.7,0-106,0C999,341.7,999,344.7,1000.9,344.7
				L1000.9,344.7z"/>
		</g>
	</g>
	<g>
		<g>
			<path class="st0" d="M1052.7,344.5c0,6.7,0,13.3,0,20c0,1.9,3,1.9,3,0c0-6.7,0-13.3,0-20C1055.7,342.6,1052.7,342.6,1052.7,344.5
				L1052.7,344.5z"/>
		</g>
	</g>
	<g>
		<g>
			<path class="st0" d="M1054.2,366c27.8,0,55.6,0,83.3,0c1.9,0,1.9-3,0-3c-27.8,0-55.6,0-83.3,0C1052.3,363,1052.3,366,1054.2,366
				L1054.2,366z"/>
		</g>
	</g>
	<g>
		<g>
			<path class="st0" d="M1106.7,343.8c0,6.4,0,12.9,0,19.3c0,1.9,3,1.9,3,0c0-6.4,0-12.9,0-19.3
				C1109.7,341.9,1106.7,341.9,1106.7,343.8L1106.7,343.8z"/>
		</g>
	</g>
	<g>
		<g>
			<path class="st0" d="M1002.4,342.5c0-5.3,0-10.7,0-16c0-1.9-3-1.9-3,0c0,5.3,0,10.7,0,16C999.4,344.4,1002.4,344.4,1002.4,342.5
				L1002.4,342.5z"/>
		</g>
	</g>
	<g>
		<g>
			<path class="st0" d="M1002.2,327.3c25.8,0,51.6,0,77.3,0c1.9,0,1.9-3,0-3c-25.8,0-51.6,0-77.3,0
				C1000.3,324.3,1000.3,327.3,1002.2,327.3L1002.2,327.3z"/>
		</g>
	</g>
	<g>
		<g>
			<path class="st0" d="M1078.7,327.8c0,5.1,0,10.2,0,15.3c0,1.9,3,1.9,3,0c0-5.1,0-10.2,0-15.3
				C1081.7,325.9,1078.7,325.9,1078.7,327.8L1078.7,327.8z"/>
		</g>
	</g>
	<g>
		<g>
			<path class="st0" d="M984.9,366.7c24.7,0,49.3,0,74,0c1.9,0,1.9-3,0-3c-24.7,0-49.3,0-74,0C983,363.7,983,366.7,984.9,366.7
				L984.9,366.7z"/>
		</g>
	</g>
	<g>
		<g>
			<path class="st0" d="M982.7,366.5c0,5.6,0,11.1,0,16.7c0,1.9,3,1.9,3,0c0-5.6,0-11.1,0-16.7C985.7,364.6,982.7,364.6,982.7,366.5
				L982.7,366.5z"/>
		</g>
	</g>
	<g>
		<g>
			<path class="st0" d="M984.2,386c23.6,0,47.1,0,70.7,0c1.9,0,1.9-3,0-3c-23.6,0-47.1,0-70.7,0C982.3,383,982.3,386,984.2,386
				L984.2,386z"/>
		</g>
	</g>
	<g>
		<g>
			<path class="st0" d="M1053.4,366.5c0,5.8,0,11.6,0,17.3c0,1.9,3,1.9,3,0c0-5.8,0-11.6,0-17.3
				C1056.4,364.6,1053.4,364.6,1053.4,366.5L1053.4,366.5z"/>
		</g>
	</g>
	<g>
		<g>
			<path class="st0" d="M489.7,300.6c43.6,0,87.1,0,130.7,0c1.9,0,1.9-3,0-3c-43.6,0-87.1,0-130.7,0
				C487.8,297.6,487.8,300.6,489.7,300.6L489.7,300.6z"/>
		</g>
	</g>
	<g>
		<g>
			<path class="st0" d="M490.6,299.1c0-5.6,0-11.2,0-16.8c0-1.9-3-1.9-3,0c0,5.6,0,11.2,0,16.8C487.6,301,490.6,301,490.6,299.1
				L490.6,299.1z"/>
		</g>
	</g>
	<g>
		<g>
			<path class="st0" d="M490.8,282c23.3,0,46.7,0,70,0c1.9,0,1.9-3,0-3c-23.3,0-46.7,0-70,0C488.9,279,488.9,282,490.8,282
				L490.8,282z"/>
		</g>
	</g>
	<g>
		<g>
			<path class="st0" d="M559.3,282.3c0,5.4,0,10.8,0,16.2c0,1.9,3,1.9,3,0c0-5.4,0-10.8,0-16.2C562.3,280.3,559.3,280.3,559.3,282.3
				L559.3,282.3z"/>
		</g>
	</g>
	<g>
		<g>
			<path class="st0" d="M540.2,301.4c0,5.6,0,11.2,0,16.8c0,1.9,3,1.9,3,0c0-5.6,0-11.2,0-16.8C543.2,299.4,540.2,299.4,540.2,301.4
				L540.2,301.4z"/>
		</g>
	</g>
	<g>
		<g>
			<path class="st0" d="M542.3,320.8c25.4,0,50.9,0,76.3,0c1.9,0,1.9-3,0-3c-25.4,0-50.9,0-76.3,0
				C540.4,317.8,540.4,320.8,542.3,320.8L542.3,320.8z"/>
		</g>
	</g>
	<g>
		<g>
			<path class="st0" d="M618.9,300.8c0,6.4,0,12.7,0,19.1c0,1.9,3,1.9,3,0c0-6.4,0-12.7,0-19.1C621.9,298.9,618.9,298.9,618.9,300.8
				L618.9,300.8z"/>
		</g>
	</g>
	<g>
		<g>
			<path class="st0" d="M558.7,320.4c0,5.2,0,10.4,0,15.6c0,1.9,3,1.9,3,0c0-5.2,0-10.4,0-15.6C561.7,318.5,558.7,318.5,558.7,320.4
				L558.7,320.4z"/>
		</g>
	</g>
	<g>
		<g>
			<path class="st0" d="M559.1,335.7c-22.2,0-44.3,0-66.5,0c-1.9,0-1.9,3,0,3c22.2,0,44.3,0,66.5,0C561,338.7,561,335.7,559.1,335.7
				L559.1,335.7z"/>
		</g>
	</g>
	<g>
		<g>
			<path class="st0" d="M545.2,318.4c-17.4,0-34.7,0-52.1,0c-1.9,0-1.9,3,0,3c17.4,0,34.7,0,52.1,0
				C547.1,321.4,547.1,318.4,545.2,318.4L545.2,318.4z"/>
		</g>
	</g>
	<g>
		<g>
			<path class="st0" d="M491.7,319.9c0,5.6,0,11.2,0,16.8c0,1.9,3,1.9,3,0c0-5.6,0-11.2,0-16.8C494.7,317.9,491.7,317.9,491.7,319.9
				L491.7,319.9z"/>
		</g>
	</g>
	<g>
		<g>
			<path class="st0" d="M1183.3,545.8c27.5,0,55,0,82.5,0c1.9,0,1.9-3,0-3c-27.5,0-55,0-82.5,0
				C1181.4,542.8,1181.4,545.8,1183.3,545.8L1183.3,545.8z"/>
		</g>
	</g>
	<g>
		<g>
			<path class="st0" d="M1232.4,543.5c0-6.2,0-12.4,0-18.6c0-1.9-3-1.9-3,0c0,6.2,0,12.4,0,18.6
				C1229.4,545.4,1232.4,545.4,1232.4,543.5L1232.4,543.5z"/>
		</g>
	</g>
	<g>
		<g>
			<path class="st0" d="M1231.7,526c23.5,0,47,0,70.6,0c1.9,0,1.9-3,0-3c-23.5,0-47,0-70.6,0C1229.7,523,1229.7,526,1231.7,526
				L1231.7,526z"/>
		</g>
	</g>
	<g>
		<g>
			<path class="st0" d="M1300.7,525.3c0,5.3,0,10.6,0,15.9c0,1.9,3,1.9,3,0c0-5.3,0-10.6,0-15.9
				C1303.7,523.3,1300.7,523.3,1300.7,525.3L1300.7,525.3z"/>
		</g>
	</g>
	<g>
		<g>
			<path class="st0" d="M1263.8,545.4c12.4,0,24.8,0,37.3,0c1.9,0,1.9-3,0-3c-12.4,0-24.8,0-37.3,0
				C1261.8,542.4,1261.8,545.4,1263.8,545.4L1263.8,545.4z"/>
		</g>
	</g>
	<g>
		<g>
			<path class="st0" d="M1180.2,545.9c0,4.8,0,9.5,0,14.3c0,1.9,3,1.9,3,0c0-4.8,0-9.5,0-14.3C1183.2,544,1180.2,543.9,1180.2,545.9
				L1180.2,545.9z"/>
		</g>
	</g>
	<g>
		<g>
			<path class="st0" d="M1182.1,563.2c26,0,52.1,0,78.1,0c1.9,0,1.9-3,0-3c-26,0-52.1,0-78.1,0
				C1180.2,560.2,1180.2,563.2,1182.1,563.2L1182.1,563.2z"/>
		</g>
	</g>
	<g>
		<g>
			<path class="st0" d="M1259.5,544.7c0,5.4,0,10.8,0,16.3c0,1.9,3,1.9,3,0c0-5.4,0-10.8,0-16.3
				C1262.5,542.8,1259.5,542.8,1259.5,544.7L1259.5,544.7z"/>
		</g>
	</g>
	<g>
		<g>
			<path class="st0" d="M1191.2,501.8c25.2,0,50.5,0,75.7,0c1.9,0,1.9-3,0-3c-25.2,0-50.5,0-75.7,0
				C1189.3,498.8,1189.3,501.8,1191.2,501.8L1191.2,501.8z"/>
		</g>
	</g>
	<g>
		<g>
			<path class="st0" d="M1265.4,501.5c0,7.7,0,15.3,0,23c0,1.9,3,1.9,3,0c0-7.7,0-15.3,0-23C1268.4,499.5,1265.4,499.5,1265.4,501.5
				L1265.4,501.5z"/>
		</g>
	</g>
	<g>
		<g>
			<path class="st0" d="M1190.5,500.7c0,7.1,0,14.3,0,21.4c0,1.9,3,1.9,3,0c0-7.1,0-14.3,0-21.4
				C1193.5,498.8,1190.5,498.8,1190.5,500.7L1190.5,500.7z"/>
		</g>
	</g>
	<g>
		<g>
			<path class="st0" d="M1194,525.2c17.8,0,35.7,0,53.5,0c1.9,0,1.9-3,0-3c-17.8,0-35.7,0-53.5,0
				C1192.1,522.2,1192.1,525.2,1194,525.2L1194,525.2z"/>
		</g>
	</g>
</g>
<g id="ground">
	<g>
		<g>
			<path class="st1" d="M358.5,815.1c16.4,0,32.8,0,49.2,0c1.9,0,1.9-3,0-3c-16.4,0-32.8,0-49.2,0
				C356.6,812.1,356.6,815.1,358.5,815.1L358.5,815.1z"/>
		</g>
	</g>
	<g>
		<g>
			<path class="st1" d="M232.4,815.3c143.1,0,286.1,0,429.2,0c142.3,0,284.7,0,427,0c80.3,0,160.6,0,240.9,0c3.9,0,3.9-6,0-6
				c-143.1,0-286.1,0-429.2,0c-142.3,0-284.7,0-427,0c-80.3,0-160.6,0-240.9,0C228.5,809.3,228.5,815.3,232.4,815.3L232.4,815.3z"/>
		</g>
	</g>
	<g>
		<g>
			<path class="st1" d="M1137.8,835.5c69.4,0,138.7,0,208.1,0c3.9,0,3.9-6,0-6c-69.4,0-138.7,0-208.1,0
				C1134,829.5,1134,835.5,1137.8,835.5L1137.8,835.5z"/>
		</g>
	</g>
	<g>
		<g>
			<path class="st1" d="M424.1,911.1c77.8,0,155.5,0,233.3,0c3.9,0,3.9-6,0-6c-77.8,0-155.5,0-233.3,0
				C420.2,905.1,420.2,911.1,424.1,911.1L424.1,911.1z"/>
		</g>
	</g>
	<g>
		<g>
			<path class="st1" d="M2.9,881.8c51.9,0,103.8,0,155.7,0c3.9,0,3.9-6,0-6c-51.9,0-103.8,0-155.7,0C-1,875.8-1,881.8,2.9,881.8
				L2.9,881.8z"/>
		</g>
	</g>
	<g>
		<g>
			<path class="st1" d="M191.4,854.5c56.9,0,113.8,0,170.7,0c3.9,0,3.9-6,0-6c-56.9,0-113.8,0-170.7,0
				C187.5,848.5,187.5,854.5,191.4,854.5L191.4,854.5z"/>
		</g>
	</g>
</g>
<g id="rope">
	<g>
		<g>
			<path class="st1" d="M154.8,773.5c76.8-42.1,150.1-90.4,221.8-140.7c71.8-50.4,142.3-102.8,214-153.4
				c40.2-28.3,80.8-56.1,122.2-82.6c1.6-1,0.1-3.6-1.5-2.6c-73.9,47.3-145.1,98.6-216.2,150c-71,51.4-142,103-215.5,150.7
				c-41.2,26.7-83.1,52.3-126.2,75.9C151.6,771.8,153.1,774.4,154.8,773.5L154.8,773.5z"/>
		</g>
	</g>
</g>
<g id="dog">
	<path class="st2" d="M99.2,752.9c-6,3.3-10,7.6-12.1,9.9c-3.2,3.5-5.4,5.8-7.1,9.3c-2.6,5.6-2.3,11.9-1.5,24.3
		c0.6,9.2,1.2,8.3,0.8,10.4c-2.2,11.4-14.7,13.5-14.4,21.2c0.2,4.8,5,8.7,9.1,10.1c6.3,2.2,13.9-0.6,18.4-7.1
		c-4.8,2.4-11.8,7-16.2,15.2c-1.6,3-3.7,6.9-2.3,8.8c2.4,3.3,13.3-0.6,23-4.8c-0.5,2.3-0.6,5.1,1,7.1c3.9,4.9,15.4,1,18.4,0
		c3.4-1.2,3.9-1.8,19.2-11.4c8-5,10.8-6.7,15.4-10.1c3.9-2.9,6.9-5.4,9.1-7.3c7.2,0.2,15.9-0.2,25.5-2c18.1-3.5,32-10.6,40.9-16.2
		c0.7,2.9,1.3,5.9,2,8.8c-8.7,5.4-15.4,9.4-20,12.1c-2.9,1.7-5.9,3.5-5.6,4.8c0.5,1.9,7.3,1.8,11.6,1.8c4.8,0,8.8-0.6,11.6-1
		c0.2,0.7,0.9,2.6,2.8,3.5c2.8,1.5,6.4-0.2,6.3-0.5c0-0.2-1.5-0.2-1.5-0.3c0-0.2,10.9-0.2,18.4-0.8c6.3-0.5,15.5-1.7,26.8-5.3
		c1.9-7.7,2.3-13.7,2.3-17.9c0-3.1-0.2-4.7,0.3-7.8c0.9-6.1,2.8-8.1,3.8-12.6c0.7-3,0.9-7.5-1-13.4c3.3-1.3,5.5-3.1,6.8-4.3
		c0.3-0.3,7.1-6.9,6.3-15.9c-0.2-1.9-0.4-4.4-2-5.3c-2.6-1.4-7.1,2.2-9.3,4.8c-3.9,4.5-4.1,10.1-4,12.6c-2.7-4.2-8.1-11.4-17.4-15.9
		c-3.7-1.8-7.4-2.9-11.4-3.5c-18.8-3.2-40.9,3.3-54.8,8.3c-18.2,6.6-26.9,12.3-38.1,10.4c-3.4-0.6-10.8-1.9-15.9-7.6
		c-2-2.2-2.2-3.5-4.8-6.6c-0.9-1.1-5.6-6.6-11.6-9.3C115.8,743.8,102,751.4,99.2,752.9z"/>
	<g>
		<g>
			<path class="st3" d="M150.4,771c-2.3,5.3-5.5,10.1-9.5,14.4c-1.3,1.4,0.8,3.5,2.1,2.1c4.2-4.4,7.5-9.4,9.9-15
				C153.8,770.7,151.2,769.2,150.4,771L150.4,771z"/>
		</g>
	</g>
	<g>
		<g>
			<path class="st3" d="M151.8,772.2c-2.3,6.4-5.8,12-10.5,16.8c-1.3,1.4,0.8,3.5,2.1,2.1c5.1-5.2,8.8-11.3,11.3-18.1
				C155.3,771.2,152.4,770.4,151.8,772.2L151.8,772.2z"/>
		</g>
	</g>
	<g>
		<g>
			<path class="st1" d="M102.5,776.4c1.9,12.2,3.7,24.8,9.6,35.9c4.2,8,13,15.6,22.4,10.7c9.3-4.9,10.6-16.9,10-26.3
				c-0.7-10.3-4.3-20.2-11.8-27.5c-1.4-1.3-3.5,0.8-2.1,2.1c6.3,6.2,9.7,14.4,10.7,23.1c1,8.9,0.7,21.8-8.7,26.2
				c-11.4,5.2-18.5-9.8-21.3-18.2c-3-8.7-4.4-17.7-5.7-26.8C105.1,773.7,102.2,774.5,102.5,776.4L102.5,776.4z"/>
		</g>
	</g>
	<g>
		<g>
			<path class="st1" d="M98.7,751.3c-11.3,7.9-21.6,18.1-23.1,32.5c-0.3,3.4-0.1,6.8,0.7,10c1.2,4.7,3.8,8.6,1,13.4
				c-4.4,7.6-10.7,14.7-15.9,21.8c-1.1,1.6,1.5,3.1,2.6,1.5c4.9-6.7,10-13.3,14.7-20.1c4-5.7,2.9-9.5,1-15.9
				c-5.4-17.3,7.5-31.6,20.6-40.7C101.8,752.8,100.3,750.2,98.7,751.3L98.7,751.3z"/>
		</g>
	</g>
	<g>
		<g>
			<path class="st1" d="M61.3,831.6c4.2,3.8,8.8,7.9,14.7,8.5c5.4,0.5,10.6-2.4,14.8-5.4c9.5-6.7,16.3-16.2,20.7-26.9
				c0.7-1.8-2.2-2.6-2.9-0.8c-3.5,8.6-8.9,16.5-16,22.5c-4,3.3-9.2,7.3-14.6,7.6c-5.9,0.4-10.6-4-14.6-7.7
				C62,828.2,59.9,830.3,61.3,831.6L61.3,831.6z"/>
		</g>
	</g>
	<g>
		<g>
			<path class="st1" d="M80.5,796.2c1.5,2.8,3.2,5.4,5.3,7.7c1.3,1.5,3.4-0.7,2.1-2.1c-1.9-2.2-3.5-4.6-4.8-7.1
				C82.1,793,79.6,794.5,80.5,796.2L80.5,796.2z"/>
		</g>
	</g>
	<g>
		<g>
			<path class="st1" d="M65.9,826.3c2,2.3,2.6,5.2,2.3,8.1c-0.2,1.9,2.8,1.9,3,0c0.4-3.7-0.7-7.4-3.2-10.2
				C66.7,822.8,64.6,824.9,65.9,826.3L65.9,826.3z"/>
		</g>
	</g>
	<g>
		<g>
			<path class="st1" d="M63.2,830.7c1.2,0.9,2.3,1.9,3.5,2.8c1.2,1,3.4-0.3,2.4-1.8c-0.8-1.2-1.3-2.6-1.3-4.1
				c-0.9,0.3-1.9,0.5-2.8,0.8c0.3,0.4,0.6,0.8,0.8,1.2c1.1,1.6,3.7,0.1,2.6-1.5c-0.3-0.4-0.6-0.8-0.8-1.2c-0.8-1.1-2.8-0.8-2.8,0.8
				c0,2,0.6,3.9,1.7,5.6c0.8-0.6,1.6-1.2,2.4-1.8c-1.2-0.9-2.3-1.9-3.5-2.8c-0.6-0.5-1.5-0.6-2.1,0
				C62.7,829.1,62.6,830.2,63.2,830.7L63.2,830.7z"/>
		</g>
	</g>
	<g>
		<g>
			<path class="st1" d="M122.6,749.1c8.6,2.1,14.4,8.7,19.6,15.4c5,6.3,8.4,9.7,16.8,9.2c17.4-1.1,34-7.7,50.5-12.7
				c17-5.1,38.5-10.7,55.3-2.1c17.4,8.9,23.9,30.3,15.2,47.6c-0.9,1.7,1.7,3.2,2.6,1.5c12.5-25-4.1-53.1-31.3-56
				c-31.2-3.3-59.4,15.2-89.8,18.4c-5.7,0.6-10.5,0.3-14.5-4.5c-2.4-2.9-4.6-6-7.1-8.8c-4.6-5.1-9.9-9.3-16.7-11
				C121.5,745.7,120.7,748.6,122.6,749.1L122.6,749.1z"/>
		</g>
	</g>
	<g>
		<g>
			<path class="st1" d="M250.3,777.7c-7.8,6.2-13.5,14.3-12.9,24.7c0.6,9.2,6.1,17.1,14.3,21.3c1.7,0.9,3.2-1.7,1.5-2.6
				c-7.7-4-12.9-11.5-12.8-20.4c0.1-9,5.3-15.6,12-20.9C253.9,778.7,251.8,776.5,250.3,777.7L250.3,777.7z"/>
		</g>
	</g>
	<g>
		<g>
			<path class="st1" d="M251.9,822.9c-5.6,1.7-11.1,3.7-16.5,6.1c-3,1.4-10.4,3.4-11.4,7.1c-2.1,7.8,17.3,4.7,20.2,4.5
				c5.8-0.4,11.6-1,17.4-1.9c5.1-0.8,12-0.9,16.6-3.4c3.5-1.8,3.2-5.7,3.4-9.2c0.5-6.9,1.1-13.7,1.6-20.6c0.2-1.9-2.8-1.9-3,0
				c-0.3,4.4-0.7,8.7-1,13.1c-0.3,4,0.6,12-3.3,14.3c-2.7,1.6-7.4,1.6-10.5,2.1c-4.9,0.8-9.7,1.5-14.7,2c-4.1,0.4-8.2,0.7-12.3,0.8
				c-2.2,0.1-4.4,0.3-6.6,0.2c-1.9-0.1-5.1,0.6-3.8-2.1c0.6-1.1,4.4-2.4,5.6-2.9c2.3-1.1,4.7-2.2,7.1-3.2c3.9-1.6,7.9-2.9,11.9-4.1
				C254.6,825.2,253.8,822.3,251.9,822.9L251.9,822.9z"/>
		</g>
	</g>
	<g>
		<g>
			<path class="st1" d="M142,802.4c0.7,16.7-13,27.9-26.4,35.1c-5.7,3-27.2,9.8-19.6,20c6.7,9,23.2-0.3,30.5-4.2
				c12.6-6.7,23.6-15.8,34.6-24.9c1.5-1.2-0.6-3.3-2.1-2.1c-9.5,7.8-19,15.7-29.6,21.9c-5.4,3.2-11.1,6-17.1,8
				c-3.4,1.1-7.9,2.9-11.3,1.2c-7-3.4-1.2-8.5,2.8-10.7c18-9.5,42.3-20.1,41.2-44.4C144.9,800.5,141.9,800.5,142,802.4L142,802.4z"
				/>
		</g>
	</g>
	<g>
		<g>
			<path class="st1" d="M83.6,796.3c0.5-3.4,2.3-6.5,5.4-8.1c1.7-0.9,0.2-3.5-1.5-2.6c-3.8,2-6.2,5.8-6.8,9.9
				C80.4,797.4,83.3,798.2,83.6,796.3L83.6,796.3z"/>
		</g>
	</g>
	<g>
		<g>
			<path class="st1" d="M96.1,824.9c-1.6,3-4.6,4.7-7.2,6.8c-2.7,2.2-5.3,4.6-7.8,7.1c-3,3.1-9.7,8.5-10,13.2
				c-0.7,11.6,20.9,1.6,25,0.3c1.8-0.6,1-3.5-0.8-2.9c-4.5,1.5-8.9,3.1-13.5,4.4c-1.3,0.5-2.7,0.8-4,0.9c-2.5-2.9-2.6-5.4-0.5-7.3
				c1-1.7,2.8-3.2,4.1-4.6c3-3.2,6.2-6.2,9.6-9c2.8-2.3,5.9-4.1,7.6-7.4C99.6,824.7,97,823.2,96.1,824.9L96.1,824.9z"/>
		</g>
	</g>
	<g>
		<g>
			<path class="st1" d="M160.8,829.5c28.1,0.1,55.7-8.6,78.6-24.9c1.6-1.1,0.1-3.7-1.5-2.6c-22.5,16-49.4,24.6-77.1,24.5
				C158.9,826.4,158.9,829.4,160.8,829.5L160.8,829.5z"/>
		</g>
	</g>
	<g>
		<g>
			<path class="st1" d="M223.9,811.7c0.6,1.7,1.1,3.3,1.7,5c0.9,2.5,1.7,3.3-0.8,4.8c-3.1,1.9-6.8,3.3-10.1,4.9
				c-3.4,1.6-6.8,3.1-10.1,4.9c-1.6,0.8-3.1,1.7-3.8,3.4c-3.6,9.6,20,4.2,23.5,3.1c1.8-0.6,1-3.5-0.8-2.9c-2.7,0.9-5.5,1.6-8.3,1.9
				c-1.8,0.2-6.8,1.3-8.6,0.3c-4.8-2.7,2.9-4.9,4.5-5.7c2.5-1.2,5-2.5,7.6-3.7c2.8-1.4,9.6-3,10.9-6.1c1.2-2.8-2-8.2-2.9-10.8
				C226.2,809.1,223.3,809.9,223.9,811.7L223.9,811.7z"/>
		</g>
	</g>
	<g>
		<g>
			<path class="st1" d="M283.4,773.2c-0.1-3.9,0.6-7.6,2.7-11c0.9-1.4,2.2-3.3,3.8-4c8.4-3.5,6.9,4.4,6.2,7.2
				c-1.8,6.4-6.8,11.6-12.3,15c-1.7,1-0.1,3.6,1.5,2.6c5.4-3.2,9.8-7.8,12.5-13.6c1.7-3.8,3.4-9.4,0.1-12.8c-3-3.1-7.8-2.3-10.9,0.1
				c-4.9,3.8-6.7,10.6-6.5,16.6C280.5,775.1,283.5,775.2,283.4,773.2L283.4,773.2z"/>
		</g>
	</g>
	<g>
		<g>
			<path class="st1" d="M99.7,754.7c6.6-4.4,17.1-8.9,24.8-4.9c1.7,0.9,3.2-1.7,1.5-2.6c-8.8-4.6-20.2-0.1-27.8,4.9
				C96.6,753.1,98.1,755.7,99.7,754.7L99.7,754.7z"/>
		</g>
	</g>
	<path class="st4" d="M132.9,769c3,1.2,10.6,4.6,16,12.8c2.3,3.5,8,12.2,4.8,22c-2.9,8.8-11.1,12.7-13,13.5c1.3-2.8,3.1-7.3,3.5-13
		c0.5-7.2-1.3-12.6-3.3-18.5C139.5,781.5,137.1,775.6,132.9,769z"/>
	<path class="st5" d="M102.9,800.3c-2.8,10.9-8,18-10.8,21.8c-5.8,7.9-12.3,13.2-17.3,16.5c3.8-0.5,9.3-1.9,15-5.3
		c1.6-1,8.8-5.3,14.3-14.3c3-4.9,4.5-9.4,5.3-12.5c-1.7-9.4-3.3-18.8-5-28.3C105,783.1,105.3,791,102.9,800.3z"/>
	<path class="st6" d="M275.9,766.3c0.9,4.7,1.9,12,0.5,20.8c-2.4,15.6-10.6,25.8-14.3,30.3c-11.7,14.3-26.2,20-33,22.3
		c15.8-0.5,28.6-1.9,38-3.3c6.4-0.9,10.5-1.7,13-5c4.2-5.6-0.8-11.6,1.5-25c1.5-9.1,4.2-9.7,4.5-16.3
		C286.4,784.1,284.6,776.1,275.9,766.3z"/>
	<path class="st7" d="M226.2,812c0.7,1.1,3,4.8,1.8,8.3c-0.3,0.8-1.1,2.6-5.8,5c-8,4.2-12.5,2.5-16.3,6.8c-0.3,0.3-2.9,3.3-2,5.3
		c0.9,1.9,4.9,1.7,8.3,1.5c3.3-0.2,8-0.9,13.5-3c3.2-2.1,7.1-4.4,11.8-6.5c5.2-2.3,10-3.8,14-4.8c-0.4-1.3-1.3-3.2-2.8-5.3
		c-2.7-3.6-5.2-4.1-7.5-7.3c-1-1.4-2.3-3.7-2.8-7.3C234.3,807.2,230.2,809.6,226.2,812z"/>
	<path class="st8" d="M295.4,757c-0.2,2.6-0.8,6.5-2.5,10.8c-3,7.7-7.5,11.8-6.8,12.5c0.6,0.6,5-2.1,7.8-6c2.3-3.3,2.9-6.5,3-7.5
		C297.6,762.1,296.1,758.4,295.4,757z"/>
</g>
<g id="guy">
	<g id="leg_back">
		<path class="st9" d="M921.5,745.7c22.6,21.2,45.1,42.5,67.7,63.7c-26.4,53.7-37,82.1-31.8,85.3c6.4,4,37.4-31.3,93.1-106.1
			c-38.4-28-76.8-56-115.2-84.1C930.7,718.3,926.1,732,921.5,745.7z"/>
		<path class="st2" d="M824.7,436.1c-8.4,12.8-3.6,24.5,1.2,68.7c4.9,44.8,0.8,40.1,4.8,71.1c6.8,52.4,21.8,90.3,33.8,120
			c0,0,16.9,42.1,50,80.8c0.9,1.1,3,3.3,6,5.4c3,2.1,9.4,6.5,16.9,5.4c7.9-1.1,13.9-7.8,16.3-13.9c2.7-6.9-0.5-10.1,3-15.7
			c2.6-4,4.9-3.4,11.5-8.4c4.6-3.6,10.5-8.1,13.3-15.7c3.1-8.6,0.7-16.4,0-18.7c-2.1-6.6-6.1-10.8-7.2-12.1
			c-4.9-5.3-12.5-20.2-27.7-50c-11.8-23-30.3-75.1-36.2-140.4c-5.2-58,3.8-78.5-12.7-91C878.2,406.8,838.6,414.9,824.7,436.1z"/>
		<g>
			<g>
				<path class="st1" d="M906,457.3c-0.9,34.8,3.4,69.5,10.9,103.5c7.3,33,16.7,66.3,29.7,97.5c6.6,16,14.8,31.3,25.5,44.9
					c1.2,1.5,3.3-0.6,2.1-2.1c-20-25.2-30.4-56.3-39.8-86.6c-10.2-32.7-18.3-66.1-22.5-100.2c-2.3-18.9-3.3-38-2.8-57
					C909.1,455.3,906.1,455.3,906,457.3L906,457.3z"/>
			</g>
		</g>
		<g>
			<g>
				<path class="st1" d="M825.1,501.5c0.2,53.5,7.3,107.3,24,158.3c8.2,25,18.7,49.4,31.8,72.2c6.6,11.6,13.9,22.9,21.9,33.7
					c6.7,9.1,14.6,19.2,26.2,22.1c10.7,2.7,21.4-1.6,25.6-12.1c4.3-10.9,1.4-25.1,10.4-33.9c1.4-1.4-0.7-3.5-2.1-2.1
					c-6.9,6.7-7.3,16.4-8.7,25.3c-0.7,4.4-1.5,9-3.9,12.8c-4,6.6-11.7,8.8-19,7.4c-13.1-2.5-21.6-15-28.8-25.1
					c-7.1-10-13.7-20.4-19.8-31.1c-24.7-43.8-40-92.5-47.9-142.1c-4.5-28.2-6.6-56.8-6.7-85.4C828.1,499.5,825.1,499.5,825.1,501.5
					L825.1,501.5z"/>
			</g>
		</g>
		<g>
			<g>
				<path class="st1" d="M969.7,700.4c8.1,9.6,14.4,22.1,10.1,34.8c-2.2,6.7-7.2,9.2-12.7,12.7c-4.8,3.1-8.8,7.2-12.1,11.9
					c-1.1,1.6,1.5,3.1,2.6,1.5c2.8-3.8,6-7.4,9.9-10.1c2.5-1.7,5.3-3,7.8-4.8c4.7-3.4,7.3-8.7,8.3-14.3c2.2-12.8-3.8-24.3-11.8-33.9
					C970.6,696.8,968.5,699,969.7,700.4L969.7,700.4z"/>
			</g>
		</g>
		<path class="st10" d="M827,499.2c-0.2,13.2,0.2,27,1.2,41.5c3.6,51.1,14.5,95.4,27,131.6c0,0,15.7,44.9,36.6,76.3
			c2.3,3.4,6.7,9.1,15.6,20.4c9.2,11.8,11.9,14.7,16.8,16.8c0.7,0.3,13.2,5.5,21.6-0.6c2.3-1.6,4.1-5.5,7.8-13.2
			c3.8-7.9,5.7-12.1,6.6-18c4.9-0.2,8.5-2.9,9-6c0.6-3.8-3.8-7-4.2-7.2c-6-4.1-14.3-0.7-18,0c-18.3,3.3-41.2-40.3-48.1-53.5
			c-28.5-55.3-42.8-82.9-52.9-113.5C840.1,554.9,832.8,529.7,827,499.2z"/>
		<path class="st5" d="M840.2,615.8c0.9-0.3,2.5,4.2,18,35.4c30.2,60.7,37.4,69.5,45.1,76.3c9.2,8.2,25.7,19.4,54.1,24
			c0.3,1.8,3.9,21.6-7.8,30.6c-5.1,4-11,4.2-12.6,4.2c-18.1,0.6-36.9-24.1-53.5-53.5C851.2,675.6,836.9,616.9,840.2,615.8z"/>
	</g>
	<g id="leg_front">
		<path class="st9" d="M701.4,751.9c-13.4,28-26.7,55.9-40.1,83.9c-59.1-8.8-89.5-10.2-91-4.3c-1.9,7.3,41.3,26.1,129.4,56.3
			c15-45.1,30-90.2,44.9-135.4C730.3,752.3,715.9,752.1,701.4,751.9z"/>
		<path class="st2" d="M820.3,426.9c-10.3,8.8-13.3,18.2-21.6,37.4c-12.8,29.5-27.3,58.3-40.3,87.8c-25.9,58.8-34.3,71.8-53.9,118
			c-11.3,26.6-11.2,28.5-17.3,39.6c-6.3,11.4-12.8,21-17.3,37.4c-2.7,9.8-3.3,17.1-0.7,24.5c1,2.9,4.1,12,12.2,15.1
			c5.2,2,10.5,0.8,16.5-0.7c4.9-1.2,8.8-2.9,11.5-4.3c1.8,2.3,5,5.7,10.1,7.9c9.5,4.3,18.6,1.4,23,0c2.6-0.8,12.3-4.2,19.4-13.7
			c4.9-6.5,6.3-13,7.2-16.5c3.6-14.9,11-28.6,15.8-43.2c2.6-8,7.6-20.2,41-69c36-52.6,37.8-49.5,55.4-78.4
			c19.1-31.4,29.8-48.6,34.5-74.8c3.8-21.2,9.4-52.3-9.2-70.7C885.5,401.9,842.8,407.5,820.3,426.9z"/>
		<g>
			<g>
				<path class="st1" d="M916.3,446.3c6.3,57.6-24.9,109.9-57.6,154.5c-16.6,22.6-34.1,44.5-49.2,68C793.9,693,781.8,719,771.9,746
					c-5,13.7-8.2,31.3-21.7,39.5c-11.3,6.8-26.1,6.3-36.6-1.7c-1.5-1.2-3,1.4-1.5,2.6c17.9,13.5,43.4,6,53-13.6
					c6.3-12.9,10-27.3,15.3-40.6c6-14.9,12.8-29.6,20.6-43.6c29.4-52.3,73.6-95,99.6-149.4c13.8-29,22.3-60.8,18.7-93
					C919.1,444.4,916.1,444.3,916.3,446.3L916.3,446.3z"/>
			</g>
		</g>
		<g>
			<g>
				<path class="st1" d="M818.7,417.9c-27.4,59.9-54.8,119.9-82.3,179.8c-13.8,30.3-27.7,60.5-41.5,90.8
					c-6.5,14.3-13.3,28.5-19.6,42.9c-5,11.3-9.8,24-7.9,36.5c1.6,10.1,7.9,20.8,19,21.6c8,0.6,16.1-3.2,23.5-5.6
					c8.7-2.8,17.5-5.7,26.2-8.5c1.8-0.6,1-3.5-0.8-2.9c-6.9,2.2-13.7,4.4-20.6,6.7c-7.2,2.3-14.4,5.2-21.8,6.8
					c-14.5,3-22.5-9.4-23-22.4c-0.5-14.4,6.7-28.3,12.5-41c6.4-13.9,12.7-27.8,19.1-41.8c25.5-55.7,51-111.4,76.4-167.1
					c14.4-31.5,28.8-63,43.2-94.4C822.1,417.6,819.5,416.1,818.7,417.9L818.7,417.9z"/>
			</g>
		</g>
		<g>
			<g>
				<path class="st1" d="M709.5,784.5c1,0.6,2,1.3,2.9,2c0.6,0.5,1.5,0.6,2.1,0c0.5-0.5,0.6-1.6,0-2.1c-1.1-0.9-2.3-1.7-3.5-2.5
					C709.4,780.9,707.9,783.5,709.5,784.5L709.5,784.5z"/>
			</g>
		</g>
		<path class="st4" d="M872.1,409.1c-12.1,6-8.4,30.4-10.2,57.1c-1.3,19.7-4.6,25.7-50.5,130.4c-38.6,88.1-43.2,99.7-58.3,122.6
			c-18.7,28.3-37.5,49.6-51.1,63.7c3.2-0.2,6.4-0.4,9.6-0.6c2.1,2,5.5,4.6,10.2,6.6c2.3,1,12.6,5.4,23.4,1.8
			c10.6-3.5,15.8-12.7,19.8-19.8c6-10.7,7.6-20.2,8.4-24.6c2.2-11.7,9.1-25,22.8-51.7c18.5-35.9,36.5-50.6,69.7-99.7
			c27.2-40.4,42.2-63.1,49.3-97.3c5.7-27.3,4-50.8,1.8-66.1C902.3,417.6,883.5,403.4,872.1,409.1z"/>
		<path class="st10" d="M915.3,479.4c-1.7-0.7-10.1,19.5-27,49.3c-23.3,40.8-31.4,44.6-62.5,91.3c-31.4,47.2-30.9,55.1-63.7,103.3
			c-17,25-32,44.8-42.1,57.7c-2.9,4.7-2.4,6.9-1.8,7.8c2.5,4.3,15.1,1.4,21,0c7.6-1.8,11.5-2.7,15.6-5.4c8.7-5.7,10.6-14.6,16.8-33
			c3.3-9.9,7.5-19.5,10.8-29.4c7.2-21.2,17.4-36.1,34.2-60.1c57.6-81.9,57.4-77.3,67.3-95.5C907.6,522.2,917.7,480.4,915.3,479.4z"
			/>
	</g>
	<g id="hand_back">
		<path class="st11" d="M631.1,128.4c-2.6,4.4-3.1,8.6-3.3,10.5c-1,8.2,1.8,14.6,3,17.1c6.6,14.3,21.7,19.2,24.4,20
			c1.8,6.7,3.6,13.4,5.6,20.2c4.5,15.9,9.2,31.5,14,46.7c6.4-0.9,12.8-1.8,19.2-2.7c-1.8-8.5-4-15.3-5.6-19.8
			c-4.8-13.8-9.3-20.7-13.2-35.7c-1-4-1.7-7.4-2.1-9.5c1.6-1.1,3.8-3,5.9-5.7c8.3-10.8,6.3-24,5.9-26.8c-0.7-4.3-1.8-12.1-8.4-18.7
			c-8.4-8.5-19.2-8.7-20.8-8.7C646,115,636,120,631.1,128.4z"/>
		<path class="st2" d="M636.9,136.5c-0.4,1.2-1.5,5.5-0.3,10.8c1.8,7.8,8,14.9,16.3,17.3c6.5,1.9,16.4,1.7,21.7-4.8
			c3.7-4.5,3.6-9.9,3.5-14.9c-0.1-5.6-0.3-14.2-7.1-19.8c-8.2-6.8-19.1-3.4-19.8-3.2C644.1,124.2,638.8,129.9,636.9,136.5z"/>
		<path class="st2" d="M655,199.6c-0.3,1.5-0.7,3.7-0.7,6.2c0,1.2,0,4.5,1.2,9.5c0.8,3.1,1.3,3.9,4.6,11.9c3.6,8.7,4.3,11.1,7,12.2
			c1.8,0.8,3.7,0.5,4.9,0.2c-2.9-4.6-2.7-7.3-2-8.9c0.6-1.5,1.6-1.8,2.2-3.7c0.2-0.7,0.5-2-0.6-6.5c-1.1-4.4-1.6-4.4-1.9-7
			c-0.4-3,0.3-3.1-0.1-5.9c-0.1-0.5-0.5-3.2-2.2-6.3c-1.6-2.8-2.6-4.6-4.6-5.2C660.2,195.5,657.3,197,655,199.6z"/>
		<path class="st2" d="M679.9,198.4c-2.5,2.5-6,7.2-4.6,9.7c1.2,2,5.4,2.2,7.5,2.3c1.5,0.1,2.7,0,3.6-0.1c0.4,1.1,0.8,2.1,1.1,3.2
			c2.8,8.2,5.2,16.3,7.2,24.3c0.3,1.1,0.6,2.2,0.8,3.2c-0.9,1.3-2.6,3.3-5.3,4.9c-3.7,2.1-7.2,2.4-8.9,2.4
			c1.9,4.6,4.7,10.4,8.9,16.7c1.2,1.8,4.7,7.1,10.5,13.4c5.5,6,11,12,19.8,17.2c11.9,7.1,23.1,8.7,29.3,9.5
			c9.3,1.2,16.6,0.7,20.3,0.3c3.2-0.3,15.9-1.9,30.6-9.4c13.7-7,22-15.4,28.3-21.9c4.9-5,13.3-13.9,20.6-28
			c5-9.8,6.9-17.1,10.5-31.4c5.1-20.2,7.6-30.3,2.6-34.9c-4.2-3.8-11.6-2.2-17.6-0.8c-9.9,2.2-16.6,7.5-24.7,14.1
			c-4.1,3.4-7.7,6.9-14.6,13.7c-14.6,14.4-15.5,16.7-23.5,23.3c-4.8,4-8.7,6.6-16.5,11.7c-15.6,10.4-20,11.3-23.4,11.5
			c-6.2,0.3-10.9-1.8-15.2-3.7c-12.8-5.8-18.9-16-20.8-19.2c-2.5-4.3-4.4-7.6-4.5-12.2c-0.1-5.3,2.2-7,2.3-13.5
			c0.1-3.8,0.2-9.1-3-11.8C696.2,188.5,685.6,192.8,679.9,198.4z"/>
		<g>
			<g>
				<path class="st1" d="M700.2,223.7c9.4,16.2,23.9,33.2,44.7,30.7c1.9-0.2,1.9-3.2,0-3c-19.8,2.4-33.2-13.9-42.2-29.2
					C701.8,220.5,699.2,222,700.2,223.7L700.2,223.7z"/>
			</g>
		</g>
		<g>
			<g>
				<path class="st1" d="M723,258c13.2,1.2,25.4-4.5,36.5-10.9c11.5-6.6,22.1-14.6,31.7-23.8c19.2-18.5,39.2-48.3,69.9-42.8
					c1.9,0.3,2.7-2.6,0.8-2.9c-27.3-4.9-47.5,17-64.4,34.9c-9.9,10.5-20.6,20.1-32.8,27.9c-12.4,8-26.5,15.9-41.7,14.6
					C721.1,254.8,721.1,257.8,723,258L723,258z"/>
			</g>
		</g>
		<g>
			<g>
				<path class="st1" d="M676.2,243.1c14.7,27.9,32.8,55.4,65.7,62.4c30.3,6.5,61.1-4.5,83.3-25.3c13-12.2,23-27.2,30.2-43.4
					c0.8-1.7-1.8-3.3-2.6-1.5c-12.1,27-32.6,51.6-60.6,62.8c-28.2,11.2-61.7,7.6-84.1-13.7c-12.6-12-21.2-27.5-29.3-42.8
					C677.9,239.8,675.3,241.4,676.2,243.1L676.2,243.1z"/>
			</g>
		</g>
		<g>
			<g>
				<path class="st1" d="M684.3,194.2c-5.1,2.2-12.3,8.9-9.5,15.2c3.1,6.8,14.1,0.9,18-2c1.5-1.1,0-3.7-1.5-2.6
					c-2.3,1.7-13,8.1-14,2.2c-0.8-4.4,5.2-8.7,8.6-10.2C687.6,196,686,193.4,684.3,194.2L684.3,194.2z"/>
			</g>
		</g>
		<g>
			<g>
				<path class="st1" d="M684.9,197c3.8-2.9,9.8-7.5,14.6-3.3c3.9,3.5,3.1,9.6,2.4,14.1c-0.9,5.8-3.2,13.9,0.5,19.1
					c1.1,1.6,3.7,0.1,2.6-1.5c-3.6-5.1-0.3-14.3,0.3-19.9c0.5-4.2,0.3-8.5-2.1-12c-5.2-7.6-14-3.5-19.8,0.9
					C681.9,195.6,683.4,198.2,684.9,197L684.9,197z"/>
			</g>
		</g>
		<g>
			<g>
				<path class="st1" d="M683.2,210.3c3.4,10.1,6.5,20.3,9.5,30.6c0.3-0.6,0.7-1.2,1-1.8c-6.8,1.6-13.8-0.1-20.2,3.2
					c0.7,0.3,1.5,0.6,2.2,0.9c-1.2-4.3-2.7-8.6-4.2-12.8c-0.7-1.8-3.6-1-2.9,0.8c1.6,4.2,3,8.5,4.2,12.8c0.3,1,1.3,1.3,2.2,0.9
					c6-3.1,13.1-1.4,19.5-2.9c0.8-0.2,1.3-1.1,1-1.8c-3-10.3-6.1-20.4-9.5-30.6C685.5,207.6,682.6,208.4,683.2,210.3L683.2,210.3z"
					/>
			</g>
		</g>
		<g>
			<g>
				<path class="st1" d="M673.9,244.2c4.4,7.2,18.1,4.5,21.2-2.7c0.8-1.8-1.8-3.3-2.6-1.5c-2.1,5-12.8,8-16.1,2.7
					C675.5,241,672.9,242.5,673.9,244.2L673.9,244.2z"/>
			</g>
		</g>
		<g>
			<g>
				<path class="st1" d="M676.6,245.1c5.1,1.1,10.1,0.8,15-1c1.8-0.7,1-3.6-0.8-2.9c-4.4,1.6-8.9,1.9-13.4,1
					C675.5,241.8,674.7,244.7,676.6,245.1L676.6,245.1z"/>
			</g>
		</g>
		<g>
			<g>
				<path class="st1" d="M675.7,244.6c3.6-5.5,10.4-7,16-3.7c1.7,1,3.2-1.6,1.5-2.6c-7.2-4.1-15.6-2.1-20.2,4.8
					C672,244.7,674.6,246.3,675.7,244.6L675.7,244.6z"/>
			</g>
		</g>
		<g>
			<g>
				<path class="st1" d="M681.2,242.8c1.2-3.8,6.3-1.7,8.7-0.6c1.7,0.8,3.3-1.8,1.5-2.6c-4.3-2-11.2-3.7-13.1,2.4
					C677.8,243.9,680.7,244.7,681.2,242.8L681.2,242.8z"/>
			</g>
		</g>
		<g>
			<g>
				<path class="st1" d="M668.7,238.1c-2.6-1.7-4.3-4.6-4.2-7.8c0.1-1.4,0.5-2.7,1.1-3.9c0.3-0.5,3.1-4.1,3.8-3.6
					c1.5,1.2,3.6-0.9,2.1-2.1c-3.8-3-8.4,3.1-9.4,6.4c-1.7,5.3,0.6,10.6,5.1,13.6C668.8,241.7,670.3,239.1,668.7,238.1L668.7,238.1z
					"/>
			</g>
		</g>
		<g>
			<g>
				<path class="st1" d="M669.6,232.3c4.4-2.5,5.1-8.4,1.2-11.7c-1.5-1.2-3.6,0.9-2.1,2.1c2.4,2,2.2,5.4-0.6,7
					C666.4,230.7,667.9,233.3,669.6,232.3L669.6,232.3z"/>
			</g>
		</g>
		<g>
			<g>
				<path class="st1" d="M665.3,239c2.2,2.2,5.7,2.7,8.3,1c1.6-1,0.1-3.6-1.5-2.6c-1.5,1-3.4,0.8-4.7-0.5
					C666.1,235.5,664,237.6,665.3,239L665.3,239z"/>
			</g>
		</g>
		<g>
			<g>
				<path class="st1" d="M662.9,229c-1.8-2.7-2.4-5.8-1.7-9c0.8-3.8,4.2-8.4,8.2-4.5c1.4,1.4,3.5-0.8,2.1-2.1
					c-3.9-3.9-8.7-2.8-11.5,1.8c-2.9,4.7-2.6,10.8,0.4,15.3C661.4,232.1,664,230.6,662.9,229L662.9,229z"/>
			</g>
		</g>
		<g>
			<g>
				<path class="st1" d="M659.4,222.1c-0.2-1.4-0.7-2.5-1.4-3.8c-1.3-2.4-1.6-4.2-0.9-6.9c1.2-4.6,5.1-8,9.8-5.2
					c1.7,1,3.2-1.6,1.5-2.6c-4.3-2.5-9.8-1.5-12.5,2.8c-1.4,2.2-2.3,5.1-2.3,7.7c-0.1,3.3,2.4,5.6,2.9,8.8
					C656.8,224.8,659.7,224,659.4,222.1L659.4,222.1z"/>
			</g>
		</g>
		<g>
			<g>
				<path class="st1" d="M656.5,207.5c-1.6-2.3-1.7-5.5,0.3-7.6s5.2-2.2,7.6-0.7c1.6,1,3.1-1.6,1.5-2.6c-3.5-2.2-8.3-1.8-11.2,1.2
					s-3.1,7.9-0.8,11.3C655,210.6,657.6,209.1,656.5,207.5L656.5,207.5z"/>
			</g>
		</g>
		<g>
			<g>
				<path class="st1" d="M665.8,205.8c2.2,1.1,3,4.2,1.3,6.1c-1.3,1.4,0.8,3.6,2.1,2.1c2.9-3.2,2.1-8.8-1.9-10.8
					C665.6,202.4,664,204.9,665.8,205.8L665.8,205.8z"/>
			</g>
		</g>
		<g>
			<g>
				<path class="st1" d="M663.2,199.3c1.9,0.9,3,2.9,2.6,5.1c-0.4,1.9,2.5,2.7,2.9,0.8c0.7-3.4-0.9-6.9-4-8.4
					C663,195.8,661.5,198.4,663.2,199.3L663.2,199.3z"/>
			</g>
		</g>
		<g>
			<g>
				<path class="st1" d="M669.2,216.8c0.7,1.1,0.9,2.5,0.3,3.8c-0.3,0.7-0.2,1.6,0.5,2.1c0.6,0.4,1.7,0.2,2.1-0.5
					c1-2.2,0.9-4.7-0.3-6.8C670.8,213.6,668.2,215.1,669.2,216.8L669.2,216.8z"/>
			</g>
		</g>
		<g>
			<g>
				<path class="st1" d="M654.4,177.2c1.2,6.8,2.7,13.5,4.6,20.2c0.5,1.9,3.4,1.1,2.9-0.8c-1.9-6.6-3.4-13.4-4.6-20.2
					C657,174.5,654.1,175.3,654.4,177.2L654.4,177.2z"/>
			</g>
		</g>
		<g>
			<g>
				<path class="st1" d="M671.2,175.6c2.4,8,4.8,15.9,7.1,23.9c0.6,1.8,3.4,1.1,2.9-0.8c-2.4-8-4.8-15.9-7.1-23.9
					C673.5,172.9,670.6,173.7,671.2,175.6L671.2,175.6z"/>
			</g>
		</g>
		<g>
			<g>
				<path class="st1" d="M654.7,174.3c-12.7-1.2-24.3-17.4-26.1-29.2c-2.2-14.3,11.1-26.1,24.3-28.6c28.3-5.2,43.3,44.4,19.1,57.4
					c-1.7,0.9-0.2,3.5,1.5,2.6c21-11.3,15.3-47.1-2.3-58.8c-21.2-14.1-53,8.6-44.2,33.2c4.1,11.4,14.8,25.1,27.7,26.3
					C656.6,177.5,656.6,174.5,654.7,174.3L654.7,174.3z"/>
			</g>
		</g>
		<g>
			<g>
				<path class="st1" d="M654.6,163.8c-9.7-2.2-17.3-10.7-17.2-20.9c0.1-10.8,9-20.4,19.9-20.8c13.1-0.4,19.5,12.3,19.3,23.9
					c-0.1,6.7-1.1,13.1-8,15.8c-5.3,2-11.1,3.8-16.7,1.6c-1.8-0.7-2.6,2.2-0.8,2.9c6.4,2.5,13.8,0.4,19.9-2.3
					c5.8-2.6,7.5-7.2,8.3-13.3c1.6-13.3-3.6-29.6-18.9-31.4c-12.6-1.5-23.8,8.3-25.6,20.6c-1.8,12.5,7.1,24,19.2,26.8
					C655.7,167.1,656.5,164.2,654.6,163.8L654.6,163.8z"/>
			</g>
		</g>
		<g>
			<g>
				<path class="st1" d="M657.8,121c-4.1,12.9-8.2,25.9-12.2,38.8c-0.6,1.8,2.3,2.6,2.9,0.8c4.1-12.9,8.2-25.9,12.2-38.8
					C661.3,120,658.4,119.2,657.8,121L657.8,121z"/>
			</g>
		</g>
		<g>
			<g>
				<path class="st1" d="M663.7,135.4c-3.1,9.3-6.5,18.5-10,27.6c-0.7,1.8,2.2,2.6,2.9,0.8c3.5-9.1,6.9-18.4,10-27.6
					C667.2,134.3,664.3,133.5,663.7,135.4L663.7,135.4z"/>
			</g>
		</g>
		<path class="st12" d="M861.7,180.2c-4.4,11.1-12.1,27.6-25.3,45.2c-14.2,19.1-30.3,40.7-59.3,50.1c-7.2,2.3-28.7,9-54.5,1
			c-22.5-7-36-21.4-41.3-27.7c2.5,6.7,7.2,17,16,27.2c4.6,5.3,21.5,24.4,50.6,29.2c3.6,0.6,22.4,3.5,44.3-4.9
			c24.1-9.2,37.1-26.3,46.2-38.4c6.4-8.5,17.8-24.1,22.4-47.7C863.5,200.2,862.8,188.2,861.7,180.2z"/>
		<path class="st13" d="M702.2,277.5c7.5,4.8,21.1,12.1,39.4,14.1c22.7,2.5,39.9-4.6,52.5-9.7c25-10.3,42.5-25.8,53.5-37.9
			c-3.8,9-11.8,24.4-27.7,37.9c-7.5,6.4-33.4,28.4-68.6,23.3C724.5,301.3,707.7,283.8,702.2,277.5z"/>
	</g>
	<g id="torso">
		<path class="st3" d="M844,170.4c-16.6,12.3-22.7,28.7-29.6,46.9c-12.8,33.8-10.7,60.7-9.3,103.3c0.9,27.1,1.7,66.4,0.9,115.4
			c17.2,4.3,38.8,8,63.8,8.9c19.4,0.6,36.7-0.6,51.3-2.6c8.2-37.7,16.8-68.1,23.2-89.2c21.4-70.6,43.1-122.3,23.3-163.7
			c-1-2-2-3.7-3.1-5.2C941.7,152,877.8,145.3,844,170.4z"/>
		<path class="st14" d="M916.2,157.4c-1.3,7.3-3.5,18.8-6.8,32.6c-18.7,78-37.5,82.3-40.8,125.5c-3.4,43.5,14.2,59.2-0.5,91.9
			c-7.7,17.1-19.5,28.5-28.2,35.5c13.9,1,28.8,1.6,44.7,1.5c12.5-0.1,24.3-0.6,35.5-1.5c7.1-30.9,13.9-55.6,19-72.9
			c2.5-8.5,5.5-18.6,11.2-37.4c9.3-30.8,11.7-38.4,15.6-53c5.7-21.7,8.6-32.8,9.2-43.8c1-16.5,2.1-35.3-9.7-51.1
			c-7.5-10.1-17.8-15.5-23.3-18.5C931.9,160.7,922.5,158.4,916.2,157.4z"/>
		<path class="st15" d="M958,296c-2.1-0.8-12.8,27.6-31.6,66.1c-17.5,35.8-34.1,64-45.7,82.7c13.1-1,26.3-1.9,39.4-2.9
			c3.4-13.3,8.6-33.2,15.1-57.4C951.2,324.9,960.1,296.7,958,296z"/>
	</g>
	<g id="hand_front">
		<path class="st2" d="M950.7,179.7c-3.3,1.2-8,3.2-13.4,6.3c-19,10.9-29.1,25.9-35.3,34.9c0,0-20.9,30.4-53.1,71.2
			c-10,12.7-20,24.5-32.3,37.3c-25.5,26.6-36.8,32.1-41.7,34.2c-12.2,5.4-22.9,10.1-37,9c-9.3-0.7-15.1-3.6-21.5,0.3
			c-6.8,4.1-11.3,13.9-10.4,19.3c0.1,0.6,0.5,2.5,0.7,5.2c0.1,0.7,0.2,3.1,0,6.6c-0.3,5.4-0.9,4.9-0.7,6.9c0.6,4.3,3.6,6.5,2.7,7.9
			c-0.6,1-2.2,0.1-3.4,1.4c-1.4,1.4-0.8,4.1-0.7,4.5c0.7,3.1,3.3,4.9,4.4,5.5c4.3,2.8,7.2,1.3,18.1,1.7c7.7,0.3,10,1.2,13.8-0.7
			c1-0.5,2.7-1.4,5.7-4.8c8.6-9.6,7.6-16,15.1-22.1c2.7-2.2,5.4-3.4,7.1-4.1c5.5-2.4,9.1-2.3,14.4-3.5c3.6-0.7,7.2-2.2,14.4-5.2
			c11.7-4.8,20.7-9.5,24.2-11.4c21.1-11.4,40.2-25.8,44.3-29c21.9-16.7,35.9-30.8,54.1-49.1c13.1-13.1,26.9-27.9,40.3-48
			c4.1-6.2,11.4-17.7,13.8-33.9c1.1-7.3,2.2-15.5-2-23.8C966.5,184.2,953.8,180.5,950.7,179.7z"/>
		<g>
			<g>
				<path class="st1" d="M947.7,178.8c-18.9,5.9-33.3,23-45.1,38c-13.4,17.1-25.5,35.1-38.5,52.4c-13.9,18.5-28.3,36.6-44,53.6
					c-14.9,16-31.2,31.8-51.3,41c-11.7,5.3-24.6,8.3-37.4,7.2c-7.3-0.6-16.6-2.4-21.1,5c-1,1.6,1.6,3.2,2.6,1.5
					c2.7-4.5,8.3-4.4,12.9-4c4.8,0.3,9.5,0.9,14.3,0.7c9.5-0.5,18.9-2.9,27.7-6.6c18.7-7.9,34.3-21.5,48.3-36
					c30.2-31.2,55-66.8,80.6-101.7c7.2-9.8,14.6-19.4,23.1-28.1c8.2-8.4,17.5-16.5,29-20.1C950.3,181.1,949.5,178.2,947.7,178.8
					L947.7,178.8z"/>
			</g>
		</g>
		<g>
			<g>
				<path class="st1" d="M947.4,180.7c16.7-2.3,26,15.4,25.9,29.7c-0.1,14.2-6.1,28.2-13.1,40.3c-13,22.7-31.9,42.1-50.2,60.6
					c-36.2,36.3-78.4,69.2-128.3,83.9c-6.1,1.8-13.5,2.4-18.9,6c-5.1,3.4-7.7,10-11.2,14.9c-2.6,3.6-5.4,7.1-8.4,10.4
					c-3.9,4.2-7.5,4.6-12.8,4.2c-4-0.3-8-0.6-12.1-0.9c-4.1-0.3-9.9,0-11.9-4.4c-0.8-1.8-3.4-0.2-2.6,1.5c2.1,4.7,7.1,5.3,11.7,5.7
					c3.7,0.3,7.4,0.6,11.1,0.8c3.6,0.3,7.7,1.1,11.3,0.4c6-1.2,10.5-8.7,14-13.1c4.2-5.4,7.7-14.3,13.8-17.7
					c3.4-1.9,7.7-2.4,11.4-3.4s7.3-2,10.9-3.2c6.5-2.1,13-4.6,19.3-7.3c13.2-5.7,25.8-12.5,37.9-20.3c24.2-15.6,46.2-34.5,66.5-54.8
					c20.6-20.6,42.3-42.7,55.3-69.2c6.8-13.9,12.4-30.7,8-46.1c-3.5-12.4-14.8-22.6-28.2-20.8C944.7,178.1,945.5,181,947.4,180.7
					L947.4,180.7z"/>
			</g>
		</g>
		<g>
			<g>
				<path class="st1" d="M707,391.5c0.9-6.1,16.4-5.5,20.5-5.9c5.6-0.5,10.6-1.7,15-5.4c1.5-1.3-0.7-3.4-2.1-2.1
					c-6.4,5.4-15.2,4.3-23,5.3c-4.1,0.6-12.5,2.1-13.2,7.2C703.8,392.6,706.7,393.4,707,391.5L707,391.5z"/>
			</g>
		</g>
		<g>
			<g>
				<path class="st1" d="M704,391.9c4.9,9.7,15.5,15,26.1,12.7c1.9-0.4,1.1-3.3-0.8-2.9c-9.4,2.1-18.5-2.8-22.8-11.3
					C705.7,388.7,703.1,390.2,704,391.9L704,391.9z"/>
			</g>
		</g>
		<g>
			<g>
				<path class="st1" d="M705.4,394.7c-2,5.2,0.3,11,4.7,14.2c5,3.7,11.5,3.3,17.3,2.3c1.9-0.3,1.1-3.2-0.8-2.9
					c-4.5,0.8-9.6,1.2-13.8-1.2c-4.1-2.3-6.2-7.2-4.6-11.6C709,393.7,706.1,392.9,705.4,394.7L705.4,394.7z"/>
			</g>
		</g>
		<g>
			<g>
				<path class="st1" d="M705.6,403c-2.8,4.6-1.6,10.7,2.3,14.4c4.6,4.4,11.6,3.9,16.9,1.3c1.7-0.8,0.2-3.4-1.5-2.6
					c-4.1,1.9-9.4,2.5-13.1-0.7c-3.1-2.7-4.1-7.3-2-10.9C709.2,402.8,706.6,401.3,705.6,403L705.6,403z"/>
			</g>
		</g>
		<g>
			<g>
				<path class="st1" d="M706.9,425.8c-2-3.2,0.7-7.2,4.5-5.8c1.8,0.7,2.6-2.2,0.8-2.9c-6.2-2.3-11.1,4.9-7.8,10.2
					C705.3,428.9,707.9,427.4,706.9,425.8L706.9,425.8z"/>
			</g>
		</g>
		<g>
			<g>
				<path class="st1" d="M710.2,378c5.6-2,11.5,0.7,13.9,6.1c0.8,1.8,3.4,0.2,2.6-1.5c-2.9-6.5-10.5-9.9-17.3-7.4
					C707.6,375.8,708.4,378.7,710.2,378L710.2,378z"/>
			</g>
		</g>
		<g>
			<g>
				<path class="st1" d="M709.1,376.2c-4,2.9-3.9,9.8,0.6,12.2c1.7,0.9,3.2-1.7,1.5-2.6c-2.4-1.3-3-5.4-0.6-7
					C712.2,377.6,710.7,375,709.1,376.2L709.1,376.2z"/>
			</g>
		</g>
		<g>
			<g>
				<path class="st1" d="M710,384.5c0.2-2.2,0.9-4,2.2-5.8c-0.9,0-1.7,0-2.6,0c1,1.7,1,3.3,0,4.9c0.9,0.1,1.8,0.2,2.7,0.4
					c-0.2-0.6-0.3-5.2,0.9-4.4c0.9,0.6-1.1,3.7-1.5,4.4c0.9,0,1.7,0,2.6,0c-0.4-0.7-0.7-1.4-0.7-2.2c0.4-2.2,1-2.4,1.7-0.5
					c0.5,0.4,1,0.7,1.4,1.1c-0.3-1.1,0-1.7,0.9-1.5c0.9-0.4,1.1-0.1,0.6,0.8c0.7,0.2,1.4,0.4,2.1,0.5c0.3,0.3,0.5,0.6,0.8,0.9
					c-0.3,1.9,2.6,2.7,2.9,0.8c0.4-2.5-1.9-5.9-4.5-3.6c-2.2,2,0,5.7,2.8,4.2c2.7-1.5,1.6-5.6-1.2-6.3c-3.2-0.7-4.8,3.1-3.4,5.5
					c0.4,0.7,1.4,0.9,2.1,0.5c2.5-1.5,2.3-5.7-0.5-6.8c-3.6-1.5-5.9,2.8-5.4,5.8c0.1,0.7,0.8,1.1,1.4,1.1c4.2,0.2,5.2-6,1.3-7.3
					c-5.4-1.8-6.9,5-4.9,8.6c0.6,1.1,2,0.9,2.6,0c1.4-2,4.3-9.2-0.3-9.6c-4.3-0.3-5.5,5.9-4.6,8.9c0.4,1.2,2.1,1.5,2.7,0.4
					c1.5-2.5,1.5-5.4,0-8c-0.6-1-2-0.9-2.6,0c-1.6,2.2-2.3,4.6-2.6,7.3C706.8,386.5,709.8,386.4,710,384.5L710,384.5z"/>
			</g>
		</g>
		<g>
			<g>
				<path class="st1" d="M707.5,387.8c5.1,0.9,17.5,1.9,18.8-5.5c0.3-1.9-2.6-2.7-2.9-0.8c-0.9,5.1-11.6,4-15.1,3.4
					C706.4,384.6,705.6,387.5,707.5,387.8L707.5,387.8z"/>
			</g>
		</g>
		<g>
			<g>
				<path class="st1" d="M719.6,386.3c3.8,15.3,3.4,31-1.3,46c-0.6,1.8,2.3,2.6,2.9,0.8c4.8-15.5,5.3-31.8,1.3-47.6
					C722,383.6,719.1,384.4,719.6,386.3L719.6,386.3z"/>
			</g>
		</g>
		<g>
			<g>
				<path class="st1" d="M719,386.5c0.7,7.6,1.1,15.1,1.3,22.7c0.2,7.3,0.7,14.8-1.7,21.8c-0.6,1.8,2.3,2.6,2.9,0.8
					c2.3-6.7,2-13.7,1.9-20.7c-0.2-8.2-0.6-16.4-1.3-24.6C721.8,384.6,718.8,384.6,719,386.5L719,386.5z"/>
			</g>
		</g>
		<g>
			<g>
				<path class="st1" d="M722.9,386.4c2.2,1.6,1.8,9.5,1.9,12c0.1,3.4,0.1,6.7-0.1,10.1c-0.4,7.2-1.5,14.4-3.3,21.4
					c-0.5,1.9,2.4,2.7,2.9,0.8c2.2-8.8,3.4-17.7,3.5-26.8c0-4.6-0.2-9.2-0.7-13.8c-0.3-2.7-0.5-4.7-2.7-6.3
					C722.8,382.7,721.3,385.3,722.9,386.4L722.9,386.4z"/>
			</g>
		</g>
		<g>
			<g>
				<path class="st1" d="M722.2,385.6c1.3,8.1,1.7,16.2,1.1,24.3c-0.1,1.9,2.9,1.9,3,0c0.6-8.4,0.2-16.8-1.2-25.1
					C724.8,382.9,721.9,383.7,722.2,385.6L722.2,385.6z"/>
			</g>
		</g>
		<g>
			<g>
				<path class="st1" d="M714.9,386.2c3.3,11.1,4.6,22.6,3.7,34.2c-0.2,3-3.3,17.1,4.8,13.3c3-1.4,3.3-4.9,3.6-7.7
					c0.6-5.7,0.7-11.4,0.7-17.1c0-9,1.2-19.9-4-27.7c-1.1-1.6-3.7-0.1-2.6,1.5c4.3,6.5,3.5,14.9,3.6,22.4c0,4.1,0,8.2-0.1,12.3
					c-0.1,1.9-0.2,3.8-0.3,5.7c-0.1,1-0.7,9.2-3.6,5.8c0,0,0.6-4.4,0.7-4.9c0.2-1.8,0.4-3.7,0.5-5.5c0.2-3.7,0.2-7.4,0-11
					c-0.4-7.5-1.8-14.9-3.9-22.1C717.3,383.5,714.4,384.3,714.9,386.2L714.9,386.2z"/>
			</g>
		</g>
		<g>
			<g>
				<path class="st1" d="M718.6,385.8c0.6,4.8,1.1,9.6,1.7,14.3c0.2,1.9,3.2,1.9,3,0c-0.6-4.8-1.1-9.6-1.7-14.3
					C721.3,383.9,718.3,383.9,718.6,385.8L718.6,385.8z"/>
			</g>
		</g>
		<g>
			<g>
				<path class="st1" d="M715.6,382.9c2.1,5.4,3.8,11,4.9,16.7c0.4,1.9,3.3,1.1,2.9-0.8c-1.1-5.7-2.7-11.3-4.9-16.7
					C717.8,380.3,714.9,381.1,715.6,382.9L715.6,382.9z"/>
			</g>
		</g>
		<path class="st14" d="M968.7,190.4c-3.8,0-4.8,20.2-10.2,37.4c-4.7,14.9-12.7,27.1-46.7,60.3c-47.2,46-71.6,69.3-111.8,89.5
			c-17,8.5-31.9,14-42.3,17.5c-3.3,2.9-14.2,11.7-30.1,11.7c-7.8,0-14.1-2.1-18-3.9c-0.7,0.4-2.9,1.7-3.9,4.4
			c-1.1,2.9-0.3,6.3,1.9,8.8c-0.8,0.7-3,3.1-2.9,6.3c0.1,3.7,3,6,3.9,6.8c3.4,2.8,9.2,2.9,20.4,2.9c2.9,0,7.1,0,12.2,0
			c1.9-2,4.7-5.1,7.8-9.2c7.4-10,8.2-15,13.6-19.5c6.2-5.1,13.4-5.3,16.5-5.8c26.7-4.6,59.8-26.6,78.3-38.9
			c29.5-19.6,46.3-38.1,79.8-74.9c0,0,17.8-19.6,31.6-49.6c2.1-4.5,6.6-15,5.3-28.2C973.4,199.7,971.3,190.5,968.7,190.4z"/>
	</g>
	<g id="head">
		<path class="st16" d="M926.6,89.5c0.8,24.2-0.1,37.9,4,61c1.9,10.8,4.2,19.5,5.9,25.3c-10.3,3.3-27.6,7.3-48.8,5
			c-13.9-1.5-25.2-5.2-33.3-8.6c3.7-7,8.2-17.3,10.7-30.3c2.2-11.3,2.2-21.1,1.7-28.5c-10.4-4.2-20.8-8.5-31.2-12.7
			c-0.9-5.3-1.7-10.6-2.6-15.8c-2.9-0.9-5.9-1.8-8.8-2.7c3.9-5.9,10-15.2,17.2-26.8c13.5-21.9,14.3-25.3,19.7-29.6
			c14.6-11.8,41.4-14.8,55.3-2.7C924.6,30.3,925.4,50.1,926.6,89.5z"/>
		<g>
			<g>
				<path class="st1" d="M824,83.9c5.5,1.6,11.1,2.6,16.8,3.2c1.9,0.2,1.9-2.8,0-3c-5.4-0.6-10.8-1.6-16-3.1
					C822.9,80.5,822.1,83.4,824,83.9L824,83.9z"/>
			</g>
		</g>
		<g>
			<g>
				<path class="st1" d="M833,40.6c3.7-0.9,7.7,1.1,9.1,4.7c0.7,1.8,3.6,1,2.9-0.8c-2-5.2-7.3-8.1-12.7-6.8
					C830.3,38.2,831.1,41.1,833,40.6L833,40.6z"/>
			</g>
		</g>
		<g>
			<g>
				<path class="st1" d="M855.5,50.1c4.5-0.2,8.6,2.4,10.1,6.6c0.6,1.8,3.5,1,2.9-0.8c-1.9-5.5-7.1-9.2-12.9-8.9
					C853.6,47.2,853.6,50.2,855.5,50.1L855.5,50.1z"/>
			</g>
		</g>
		<g>
			<g>
				<path class="st1" d="M856.5,62.8c-0.7-1.5-0.4-2.8-0.2-4.4c0.3-0.4,0.3-0.6,0-0.4c-0.3,0.1-0.3,0.3,0,0.6
					c0.1,0.7,0.3,1.4,0.4,2.1c0,0.5-0.2,1.5-0.1,1.9c0.2,0.2,0.4,0.4,0.6,0.6c0-0.3,0.1-0.6,0.1-0.9c0.2-1.5,0.4-3,0.6-4.6
					c0.2-1.5-2.2-2-2.8-0.8c-0.5,1-0.7,1.9-0.7,3c0.1,1.9,3.1,1.9,3,0c0-0.6,0-0.9,0.3-1.5c-0.9-0.3-1.9-0.5-2.8-0.8
					c-0.2,1.8-0.7,3.7-0.7,5.5c0,1.3,0.7,2.4,2,2.6c3.3,0.5,3.6-3.7,3.4-6c-0.3-2.1-1.9-6.6-4.8-4.2c-2.5,2-1.9,6.3-0.8,8.8
					C854.7,66,857.3,64.5,856.5,62.8L856.5,62.8z"/>
			</g>
		</g>
		<path class="st11" d="M855.5,30.7c2-4.7,6-12.1,13.5-19c2.6-2.4,8.2-7.5,15.7-10c14.2-4.7,32.7,0.8,43.7,14.1
			c10.8,13,12.9,31.8,5.6,47.9C907.9,52.7,881.7,41.7,855.5,30.7z"/>
		<g>
			<g>
				<path class="st1" d="M811,18.6c40.5,16.3,81,32.5,121.4,48.8c5.4,2.2,7.7-6.5,2.4-8.7c-40.5-16.3-81-32.5-121.4-48.8
					C808.1,7.8,805.7,16.5,811,18.6L811,18.6z"/>
			</g>
		</g>
		<path class="st17" d="M907.2,55.5c-8.1,0.8-13.7,4.7-20.3,9.4c-13.9,10-12,15.5-21.5,21.5c-15.1,9.6-25.1-1-38.8,8.6
			c-11.7,8.2-14.2,22.6-14.7,26c-0.5,3.2-2.2,16.3,5.9,27.7c7,9.9,18.7,14.8,19.9,13.3c0.4-0.5-0.2-2.3-5.7-8.5
			c1.6,1.9,4.2,4.4,8,6.1c4.4,2,8.9,2.4,9.1,1.7c0.2-0.5-2.3-1.1-3.7-3.6c-0.8-1.5-0.9-3-0.9-4.2c3,3.3,7.1,6.6,11.8,6.5
			c12.9-0.5,22-26.4,25-35c9.7-27.8,5.6-45.5,18.2-52.9c1.1-0.6,6.1-3.6,10.3-1.6c5.4,2.5,7.3,12.2,4,17.5c-2.9,4.5-8.8,4.4-8.7,5.4
			c0.2,1.3,10.2,2,19.7-2.2c3.5-1.5,6.3-2.8,8.5-5.8c3.7-5.3,2.9-12.8,0.7-17.6C929.2,57.5,916,54.6,907.2,55.5z"/>
		<path class="st18" d="M908.6,95c-1.8-0.3-4.4-0.9-4.4-1.5c0-0.3,0.7-0.6,0.7-0.6c0-0.1-2.8,2.1-5.6,1.8c-1.3-0.2-2.3-0.9-2.9-1.5
			c2.2,10.9,4.1,24.1,4.2,39.3c0.2,19.3-2.3,35.8-5.1,48.5c6,0.7,14.6,0.9,24.5-1.2c6.2-1.3,11.5-3.3,15.6-5.2
			c-6-18.4-7.8-32.4-8.3-41.7c-0.3-4.4-0.6-14.7-0.8-19.7c-0.3-9.2-0.6-16.8-0.7-21.9c-0.9,0.4-2.3,1.1-4.1,1.8
			C919.3,94.1,914.3,95.9,908.6,95z"/>
		<path class="st19" d="M901.2,0.8c10.3,5,16.2,15.8,14.8,26.4c-1.7,12.6-12.9,18.5-14,19.1c11.2,4.5,22.4,8.9,33.6,13.4
			c0.9-2.6,1.9-6.2,2.4-10.7c1.4-14.2-4.4-24.8-5.7-26.9c-2-3.4-9.1-14.9-23.1-19.5C906.1,1.4,903.3,1,901.2,0.8z"/>
	</g>
</g>
</svg>
