<?xml version="1.0" encoding="utf-8"?>
<!-- Generator: Adobe Illustrator 21.0.0, SVG Export Plug-In . SVG Version: 6.00 Build 0)  -->
<svg version="1.1" id="icone" xmlns="http://www.w3.org/2000/svg" xmlns:xlink="http://www.w3.org/1999/xlink" x="0px" y="0px"
	 viewBox="0 0 85.6 167.3" style="enable-background:new 0 0 85.6 167.3;" xml:space="preserve">
<style type="text/css">
	.st0{fill:#FFFFFF;}
</style>
<path id="lingua" class="st0" d="M30,123.2L30,123.2c1.7,0,3,1.3,3,3v16.2c0,1.7-1.3,3-3,3l0,0c-1.7,0-3-1.3-3-3v-16.2
	C27,124.6,28.4,123.2,30,123.2L30,123.2z"/>
<circle id="olho-esquerdo" class="st0" cx="17.1" cy="67.4" r="9.4"/>
<circle id="olho-direito" class="st0" cx="70.5" cy="67.4" r="9.4"/>
<path id="fucinho" class="st0" d="M43.8,80.5h6.9c5,0,9,4.1,9,9c0,1.6-0.4,3.1-1.2,4.4l-3.5,6l-3.5,6c-2.5,4.3-8,5.7-12.3,3.2
	c-1.3-0.8-2.5-1.9-3.2-3.2l-3.5-6l-3.5-6c-2.5-4.3-1-9.8,3.3-12.3c1.4-0.8,2.9-1.2,4.4-1.2L43.8,80.5L43.8,80.5z"/>
<path id="orelha" class="st0" d="M1,0h84.2v12.3H47.1l38.1,35.4v15.2L47.9,28.2L1,65.6V50.1l38.5-30.7l-7.6-7.1H1V0z"/>
<path id="boca" class="st0" d="M29,167.3c-4.1,0.1-8.2-0.6-12-2c-3.4-1.2-6.5-3.1-9.2-5.5c-2.5-2.3-4.5-5-5.8-8.1s-2-6.5-2-9.9
	c-0.1-3.3,0.5-6.5,1.5-9.6c1.1-2.8,2.7-5.4,4.8-7.7v-0.2l-5.2-1.1v-7.5h84.5V126H50c2.6,2.3,4.6,5.2,6,8.4c1.3,3,1.9,6.3,1.9,9.6
	c0,7.1-2.5,12.8-7.6,17C45.2,165.2,38.1,167.3,29,167.3z M28.9,156.3c6.2,0,11.1-1.3,14.8-3.9c3.6-2.5,5.7-6.7,5.5-11.1
	c0-2.9-0.6-5.7-2-8.2c-1.5-2.6-3.4-5-5.7-7H14.4c-1.8,1.6-3.4,3.5-4.6,5.6C8.6,134,8,136.5,8.1,139c0,2.2,0.4,4.4,1.2,6.5
	s2.1,4,3.7,5.5c1.9,1.7,4.1,3,6.5,3.8C22.5,155.9,25.7,156.4,28.9,156.3L28.9,156.3z"/>
</svg>
