<?xml version="1.0" encoding="utf-8"?>
<!-- Generator: Adobe Illustrator 21.0.0, SVG Export Plug-In . SVG Version: 6.00 Build 0)  -->
<svg version="1.1" id="Camada_1" xmlns="http://www.w3.org/2000/svg" xmlns:xlink="http://www.w3.org/1999/xlink" x="0px" y="0px"
	 viewBox="0 0 1137.3 1001.9" style="enable-background:new 0 0 1137.3 1001.9;" xml:space="preserve">
<style type="text/css">
	.st0{fill:#161616;}
	.st1{fill:#E8E8E8;}
	.st2{opacity:7.000000e-02;fill:#353535;enable-background:new    ;}
	.st3{fill:#FFFFFF;}
	.st4{opacity:6.000000e-02;fill:#353535;enable-background:new    ;}
	.st5{opacity:0.1;fill:#353535;enable-background:new    ;}
	.st6{opacity:0.39;fill:#EC615B;enable-background:new    ;}
	.st7{opacity:0.39;}
	.st8{fill:#EC615B;}
	.st9{opacity:9.000000e-02;fill:#353535;enable-background:new    ;}
	.st10{opacity:8.000000e-02;fill:#353535;enable-background:new    ;}
	.st11{opacity:5.000000e-02;fill:#353535;enable-background:new    ;}
	.st12{fill:#5222D0;}
	.st13{opacity:0.13;fill:#353535;enable-background:new    ;}
</style>
<g id="background">
	<g>
		<g>
			<path class="st0" d="M257.3,856.6c-85.3,0-170.6,0-255.9,0c-1.9,0-1.9,3,0,3c85.3,0,170.6,0,255.9,0
				C259.2,859.6,259.2,856.6,257.3,856.6L257.3,856.6z"/>
		</g>
	</g>
	<g>
		<g>
			<path class="st0" d="M562.9,841.6c71.2,0,142.3,0,213.5,0c20.2,0,40.4,0,60.6,0c1.9,0,1.9-3,0-3c-71.2,0-142.3,0-213.5,0
				c-20.2,0-40.4,0-60.6,0C561,838.6,561,841.6,562.9,841.6L562.9,841.6z"/>
		</g>
	</g>
	<g>
		<g>
			<path class="st0" d="M853.5,841.6c54.7,0,109.4,0,164.1,0c1.9,0,1.9-3,0-3c-54.7,0-109.4,0-164.1,0
				C851.6,838.6,851.6,841.6,853.5,841.6L853.5,841.6z"/>
		</g>
	</g>
	<g>
		<g>
			<path class="st0" d="M1041.7,841.6c9.5,0,19.1,0,28.6,0c1.9,0,1.9-3,0-3c-9.5,0-19.1,0-28.6,0
				C1039.8,838.6,1039.7,841.6,1041.7,841.6L1041.7,841.6z"/>
		</g>
	</g>
	<g>
		<g>
			<path class="st1" d="M907,838.2c0-33.6,0-67.3,0-100.9c0-1.9-3-1.9-3,0c0,33.6,0,67.3,0,100.9C904,840.1,907,840.1,907,838.2
				L907,838.2z"/>
		</g>
	</g>
	<g>
		<g>
			<path class="st1" d="M906.1,738.8c60.3,0,120.7,0,181,0c1.9,0,1.9-3,0-3c-60.3,0-120.7,0-181,0
				C904.2,735.8,904.2,738.8,906.1,738.8L906.1,738.8z"/>
		</g>
	</g>
	<g>
		<g>
			<path class="st1" d="M1086.2,739.8c0,32,0,64,0,96c0,1.9,3,1.9,3,0c0-32,0-64,0-96C1089.2,737.8,1086.2,737.8,1086.2,739.8
				L1086.2,739.8z"/>
		</g>
	</g>
	<g>
		<g>
			<path class="st1" d="M922.9,748.9c0,24,0,48.1,0,72.1c0,1.9,3,1.9,3,0c0-24,0-48.1,0-72.1C925.9,747,922.9,747,922.9,748.9
				L922.9,748.9z"/>
		</g>
	</g>
	<g>
		<g>
			<path class="st1" d="M946.2,749.5c0,21.8,0,43.6,0,65.4c0,1.9,3,1.9,3,0c0-21.8,0-43.6,0-65.4
				C949.2,747.6,946.2,747.6,946.2,749.5L946.2,749.5z"/>
		</g>
	</g>
	<g>
		<g>
			<path class="st1" d="M971.9,747.7c0,21.6,0,43.2,0,64.8c0,1.9,3,1.9,3,0c0-21.6,0-43.2,0-64.8
				C974.9,745.8,971.9,745.8,971.9,747.7L971.9,747.7z"/>
		</g>
	</g>
	<g>
		<g>
			<path class="st1" d="M998.2,752c0,22,0,44,0,66c0,1.9,3,1.9,3,0c0-22,0-44,0-66C1001.2,750.1,998.2,750,998.2,752L998.2,752z"/>
		</g>
	</g>
	<g>
		<g>
			<path class="st1" d="M1023.8,753.2c0,22.6,0,45.2,0,67.9c0,1.9,3,1.9,3,0c0-22.6,0-45.2,0-67.9
				C1026.8,751.3,1023.8,751.3,1023.8,753.2L1023.8,753.2z"/>
		</g>
	</g>
	<g>
		<g>
			<path class="st1" d="M1055.6,753.8c0,21.4,0,42.8,0,64.2c0,1.9,3,1.9,3,0c0-21.4,0-42.8,0-64.2
				C1058.6,751.9,1055.6,751.9,1055.6,753.8L1055.6,753.8z"/>
		</g>
	</g>
	<g>
		<g>
			<path class="st1" d="M1077,756.9c0,19.2,0,38.3,0,57.5c0,1.9,3,1.9,3,0c0-19.2,0-38.3,0-57.5C1080,754.9,1077,754.9,1077,756.9
				L1077,756.9z"/>
		</g>
	</g>
	<g>
		<g>
			<path class="st1" d="M838.6,253.6c77.1,0,154.3,0,231.4,0c21.9,0,43.9,0,65.8,0c1.9,0,1.9-3,0-3c-77.1,0-154.3,0-231.4,0
				c-21.9,0-43.9,0-65.8,0C836.6,250.6,836.6,253.6,838.6,253.6L838.6,253.6z"/>
		</g>
	</g>
	<g>
		<g>
			<path class="st1" d="M840.1,251.2c0-6.6,0-13.1,0-19.7c0-1.9-3-1.9-3,0c0,6.6,0,13.1,0,19.7C837.1,253.2,840.1,253.2,840.1,251.2
				L840.1,251.2z"/>
		</g>
	</g>
	<g>
		<g>
			<path class="st1" d="M838.6,233.9c76.3,0,152.6,0,228.8,0c21.9,0,43.8,0,65.7,0c1.9,0,1.9-3,0-3c-76.3,0-152.6,0-228.8,0
				c-21.9,0-43.8,0-65.7,0C836.6,230.9,836.6,233.9,838.6,233.9L838.6,233.9z"/>
		</g>
	</g>
	<g>
		<g>
			<path class="st1" d="M1132.5,233.3c0,6.6,0,13.1,0,19.7c0,1.9,3,1.9,3,0c0-6.6,0-13.1,0-19.7
				C1135.5,231.4,1132.5,231.4,1132.5,233.3L1132.5,233.3z"/>
		</g>
	</g>
	<g>
		<g>
			<path class="st1" d="M869.9,155.2c0.9,6.8,1.9,13.8,0.9,20.7c-0.9,6.6-3.8,12.5-6.3,18.6c-4.8,11.5-7.3,23.5-7.2,35.9
				c0,1.9,3,1.9,3,0c0-14.2,3.6-26.8,9.1-39.7c2-4.7,3.8-9.5,4.5-14.6c0.9-7,0-13.9-0.9-20.9C872.6,153.3,869.6,153.3,869.9,155.2
				L869.9,155.2z"/>
		</g>
	</g>
	<g>
		<g>
			<path class="st1" d="M872.3,156.5c3.3-1.6,7-2.2,10.7-1.4c2.1,0.5,2.5,1.7,3.1,3.5c0.3,0.9,0.4,1.3,1,2.1
				c1.2,1.5,3.3-0.6,2.1-2.1c-0.8-1,0-3-1.1-4.2c-1.1-1.4-3.3-1.9-4.9-2.2c-4.3-0.8-8.6-0.1-12.5,1.8
				C869,154.7,870.5,157.3,872.3,156.5L872.3,156.5z"/>
		</g>
	</g>
	<g>
		<g>
			<path class="st1" d="M886.2,157.4c-0.9,12.1,2.2,22.8,7.8,33.4c6.7,12.7,7.8,25.9,8.2,40.1c0.1,1.9,3.1,1.9,3,0
				c-0.4-12.1-0.8-24.6-5.8-35.8c-2.6-5.9-6.1-11.2-8-17.4c-2.1-6.6-2.7-13.4-2.2-20.3C889.4,155.5,886.3,155.5,886.2,157.4
				L886.2,157.4z"/>
		</g>
	</g>
	<g>
		<g>
			<path class="st1" d="M933.6,230c1.4-2.7,0.1-5.6,1.9-7.9c2.8-3.4,11.7-3.3,15.7-3.7c8.9-0.9,17.7-0.8,26.6-0.1
				c8.9,0.7,17.8,1.9,26.8,2.3c4.4,0.2,8.8,0.1,13.2,0c4.4-0.1,16.5,1.3,11.9,8.8c-1,1.6,1.6,3.2,2.6,1.5c4.1-6.6-2.7-12.5-9-13.3
				c-5.5-0.7-11.2,0.2-16.8,0c-6.7-0.2-13.4-0.9-20.1-1.6c-12.7-1.2-25.3-1.9-38-0.4c-4.4,0.5-11,0.5-14.8,3s-0.9,6.3-2.6,9.7
				C930.1,230.2,932.7,231.8,933.6,230L933.6,230z"/>
		</g>
	</g>
	<g>
		<g>
			<path class="st1" d="M970.2,215.3c0.9-2.2,0.4-4.4,1.1-6.6c1.8-5.6,8.9-3.9,13.2-3.9c8,0,15.9,0,23.9,0.1
				c15.9,0,31.8,0.1,47.8,0.1c-0.5-0.4-1-0.7-1.4-1.1c1.1,5.1,2,10.2,2.7,15.4c0.2,1.9,3.2,1.9,3,0c-0.7-5.5-1.6-10.9-2.8-16.2
				c-0.1-0.6-0.8-1.1-1.4-1.1c-19.2-0.1-38.5-0.1-57.7-0.2c-4.6,0-9.3,0-13.9,0c-3.5,0-7.5-0.6-11,0.2c-6.5,1.5-4.2,7.8-6.1,12.5
				C966.6,216.3,969.5,217.1,970.2,215.3L970.2,215.3z"/>
		</g>
	</g>
	<g>
		<g>
			<path class="st1" d="M1031.3,223c8.7,0.5,17.4,0.3,26-0.7c1.9-0.2,1.9-3.2,0-3c-8.7,1-17.3,1.2-26,0.7
				C1029.4,219.8,1029.4,222.8,1031.3,223L1031.3,223z"/>
		</g>
	</g>
	<g>
		<g>
			<path class="st1" d="M1031,203.7c2,5.2,2.9,10.6,2.7,16.2c-0.1,1.9,2.9,1.9,3,0c0.2-5.9-0.8-11.5-2.8-17
				C1033.2,201.1,1030.3,201.9,1031,203.7L1031,203.7z"/>
		</g>
	</g>
	<g>
		<g>
			<path class="st1" d="M1095.4,139.8c0,8.3,0,16.7,0,25c0,7.9,0.6,16.2-0.9,24c-1.4,7.5-5.4,13.6-9.4,19.9
				c-4.3,7-8.2,14.2-11.8,21.6c-0.8,1.7,1.8,3.3,2.6,1.5c3.8-7.9,8-15.6,12.7-23.1c3.8-6,7.4-12,8.7-19.1c1.3-7.2,1-14.6,1-21.8
				c0-9.3,0-18.7,0-28C1098.4,137.9,1095.4,137.9,1095.4,139.8L1095.4,139.8z"/>
		</g>
	</g>
	<g>
		<g>
			<path class="st1" d="M1097.9,141.7c4.9-2.7,10.4-2.6,15.2,0.2c1.7,1,3.2-1.6,1.5-2.6c-5.7-3.4-12.5-3.5-18.2-0.2
				C1094.7,140,1096.2,142.6,1097.9,141.7L1097.9,141.7z"/>
		</g>
	</g>
	<g>
		<g>
			<path class="st1" d="M1110.7,140.8c0,9.2-0.1,18.5-0.1,27.7c0,7.4-0.7,15.2,0.3,22.6c1,7,4.8,12.2,8.9,17.7
				c5.1,6.7,8.7,13.7,10.5,22c0.4,1.9,3.3,1.1,2.9-0.8c-1.4-6.7-4-13-7.8-18.7c-4.2-6.3-9.9-11.6-11.3-19.4
				c-1.5-8.2-0.5-17.2-0.5-25.4c0-8.6,0.1-17.2,0.1-25.8C1113.7,138.9,1110.7,138.9,1110.7,140.8L1110.7,140.8z"/>
		</g>
	</g>
	<g>
		<g>
			<path class="st1" d="M952.4,285.6c0,37.6,0,75.3,0,112.9c0,1.9,3,1.9,3,0c0-37.6,0-75.3,0-112.9
				C955.4,283.6,952.4,283.6,952.4,285.6L952.4,285.6z"/>
		</g>
	</g>
	<g>
		<g>
			<path class="st1" d="M956.1,285.9c52.1,0,104.2,0,156.3,0c1.9,0,1.9-3,0-3c-52.1,0-104.2,0-156.3,0
				C954.2,282.9,954.2,285.9,956.1,285.9L956.1,285.9z"/>
		</g>
	</g>
	<g>
		<g>
			<path class="st1" d="M954.3,399.8c49.8,0,99.6,0,149.5,0c1.9,0,1.9-3,0-3c-49.8,0-99.6,0-149.5,0
				C952.3,396.8,952.3,399.8,954.3,399.8L954.3,399.8z"/>
		</g>
	</g>
	<g>
		<g>
			<path class="st1" d="M1109.1,286.5c0,37.3,0,74.5,0,111.8c0,1.9,3,1.9,3,0c0-37.3,0-74.5,0-111.8
				C1112.1,284.6,1109.1,284.6,1109.1,286.5L1109.1,286.5z"/>
		</g>
	</g>
	<g>
		<g>
			<path class="st1" d="M1102.9,400.3c2,0,4.1,0,6.1,0c1.9,0,1.9-3,0-3c-2,0-4.1,0-6.1,0C1101,397.3,1101,400.3,1102.9,400.3
				L1102.9,400.3z"/>
		</g>
	</g>
	<g>
		<g>
			<path class="st1" d="M966.1,319.6c43.4,0.1,86.9,0.2,130.3,0.3c1.9,0,1.9-3,0-3c-43.4-0.1-86.9-0.2-130.3-0.3
				C964.2,316.6,964.2,319.6,966.1,319.6L966.1,319.6z"/>
		</g>
	</g>
	<g>
		<g>
			<path class="st1" d="M970.2,348.9c42-0.1,83.9-0.2,125.9-0.3c1.9,0,1.9-3,0-3c-42,0.1-83.9,0.2-125.9,0.3
				C968.3,345.9,968.3,348.9,970.2,348.9L970.2,348.9z"/>
		</g>
	</g>
	<g>
		<g>
			<path class="st1" d="M972.6,378.1c41.7,0,83.4,0,125.1,0c1.9,0,1.9-3,0-3c-41.7,0-83.4,0-125.1,0
				C970.7,375.1,970.7,378.1,972.6,378.1L972.6,378.1z"/>
		</g>
	</g>
	<g>
		<g>
			<path class="st1" d="M992.7,318.5c0,19.5,0,39,0,58.5c0,1.9,3,1.9,3,0c0-19.5,0-39,0-58.5C995.7,316.6,992.7,316.6,992.7,318.5
				L992.7,318.5z"/>
		</g>
	</g>
	<g>
		<g>
			<path class="st1" d="M1028,319.4c0,18.5,0,37.1,0,55.6c0,1.9,3,1.9,3,0c0-18.5,0-37.1,0-55.6C1031,317.4,1028,317.4,1028,319.4
				L1028,319.4z"/>
		</g>
	</g>
	<g>
		<g>
			<path class="st1" d="M1062.9,318.1c0,18.8,0,37.6,0,56.5c0,1.9,3,1.9,3,0c0-18.8,0-37.6,0-56.5
				C1065.9,316.2,1062.9,316.2,1062.9,318.1L1062.9,318.1z"/>
		</g>
	</g>
	<g>
		<g>
			<path class="st1" d="M1094.6,319c0,18.8,0,37.6,0,56.5c0,1.9,3,1.9,3,0c0-18.8,0-37.6,0-56.5C1097.6,317,1094.6,317,1094.6,319
				L1094.6,319z"/>
		</g>
	</g>
	<g>
		<g>
			<path class="st1" d="M977.5,353.4c-3.9,3.2-8,8.3-5.2,13.6c1,1.9,2.7,3.4,4.9,3.7c2.8,0.4,5-1.5,6.9-3.3c1.4-1.3-0.7-3.5-2.1-2.1
				c-1.5,1.4-3.2,3.1-5.3,2.1c-1.5-0.7-2.3-2.5-2.3-4.1c0-3.2,2.9-5.8,5.2-7.7C981.1,354.3,979,352.2,977.5,353.4L977.5,353.4z"/>
		</g>
	</g>
	<g>
		<g>
			<path class="st1" d="M1011.7,365.3c-3.7-1.7-4.5-6.9-0.4-8.8c2.5-1.1,3.4,1.9,3.7,3.8c0.3,1.6-0.5,5.7-3.1,4
				c-1.6-1-3.1,1.6-1.5,2.6c2.8,1.8,6.3-0.1,7.4-3c0.8-2.3,0.1-4.7-0.7-6.9c-0.6-1.7-1.3-3.2-3.1-3.8c-3.5-1-7.2,2.1-8.2,5.3
				c-1.2,3.7,0.9,7.7,4.3,9.3C1011.9,368.7,1013.4,366.1,1011.7,365.3L1011.7,365.3z"/>
		</g>
	</g>
	<g>
		<g>
			<path class="st1" d="M984.2,353.1c-0.2-0.3-0.2-0.7,0.2-0.8c-0.3-0.2-0.6-0.3-0.9-0.5c0.4,1.1-0.3,2.3-0.3,3.5
				c0,0.8,0.4,1.6,1.1,2.1c1.5,1.1,3.5,0.5,4.3-1.1c0.4-0.9-0.9-1.6-1.3-0.8c-0.8,1.6-2.8,0.9-2.6-0.8c0.1-1.1,0.6-2.1,0.2-3.3
				c-0.1-0.4-0.5-0.7-0.9-0.5c-1.2,0.4-1.9,1.9-1.1,3C983.4,354.7,984.7,353.9,984.2,353.1L984.2,353.1z"/>
		</g>
	</g>
	<g>
		<g>
			<path class="st1" d="M1019.1,352.5c1-0.2,1.9-0.5,2.9-0.7c0.9-0.2,0.5-1.7-0.4-1.4c-1,0.2-1.9,0.5-2.9,0.7
				C1017.8,351.3,1018.2,352.8,1019.1,352.5L1019.1,352.5z"/>
		</g>
	</g>
	<g>
		<g>
			<path class="st1" d="M1018.6,352.5c0.2,0.5,0.3,1.1,0.5,1.6c0.1,0.3,0.4,0.6,0.7,0.6c0.5-0.1,1.2-0.2,1.6,0
				c0.2,0.1,0.4,0.3,0.4,0.5s-0.2,0-0.1,0.1c-0.6-0.7-1.7,0.3-1.1,1.1c0.9,1,2.7,0.2,2.7-1.1c0-1.9-2.1-2.2-3.5-2
				c0.2,0.2,0.5,0.4,0.7,0.6c-0.2-0.5-0.3-1.1-0.5-1.6C1019.8,351.1,1018.4,351.5,1018.6,352.5L1018.6,352.5z"/>
		</g>
	</g>
	<g>
		<g>
			<path class="st1" d="M1004.8,325.5c0.4,4.1,0.4,8.1-0.1,12.2c-0.1,1,1.4,1,1.5,0c0.4-4.1,0.5-8.1,0.1-12.2
				C1006.2,324.5,1004.7,324.5,1004.8,325.5L1004.8,325.5z"/>
		</g>
	</g>
	<g>
		<g>
			<path class="st1" d="M1006.3,332.5c3-0.3,5-2.9,4.4-5.9c-0.2-0.9-1.4-0.6-1.5,0.2c-0.4,3.7-0.5,7.5-0.3,11.2c0,1,1.5,1,1.5,0
				c-0.2-3.8-0.1-7.5,0.3-11.2c-0.5,0.1-1,0.1-1.5,0.2c0.4,2-1,3.8-3,4C1005.4,331.1,1005.4,332.6,1006.3,332.5L1006.3,332.5z"/>
		</g>
	</g>
	<g>
		<g>
			<path class="st1" d="M1014.8,324.4c0.1-0.2,0.1-0.3,0.2-0.5c-0.2,0.1-0.5,0.1-0.7,0.2c0.6,0.2,0.7,1.2,0.2,1.6
				c-0.5,0.3-0.5,1.2,0.2,1.4c0.6,0.1,1.1,0.2,1.7,0.3c-0.1-0.4-0.3-0.7-0.4-1.1c-0.4,0.7-0.9,1.3-1.6,1.6c-0.9,0.4-0.5,1.8,0.4,1.4
				c1.1-0.5,2-1.2,2.5-2.3c0.2-0.4,0.1-1-0.4-1.1c-0.6-0.1-1.1-0.2-1.7-0.3c0.1,0.5,0.1,0.9,0.2,1.4c1.7-1.1,1.3-3.7-0.6-4.3
				c-0.2-0.1-0.5,0-0.7,0.2c-0.6,0.6-0.7,1.2-0.6,1.9C1013.5,325.8,1014.9,325.4,1014.8,324.4L1014.8,324.4z"/>
		</g>
	</g>
	<g>
		<g>
			<path class="st1" d="M1048.4,327.1c-4.6-3.2-11.4,4.4-8.9,8.9c1.1,2,3.7,3,5.8,2c2-0.9,2.8-3.7,0.5-4.8c-0.1,0.5-0.1,0.9-0.2,1.4
				c1.1-0.2,2.2-0.4,3.3-0.6c0.9-0.2,0.5-1.6-0.4-1.4c-1.1,0.2-2.2,0.4-3.3,0.6c-0.6,0.1-0.8,1.1-0.2,1.4c0.5,1.4,0.2,2.2-0.8,2.3
				c-0.4,0.2-0.9,0.2-1.3,0.1c-0.5-0.1-1.1-0.4-1.4-0.7c-1.4-1.3-1.1-3.3-0.2-4.7c1.2-2,4-4.6,6.4-3
				C1048.4,328.9,1049.2,327.6,1048.4,327.1L1048.4,327.1z"/>
		</g>
	</g>
	<g>
		<g>
			<path class="st1" d="M1052.7,327.1c0.2,1.5,0.4,3.1,0.6,4.6c0.1,0.8,0.3,1.6,0.3,2.3c0,0.5-0.1,0.9-0.1,1.4
				c-0.3,1.4-1.2,1.5-2.4,0.5c0.1-0.9-1.3-1.4-1.4-0.4c-0.3,2.3,2.1,3.8,4,2.4c1.1-0.8,1.5-2.1,1.6-3.4c0.1-2.4-0.5-5-0.8-7.4
				C1054.1,326.1,1052.6,326.1,1052.7,327.1L1052.7,327.1z"/>
		</g>
	</g>
	<g>
		<g>
			<path class="st1" d="M1050.9,326.1c1.7,0.4,3.3,0.6,5.1,0.5c1-0.1,1-1.6,0-1.5c-1.6,0.1-3.1,0-4.7-0.4
				C1050.3,324.4,1049.9,325.9,1050.9,326.1L1050.9,326.1z"/>
		</g>
	</g>
	<g>
		<g>
			<path class="st1" d="M1036,356.1c0.4,3.2,0.4,6.3,0,9.5c-0.1,1,1.4,0.9,1.5,0c0.4-3.3,0.4-6.6-0.1-9.9
				C1037.3,354.8,1035.9,355.2,1036,356.1L1036,356.1z"/>
		</g>
	</g>
	<g>
		<g>
			<path class="st1" d="M1037.1,363c3.7,1.2,4.8-3.1,4.8-5.8c0-1-1.4-0.9-1.5,0c-0.3,3.3-0.5,6.7-0.6,10.1c0,1,1.5,1,1.5,0
				c0.1-3.4,0.3-6.7,0.6-10.1c-0.5,0-1,0-1.5,0c0,1.7-0.2,5.2-2.9,4.4C1036.5,361.3,1036.1,362.8,1037.1,363L1037.1,363z"/>
		</g>
	</g>
	<g>
		<g>
			<path class="st1" d="M1042.9,364.7c0.1,1,0.2,2,0.1,2.9c0,0.4,0.4,0.7,0.8,0.8c0.5,0,1.1,0.1,1.6,0.1c1,0,1-1.5,0-1.5
				c-0.5,0-1.1-0.1-1.6-0.1c0.3,0.3,0.5,0.5,0.8,0.8c0-1,0-2-0.1-2.9c-0.1-0.4-0.3-0.7-0.8-0.8
				C1043.2,364,1042.8,364.3,1042.9,364.7L1042.9,364.7z"/>
		</g>
	</g>
	<g>
		<g>
			<path class="st1" d="M1051.8,366.4c-1-1.4-1.5-3-1.6-4.8c0-1.1,0.1-3.8,1.1-4.6c2.1-1.8,3,3.3,3.1,4.5c0.1,0.9,0.1,1.9-0.1,2.8
				c-0.1,0.7-1.1,4-2.7,1.9c-0.6-0.8-1.6,0.3-1.1,1.1c1.6,2,4.1,0.6,4.9-1.3c1.1-2.9,0.7-7.4-1.1-9.9c-1.8-2.5-3.9-1-4.8,1.3
				c-1.3,3.2-0.8,6.9,1.1,9.7C1051,368,1052.3,367.2,1051.8,366.4L1051.8,366.4z"/>
		</g>
	</g>
	<g>
		<g>
			<path class="st1" d="M1078,328.6c-1.6-1.3-3.7-1.3-5.4-0.2c-2.1,1.4-2.7,4.1-2.9,6.4c-0.1,2.2,0.5,4.4,3,4.7
				c2.5,0.3,4.2-1.7,5.6-3.6c0.6-0.8-0.7-1.5-1.3-0.8c-0.9,1.2-2,2.7-3.7,2.8c-2.2,0.1-2.2-2.3-2.1-3.8c0.2-2.4,2.5-7.1,5.6-4.6
				C1077.6,330.3,1078.7,329.2,1078,328.6L1078,328.6z"/>
		</g>
	</g>
	<g>
		<g>
			<path class="st1" d="M1083,336c-0.6-0.8-1.1-1.7-1.3-2.7c-0.2-0.8-0.5-2.6,0-3.3c0.5-0.2,1-0.5,1.5-0.7c0.4,0.3,0.7,0.8,0.9,1.3
				c0.2,0.4,0.3,0.9,0.4,1.3c0.1,0.6,0.3,1.2,0.2,1.8c-0.1,0.7-0.9,2.2-1.9,1.2c-0.7-0.7-1.7,0.4-1.1,1.1c1.3,1.3,3.4,0.7,4.2-0.9
				c0.9-1.9,0-5.2-1.4-6.6c-1.6-1.5-3.6-0.7-4.2,1.3c-0.7,2.5,0,5.1,1.5,7.1C1082.3,337.5,1083.6,336.8,1083,336L1083,336z"/>
		</g>
	</g>
	<g>
		<g>
			<path class="st1" d="M1085.8,325.2C1085.8,325.3,1085.8,325.3,1085.8,325.2c0.1,0,0.3-0.1,0.5-0.1c-0.2,0,0,1.4,0.1,1.7
				c0.1,0.2,0.2,0.4,0.3,0.6c0.3,0.4,0.7,0.6,1.2,0.7c0.9,0.2,1.9-0.2,2.3-1.1s-0.9-1.6-1.3-0.8c-0.2,0.5-0.9,0.5-1.1,0
				c-0.3-0.8-0.3-1.6-1.4-1.8c-0.8-0.1-1.4,0.6-1.2,1.3c0.2,0.7,1.1,1,1.7,0.5C1087.6,325.6,1086.5,324.6,1085.8,325.2L1085.8,325.2
				z"/>
		</g>
	</g>
	<g>
		<g>
			<path class="st1" d="M971.5,326.2c-0.5,5.2-0.6,10.5-0.3,15.7c0,1,1.5,1,1.5,0c-0.2-5.2-0.1-10.5,0.3-15.7
				C973,325.2,971.5,325.2,971.5,326.2L971.5,326.2z"/>
		</g>
	</g>
	<g>
		<g>
			<path class="st1" d="M972.8,329.4c2-0.2,3,0.4,2.9,1.7c0,0.6,0,1.1-0.2,1.7c-0.3,1.4-0.9,2.6-2.4,3.2c-0.6,0.2-0.8,1.3,0,1.4
				c2.9,0.6,5.3,2,7,4.4c0.6,0.8,1.9,0,1.3-0.8c-2-2.7-4.6-4.4-7.9-5.1c0,0.5,0,1,0,1.4c3.6-1.4,5.3-7.6,2.2-10.4
				c-2.6-2.3-6.6,0.8-4,3.4C972.4,331.1,973.5,330.1,972.8,329.4L972.8,329.4z"/>
		</g>
	</g>
	<g>
		<g>
			<path class="st1" d="M983.5,339c-0.1,0.4,0,1.1,0.1,1.6c0.1,0.6,0.3,1.1,0.8,1.4c0.9,0.7,2.1,0.2,3.1-0.2
				c0.9-0.4,0.1-1.7-0.8-1.3c-0.3,0.2-0.7,0.4-1.1,0.4c-0.5,0-0.5-0.4-0.5-0.9c0-0.7-0.1-1.4-0.5-2c-0.7-0.8-2.3-0.6-2.5,0.5
				C981.9,339.5,983.3,339.9,983.5,339L983.5,339z"/>
		</g>
	</g>
	<g>
		<g>
			<path class="st1" d="M1069.7,356.2c0.1,4.7,0.1,9.4-0.2,14c-0.1,0.8,1.3,1,1.5,0.2c0.1-0.4,0.2-0.8,0.3-1.1
				c0.2-0.9-1.2-1.3-1.4-0.4c-0.1,0.4-0.2,0.8-0.3,1.1c0.5,0.1,1,0.1,1.5,0.2c0.3-4.7,0.4-9.4,0.2-14
				C1071.1,355.2,1069.6,355.2,1069.7,356.2L1069.7,356.2z"/>
		</g>
	</g>
	<g>
		<g>
			<path class="st1" d="M1069.7,356.7c0.8,4,2,7.9,3.6,11.7c0.3,0.8,1.4,0.7,1.5-0.2c0.6-4.4,1.1-8.7,1.7-13.1c0.1-1-1.4-0.9-1.5,0
				c-0.6,4.4-1.1,8.7-1.7,13.1c0.5-0.1,1-0.1,1.5-0.2c-1.6-3.8-2.8-7.7-3.6-11.7C1070.9,355.3,1069.5,355.7,1069.7,356.7
				L1069.7,356.7z"/>
		</g>
	</g>
	<g>
		<g>
			<path class="st1" d="M1079.1,367.9c-0.4-0.7-0.9-1.6-0.8-2.4c0.1-0.4,0.6-1.2,1.1-0.9c0.5,0.2,0.4,1.7,0.3,2.2s-0.7,1.5-1.3,0.8
				c-0.6-0.7-1.7,0.3-1.1,1.1c0.9,1,2.6,0.7,3.4-0.4c0.8-1.2,0.9-3.6-0.1-4.7c-0.9-1-2.5-0.5-3.2,0.4c-1.2,1.4-0.3,3.3,0.4,4.7
				C1078.3,369.5,1079.6,368.7,1079.1,367.9L1079.1,367.9z"/>
		</g>
	</g>
	<g>
		<g>
			<path class="st1" d="M1083.1,355.1c0.6,4.8,0.8,9.5,0.5,14.3c-0.1,1,1.4,1,1.5,0c0.3-4.8,0.1-9.5-0.5-14.3
				C1084.4,354.2,1082.9,354.2,1083.1,355.1L1083.1,355.1z"/>
		</g>
	</g>
	<g>
		<g>
			<path class="st1" d="M1084.8,358.1c-0.1-0.8-0.2-1.9,0.8-2.1s1.5,1,1.6,1.8c0.2,1.6-0.8,3.2-2.1,4.1c-0.8,0.5-0.1,1.8,0.8,1.3
				c2.5-1.6,4.1-5.4,1.8-7.9c-0.8-0.9-2.2-1.3-3.2-0.6c-1.2,0.8-1.2,2.4-1,3.7C1083.5,359.4,1085,359,1084.8,358.1L1084.8,358.1z"/>
		</g>
	</g>
	<g>
		<g>
			<path class="st1" d="M1088.2,351.7c-0.5,1.1-0.1,2.4,0.7,3.2c0.8,0.7,2.4,1,3-0.2c0.4-0.9-0.9-1.6-1.3-0.8
				c-0.1,0.2,0.1,0.1,0,0.1s-0.2,0-0.3,0c-0.2-0.1-0.4-0.3-0.5-0.5c-0.3-0.5-0.3-1-0.1-1.5c0.2-0.4-0.2-0.8-0.5-0.9
				C1088.7,351.1,1088.4,351.4,1088.2,351.7L1088.2,351.7z"/>
		</g>
	</g>
	<g>
		<g>
			<path class="st1" d="M965.1,318.1c0,19.4,0,38.7,0,58.1c0,1.9,3,1.9,3,0c0-19.4,0-38.7,0-58.1
				C968.1,316.2,965.1,316.2,965.1,318.1L965.1,318.1z"/>
		</g>
	</g>
	<g>
		<g>
			<path class="st1" d="M967,378.1c43.4,0,86.8,0,130.2,0c1.9,0,1.9-3,0-3c-43.4,0-86.8,0-130.2,0
				C965.1,375.1,965.1,378.1,967,378.1L967,378.1z"/>
		</g>
	</g>
	<g>
		<g>
			<path class="st1" d="M8.5,623.8c0,26.3,0,52.5,0,78.8c0,1.9,3,1.9,3,0c0-26.3,0-52.5,0-78.8C11.5,621.9,8.5,621.9,8.5,623.8
				L8.5,623.8z"/>
		</g>
	</g>
	<g>
		<g>
			<path class="st1" d="M13.3,625.3c51.1,0,102.2,0,153.2,0c1.9,0,1.9-3,0-3c-51.1,0-102.2,0-153.2,0
				C11.3,622.3,11.3,625.3,13.3,625.3L13.3,625.3z"/>
		</g>
	</g>
	<g>
		<g>
			<path class="st1" d="M13.3,705.2c48.6,0,97.1,0,145.7,0c1.9,0,1.9-3,0-3c-48.6,0-97.1,0-145.7,0
				C11.3,702.2,11.3,705.2,13.3,705.2L13.3,705.2z"/>
		</g>
	</g>
	<g>
		<g>
			<path class="st1" d="M163.9,626c0,24.1,0,48.2,0,72.3c0,1.9,3,1.9,3,0c0-24.1,0-48.2,0-72.3C166.9,624.1,163.9,624.1,163.9,626
				L163.9,626z"/>
		</g>
	</g>
	<g>
		<g>
			<path class="st1" d="M79.8,582.8c0,8.3,0,16.5,0,24.8c0,1.9,3,1.9,3,0c0-8.3,0-16.5,0-24.8C82.8,580.9,79.8,580.9,79.8,582.8
				L79.8,582.8z"/>
		</g>
	</g>
	<g>
		<g>
			<path class="st1" d="M82.3,584.3c33.1,0,66.2,0,99.3,0c1.9,0,1.9-3,0-3c-33.1,0-66.2,0-99.3,0C80.4,581.3,80.4,584.3,82.3,584.3
				L82.3,584.3z"/>
		</g>
	</g>
	<g>
		<g>
			<path class="st1" d="M83.4,610.2c32,0,64,0,96,0c1.9,0,1.9-3,0-3c-32,0-64,0-96,0C81.5,607.2,81.5,610.2,83.4,610.2L83.4,610.2z"
				/>
		</g>
	</g>
	<g>
		<g>
			<path class="st1" d="M179,587.1c0,6.8,0,13.7,0,20.5c0,1.9,3,1.9,3,0c0-6.8,0-13.7,0-20.5C182,585.2,179,585.2,179,587.1
				L179,587.1z"/>
		</g>
	</g>
	<g>
		<g>
			<path class="st1" d="M251,82.1c6.9-0.3,13.7-1.1,20.4-2.4c1.9-0.4,1.1-3.3-0.8-2.9c-6.5,1.2-13,2-19.6,2.3
				C249,79.2,249,82.2,251,82.1L251,82.1z"/>
		</g>
	</g>
	<g>
		<g>
			<path class="st1" d="M271.4,77.8c-2.9-10.8-2.9-22.1,0.4-32.8c2.8-9.3,11.2-25.5,23.5-19.7c10.4,4.9,11.8,19.6,13.5,29.6
				c2.1,11.9,3.1,24,3.3,36.1c0,1.9,3,1.9,3,0c-0.3-15.2-1.9-30.3-5-45.2c-2.1-9.9-6.1-23.4-18.2-24.6c-10.7-1-17.8,9.6-21.3,18.2
				c-5,12.5-5.6,26.3-2.1,39.2C269,80.5,271.9,79.7,271.4,77.8L271.4,77.8z"/>
		</g>
	</g>
	<g>
		<g>
			<path class="st1" d="M252,77.8c-3.7-16.2-2-33.5,5.3-48.5c6.5-13.2,19.2-26.1,34.8-26.4c17.2-0.3,28.7,15,33.5,29.9
				c5.4,16.7,6.7,35.1,6.6,52.6c0,1.9,3,1.9,3,0c0.1-16.2-1.2-32.8-5.3-48.5c-3.2-12.3-9.2-24.4-20.1-31.6
				c-22.9-15.2-47.6,4.7-56.7,26c-6.4,15-7.7,31.5-4.1,47.4C249.5,80.5,252.4,79.7,252,77.8L252,77.8z"/>
		</g>
	</g>
	<g>
		<g>
			<path class="st1" d="M312.5,93.3c7.9,4.9,18.6,1.1,22-7.4c0.7-1.8-2.2-2.6-2.9-0.8c-2.7,6.8-11.4,9.5-17.5,5.6
				C312.4,89.7,310.9,92.3,312.5,93.3L312.5,93.3z"/>
		</g>
	</g>
	<g>
		<g>
			<path class="st1" d="M247.1,119.8c0,25.4,0,50.7,0,76.1c0,1.9,3,1.9,3,0c0-25.4,0-50.7,0-76.1
				C250.1,117.9,247.1,117.9,247.1,119.8L247.1,119.8z"/>
		</g>
	</g>
	<g>
		<g>
			<path class="st1" d="M249.7,122c29.9-5.1,59.3-12.3,88.1-21.6c1.8-0.6,1-3.5-0.8-2.9c-28.8,9.4-58.2,16.6-88.1,21.6
				C247,119.4,247.9,122.3,249.7,122L249.7,122z"/>
		</g>
	</g>
	<g>
		<g>
			<path class="st1" d="M338.4,102.2c0,23.8,0,47.5,0,71.3c0,1.9,3,1.9,3,0c0-23.8,0-47.5,0-71.3
				C341.4,100.3,338.4,100.3,338.4,102.2L338.4,102.2z"/>
		</g>
	</g>
	<g>
		<g>
			<path class="st1" d="M250.5,199.3c29.7-4.7,59-11.8,87.6-21.2c1.8-0.6,1-3.5-0.8-2.9c-28.6,9.4-57.9,16.5-87.6,21.2
				C247.8,196.7,248.6,199.6,250.5,199.3L250.5,199.3z"/>
		</g>
	</g>
	<g>
		<g>
			<path class="st1" d="M293.3,146.5c-1-2.6-2.2-5.5-2.3-8.3c-0.1-3.4,2.2-7.9,6.2-6.9c6.1,1.5,4.4,11.3,2.2,15.1
				c-1,1.7,1.6,3.2,2.6,1.5c3.3-5.6,4.2-18.4-4.6-19.8c-3.5-0.5-6.8,1.9-8.4,5c-2.3,4.6-0.4,9.9,1.3,14.3
				C291.1,149.1,294,148.3,293.3,146.5L293.3,146.5z"/>
		</g>
	</g>
	<g>
		<g>
			<path class="st1" d="M290.9,146.2c0.4,7.2,0.8,14.5,1.2,21.7c0.2,3.2,1.8,5,5.4,4.2c3.4-0.8,5.1-3.7,5.5-6.9
				c0.4-3.3-0.5-6.7-0.8-9.9c-0.3-3.8-0.3-7.6,0-11.5c0.1-1.9-2.9-1.9-3,0c-0.2,3.8-0.3,7.6,0,11.5c0.2,2.6,2.7,12.7-1.4,13.5
				c-4.2,0.8-3.1-8.2-3.3-10.7c-0.2-3.9-0.4-7.9-0.7-11.8C293.8,144.3,290.8,144.3,290.9,146.2L290.9,146.2z"/>
		</g>
	</g>
	<g>
		<g>
			<path class="st1" d="M513.1,90.3c0,21.5,0,43,0,64.5c0,1.9,3,1.9,3,0c0-21.5,0-43,0-64.5C516.1,88.4,513.1,88.4,513.1,90.3
				L513.1,90.3z"/>
		</g>
	</g>
	<g>
		<g>
			<path class="st1" d="M453.4,161.2c37.5,0,74.9,0,112.4,0c1.9,0,1.9-3,0-3c-37.5,0-74.9,0-112.4,0
				C451.5,158.2,451.5,161.2,453.4,161.2L453.4,161.2z"/>
		</g>
	</g>
	<g>
		<g>
			<path class="st1" d="M551.1,164.7c0,17.1,0,34.2,0,51.2c0,1.9,3,1.9,3,0c0-17.1,0-34.2,0-51.2
				C554.1,162.8,551.1,162.8,551.1,164.7L551.1,164.7z"/>
		</g>
	</g>
	<g>
		<g>
			<path class="st1" d="M15.3,382.8c36.4,0,72.7,0,109.1,0c1.9,0,1.9-3,0-3c-36.4,0-72.7,0-109.1,0
				C13.4,379.8,13.4,382.8,15.3,382.8L15.3,382.8z"/>
		</g>
	</g>
	<g>
		<g>
			<path class="st1" d="M76.4,378c0-9.4,0-18.7,0-28.1c0-1.9-3-1.9-3,0c0,9.4,0,18.7,0,28.1C73.4,379.9,76.4,379.9,76.4,378
				L76.4,378z"/>
		</g>
	</g>
	<g>
		<g>
			<path class="st1" d="M109.7,386.2c0,11,0,22,0,33.1c0,1.9,3,1.9,3,0c0-11,0-22,0-33.1C112.7,384.3,109.7,384.3,109.7,386.2
				L109.7,386.2z"/>
		</g>
	</g>
	<g>
		<g>
			<path class="st1" d="M884.9,574.5c45.2,0,90.4,0,135.6,0c1.9,0,1.9-3,0-3c-45.2,0-90.4,0-135.6,0
				C883,571.5,883,574.5,884.9,574.5L884.9,574.5z"/>
		</g>
	</g>
	<g>
		<g>
			<path class="st1" d="M969.1,571.4c0-9.9,0-19.8,0-29.8c0-1.9-3-1.9-3,0c0,9.9,0,19.8,0,29.8C966.1,573.3,969.1,573.3,969.1,571.4
				L969.1,571.4z"/>
		</g>
	</g>
	<g>
		<g>
			<path class="st1" d="M951,543.1c35.3,0,70.5,0,105.8,0c1.9,0,1.9-3,0-3c-35.3,0-70.5,0-105.8,0
				C949.1,540.1,949.1,543.1,951,543.1L951,543.1z"/>
		</g>
	</g>
	<g>
		<g>
			<path class="st1" d="M95.4,966.1c65.7,0,131.3,0,197,0c1.9,0,1.9-3,0-3c-65.7,0-131.3,0-197,0C93.4,963.1,93.4,966.1,95.4,966.1
				L95.4,966.1z"/>
		</g>
	</g>
	<g>
		<g>
			<path class="st1" d="M179.5,950c71.6,0,143.2,0,214.9,0c1.9,0,1.9-3,0-3c-71.6,0-143.2,0-214.9,0C177.6,947,177.6,950,179.5,950
				L179.5,950z"/>
		</g>
	</g>
	<g>
		<g>
			<path class="st1" d="M321,1001.9c44.2,0,88.3,0,132.5,0c1.9,0,1.9-3,0-3c-44.2,0-88.3,0-132.5,0C319,998.9,319,1001.9,321,1001.9
				L321,1001.9z"/>
		</g>
	</g>
	<g>
		<g>
			<path class="st1" d="M492.9,944.6c27.5,0,54.9,0,82.4,0c1.9,0,1.9-3,0-3c-27.5,0-54.9,0-82.4,0
				C490.9,941.6,490.9,944.6,492.9,944.6L492.9,944.6z"/>
		</g>
	</g>
	<g>
		<g>
			<path class="st1" d="M718.5,914.2c59.1,0,118.2,0,177.3,0c1.9,0,1.9-3,0-3c-59.1,0-118.2,0-177.3,0
				C716.5,911.2,716.5,914.2,718.5,914.2L718.5,914.2z"/>
		</g>
	</g>
	<g>
		<g>
			<path class="st1" d="M843.8,873c70.4,0,140.9,0,211.3,0c1.9,0,1.9-3,0-3c-70.4,0-140.9,0-211.3,0C841.9,870,841.9,873,843.8,873
				L843.8,873z"/>
		</g>
	</g>
	<g>
		<g>
			<path class="st1" d="M967.3,912.4c70.4,0,140.9,0,211.3,0c1.9,0,1.9-3,0-3c-70.4,0-140.9,0-211.3,0
				C965.4,909.4,965.4,912.4,967.3,912.4L967.3,912.4z"/>
		</g>
	</g>
	<g>
		<g>
			<path class="st1" d="M885,976.8c31.6,0,63.3,0,94.9,0c1.9,0,1.9-3,0-3c-31.6,0-63.3,0-94.9,0C883,973.8,883,976.8,885,976.8
				L885,976.8z"/>
		</g>
	</g>
</g>
<g id="machine">
	<path class="st2" d="M411.6,938.6c-50.2,39.2-100.3,78.4-150.5,117.6c-67.5-29.4-134.9-58.8-202.4-88.2
		c71.5-39.2,143-78.4,214.5-117.6c11.1-1.4,20.9-1.1,29.4,0C368.1,859.2,404.5,925.1,411.6,938.6z"/>
	<path class="st3" d="M260.7,403.5c-1,151.3-2,302.5-3,453.8c49.2,31,98.4,62,147.6,93c52.2-36.7,104.4-73.4,156.7-110.2
		c-0.3-127.3-0.7-254.7-1-382c-43.5-37.7-86.9-75.5-130.4-113.2C373.9,364.4,317.3,383.9,260.7,403.5z"/>
	<g>
		<g>
			<path class="st0" d="M404.3,531.7c0,109.1,0,218.2,0,327.3c0,30.6,0,61.2,0,91.8c0,1.9,3,1.9,3,0c0-109.1,0-218.2,0-327.3
				c0-30.6,0-61.2,0-91.8C407.3,529.8,404.3,529.7,404.3,531.7L404.3,531.7z"/>
		</g>
	</g>
	<g>
		<g>
			<path class="st0" d="M559.7,459.1c0.2,99.5,0.3,199.1,0.5,298.6c0,27.9,0.1,55.7,0.1,83.6c0,1.9,3,1.9,3,0
				c-0.2-99.5-0.3-199.1-0.5-298.6c0-27.9-0.1-55.7-0.1-83.6C562.6,457.2,559.6,457.2,559.7,459.1L559.7,459.1z"/>
		</g>
	</g>
	<g>
		<g>
			<path class="st0" d="M259.9,404.1c43.2-14.5,86.5-29,129.7-43.5c10.7-3.6,21.3-7.1,32-10.7c2.3-0.8,5.1-2.4,7.6-1.6
				c1.9,0.6,4.5,3.8,6.1,5.2c4.5,3.9,9.1,7.7,13.6,11.6c17.2,14.6,34.3,29.2,51.5,43.8c19.7,16.8,39.4,33.5,59.1,50.3
				c0.1-0.8,0.2-1.6,0.3-2.4c-50.6,25.4-101.6,49.7-153.2,73.1c0.6,0.1,1.2,0.2,1.8,0.2c-16.6-14.4-33.2-28.9-49.8-43.3
				c-26.6-23.1-53.2-46.3-79.8-69.4c-6.1-5.3-12.1-10.6-18.2-15.9c-1-0.8-2.6-0.3-2.6,1.1c0,27.3,0,54.7,0,82c0,58,0,115.9,0,173.9
				c0,52.5,0,105,0,157.5c0,13,0,25.9,0,38.9c0,2-0.4,3.7,1,5.1c1.2,1.3,3.3,2.1,4.8,3.1c3.4,2.2,6.8,4.3,10.1,6.5
				c42.6,27.1,85.1,54.1,127.7,81.2c1.1,0.7,2.2,1.4,3.2,2.1c0.4,0.3,1.1,0.3,1.5,0c51.9-36.9,103.8-73.7,155.6-110.6
				c1.6-1.1,0.1-3.7-1.5-2.6c-27.3,19.4-54.6,38.8-81.9,58.2c-13.8,9.8-27.6,19.6-41.3,29.4c-6.8,4.8-13.5,9.6-20.3,14.4
				c-2.9,2.1-7.4,4.2-9.7,6.9c-0.7,0.8-0.6,1.6-1.2,1.6c-1.4,0-4.5-2.9-5.6-3.6c-4-2.6-8-5.1-12.1-7.7
				c-12.1-7.7-24.2-15.4-36.3-23.1c-25.7-16.4-51.4-32.7-77.2-49.1c-3.6-2.3-7.1-4.5-10.7-6.8c-0.9-0.6-1.9-1.4-2.9-1.8
				c-0.7-0.3-1.3-1.3-0.7,0c0.7,1.5,0.3-0.7,0.4-1.3c0.1-1.8,0-3.6,0-5.4c0-16.8,0-33.7,0-50.5c0-28,0-56,0-84c0-33,0-66,0-99
				c0-32.4,0-64.8,0-97.2c0-25.7,0-51.4,0-77.1c0-8.4,0-16.9,0-25.3c0-4.4,0.6-9.3,0-13.7c-0.1-0.6,0-1.2,0-1.8
				c-0.9,0.4-1.7,0.7-2.6,1.1c16.6,14.4,33.2,28.9,49.8,43.3c26.6,23.1,53.2,46.3,79.8,69.4c6.1,5.3,12.1,10.6,18.2,15.9
				c0.6,0.5,1.2,0.5,1.8,0.2c51.5-23.4,102.6-47.7,153.2-73.1c0.8-0.4,1-1.8,0.3-2.4c-35.6-30.3-71.2-60.6-106.8-90.9
				c-4.3-3.7-8.6-7.3-12.9-11c-2-1.7-4-3.4-6.1-5.2c-1.6-1.3-4.4-4.7-6.4-5.4c-1.4-0.5-2.6,0.3-4,0.8c-2.8,0.9-5.6,1.9-8.5,2.8
				c-5.6,1.9-11.3,3.8-16.9,5.7c-21.9,7.3-43.9,14.7-65.8,22c-25.1,8.4-50.1,16.8-75.2,25.2C257.2,401.8,258,404.7,259.9,404.1
				L259.9,404.1z"/>
		</g>
	</g>
	<g>
		<g>
			<path class="st0" d="M280.6,869c0-19.7,0-39.3,0-59c0-1.9-3-1.9-3,0c0,19.7,0,39.3,0,59C277.6,870.9,280.6,870.9,280.6,869
				L280.6,869z"/>
		</g>
	</g>
	<g>
		<g>
			<path class="st0" d="M278.4,808.6c23.4,13.1,46.5,26.8,69.2,41.1c1.6,1,3.1-1.6,1.5-2.6c-22.7-14.3-45.8-28-69.2-41.1
				C278.2,805.1,276.7,807.7,278.4,808.6L278.4,808.6z"/>
		</g>
	</g>
	<g>
		<g>
			<path class="st0" d="M347.1,849c-1.3,20.5-2.6,41.1-3.9,61.6c-0.1,1.9,2.9,1.9,3,0c1.3-20.5,2.6-41.1,3.9-61.6
				C350.2,847.1,347.2,847.1,347.1,849L347.1,849z"/>
		</g>
	</g>
	<g>
		<g>
			<path class="st0" d="M290.2,830.4c-1.7,13.8-2.7,27.6-2.9,41.4c0,1.9,3,1.9,3,0c0.2-13.9,1.2-27.7,2.9-41.4
				C293.5,828.4,290.5,828.5,290.2,830.4L290.2,830.4z"/>
		</g>
	</g>
	<g>
		<g>
			<path class="st0" d="M306.1,837.5c-1.8,14.3-3.1,28.6-3.8,42.9c-0.1,1.9,2.9,1.9,3,0c0.8-14.3,2-28.7,3.8-42.9
				C309.4,835.6,306.4,835.6,306.1,837.5L306.1,837.5z"/>
		</g>
	</g>
	<g>
		<g>
			<path class="st0" d="M322.5,848.1c-2.2,14.5-3.8,29.1-4.7,43.7c-0.1,1.9,2.9,1.9,3,0c0.9-14.4,2.4-28.7,4.6-42.9
				C325.7,847,322.8,846.2,322.5,848.1L322.5,848.1z"/>
		</g>
	</g>
	<g>
		<g>
			<path class="st0" d="M334.7,855.1c-0.9,12.9-1.8,25.7-2.6,38.6c-0.1,1.9,2.9,1.9,3,0c0.9-12.9,1.8-25.7,2.6-38.6
				C337.8,853.2,334.8,853.2,334.7,855.1L334.7,855.1z"/>
		</g>
	</g>
	<g>
		<g>
			<path class="st0" d="M280.4,798.5c25.5,13.3,50.6,27.4,75.2,42.3c1.7,1,3.2-1.6,1.5-2.6c-24.6-14.9-49.7-29.1-75.2-42.3
				C280.2,795,278.6,797.6,280.4,798.5L280.4,798.5z"/>
		</g>
	</g>
	<g>
		<g>
			<path class="st0" d="M282.2,796.2c0-5.2,0-10.3,0-15.5c0-1.9-3-1.9-3,0c0,5.2,0,10.3,0,15.5C279.2,798.2,282.2,798.2,282.2,796.2
				L282.2,796.2z"/>
		</g>
	</g>
	<g>
		<g>
			<path class="st0" d="M280.5,780.3c26.7,12.8,52.5,27.4,77.2,43.6c1.6,1.1,3.1-1.5,1.5-2.6c-24.7-16.3-50.5-30.8-77.2-43.6
				C280.3,776.9,278.8,779.4,280.5,780.3L280.5,780.3z"/>
		</g>
	</g>
	<g>
		<g>
			<path class="st0" d="M356.1,824.8c-0.5,4.5-1,9.1-1.5,13.6c-0.2,1.9,2.8,1.9,3,0c0.5-4.5,1-9.1,1.5-13.6
				C359.3,822.9,356.3,822.9,356.1,824.8L356.1,824.8z"/>
		</g>
	</g>
	<g>
		<g>
			<path class="st0" d="M415.8,543.6c38.9-17.1,77-36.1,114-57c1.7-0.9,0.2-3.5-1.5-2.6c-37.1,20.8-75.1,39.8-114,57
				C412.5,541.8,414,544.4,415.8,543.6L415.8,543.6z"/>
		</g>
	</g>
	<g>
		<g>
			<path class="st0" d="M413.4,542.1c0,8.3,0,16.6,0,24.9c0,1.9,3,1.9,3,0c0-8.3,0-16.6,0-24.9C416.4,540.2,413.4,540.2,413.4,542.1
				L413.4,542.1z"/>
		</g>
	</g>
	<g>
		<g>
			<path class="st0" d="M416.2,567c27.1-12,53.6-25.3,79.5-39.8c1.7-0.9,0.2-3.5-1.5-2.6c-25.9,14.5-52.4,27.7-79.5,39.8
				C413,565.2,414.5,567.8,416.2,567L416.2,567z"/>
		</g>
	</g>
	<g>
		<g>
			<path class="st0" d="M415,678c0,72.6,0,145.2,0,217.7c0,1.9,3,1.9,3,0c0-72.6,0-145.2,0-217.7C418,676.1,415,676.1,415,678
				L415,678z"/>
		</g>
	</g>
	<g>
		<g>
			<path class="st0" d="M423.4,796.2c0,39.4,0,78.8,0,118.2c0,1.9,3,1.9,3,0c0-39.4,0-78.8,0-118.2
				C426.4,794.3,423.4,794.3,423.4,796.2L423.4,796.2z"/>
		</g>
	</g>
	<g>
		<g>
			<path class="st0" d="M264.1,426.2c0,51,0,102.1,0,153.1c0,1.9,3,1.9,3,0c0-51,0-102.1,0-153.1
				C267.1,424.3,264.1,424.3,264.1,426.2L264.1,426.2z"/>
		</g>
	</g>
	<g>
		<g>
			<path class="st0" d="M272.7,536.9c0,59,0,118.1,0,177.1c0,1.9,3,1.9,3,0c0-59,0-118.1,0-177.1C275.7,535,272.7,535,272.7,536.9
				L272.7,536.9z"/>
		</g>
	</g>
	<path class="st4" d="M258.3,403.4c0,151.7,0,303.4,0,455.1c49.2,31,98.3,62,147.5,93c0-140.5,0-281,0-421.6
		C356.6,487.8,307.5,445.6,258.3,403.4z"/>
	<path class="st5" d="M262.5,457.1c14.9,72.2,29.5,132.2,41.1,176.8c18,69.4,27.2,96.4,39.4,124c20.9,47.3,44.5,83.4,62,107.3
		c0.6-69.6,1.1-139.1,1.7-208.7c4.9,97.3,48.9,158.4,83.8,157.6c28.2-0.7,55.8-41.6,71.2-91.4c0,39.7,0,79.3,0,119
		c-51.7,36-103.4,72.1-155,108.1c-48.9-30.7-97.8-61.5-146.7-92.2C260.8,724.1,261.6,590.6,262.5,457.1z"/>
</g>
<g id="holograme">
	<path class="st6" d="M582.4,409.8c-46.2,26.1-92.3,52.2-138.5,78.3c-27.4-37.1-54.9-74.3-82.3-111.4
		c52.8-20.7,105.7-41.5,158.5-62.2C540.9,346.3,561.7,378,582.4,409.8z"/>
	<g class="st7">
		<g>
			<path class="st8" d="M378.9,385.1c5.1,3.4,10.2,6.8,15.4,10.2c0.8,0.5,2,0,2.2-0.9c2.2-10.2,5.7-19.8,10.7-28.9
				c0.9-1.7-1.7-3.2-2.6-1.5c-5.1,9.4-8.7,19.3-11,29.7c0.7-0.3,1.5-0.6,2.2-0.9c-5.1-3.4-10.2-6.8-15.4-10.2
				C378.8,381.4,377.3,384,378.9,385.1L378.9,385.1z"/>
		</g>
	</g>
	<g>
		<g>
			<path class="st8" d="M420,364c1.7-2.6,4-4.6,6.9-5.8c0.9-0.4,0.1-1.7-0.8-1.3c-3.1,1.4-5.6,3.6-7.4,6.4
				C418.2,364.1,419.5,364.8,420,364L420,364z"/>
		</g>
	</g>
	<g>
		<g>
			<path class="st8" d="M420.1,370.3c2-6.2,7.6-10.7,14.1-11.4c1-0.1,1-1.6,0-1.5c-7.2,0.7-13.3,5.5-15.5,12.5
				C418.4,370.8,419.8,371.2,420.1,370.3L420.1,370.3z"/>
		</g>
	</g>
	<g>
		<g>
			<path class="st8" d="M421.8,375.4c2.2-8.8,8.4-15.2,17.9-12.1c0.9,0.3,1.3-1.1,0.4-1.4c-10.2-3.4-17.3,3.5-19.7,13.1
				C420.1,375.9,421.5,376.3,421.8,375.4L421.8,375.4z"/>
		</g>
	</g>
	<g>
		<g>
			<path class="st8" d="M424.8,380.3c0.3-4.9,1.1-10.7,5.8-13.5c4.6-2.7,9.8-0.8,13.2,2.8c0.7,0.7,1.7-0.4,1.1-1.1
				c-3.6-3.8-8.9-5.8-13.9-3.6c-6,2.6-7.2,9.4-7.6,15.3C423.3,381.2,424.8,381.2,424.8,380.3L424.8,380.3z"/>
		</g>
	</g>
	<g>
		<g>
			<path class="st8" d="M429.3,386c1-5.7-3.7-10.9,1.4-15.8c3.7-3.5,8.4-1.7,11.4,1.5c2.7,3,3.8,6.9,4.3,10.8c0.1,0.9,1.6,1,1.5,0
				c-0.8-6.6-5-17-13.6-15.9c-3.1,0.4-5.8,3.1-7,5.9c-1.9,4.5,1.4,8.5,0.6,13C427.7,386.5,429.2,386.9,429.3,386L429.3,386z"/>
		</g>
	</g>
	<g>
		<g>
			<path class="st8" d="M432.6,388.3c3.1-5.1-3.4-10-0.8-14.7c2.7-5.1,8-1.7,9.8,1.9c1.9,4,1.9,8.5,0.8,12.7
				c-0.2,0.9,1.2,1.3,1.4,0.4c1.5-5.8,0.9-18.7-7.5-19.1c-2.7-0.1-5.4,1.8-6.2,4.3c-1.6,4.8,4.1,9.2,1.3,13.7
				C430.8,388.4,432.1,389.2,432.6,388.3L432.6,388.3z"/>
		</g>
	</g>
	<g>
		<g>
			<path class="st8" d="M436.1,389.4c1.6-3.8,1.2-7.4-0.7-10.9c-0.4-0.6-0.7-1.3-1-2c2.2-1.5,3.5-1.1,3.9,1c0.4,1,0.7,2,0.8,3.1
				c0.5,3.1,0,6.1-1.1,9c-0.4,0.9,1.1,1.3,1.4,0.4c1.4-3.5,1.8-7.2,0.9-10.8c-0.5-2.3-1.8-6.1-4.7-6.2c-1.9-0.1-3,1.4-2.9,3.2
				c0.1,1.6,1.3,3,1.9,4.4c1.2,2.8,1.1,5.7-0.1,8.5C434.3,389.9,435.7,390.3,436.1,389.4L436.1,389.4z"/>
		</g>
	</g>
	<g>
		<g>
			<path class="st8" d="M503.8,443.4c0.3-1.8,0.4-3.8-1.3-4.9c-1.7-1.1-4.6,0-6.6-0.1c-3.2-0.2-6.4-1.4-9.4-2.4
				c-6.1-2-12.3-4.8-16.7-9.8c-2-2.3-4.6-6-4.8-9.2c-0.4-7.5,3.9-1.7,6.9-0.9c1.6,0.4,2.9,0.3,3-1.5c0.1-1.2-0.9-1.8-1.7-2.7
				c-2.1-2.2-4.1-4.3-6-6.7c-3.8-5-6.8-10.6-8.6-16.6c-0.7-2.3-3-11.3,1.5-10.7c2.1,0.2,5.7,5.1,7,6.7c0.4-0.4,0.7-0.7,1.1-1.1
				c-2.9-3.7-7.7-9.2-7.4-14.2c0.5-9.6,11.6-0.4,13.6,3.1c0.4-0.3,0.8-0.6,1.2-0.9c-1.3-1.5-3.3-4.4-3.3-6.6
				c-0.2-6.1,3.2-3.8,5.6-2.2c3.2,2.2,5.5,5.6,7.8,8.7c0.6,0.8,1.7,0.1,1.3-0.8c-0.7-1.3-1.2-2.7-1.6-4.2c-0.9-1.9-0.1-2.9,2.6-3.1
				c3.7-1.9,3.4-1.4,5.8,1.2c2.7,2.9,4.8,6.3,7,9.6c3.6,5.6,7.7,10.6,11.7,15.8c2.6,3.4,4.7,7,5.8,11.2c1.1,4.1,1,8.3,1.6,12.4
				c0.7,4.8,2.7,9.1,7.3,11.3c0.9,0.4,1.6-0.9,0.8-1.3c-9.4-4.5-6.1-19.2-9.9-27.6c-1.7-3.8-4.3-7.1-7-10.3
				c-3.5-4.2-6.4-8.5-9.4-13.1c-2.9-4.5-8-14.1-14.2-14.3c-6.9-0.2-3.3,9.5-1.8,12.8c0.4-0.3,0.9-0.5,1.3-0.8
				c-2.5-3.5-9-13.3-14.7-11.4c-5,1.7,0.4,11.1,2.3,13.3c0.6,0.7,1.6-0.2,1.2-0.9c-1.8-3.1-4.3-5.6-7.5-7.1c-2-0.9-6.2-2.5-8.1-0.5
				c-1.9,2-0.9,6.4-0.1,8.7c1.4,4.4,4.3,8.2,7.2,11.8c0.6,0.8,1.6-0.3,1.1-1.1c-1.6-2-6.9-9-10.2-7.9c-2.8,1-2.1,7-1.9,8.9
				c0.8,6.1,3.8,12.2,7,17.3c1.5,2.4,3.2,4.7,5,6.8c0.9,1.1,2.8,2.3,3.4,3.6c1.9,1.3,1.5,1.7-1.3,1.2c-0.8-0.5-1.7-0.9-2.5-1.4
				c-2.5-1.3-4.1-1.3-4.6,1.9c-0.6,4.3,2.4,9.5,5,12.6c3.6,4.4,8.6,7.2,13.8,9.3c3.1,1.2,6.4,2.3,9.6,3.1c2.4,0.6,11.2,0.2,10.7,3.9
				C502.2,444,503.7,444.4,503.8,443.4L503.8,443.4z"/>
		</g>
	</g>
	<g>
		<g>
			<path class="st8" d="M465.9,382.9c4.2,5.1,7.6,10.9,11.3,16.4c0.5,0.8,1.8,0,1.3-0.8c-3.8-5.6-7.3-11.5-11.6-16.7
				C466.3,381.1,465.3,382.1,465.9,382.9L465.9,382.9z"/>
		</g>
	</g>
	<g>
		<g>
			<path class="st8" d="M472.1,369.2c4.1,5.6,7.9,11.3,11.5,17.2c0.5,0.8,1.8,0.1,1.3-0.8c-3.6-5.9-7.4-11.6-11.5-17.2
				C472.9,367.7,471.6,368.4,472.1,369.2L472.1,369.2z"/>
		</g>
	</g>
	<g>
		<g>
			<path class="st8" d="M361.2,376.9c26.9,37.3,54.4,74.2,82.6,110.5c0.6,0.8,1.6-0.3,1.1-1.1c-28.1-36.3-55.5-73-82.4-110.2
				C362,375.4,360.7,376.1,361.2,376.9L361.2,376.9z"/>
		</g>
	</g>
</g>
<g id="guy">
	<g id="leg_back">
		<path class="st0" d="M743.6,895.2c1.6,18.9,3.2,37.7,4.8,56.6c-37.7,16.7-55.9,27.4-54.5,32c1.7,5.6,31.8,2.4,90.2-9.6
			c-1.2-32-2.5-64.1-3.7-96.1C768.2,883.8,755.9,889.5,743.6,895.2z"/>
		<path class="st3" d="M780.3,489.8c5.7,3.8,6.7,12.3,8.7,29.2c1,8.1,1.5,18.1-1,47.1c-0.3,3.1-1.1,13-3.6,34.3
			c-3.6,31.2-4.6,34.9-5.6,48.1c-0.8,10.3-1.3,21.2-1,44.6c0.3,22.3,0.6,52.8,4.1,95.3c2.6,31.5,7,70.7,14.9,115.7
			c-7.8,4.1-15.1,6.6-21,8.2c-13.1,3.5-23.7,3.6-32.8,3.6c-8.7,0-16.3-0.7-22.5-1.5c-2.9-15.1-6.7-37.8-9.7-65.6
			c-1.6-14.4-2.6-30.3-4.6-61.5c-2.8-43.7-4.2-65.5-4.6-84c-0.2-8.2-0.2-15,1-71.2c1.8-84.3,2.5-94.6,11.3-108.1
			C731.4,497,766.9,480.8,780.3,489.8z"/>
		<g>
			<g>
				<path class="st0" d="M787.8,492.6c1.7,27.2,1.2,54.4-1.5,81.5c-2.7,26.4-7.2,52.5-8.9,78.9c-3.5,54.2,0.1,108.7,6.1,162.6
					c3.4,30.1,7.5,60.2,11.7,90.2c0.3,1.9,3.2,1.1,2.9-0.8c-7.5-54.1-15-108.3-17.9-162.9c-1.4-26.7-1.7-53.6-0.4-80.3
					c1.4-26.6,5.3-52.7,8.5-79.1c3.6-29.9,4.4-60.1,2.5-90.2C790.7,490.6,787.7,490.6,787.8,492.6L787.8,492.6z"/>
			</g>
		</g>
		<g>
			<g>
				<path class="st0" d="M701.1,622.9c-2.4,76,0.5,152.1,9,227.7c2.3,21,5.1,41.9,8.3,62.8c0.3,1.9,3.2,1.1,2.9-0.8
					C710,837.9,704,762.4,703.4,686.8c-0.2-21.3,0.1-42.6,0.8-63.9C704.2,620.9,701.2,620.9,701.1,622.9L701.1,622.9z"/>
			</g>
		</g>
		<g>
			<g>
				<path class="st0" d="M719.3,915.6c26,5.2,52.9,1.8,76.8-9.8c1.7-0.8,0.2-3.4-1.5-2.6c-23.1,11.2-49.3,14.6-74.5,9.5
					C718.2,912.3,717.4,915.2,719.3,915.6L719.3,915.6z"/>
			</g>
		</g>
		<path class="st9" d="M711.4,548.9c-2.7,18.9-5.2,40.4-6.9,64.2c-1,13-2.4,35.3-2.6,63.3c-0.2,23.3,0.7,43,2.6,81.6
			c2.1,43.6,3.2,65.9,6.1,90.2c3.3,28,7.4,50.8,10.4,65.9c7,1.5,16.6,2.6,27.8,1.7c7.4-0.6,13.8-2,19.1-3.5
			c-8.5-31.8-16.3-65.1-23.4-99.8C725,717.7,715.2,629,711.4,548.9z"/>
		<path class="st9" d="M703.6,647c4.3,35.8,8.1,66.6,11.3,91.1c8.2,64.1,10.8,80.2,16.5,100.6c9.4,33.8,21.7,59.9,30.4,76.3
			c-6.1,1.5-16,3.1-27.8,0.9c-5.5-1-10.2-2.7-13.9-4.3c-4.1-24.3-7.6-49.8-10.4-76.3C702.4,767,701.3,703.8,703.6,647z"/>
	</g>
	<g id="leg_front">
		<path class="st0" d="M629.9,905.9c-1.4,19.9-2.8,39.9-4.3,59.8c-47,11.6-70.1,20-69.4,25.1c0.8,6.1,35.5,7.5,104.1,4.3
			c2.1-28.8,4.3-57.7,6.4-86.5C654.4,907.6,642.1,906.7,629.9,905.9z"/>
		<path class="st3" d="M671.4,493.6c-5.9,6.3-9.8,14.3-9.8,14.3c-2.4,4.9-3.9,9.1-4.5,12.5c-1.1,7.5-2.7,17.9-4.5,30.3
			c-3.9,27.1-6.6,48.3-8,59.7c-5,39.5-7.8,65.1-13.4,112.4c-8.3,69.9-10.7,85-16.9,141.8c-2.3,21.1-4.2,38.5-5.4,49.9
			c1.7,2.7,4.6,6.5,9.2,9.9c1.1,0.8,3.2,2.3,9.5,5.3c5.8,2.7,11.7,5.1,14.3,6c15.5,5,43.5-2.5,45-2.9c0-10.9,0.2-25.6,1-43.1
			c0.3-7,1.3-25.9,5.2-62.2c3.5-32.5,6.2-58.2,12.3-92.8c4.4-25.3,8.7-44.6,12.6-61.4c5.9-26.4,11.7-48.9,16.5-66.4
			c6.9-13.5,13.8-27,20.7-40.5c2-2.9,20.3-30,9.9-54.6C749.5,474.4,684.3,479.8,671.4,493.6z"/>
		<g>
			<g>
				<path class="st0" d="M668,482.6c-18.7,51.4-22.7,106.9-29,160.8c-6.8,57.8-13.6,115.6-20.3,173.5c-3.8,32.4-7.6,64.8-11.4,97.1
					c-0.2,1.9,2.8,1.9,3,0c6.7-57.5,13.5-115,20.2-172.5c6.6-56.5,12.4-113.1,20.1-169.4c4.1-30.1,9.8-60.1,20.3-88.7
					C671.5,481.6,668.6,480.8,668,482.6L668,482.6z"/>
			</g>
		</g>
		<g>
			<g>
				<path class="st0" d="M754.5,565.4c-15.8,24.9-28.3,51.7-37.1,79.9c-0.6,1.8,2.3,2.6,2.9,0.8c8.7-27.9,21.1-54.5,36.8-79.2
					C758.1,565.3,755.5,563.7,754.5,565.4L754.5,565.4z"/>
			</g>
		</g>
		<g>
			<g>
				<path class="st0" d="M734.7,601.7c-24.2,83.6-39.7,169.7-45.9,256.5c-1.8,24.9-2.8,49.8-3.1,74.7c0,1.9,3,1.9,3,0
					c1-87.1,11.2-174,30.4-258.9c5.4-24,11.6-47.8,18.5-71.4C738.1,600.7,735.3,599.9,734.7,601.7L734.7,601.7z"/>
			</g>
		</g>
		<g>
			<g>
				<path class="st0" d="M607.6,915.6c19.7,23.3,52.2,30.4,80,17.9c1.8-0.8,0.2-3.4-1.5-2.6c-26.6,11.9-57.6,4.7-76.4-17.5
					C608.4,912,606.3,914.1,607.6,915.6L607.6,915.6z"/>
			</g>
		</g>
		<path class="st4" d="M691.4,502.1c11.9,10.9-6.9,46.8-18.2,74.6c-16.5,40.6-20,107.7-26.9,242.1c-1.5,28.4-3.1,68.2-3.5,116.3
			c-3.5-0.5-7.7-1.5-12.1-3.5c-11.7-5.1-18.5-13.6-21.7-18.2c2.8-19.9,6.8-50,11.3-86.8c10.3-84.4,12.4-119,20-179.6
			c4.3-34.3,11-83.5,21.7-143.2C661.9,503.8,661.9,503.8,691.4,502.1z"/>
		<path class="st4" d="M642.8,634c5.3,74.9-0.3,122.8-6.9,153.6c-5.7,26.4-4.4,53.9-7.8,80.7c-1.7,13.1-4,29.6,5.2,45.1
			c6.6,11.1,16.4,17.4,23.4,20.8c-4.1,0.8-14.8,2.3-26.9-2.6c-11.8-4.8-18.4-13-20.8-16.5c4.8-41.6,9.8-83.3,14.7-124.9
			C630,738,636.4,686,642.8,634z"/>
	</g>
	<g id="hand_back">
		<path class="st3" d="M757.4,263.9c-2.1,1.2-1.2,12.9,0.7,36c0.2,1.9,0.3,4.1,0.6,7.1c0.7,6.8,1.6,13.4,2.7,20.5
			c8.3,53.9,20.1,93.9,20.1,93.9c5.7,19.3,13.8,43.1,25.3,69.6c1.9,3.4,5.7,8.9,12.1,12.1c6.9,3.5,13.1,2.5,22.3,0.8
			c17.8-3.3,29.2-11.4,33.3-14.6c6-4.6,13.9-10.7,13.2-17.8c-0.3-2.5-1.7-6.2-4.8-7.3c-2.7-1-6.1,0.3-8.4,3.2
			c4.7-6.5,8-12.5,10.2-17c5.1-10.4,5.1-14,4-16.6c-0.2-0.4-1.4-3.2-4-4.5c-0.7-0.3-2.1-0.9-6.6,0c-5.3,1-6.1,2.3-9.5,2.4
			c-3.2,0.1-4.2-1-6.6-1.2c-3.1-0.3-7.7,0.9-13.9,8.1c-1-0.8-2.5-1.7-4.4-1.6c-3.2,0.1-5.7,3.1-12.1,14.2c-2,3.4-4.5,7.9-7.3,13.4
			c-1.4-6.2-3.5-15.8-5.9-27.5c-8.2-41.2-7-49.2-13.2-79.3c-8.7-42.8-17.9-60.7-26-72.8C771.4,272.8,761.1,261.7,757.4,263.9z"/>
		<g>
			<g>
				<path class="st0" d="M757.7,266.1c4.5-2.1,9.9,5.9,12.3,8.8c3,3.7,5.8,7.5,8.3,11.5c4.7,7.3,8.6,15.1,11.9,23.2
					c7.4,17.9,11.7,36.9,15.1,55.9c3.5,19.8,6.3,39.7,9.4,59.5c2.7,17.2,4.5,35.5,14.1,50.5c1,1.6,3.6,0.1,2.6-1.5
					c-8.5-13.2-10.6-28.9-12.9-44c-2.6-17-5.2-34-7.9-51c-4.9-30.9-11.1-62.6-27.1-89.9c-3.8-6.4-8.1-12.5-12.9-18.2
					c-3.6-4.1-8.3-10.2-14.3-7.4C754.4,264.3,755.9,266.9,757.7,266.1L757.7,266.1z"/>
			</g>
		</g>
		<g>
			<g>
				<path class="st0" d="M757.1,308.2c3.5,30.8,9.1,61.3,16.9,91.3c7.6,29.2,16.5,59.3,29.3,86.7c5.4,11.4,15.6,24,29.8,20.3
					c1.9-0.5,1.1-3.4-0.8-2.9c-19.9,5.3-28.5-23.2-33.7-36.7c-6.4-16.8-12.1-33.8-17.1-51c-10.2-35.2-17.3-71.2-21.5-107.6
					C759.9,306.3,756.9,306.2,757.1,308.2L757.1,308.2z"/>
			</g>
		</g>
		<g>
			<g>
				<path class="st0" d="M826,466.5c2.6-5.3,5.1-10.7,7.7-16c2.7-5.5,6-13.2,13.3-12.5c1.9,0.2,1.9-2.8,0-3
					c-5.7-0.5-9.8,3.2-12.6,7.7c-4.3,6.9-7.4,14.9-11,22.2C822.6,466.7,825.1,468.2,826,466.5L826,466.5z"/>
			</g>
		</g>
		<g>
			<g>
				<path class="st0" d="M841,453.8c4.3-7.2,12.5-27.2,23.7-21.1c1.7,0.9,3.2-1.7,1.5-2.6c-13.7-7.5-22.6,13.4-27.8,22.1
					C837.4,454,840,455.5,841,453.8L841,453.8z"/>
			</g>
		</g>
		<g>
			<g>
				<path class="st0" d="M849.7,457.5c3.6-5.1,7.3-10.2,10.9-15.3c3.9-5.5,9.1-12.2,16.7-11.1c1.9,0.3,2.7-2.6,0.8-2.9
					c-6.3-1-11.4,2-15.5,6.6c-5.8,6.4-10.5,14.2-15.5,21.2C845.9,457.5,848.5,459,849.7,457.5L849.7,457.5z"/>
			</g>
		</g>
		<g>
			<g>
				<path class="st0" d="M858.2,459.7c4.3-5.1,8.5-10.3,12.8-15.4c2.5-3,12.5-18.5,16.7-9.3c1.1,2.3-0.7,7-1.5,9.3
					c-1.1,3-2.7,5.8-4.2,8.6c-3.4,6.2-6.9,12.3-11.3,17.8c-1.2,1.5,0.9,3.6,2.1,2.1c5.5-7,10.1-14.8,14.1-22.8
					c2.5-5,6.4-14.1,2.5-19.4c-3.9-5.3-10.6-0.1-13.6,3.3c-6.8,7.7-13.2,15.8-19.7,23.7C854.9,459,857,461.1,858.2,459.7
					L858.2,459.7z"/>
			</g>
		</g>
		<g>
			<g>
				<path class="st0" d="M876.6,431c1.5,0.2,2.9,0.6,4.3,1.1c0.8,0.3,1.6-0.3,1.8-1c0.2-0.9-0.3-1.5-1-1.8c-1.6-0.6-3.3-1-5.1-1.2
					c-0.8-0.1-1.5,0.8-1.5,1.5C875.1,430.4,875.8,430.9,876.6,431L876.6,431z"/>
			</g>
		</g>
		<g>
			<g>
				<path class="st0" d="M877.9,466.8c2.3-2.9,6.8-0.9,7.7,2.3c0.4,1.4,0.4,3.1,0.1,4.5c-0.7,3.3-2.8,6.2-5.1,8.6
					c-4.1,4.4-9,8.2-14.2,11.2c-10.4,6-22.2,9-34.1,9.9c-1.9,0.1-1.9,3.1,0,3c18-1.3,35.7-7.5,48.8-20.3c4.8-4.7,9.6-11.3,7.2-18.4
					c-1.8-5.4-8.6-7.9-12.5-3C874.5,466.2,876.7,468.3,877.9,466.8L877.9,466.8z"/>
			</g>
		</g>
		<path class="st10" d="M758.6,265.6c2.2,7.9,5.4,20.1,9.1,35.1c9.5,38.9,15.7,71.6,27.3,119.8c11.7,48.6,16.1,59.6,26.9,63.8
			c12,4.6,35.7,2.3,50.5-10c4.7-3.9,9.4-9.5,11.8-8.2c2.5,1.4,1.8,9.6-1.4,15.9c-6,12-20.1,16.1-33.7,20
			c-11.1,3.2-16.7,4.8-23.7,2.7c-10.3-3.1-16.2-11.7-19.1-15.9c-3.6-5.3-4.2-8.4-9.1-21.9c-5-13.9-5.4-13.5-9.1-23.7
			c-7.4-20.3-11.8-38.1-14.6-49.2c-5.7-22.8-10.9-43.9-13.7-72.4C758.6,307.4,757.6,288.3,758.6,265.6z"/>
		<path class="st4" d="M804.6,478.2c2.8,2.9,16,16,37.3,16.8c24.2,0.9,39.6-14.9,41.9-17.3c-2.6,4.4-7.7,11.4-16.4,16.8
			c-5.5,3.5-10.2,4.9-15.5,6.4c-13.7,4-22.6,6.5-31,2.7C808.1,497.9,805.1,481,804.6,478.2z"/>
	</g>
	<g id="torso">
		<path class="st8" d="M750,255.6c-10.7-1.3-20.8,6-26.3,10c-15.3,11.1-21.2,26.8-23.9,33.6c-16.5,41.3-21.3,91.3-23.4,110.1
			c-2.7,23.6-8,58-20,99.8c7,5.7,34.7,27,75.3,25.7c34.7-1.2,58.4-18.3,66.1-24.5c2.2-40.1,2.5-73.9,2.3-99.2
			c-0.5-46.2-2.1-67.4-9.1-91.8C785.6,300.5,773.5,258.4,750,255.6z"/>
		<path class="st10" d="M741.5,258.7c-10,9.8,13.9,48,17.8,56.9c18,41,26.3,107.3-16.7,218.3c5.9-1.1,12.5-2.7,19.5-5.2
			c14.6-5,26.1-11.8,34.5-17.8c0.7-7.3,1.6-17.1,2.3-28.7c1.1-18.5,1.2-33.7,1.1-46.5c-0.2-39-0.3-58.5-3.4-84.4
			c-1.6-12.9-5.1-37-16.7-64.3c-6.9-16.1-14-27.3-25.3-29.9C753.2,256.7,745.4,254.9,741.5,258.7z"/>
		<path class="st11" d="M797.8,373.6c-2-0.2-4.6,18.1-9.2,41.9c-9.7,50.1-21.8,89.2-30.4,114.3c5.7-2.2,11.7-4.7,17.8-7.5
			c7.5-3.4,14.6-6.9,21.3-10.3C801.6,397.4,800.1,373.8,797.8,373.6z"/>
	</g>
	<g id="hand_front">
		<path class="st3" d="M727.1,270.2c-3.2-1.3-6.2-1.1-8-0.8c-3,3.6-7.7,9.3-13.4,16.3c-25.1,31.3-27.3,38.6-44.8,58.6
			c-16.8,19.2-28.4,28.2-37,34c-9.7,6.5-16.9,9.8-19.1,10.8c-15.9,7.1-30.3,9.3-39.8,10.1c-2.9-1.4-7.1-3.7-11.3-7.5
			c-5.4-5-7.9-9.8-10.5-14.2c-9.9-16.7-12.6-21.5-16.3-21.4c-1.3,0-3.4,0.7-6,4.6c-1-0.7-2.7-2-4.6-3.7c-4.7-4.2-6-6.7-9.9-8.4
			c-1.7-0.7-3.9-1.7-5.8-0.6c-1.9,1.1-2.3,3.7-2.4,4.3c-1.7-1.8-5.8-5.5-11.6-5.8c-1.6-0.1-3.9-0.2-5,1.2c-1.7,2-0.1,6.8,4.1,11.8
			c-1-0.3-5.8-1.9-7.8,0.3c-2.2,2.3,0.1,7.4,1.6,10.7c3,6.7,6.9,10.1,15,19.1c3.3,3.7,5.9,6.7,7.6,8.6c-1.7-0.2-4.4-0.6-7.4-1.8
			c-4.5-1.8-6-3.9-8-3.3c-2.2,0.7-3.4,4.4-3,7.3c0.5,3.3,3.6,5.3,5.5,6.4c11.5,7,25.7,10.5,30.1,11.6c10.9,2.7,16.4,4,20.5,4.5
			c7.1,0.9,14.2,1.3,24.8,0.8c29.4-1.4,52.3-7.4,57.2-8.7c10.6-2.8,19.9-5.3,31.6-10.6c10.9-4.9,34.9-16,55.9-41.1
			c11.5-13.7,16.4-25,26.3-47.5c1.2-2.8,3.6-8.3,4-15.7C740.1,289.7,737.2,274.2,727.1,270.2z"/>
		<g>
			<g>
				<path class="st0" d="M726.3,268.1c-6.9-2.6-12.1,3.9-16,8.7c-5.6,6.8-10.9,13.8-16.2,20.9c-11.5,15.5-22.6,31.4-35.3,46.1
					c-24,28-55.6,52.7-94.1,53.6c-1.9,0-1.9,3,0,3c34.8-0.8,64.8-20.7,87.9-45.3c12-12.8,22.6-26.8,33-40.9c5.5-7.5,11-15,16.6-22.4
					c3.3-4.3,6.7-8.6,10.1-12.8c3.1-3.8,7.4-10,13.1-7.9C727.3,271.6,728,268.7,726.3,268.1L726.3,268.1z"/>
			</g>
		</g>
		<g>
			<g>
				<path class="st0" d="M737.9,297.8c-13.2,90.8-117.8,132.2-199.7,123c-13.4-1.5-27-4.6-39.3-10.3c-3.1-1.4-6.2-3-9-4.9
					c-1.2-0.8-2.4-1.5-3.3-2.6c-2.3-1.7-2.5-3.5-0.8-5.5c0.2-2.7,1.5-3.5,4-2.5c4.9,1.1,8,5.3,13.3,5.4c1.9,0,1.9-3,0-3
					c-5.4-0.1-8.9-5.2-14.2-5.6c-3.8-0.3-7,1.8-7.5,5.7c-1,9.2,12.9,14.3,19.5,17.1c24.5,10.2,51.9,11.6,78,9.4
					c48.2-4.1,97.3-21.5,129.9-58.5c16.6-18.9,28.3-41.9,31.9-66.9C741.1,296.7,738.2,295.9,737.9,297.8L737.9,297.8z"/>
			</g>
		</g>
		<g>
			<g>
				<path class="st0" d="M503.9,397.9c-2.4-4.4-6.2-7.2-9.7-10.6c-5-4.9-9.1-11.8-12.5-18c-0.9-1.7-1.8-3.4-2.3-5.2
					c-1.3-2.5-0.5-3.4,2.2-2.6c1.7-0.7,3-0.3,4,1c2.5,1.5,4.9,4.4,6.9,6.5c4.9,5,9.2,10.6,13,16.5c1,1.6,3.6,0.1,2.6-1.5
					c-3-4.6-26.1-36.6-31.5-25.3c-3.2,6.5,4.8,15.8,7.9,20.8c2.3,3.6,4.5,7,7.6,10c3.3,3.2,7,5.8,9.3,10
					C502.2,401.1,504.8,399.6,503.9,397.9L503.9,397.9z"/>
			</g>
		</g>
		<g>
			<g>
				<path class="st0" d="M489.6,361.1c-1.3-1.3-11-13.2-4.8-13.9c1.4-0.2,5,2.8,6.2,3.6c2,1.4,4,3,5.8,4.8
					c6.6,6.1,11.8,13.5,16.9,20.8c1.1,1.6,3.7,0.1,2.6-1.5c-7.7-10.9-16.5-24.3-29.2-29.9c-3.1-1.4-7.3-1.6-7.7,2.7
					c-0.5,5.5,4.4,12.1,8,15.6C488.9,364.6,491,362.5,489.6,361.1L489.6,361.1z"/>
			</g>
		</g>
		<g>
			<g>
				<path class="st0" d="M501.7,356.1c-0.3-0.6-1.7-3.5-1.5-4.2c1.1-0.9,2.2-1.9,3.3-2.8c0.7,0.4,1.5,0.7,2.2,1.1
					c2.9,1.7,5.4,4.2,7.7,6.7c4.6,5.2,8.6,11,12.8,16.5c1.2,1.5,3.8,0,2.6-1.5c-6.4-8.3-13-20.4-23-25c-2.2-1-5.3-1.8-7.3,0
					c-3,2.6-0.8,7.3,0.4,10.1C499.5,358.7,502.4,357.9,501.7,356.1L501.7,356.1z"/>
			</g>
		</g>
		<g>
			<g>
				<path class="st0" d="M523.2,362.5c-0.8-2.5-1.5-3.1,1.7-3.4c2.8-0.2,2.9,0.4,4.6,2.2c2.1,2.4,4,4.9,5.9,7.4
					c3.2,4.4,6.2,9,9.5,13.5c5.1,6.9,11.8,16.6,21,17.9c1.9,0.3,2.7-2.6,0.8-2.9c-8.3-1.2-14.6-10.2-19.2-16.5
					c-4.2-5.7-8.1-11.8-12.4-17.4c-2.5-3.1-6.3-9.5-11-9.3c-5,0.2-4.7,5.9-3.6,9.3C520.9,365.1,523.8,364.3,523.2,362.5L523.2,362.5
					z"/>
			</g>
		</g>
		<path class="st10" d="M737.5,281.2c-2.4-0.7-6.3,9.5-13.8,22.7C711.4,325.7,699,340,685.9,353c-31.1,30.8-46.7,46.3-73.9,54.4
			c-9.7,2.9-54.5,14.9-95.9-11c-19.6-12.3-30.9-28.4-36.6-38.2c-1,1-2.2,2.5-2.4,4.5c-0.4,2.9,1.5,5.1,3.7,8.1
			c3,4.3,3.2,5.4,4.3,7.6c0,0,0.9,1.6,2.2,3.4c3.4,4.7,15.4,15.6,14.6,16.7c-0.3,0.4-2.6-0.7-7.3-2.8c-4.6-2.1-5.4-2.7-6.9-2.4
			c-2.7,0.5-5.4,3.5-5.3,6.5c0.1,2.7,2.4,4.5,4.5,6.1c2.4,1.9,4.7,2.6,5.3,2.8c8.8,3,11,5,18.7,7.3c22.5,6.7,47.9,7.3,47.9,7.3
			c37.3,0.9,65.9-8.5,71.9-10.6c12.4-4.2,36.7-12.7,61.3-33.7c12.2-10.4,30.8-26.6,40.6-53.6C740.1,304.9,740.9,282.1,737.5,281.2z"
			/>
		<path class="st4" d="M503.5,411.6c16,3.5,35.5,6.1,57.7,5.7c54.3-1,96.2-19.8,119.8-32.9c-12.6,10.4-33.9,25.3-63.8,33.7
			C564.3,433,519.6,417.9,503.5,411.6z"/>
	</g>
	<g id="head">
		<path class="st3" d="M667.1,132.4c-0.1,0.2-3.6,6.1-10.5,18c-8,13.7-11.3,19.4-14.6,27.5c-2.3,5.7-3.8,10.4-4.7,13.6
			c4.4,1.8,8.8,3.6,13.2,5.4c1.2,9.8,4.1,17.3,6.4,22c3.7,7.6,9,18.7,21,24.1c1.8,0.8,7.2,3.1,14.6,3.1c9.2,0,16-3.6,19-5.4
			c0.6,3.8,1.8,8.6,4.1,13.9c1.9,4.5,4.1,8.1,6.1,10.9c9.4-3.6,18.8-7.2,28.1-10.9c-2.6-3.9-6-10.1-8.1-18.3
			c-0.7-2.8-2.3-9.8-1.7-19.7c0.7-12.1,4.1-18.4,7.8-29.8c5.7-17.8,9.1-28.2,7.5-39.3c-2.1-14.4-12.9-31-29.5-37
			C702,101.8,677.3,118.7,667.1,132.4z"/>
		<path class="st12" d="M650.5,144c-6.2-2.4-7.6-14.6-6.4-22.7c0.4-2.7,1.9-10.7,9.2-18.7c9.9-10.9,20.4-10.8,35.6-17.3
			c8.4-3.6,20.4-10.1,33.2-22.7c-1.9,5.7-3.8,11.3-5.8,17c2.9,0.2,10.1,0.5,17.6-3.7c9.3-5.1,12.9-13.5,13.9-15.9
			c1.6,2.5,8.2,13.4,4.7,25.8c-1,3.5-2.6,6.3-4.1,8.5c5.2-1.4,12.5-4.1,18.7-10.2c6.8-6.7,7.7-12.8,10.5-12.5
			c5.4,0.5,7.4,22.5,8.5,34.6c0.7,8,1.8,13.6-0.3,20.3c-1.9,6.2-5.5,10.9-5.1,11.2c0.7,0.4,10.8-16.2,13.6-14.9
			c1.7,0.8-1.3,7.2-2.4,19.3c-1.3,14.8,1.7,17.6-1,28.1c-1.6,6.1-3.9,10.4-6.4,15.3c-3.1,5.7-6.9,12.9-13.9,19.3
			c-6.5,6-14.5,13.3-24.4,11.9c-12.9-1.9-18.9-17.2-19.3-18.3c1.1,0,11-0.5,15.9-8.1c6.2-9.7,0-24.1-7.1-26.5
			c-5.2-1.8-9.3,3.5-14.2,1c-4-2-4.5-6.9-6.1-11.5c-2.1-6.1-6.7-14.2-18-22.4c-7.1-0.3-17.6,0.3-28.5,5.4
			C659.3,140.6,655.2,145.8,650.5,144z"/>
		<g>
			<g>
				<path class="st0" d="M649.6,161.1c-5.2,8-9.5,16.5-12.5,25.6c-0.7,2.1-1.9,4.3-0.4,6.1c1.1,1.3,3.8,1.7,5.3,2.3
					c2.5,0.9,5,1.9,7.5,2.8c1.8,0.7,2.6-2.2,0.8-2.9c-1.7-0.6-3.3-1.2-5-1.9c-1-0.4-4.3-1.1-5-1.9c-2.1-2.1,0.9-7.3,1.8-9.5
					c2.7-6.7,6.1-13,10.1-19.1C653.3,161,650.7,159.5,649.6,161.1L649.6,161.1z"/>
			</g>
		</g>
		<g>
			<g>
				<path class="st0" d="M648.9,196.8c5.5,19.2,12.4,40.6,32,49.7c1.7,0.8,3.3-1.8,1.5-2.6c-18.8-8.8-25.3-29.4-30.6-47.9
					C651.2,194.1,648.3,194.9,648.9,196.8L648.9,196.8z"/>
			</g>
		</g>
		<g>
			<g>
				<path class="st0" d="M681.4,246.8c17.5,3.9,37.1-5.5,48.8-18c1.3-1.4-0.8-3.5-2.1-2.1c-11,11.7-29.5,20.9-45.9,17.2
					C680.3,243.4,679.5,246.3,681.4,246.8L681.4,246.8z"/>
			</g>
		</g>
		<g>
			<g>
				<path class="st0" d="M710.1,241.4c1.2,8.8,4.4,16.7,9.9,23.7c1.2,1.5,3.3-0.6,2.1-2.1c-4.9-6.3-7.9-13.7-9-21.6
					C712.9,239.5,709.9,239.5,710.1,241.4L710.1,241.4z"/>
			</g>
		</g>
		<g>
			<g>
				<path class="st0" d="M738.7,228.5c0.6,9.9,4.2,18.9,10.6,26.5c1.2,1.5,3.4-0.7,2.1-2.1c-5.9-7-9.2-15.3-9.8-24.4
					C741.5,226.6,738.5,226.6,738.7,228.5L738.7,228.5z"/>
			</g>
		</g>
		<g>
			<g>
				<path class="st0" d="M723.9,168.7c2.9-4.4,8.4-5,12.7-2.2c3.9,2.5,5.8,7.3,6.1,11.7c0.5,7.1-4.1,21.5-14.1,17.2
					c-1.8-0.8-3.3,1.8-1.5,2.6c13,5.6,19.9-11.5,18.4-21.8c-0.9-5.9-4.3-11.7-10.2-13.7c-5.3-1.9-10.8,0.1-13.9,4.7
					C720.2,168.8,722.8,170.3,723.9,168.7L723.9,168.7z"/>
			</g>
		</g>
		<g>
			<g>
				<path class="st0" d="M712.8,245.4c5.8-3.7,10.8-8.2,15.1-13.5c1.2-1.5-0.9-3.6-2.1-2.1c-4.1,5.1-9,9.5-14.5,13.1
					C709.7,243.9,711.2,246.5,712.8,245.4L712.8,245.4z"/>
			</g>
		</g>
		<g>
			<g>
				<path class="st0" d="M658.1,216.6c6.9,0.6,13.8-1.9,18.6-7c3.1-3.4,4.3-9.1-2-8.9c-1.6,0.1-2.1,2.5-0.4,2.9
					c2.3,0.6,4.2,1.5,6.1,3.1c1.5,1.2,3.6-0.9,2.1-2.1c-2.3-1.9-4.5-3.1-7.4-3.8c-0.1,1-0.3,2-0.4,2.9c3.4-0.1-1.1,4.8-1.5,5.2
					c-1.6,1.4-3.3,2.4-5.2,3.2c-3.2,1.4-6.4,1.8-9.9,1.5C656.2,213.5,656.2,216.5,658.1,216.6L658.1,216.6z"/>
			</g>
		</g>
		<g>
			<g>
				<path class="st0" d="M671.3,171.4c-1.7-3-2.3-6.3-1.5-9.6c-0.7,0.3-1.5,0.6-2.2,0.9c2.7,2.1,2.1,6,1.7,8.9
					c0.9-0.1,1.8-0.2,2.7-0.4c-1.2-1.7-1.8-3.5-1.8-5.6c0-1.9-3-1.9-3,0c0,2.6,0.7,5,2.2,7.1c0.7,0.9,2.5,1,2.7-0.4
					c0.7-4.5,0.9-9.2-3.1-12.3c-0.8-0.6-2,0-2.2,0.9c-1,4.1-0.4,8.3,1.8,11.9C669.7,174.6,672.3,173.1,671.3,171.4L671.3,171.4z"/>
			</g>
		</g>
		<g>
			<g>
				<path class="st0" d="M665.3,150.2c4.9-5.8,12-1.4,14.6,4.1c0.8,1.7,3.4,0.2,2.6-1.5c-3.4-7.2-13.2-11.8-19.3-4.7
					C661.9,149.6,664,151.7,665.3,150.2L665.3,150.2z"/>
			</g>
		</g>
		<path class="st2" d="M713.5,148.5c0.4,2.3,0.9,5.9,1.7,10.1c2.2,11.9,4.1,18.7,4.8,21.9c2.6,12.2-0.8,31-13.2,43.3
			c-13.7,13.5-32.4,13.2-37.1,13c2.1,2.5,5.4,5.7,10.2,7.8c14.6,6.4,29.4-2.9,31-4c-0.2,6.5,1.2,8.7,2.6,9.4
			c4.3,1.9,13.9-7,18.1-16.6c4.5-10.4,2.2-20.4,1-24.5c-5.6-7.7-5.9-10.4-5.1-11.3c1.2-1.3,4.5,1.1,8.2-0.2c3.9-1.5,5.5-6.2,6.5-9.1
			c1.3-3.9,4.8-14.5-1.7-20.7c-4.1-3.9-10.8-4.6-17.1-2.4c-1.3-0.2-3-0.8-4.3-2.2c-1.7-1.8-1.7-3.9-2.6-7.5
			C715.9,153.7,715.1,151.3,713.5,148.5z"/>
		<path class="st5" d="M727.5,216.1c-0.8,8.6-2.9,15.6-4.8,20.7c3.5-1,7.1-2.1,10.6-3.1c3,7.9,5.9,15.9,8.9,23.8
			c2.2-1.1,4.3-2.2,6.5-3.4c-2.5-5.6-5-12.5-7-20.5c-1.7-6.8-2.6-13.1-3.1-18.5c-1.7-1.7-3.7-3.8-5.5-6.5c-3.1-4.5-4.9-8.7-6-12
			C727.7,201.7,728.2,208.4,727.5,216.1z"/>
		<path class="st13" d="M784.1,90.7c-1.4,0-0.5,13.8-6.4,30.6c-2.5,7.1-7.1,19.7-18.9,30.3c-8.4,7.5-17.1,11.2-22.6,13
			c1.5,0.9,3.9,2.6,5.7,5.5c4.4,7,1.6,14.9,0.8,17.2c-1.1,3.2-2.6,7.4-6.8,9.6c-3.9,2-7.9,1.2-9.3,0.8c0.3,0.9,6.6,17.5,19.7,18.9
			c5.5,0.6,10-1.8,13.4-3.6c8.9-4.6,13.4-11.5,18.9-20c7.3-11.3,12.4-19.3,13.1-30.6c0.5-8.9-2.2-11.2-0.3-19.7
			c0.6-2.7,2.2-8.1,1.9-15.6c-0.1-1.6-0.2-2.9-0.3-3.8c-4.1,4.7-8.2,9.5-12.3,14.2c1.4-2.7,3.2-6.9,4.4-12.3
			c1.3-5.9,1.1-10.5,0.8-18.1C785.8,102.8,785.4,90.7,784.1,90.7z"/>
	</g>
</g>
</svg>
