<?xml version="1.0" encoding="utf-8"?>
<!-- Generator: Adobe Illustrator 21.0.0, SVG Export Plug-In . SVG Version: 6.00 Build 0)  -->
<svg version="1.1" id="logo" xmlns="http://www.w3.org/2000/svg" xmlns:xlink="http://www.w3.org/1999/xlink" x="0px" y="0px"
	 viewBox="0 0 120 66.7" style="enable-background:new 0 0 120 66.7;" xml:space="preserve">
<style type="text/css">
	.st0{fill:#FFFFFF;}
</style>
<title>Logo Kd meu bichinho</title>
<path id="letra-k" class="st0" d="M49,27.4V15.2h2.7v5.1l4.2-5.1h3.3l-4.6,5.3l4.9,6.9h-3.3l-3.6-5.2l-1,1.1v4.1
	C51.6,27.4,49,27.4,49,27.4z"/>
<path id="letra-d" class="st0" d="M66.1,13.6h1.7v13.7h-1.4l-0.2-1h-0.1c-0.3,0.4-0.7,0.7-1.2,0.9c-0.5,0.2-1,0.3-1.5,0.3
	s-1-0.1-1.4-0.3c-0.5-0.2-0.9-0.5-1.2-0.9c-0.4-0.4-0.7-0.9-0.9-1.5c-0.2-0.7-0.3-1.4-0.3-2.1s0.1-1.3,0.3-1.9
	c0.2-0.5,0.4-1.1,0.8-1.5c0.3-0.4,0.8-0.7,1.3-0.9c0.5-0.2,1.1-0.3,1.7-0.3c0.5,0,0.9,0.1,1.4,0.2c0.4,0.1,0.8,0.4,1.2,0.7
	L66.1,13.6z M66.1,20.5c-0.5-0.6-1.3-1-2.1-1c-0.3,0-0.7,0.1-1,0.2s-0.6,0.3-0.9,0.6c-0.3,0.3-0.5,0.7-0.6,1c-0.2,0.5-0.2,1-0.2,1.5
	s0.1,1.1,0.2,1.6c0.1,0.4,0.3,0.8,0.6,1.1c0.2,0.3,0.5,0.5,0.8,0.6s0.6,0.2,0.9,0.2c0.9,0,1.8-0.5,2.4-1.3L66.1,20.5z"/>
<path id="letra-m" class="st0" d="M71.3,27.4h-1.7v-9.1H71l0.3,1.3c0.4-0.4,0.9-0.8,1.4-1c0.5-0.3,1.2-0.4,1.8-0.4
	c0.6,0,1.1,0.1,1.6,0.4c0.4,0.3,0.7,0.6,0.9,1.1c0.4-0.5,0.9-0.8,1.5-1.1c0.6-0.3,1.2-0.4,1.8-0.4c0.8-0.1,1.6,0.2,2.1,0.8
	c0.5,0.6,0.7,1.4,0.7,2.2v6.3h-1.7v-6c0-0.5-0.1-1-0.4-1.4c-0.3-0.3-0.8-0.5-1.3-0.5c-1,0-1.8,0.5-2.5,1.2c0,0.1,0,0.1,0,0.2v6.4
	h-1.7v-6c0-0.5-0.1-1-0.4-1.4c-0.3-0.3-0.8-0.5-1.2-0.5c-1,0-1.8,0.5-2.4,1.2v6.7H71.3z"/>
<path id="letra-e" class="st0" d="M92.6,23H86v0.1c-0.1,0.9,0.2,1.7,0.8,2.3c0.6,0.6,1.4,0.8,2.2,0.8c0.4,0,0.9,0,1.3-0.1
	s0.8-0.2,1.2-0.4L92,27c-0.4,0.2-0.9,0.3-1.3,0.4c-0.5,0.1-1.1,0.2-1.6,0.2c-0.6,0-1.3-0.1-1.8-0.3c-0.6-0.2-1.1-0.5-1.5-0.8
	c-0.5-0.4-0.8-0.9-1-1.5c-0.3-0.7-0.4-1.4-0.4-2.1s0.1-1.3,0.3-1.9c0.2-0.5,0.5-1.1,0.9-1.5s0.9-0.7,1.4-0.9
	c0.6-0.2,1.2-0.3,1.8-0.3c0.5,0,1.1,0.1,1.6,0.3c0.4,0.2,0.9,0.5,1.2,0.8c0.3,0.4,0.6,0.8,0.8,1.3c0.2,0.5,0.3,1.1,0.3,1.6L92.6,23z
	 M90.8,21.8c0-0.3,0-0.6-0.1-0.9s-0.2-0.5-0.4-0.8c-0.2-0.2-0.4-0.4-0.7-0.5c-0.3-0.1-0.6-0.2-1-0.2c-0.6,0-1.3,0.2-1.7,0.7
	c-0.5,0.5-0.8,1.1-0.8,1.8L90.8,21.8z"/>
<path id="letra-u" class="st0" d="M99.9,18.3h1.7v9.1h-1.3l-0.2-1.1H100c-0.4,0.4-0.8,0.7-1.2,0.9c-0.5,0.3-1.1,0.4-1.7,0.4
	c-0.8,0-1.7-0.2-2.3-0.8c-0.6-0.5-0.9-1.3-0.9-2.4v-6h1.7v5.8c0,0.3,0,0.7,0.1,1c0.1,0.2,0.2,0.5,0.4,0.6c0.2,0.2,0.4,0.3,0.6,0.3
	c0.2,0.1,0.5,0.1,0.7,0.1c0.5,0,1-0.1,1.4-0.3c0.4-0.2,0.8-0.5,1.2-0.9L99.9,18.3z"/>
<path id="letra-b" class="st0" d="M58,38.3c0,0.7-0.1,1.4-0.3,2s-0.5,1.1-0.9,1.5s-0.9,0.7-1.4,1c-0.5,0.2-1.1,0.3-1.7,0.3
	c-0.5,0-1.1-0.1-1.5-0.3s-0.8-0.5-1.1-0.8H51l-0.2,0.9h-1.9V29h2.6v5.3c0.3-0.3,0.7-0.5,1.1-0.7c0.4-0.2,0.9-0.3,1.4-0.3
	c1.1-0.1,2.2,0.4,3,1.3C57.6,35.6,58,36.7,58,38.3z M55.3,38.3c0.1-0.8-0.1-1.5-0.6-2.2c-0.4-0.5-1-0.8-1.6-0.7
	c-0.4,0-0.7,0.1-1,0.3c-0.3,0.1-0.5,0.3-0.7,0.6v4.2c0.2,0.2,0.4,0.4,0.6,0.5c0.3,0.1,0.5,0.2,0.8,0.2s0.6-0.1,0.9-0.2
	c0.3-0.1,0.6-0.3,0.8-0.5c0.2-0.3,0.4-0.6,0.5-0.9C55.3,39.2,55.3,38.8,55.3,38.3L55.3,38.3z"/>
<path id="letra-i_1_" class="st0" d="M60.3,31.4c-0.3,0-0.6-0.1-0.8-0.3c-0.2-0.2-0.3-0.5-0.3-0.7c0-0.3,0.1-0.6,0.3-0.8
	c0.2-0.2,0.5-0.3,0.8-0.3s0.6,0.1,0.8,0.3c0.2,0.2,0.3,0.5,0.3,0.8s-0.1,0.6-0.3,0.7C60.9,31.3,60.6,31.4,60.3,31.4z M59.5,42.9
	v-9.1h1.7v9.1H59.5z"/>
<path id="letra-c" class="st0" d="M67.5,41.7c0.4,0,0.7,0,1.1-0.1c0.3-0.1,0.6-0.2,0.9-0.3l0.4,1.3c-0.8,0.4-1.6,0.5-2.5,0.5
	c-0.6,0-1.3-0.1-1.8-0.3c-0.6-0.2-1.1-0.5-1.5-0.9s-0.8-0.9-1-1.5c-0.3-0.7-0.4-1.4-0.4-2.1c0-0.7,0.1-1.3,0.3-2
	c0.2-0.6,0.5-1.1,1-1.5c0.4-0.4,0.9-0.7,1.5-0.9c0.6-0.2,1.3-0.3,1.9-0.3c0.4,0,0.8,0,1.2,0.1c0.5,0.1,0.9,0.2,1.3,0.4l-0.4,1.3
	c-0.6-0.3-1.2-0.5-1.9-0.5c-0.9,0-1.7,0.3-2.3,0.9c-0.6,0.7-0.9,1.6-0.9,2.5c0,0.6,0.1,1.1,0.3,1.6c0.2,0.4,0.4,0.8,0.7,1.1
	c0.3,0.3,0.6,0.5,1,0.6C66.7,41.7,67.1,41.7,67.5,41.7z"/>
<path id="letra-h_1_" class="st0" d="M72.7,42.9H71V29.1h1.7v5.8c0.4-0.4,0.9-0.7,1.4-0.9s1.1-0.4,1.7-0.4c0.4,0,0.9,0.1,1.3,0.2
	c0.4,0.1,0.7,0.3,0.9,0.6c0.2,0.3,0.4,0.6,0.5,0.9c0.1,0.4,0.2,0.8,0.2,1.2v6.3H77V37c0-0.5-0.1-1.1-0.4-1.5
	c-0.3-0.3-0.8-0.5-1.3-0.5s-0.9,0.1-1.3,0.3c-0.5,0.2-0.9,0.6-1.3,0.9C72.7,36.2,72.7,42.9,72.7,42.9z"/>
<path id="letra-i" class="st0" d="M81.8,31.4c-0.3,0-0.6-0.1-0.8-0.3c-0.2-0.2-0.3-0.5-0.3-0.7c0-0.3,0.1-0.6,0.3-0.8
	c0.2-0.2,0.5-0.3,0.8-0.3s0.6,0.1,0.8,0.3c0.2,0.2,0.3,0.5,0.3,0.8s-0.1,0.6-0.3,0.7C82.3,31.3,82,31.4,81.8,31.4z M80.9,42.9v-9.1
	h1.7v9.1H80.9z"/>
<path id="letra-n" class="st0" d="M86.3,42.9h-1.7v-9.1H86l0.3,1.3c0.4-0.4,0.9-0.8,1.4-1s1.1-0.4,1.7-0.4c0.8,0,1.6,0.2,2.2,0.8
	s0.8,1.4,0.8,2.2V43h-1.7v-6c0-0.5-0.1-1-0.4-1.3c-0.3-0.4-0.8-0.5-1.3-0.5c-1,0-1.9,0.5-2.5,1.2L86.3,42.9z"/>
<path id="letra-h" class="st0" d="M95.9,42.9h-1.7V29.1h1.7v5.8c0.4-0.4,0.9-0.7,1.4-0.9s1.1-0.4,1.7-0.4c0.4,0,0.9,0.1,1.3,0.2
	c0.4,0.1,0.7,0.3,0.9,0.6c0.2,0.3,0.4,0.6,0.5,0.9c0.1,0.4,0.2,0.8,0.2,1.2v6.3h-1.7V37c0.1-0.5-0.1-1.1-0.4-1.5S99,35,98.6,35
	c-0.5,0-0.9,0.1-1.3,0.3c-0.5,0.2-0.9,0.6-1.3,0.9L95.9,42.9L95.9,42.9z"/>
<path id="letra-o" class="st0" d="M112.2,38.2c0,0.7-0.1,1.4-0.3,2c-0.2,0.6-0.5,1.1-1,1.5c-0.4,0.4-0.9,0.7-1.4,0.9
	c-0.6,0.2-1.2,0.3-1.8,0.3c-0.6,0-1.2-0.1-1.8-0.3c-0.5-0.2-1-0.5-1.4-0.9s-0.7-0.9-0.9-1.5c-0.2-0.6-0.4-1.3-0.3-2
	c0-0.7,0.1-1.4,0.3-2c0.2-0.6,0.5-1.1,1-1.5c0.4-0.4,0.9-0.7,1.4-0.9c0.6-0.2,1.2-0.3,1.8-0.3c0.6,0,1.2,0.1,1.8,0.3
	c0.5,0.2,1,0.5,1.4,0.9s0.7,0.9,0.9,1.4C112.1,36.9,112.2,37.5,112.2,38.2z M110.4,38.3c0-0.5-0.1-1.1-0.2-1.6
	c-0.1-0.4-0.3-0.7-0.6-1c-0.2-0.3-0.5-0.5-0.9-0.6c-0.3-0.1-0.7-0.2-1-0.2s-0.7,0.1-1,0.2c-0.3,0.1-0.6,0.3-0.9,0.5
	c-0.3,0.3-0.5,0.7-0.6,1c-0.2,0.5-0.2,1.1-0.2,1.6s0.1,1.1,0.2,1.6c0.1,0.4,0.3,0.7,0.6,1.1c0.2,0.3,0.5,0.5,0.9,0.6
	c0.3,0.1,0.6,0.2,1,0.2c0.3,0,0.7-0.1,1-0.2c0.3-0.1,0.6-0.3,0.9-0.6s0.5-0.7,0.6-1C110.4,39.4,110.4,38.9,110.4,38.3L110.4,38.3z"
	/>
<path id="interrogacao" class="st0" d="M116.2,29c0.5,0,1.1,0.1,1.6,0.3c0.4,0.1,0.8,0.4,1.2,0.7c0.3,0.3,0.6,0.6,0.7,1
	c0.2,0.4,0.3,0.9,0.3,1.3c0,0.6-0.2,1.3-0.5,1.8c-0.4,0.6-0.8,1.1-1.4,1.6c-0.3,0.3-0.5,0.5-0.7,0.7s-0.4,0.4-0.5,0.5
	s-0.2,0.3-0.3,0.4c-0.1,0.2-0.1,0.3-0.1,0.5s0,0.5,0.1,0.7l-2.1,0.3c-0.1-0.2-0.1-0.3-0.1-0.5s-0.1-0.4-0.1-0.6c0-0.5,0.1-1,0.4-1.4
	c0.1-0.2,0.3-0.4,0.4-0.6c0.2-0.2,0.4-0.4,0.6-0.7c0.4-0.4,0.8-0.8,1.1-1.3c0.3-0.4,0.4-0.8,0.4-1.3c0-0.4-0.1-0.7-0.4-1
	s-0.7-0.4-1.1-0.4c-0.3,0-0.6,0-0.9,0.1s-0.6,0.3-0.9,0.5l-0.9-1.7c0.4-0.3,0.9-0.5,1.4-0.7C115.1,29.1,115.6,29,116.2,29z
	 M114.4,41.6c0-0.4,0.1-0.8,0.4-1c0.3-0.3,0.6-0.4,1-0.4c0.8,0,1.5,0.7,1.5,1.5c0,0.4-0.1,0.8-0.4,1.1s-0.6,0.4-1,0.4
	C115.1,43.1,114.4,42.4,114.4,41.6L114.4,41.6L114.4,41.6z"/>
<path id="lingua_1_" class="st0" d="M12,49.1L12,49.1c0.7,0,1.2,0.5,1.2,1.2v6.5c0,0.7-0.5,1.2-1.2,1.2l0,0c-0.7,0-1.2-0.5-1.2-1.2
	v-6.5C10.8,49.7,11.4,49.1,12,49.1L12,49.1z"/>
<circle id="olho-direito" class="st0" cx="6.9" cy="26.9" r="3.8"/>
<circle id="olho-esquerdo" class="st0" cx="28.2" cy="26.9" r="3.8"/>
<path id="fucinho" class="st0" d="M17.5,32.1h2.8c2,0,3.6,1.6,3.6,3.6c0,0.6-0.2,1.2-0.5,1.8L22,39.8l-1.4,2.4
	c-1,1.7-3.2,2.3-4.9,1.3c-0.5-0.3-1-0.8-1.3-1.3L13,39.8l-1.4-2.4c-1-1.7-0.4-3.9,1.3-4.9c0.5-0.3,1.1-0.5,1.8-0.5h2.8V32.1z"/>
<path id="orelha" class="st0" d="M0.4,0H34v4.9H18.8L34,19v6.1L19.1,11.2L0.4,26.1V20L15.8,7.7l-3-2.8H0.4V0z"/>
<path id="lingua" class="st0" d="M11.6,66.7c-1.6,0-3.3-0.2-4.8-0.8c-1.3-0.5-2.6-1.2-3.7-2.2c-1-0.9-1.8-2-2.3-3.2
	c-0.5-1.3-0.8-2.6-0.8-4c0-1.3,0.2-2.6,0.6-3.8c0.4-1.1,1.1-2.2,1.9-3.1v-0.1l-2.1-0.4v-3h33.7v4.1H20c1,0.9,1.8,2.1,2.4,3.3
	c0.5,1.2,0.8,2.5,0.8,3.8c0,2.8-1,5.1-3,6.8C18.1,65.9,15.2,66.7,11.6,66.7z M11.6,62.3c2.5,0,4.4-0.5,5.9-1.6
	c1.4-1,2.3-2.7,2.2-4.4c0-1.1-0.3-2.3-0.8-3.3c-0.6-1.1-1.4-2-2.3-2.8H5.8C5,50.9,4.4,51.7,4,52.5c-0.5,0.9-0.7,1.9-0.7,2.9
	c0,0.9,0.2,1.8,0.5,2.6s0.8,1.6,1.5,2.2c0.8,0.7,1.6,1.2,2.6,1.5C9,62.1,10.3,62.3,11.6,62.3L11.6,62.3z"/>
</svg>
