<svg xmlns="http://www.w3.org/2000/svg" viewBox="0 0 178.47 73.86"><title>Ativo 6</title><g id="Camada_2" data-name="Camada 2"><g id="Camada_1-2" data-name="Camada 1"><path d="M.34,34.48V3.89H7V16.75L17.53,3.89h8.26L14.38,17.24,26.76,34.48H18.55l-9-13.06L7,24.09V34.48Z"/><path d="M43.22,0H47.5V34.48H43.9L43.37,32h-.15a10.31,10.31,0,0,1-3,2.26,9.26,9.26,0,0,1-3.86.7,9.08,9.08,0,0,1-3.57-.73A9,9,0,0,1,29.67,32a10.85,10.85,0,0,1-2.19-3.67,14.9,14.9,0,0,1-.83-5.22,15.8,15.8,0,0,1,.7-4.86,10.93,10.93,0,0,1,2-3.74,8.67,8.67,0,0,1,3.21-2.38,10.72,10.72,0,0,1,4.32-.83,10.48,10.48,0,0,1,3.42.56,8.48,8.48,0,0,1,2.89,1.68Zm0,17.14a7,7,0,0,0-5.39-2.57,7.26,7.26,0,0,0-2.55.46,5.66,5.66,0,0,0-2.19,1.48,7.64,7.64,0,0,0-1.53,2.62A11.25,11.25,0,0,0,31,23a12.78,12.78,0,0,0,.53,4A7.74,7.74,0,0,0,33,29.6a5.55,5.55,0,0,0,2,1.53,5.83,5.83,0,0,0,2.31.49,7,7,0,0,0,5.92-3.16Z"/><path d="M56.43,34.48H52.16V11.66h3.3l.63,3.16a13.76,13.76,0,0,1,3.45-2.55A9.57,9.57,0,0,1,64,11.32a7.27,7.27,0,0,1,4,1,6.14,6.14,0,0,1,2.33,2.74A12.62,12.62,0,0,1,74,12.29a10.37,10.37,0,0,1,4.52-1,6.74,6.74,0,0,1,5.27,2,7.87,7.87,0,0,1,1.77,5.46V34.48H81.29v-15a5.49,5.49,0,0,0-1-3.5,3.87,3.87,0,0,0-3.21-1.21,8.51,8.51,0,0,0-6.17,3,2.56,2.56,0,0,1,0,.49V34.48H66.73v-15a5.49,5.49,0,0,0-1-3.5,3.87,3.87,0,0,0-3.21-1.21,8.21,8.21,0,0,0-6.12,3.11Z"/><path d="M109.66,23.55H93.29v.19a7.83,7.83,0,0,0,2.06,5.83,7.63,7.63,0,0,0,5.61,2,16.55,16.55,0,0,0,3.28-.29,18.39,18.39,0,0,0,3.13-1l.87,3.16a15.82,15.82,0,0,1-3.33,1,20.67,20.67,0,0,1-4.1.39,15.39,15.39,0,0,1-4.64-.68,10.58,10.58,0,0,1-3.81-2.11,9.84,9.84,0,0,1-2.6-3.67,13.65,13.65,0,0,1-.95-5.34,14,14,0,0,1,.8-4.86,10.6,10.6,0,0,1,2.26-3.71,10.11,10.11,0,0,1,3.52-2.38,12.09,12.09,0,0,1,4.64-.85,10.32,10.32,0,0,1,4,.73,8.82,8.82,0,0,1,3,2A9,9,0,0,1,109,17.24a11.73,11.73,0,0,1,.68,4.08Zm-4.42-3.06a8.44,8.44,0,0,0-.32-2.35,5.52,5.52,0,0,0-1-1.92,4.67,4.67,0,0,0-1.68-1.31,5.73,5.73,0,0,0-2.48-.49,5.84,5.84,0,0,0-4.35,1.7,7.69,7.69,0,0,0-2.06,4.47Z"/><path d="M128.06,11.66h4.27V34.48H129l-.58-2.87h-.19A10.55,10.55,0,0,1,125.07,34a9.5,9.5,0,0,1-4.35.95,8.21,8.21,0,0,1-5.75-2q-2.21-2-2.21-6.09V11.66H117V26.27a7.39,7.39,0,0,0,.36,2.48,4.29,4.29,0,0,0,1,1.63,3.52,3.52,0,0,0,1.43.87,5.81,5.81,0,0,0,1.8.27,7.33,7.33,0,0,0,3.5-.83,11.94,11.94,0,0,0,3-2.28Z"/><path d="M22.87,61.82a14.36,14.36,0,0,1-.83,5,11.35,11.35,0,0,1-2.28,3.81A9.68,9.68,0,0,1,16.32,73a11.18,11.18,0,0,1-4.32.83,9.64,9.64,0,0,1-3.88-.7,8.73,8.73,0,0,1-2.82-2H5.1l-.44,2.14H0V38.66H6.41v13.4a8.92,8.92,0,0,1,2.84-1.75,9.53,9.53,0,0,1,3.47-.63,9.21,9.21,0,0,1,7.45,3.21Q22.87,56.09,22.87,61.82ZM16.22,62a9,9,0,0,0-1.41-5.46,4.69,4.69,0,0,0-4-1.87,5.06,5.06,0,0,0-2.53.66,6.44,6.44,0,0,0-1.85,1.48V67.41a5,5,0,0,0,1.63,1.21,4.75,4.75,0,0,0,2.11.49,6,6,0,0,0,2.26-.44,5.6,5.6,0,0,0,1.94-1.31,6.13,6.13,0,0,0,1.33-2.21A9.33,9.33,0,0,0,16.22,62Z"/><path d="M28.75,44.63a2.7,2.7,0,0,1-1.92-.75A2.46,2.46,0,0,1,26,42a2.54,2.54,0,0,1,.8-1.89,2.66,2.66,0,0,1,1.92-.78,2.69,2.69,0,0,1,1.89.78A2.5,2.5,0,0,1,31.47,42a2.43,2.43,0,0,1-.83,1.87A2.73,2.73,0,0,1,28.75,44.63Zm-2.14,28.7V50.51h4.27V73.33Z"/><path d="M46.77,70.47a9.76,9.76,0,0,0,2.72-.34,15,15,0,0,0,2.28-.87l.92,3.21a13.87,13.87,0,0,1-6.26,1.31A14.42,14.42,0,0,1,41.79,73,10.55,10.55,0,0,1,38,70.83a10.24,10.24,0,0,1-2.55-3.69A13.35,13.35,0,0,1,34.53,62a13.1,13.1,0,0,1,.88-4.9,10.72,10.72,0,0,1,2.43-3.72A10.6,10.6,0,0,1,41.57,51a13.51,13.51,0,0,1,4.81-.83,19.5,19.5,0,0,1,2.94.22,13.05,13.05,0,0,1,3.28,1l-1,3.25a9.62,9.62,0,0,0-4.81-1.26,7.7,7.7,0,0,0-5.73,2.21,8.43,8.43,0,0,0-2.19,6.19,10.9,10.9,0,0,0,.68,4.13,7.08,7.08,0,0,0,1.8,2.65A6.76,6.76,0,0,0,43.9,70,9.61,9.61,0,0,0,46.77,70.47Z"/><path d="M59.78,73.33H55.51V38.85h4.27V53.42a15.25,15.25,0,0,1,3.55-2.33,9.83,9.83,0,0,1,4.27-.92,8.93,8.93,0,0,1,3.3.56,6.06,6.06,0,0,1,2.31,1.55,6.69,6.69,0,0,1,1.36,2.36,9.19,9.19,0,0,1,.46,3V73.33H70.75V58.66a5.62,5.62,0,0,0-1.07-3.81,4.16,4.16,0,0,0-3.25-1.19,7.48,7.48,0,0,0-3.33.83,14.51,14.51,0,0,0-3.33,2.33Z"/><path d="M82.56,44.63a2.7,2.7,0,0,1-1.92-.75,2.46,2.46,0,0,1-.8-1.87,2.54,2.54,0,0,1,.8-1.89,2.66,2.66,0,0,1,1.92-.78,2.69,2.69,0,0,1,1.89.78A2.5,2.5,0,0,1,85.28,42a2.43,2.43,0,0,1-.83,1.87A2.73,2.73,0,0,1,82.56,44.63Zm-2.14,28.7V50.51h4.27V73.33Z"/><path d="M94,73.33H89.74V50.51h3.35l.63,3.16a13.13,13.13,0,0,1,3.57-2.6,9.81,9.81,0,0,1,4.3-.9,7.47,7.47,0,0,1,5.49,2,7.33,7.33,0,0,1,2,5.46V73.33H104.8V58.23a4.85,4.85,0,0,0-1.09-3.33,4.21,4.21,0,0,0-3.33-1.24A8.79,8.79,0,0,0,94,56.72Z"/><path d="M118.05,73.33h-4.27V38.85h4.27V53.42a15.25,15.25,0,0,1,3.55-2.33,9.83,9.83,0,0,1,4.27-.92,8.93,8.93,0,0,1,3.3.56,6.06,6.06,0,0,1,2.31,1.55,6.69,6.69,0,0,1,1.36,2.36,9.19,9.19,0,0,1,.46,3V73.33H129V58.66A5.62,5.62,0,0,0,128,54.85a4.16,4.16,0,0,0-3.25-1.19,7.48,7.48,0,0,0-3.33.83,14.51,14.51,0,0,0-3.33,2.33Z"/><path d="M158.94,61.68a14.1,14.1,0,0,1-.87,5.12,11,11,0,0,1-2.4,3.81A10.16,10.16,0,0,1,152.1,73a12,12,0,0,1-4.42.8,12.47,12.47,0,0,1-4.4-.75,9.65,9.65,0,0,1-3.5-2.23,10.48,10.48,0,0,1-2.33-3.64,13.51,13.51,0,0,1-.85-5,13.91,13.91,0,0,1,.88-5.1,10.81,10.81,0,0,1,2.4-3.76A10.33,10.33,0,0,1,143.45,51a12,12,0,0,1,4.42-.8,12.84,12.84,0,0,1,4.4.73,9.55,9.55,0,0,1,3.5,2.19,10.26,10.26,0,0,1,2.33,3.62A13.54,13.54,0,0,1,158.94,61.68Zm-4.47.24a11.41,11.41,0,0,0-.58-3.89,7.63,7.63,0,0,0-1.53-2.62,5.69,5.69,0,0,0-2.16-1.48,6.92,6.92,0,0,0-2.48-.46,8.08,8.08,0,0,0-2.48.39,5,5,0,0,0-2.14,1.36,7,7,0,0,0-1.48,2.6,12.83,12.83,0,0,0-.56,4.1,11.62,11.62,0,0,0,.58,3.91,7.59,7.59,0,0,0,1.53,2.65A5.92,5.92,0,0,0,145.35,70a6.6,6.6,0,0,0,2.48.49,7.64,7.64,0,0,0,2.48-.41,5.14,5.14,0,0,0,2.14-1.41A7.29,7.29,0,0,0,153.92,66,12.85,12.85,0,0,0,154.48,61.92Z"/><path d="M168.95,38.61a12.06,12.06,0,0,1,4.05.63A8.84,8.84,0,0,1,176,41a7.15,7.15,0,0,1,1.85,2.62,8.51,8.51,0,0,1,.63,3.28,8.35,8.35,0,0,1-1.26,4.56,24.6,24.6,0,0,1-3.4,4.13q-1.07,1-1.8,1.75t-1.19,1.29a4.29,4.29,0,0,0-.68,1.09,3.19,3.19,0,0,0-.22,1.21,4.8,4.8,0,0,0,.29,1.7l-5.25.73a8.47,8.47,0,0,1-.34-1.29,8.06,8.06,0,0,1-.15-1.53,6.46,6.46,0,0,1,1-3.52,12.45,12.45,0,0,1,1.14-1.58q.66-.78,1.53-1.7a27.71,27.71,0,0,0,2.84-3.3,5.47,5.47,0,0,0,.95-3.21,3.4,3.4,0,0,0-1-2.43,3.78,3.78,0,0,0-2.87-1,7,7,0,0,0-2.23.34,8.53,8.53,0,0,0-2.19,1.17l-2.33-4.37a12.23,12.23,0,0,1,3.45-1.68A13.94,13.94,0,0,1,168.95,38.61Zm-4.57,31.47a3.53,3.53,0,0,1,1.09-2.62,3.59,3.59,0,0,1,2.6-1.07,3.69,3.69,0,0,1,3.64,3.69,3.62,3.62,0,0,1-1.09,2.74,3.57,3.57,0,0,1-2.55,1,3.65,3.65,0,0,1-3.69-3.79Z"/></g></g></svg>