<?xml version="1.0" encoding="utf-8"?>
<!-- Generator: Adobe Illustrator 19.0.0, SVG Export Plug-In . SVG Version: 6.00 Build 0)  -->
<svg version="1.1" xmlns="http://www.w3.org/2000/svg" xmlns:xlink="http://www.w3.org/1999/xlink" x="0px" y="0px"
	 viewBox="0 0 1600 1200" style="enable-background:new 0 0 1600 1200;" xml:space="preserve">
<style type="text/css">
	.st0{fill:#E8E8E8;}
	.st1{fill:#FFFFFF;}
	.st2{fill:#161616;}
	.st3{fill:#FFFFFF;stroke:#161616;stroke-width:2;stroke-miterlimit:10;}
	.st4{opacity:0.11;fill:#6D6C6C;}
	.st5{opacity:0.19;fill:#6D6C6C;}
	.st6{fill:#EC615B;}
	.st7{opacity:0.25;fill:#6D6C6C;}
	.st8{opacity:0.3;fill:#6D6C6C;}
	.st9{opacity:0.13;fill:#6D6C6C;}
	.st10{opacity:0.15;fill:#6D6C6C;}
	.st11{fill:#5222D0;}
	.st12{opacity:0.1;fill:#6D6C6C;}
	.st13{opacity:0.16;fill:#6D6C6C;}
</style>
<g id="background">
	<g>
		<g>
			<path class="st0" d="M335.2,796.5c4.8,28.9,10.6,57.5,17.5,86c0.5,1.9,3.3,1.1,2.9-0.8c-6.9-28.4-12.8-57.1-17.5-86
				C337.7,793.8,334.8,794.6,335.2,796.5L335.2,796.5z"/>
		</g>
	</g>
	<g>
		<g>
			<path class="st0" d="M432.1,800.5c-5.4,25.6-10,51.5-13.7,77.4c-0.3,1.9,2.6,2.7,2.9,0.8c3.7-26,8.3-51.8,13.7-77.4
				C435.4,799.4,432.5,798.6,432.1,800.5L432.1,800.5z"/>
		</g>
	</g>
	<g>
		<g>
			<path class="st0" d="M353.3,883.5c21.8,9.8,47.5,10.7,67.4-4.1c1.5-1.1,0-3.7-1.5-2.6c-18.9,14.1-43.5,13.5-64.3,4.1
				C353.1,880.1,351.5,882.7,353.3,883.5L353.3,883.5z"/>
		</g>
	</g>
	<g>
		<g>
			<path class="st0" d="M336.1,796.2c7.4,3.4,15.1,4.1,23.1,4.6c9,0.5,18,0.8,27,0.9c16.6,0.3,33.8,1.1,49.5-5.4
				c1.8-0.7,1-3.6-0.8-2.9c-14.8,6.2-31,5.6-46.7,5.4c-8.4-0.1-16.7-0.4-25.1-0.8c-8.7-0.4-17.5-0.6-25.5-4.3
				C335.8,792.8,334.3,795.4,336.1,796.2L336.1,796.2z"/>
		</g>
	</g>
	<g>
		<g>
			<path class="st0" d="M432.8,795.3c-5.9,27.6-11.1,55.4-15.4,83.3c-0.3,1.9,2.6,2.7,2.9,0.8c4.3-27.9,9.4-55.7,15.4-83.3
				C436.1,794.2,433.2,793.4,432.8,795.3L432.8,795.3z"/>
		</g>
	</g>
	<g>
		<g>
			<path class="st0" d="M344.5,843.1c6.6,15.6,15,30.4,25.1,44c1.1,1.5,3.7,0,2.6-1.5c-10.1-13.7-18.5-28.4-25.1-44
				C346.3,839.8,343.8,841.4,344.5,843.1L344.5,843.1z"/>
		</g>
	</g>
	<g>
		<g>
			<path class="st0" d="M337.2,798.7c13.5,31.9,30.8,62,51.6,89.7c1.1,1.5,3.8,0,2.6-1.5c-20.8-27.7-38.1-57.8-51.6-89.7
				C339.1,795.4,336.5,796.9,337.2,798.7L337.2,798.7z"/>
		</g>
	</g>
	<g>
		<g>
			<path class="st0" d="M360.3,800c11.9,29.7,27.1,57.8,45.5,83.9c1.1,1.6,3.7,0.1,2.6-1.5c-18.3-25.9-33.5-53.8-45.2-83.2
				C362.5,797.5,359.6,798.2,360.3,800L360.3,800z"/>
		</g>
	</g>
	<g>
		<g>
			<path class="st0" d="M379.8,800.6c10.5,25,23.3,49,38.2,71.7c1.1,1.6,3.7,0.1,2.6-1.5c-14.8-22.5-27.5-46.2-37.9-71
				C382,798.1,379.1,798.9,379.8,800.6L379.8,800.6z"/>
		</g>
	</g>
	<g>
		<g>
			<path class="st0" d="M398.2,802.8c6.4,15.9,14.2,31.1,23.4,45.6c1,1.6,3.6,0.1,2.6-1.5c-9.1-14.2-16.8-29.2-23.1-44.8
				C400.4,800.2,397.5,801,398.2,802.8L398.2,802.8z"/>
		</g>
	</g>
	<g>
		<g>
			<path class="st0" d="M413.6,801.4c3.7,8.7,7.9,17.1,12.7,25.2c1,1.7,3.6,0.2,2.6-1.5c-4.8-8.1-9-16.5-12.7-25.2
				C415.5,798.1,412.9,799.6,413.6,801.4L413.6,801.4z"/>
		</g>
	</g>
	<g>
		<g>
			<path class="st0" d="M425.8,799c1.4,3.3,3,6.5,5,9.5c1.1,1.6,3.7,0.1,2.6-1.5c-1.8-2.8-3.4-5.7-4.7-8.8
				C427.9,796.4,425,797.2,425.8,799L425.8,799z"/>
		</g>
	</g>
	<g>
		<g>
			<path class="st0" d="M376.8,798.1c-1.5-9.9-1.9-19.9-1.4-30c-0.6,0.5-1.3,1-1.9,1.4c2.1,0.8,6,3.2,8.3,2.1c2-1,1.6-4,1.7-5.9
				c0.4-5.5,1-10.4,3.9-15.2c2.5-4.1,5.8-7.7,8.8-11.5c12-15,23-30.8,33.1-47.2c-0.9,0-1.7,0-2.6,0c5,8.7,6.7,20.3,7.8,30.2
				c1.1,9.8,0.7,19.7-2,29.2c-2.5,8.8-6.6,17-11.5,24.7c-4.9,7.5-10.7,15.9-17.8,21.5c-1.5,1.2,0.6,3.3,2.1,2.1
				c7.5-5.9,13.7-14.8,18.8-22.8c5.2-8.1,9.4-16.9,11.8-26.2c2.6-9.9,2.8-20.2,1.5-30.3c-1.3-9.9-3-21.1-8-29.8c-0.6-1-2-0.9-2.6,0
				c-9.6,15.6-20,30.7-31.4,45.1c-4.5,5.7-10.2,11.3-12.8,18.2c-1.2,3.1-1.6,6.3-1.8,9.6c-0.1,0.9,0.3,5-0.5,5.5
				c-0.6,0.4-5.1-1.8-5.9-2.1c-1-0.3-1.8,0.5-1.9,1.4c-0.6,10.3,0,20.5,1.5,30.7C374.2,800.8,377.1,800,376.8,798.1L376.8,798.1z"/>
		</g>
	</g>
	<g>
		<g>
			<path class="st0" d="M315.5,700.8c2.9,18.2,7.4,36.2,13.5,53.6c5.5,15.6,11.9,30.3,23,42.7c1.3,1.4,3.4-0.7,2.1-2.1
				c-11.6-12.9-18-28.7-23.5-45c-5.5-16.3-9.6-33.1-12.3-50.1C318.1,698.1,315.2,698.9,315.5,700.8L315.5,700.8z"/>
		</g>
	</g>
	<g>
		<g>
			<path class="st0" d="M315.8,698.9c5.9,5.5,13.2,8.5,21.1,9.6c2.9,0.4,11.8-0.6,13,2.4c0.6,1.5-0.6,5.6-0.8,7.3
				c-0.3,3-0.6,6.1-1,9.1c-0.1,1.1,1,1.6,1.9,1.4c3.5-0.5,7-1,10.5-1.5c4.6-0.6,6.7,2.6,9.9,5.5c5.5,5.1,10.9,10.3,16.4,15.4
				c1.4,1.3,3.5-0.8,2.1-2.1c-7-6.6-13.8-14.1-21.4-20.1c-4.9-3.9-12.5-0.9-18.3-0.1c0.6,0.5,1.3,1,1.9,1.4c0.6-5.4,2.4-12,1.8-17.4
				c-0.3-2.6-2.1-3.4-4.5-3.6c-11.3-0.9-21.7-1.1-30.6-9.4C316.5,695.4,314.3,697.5,315.8,698.9L315.8,698.9z"/>
		</g>
	</g>
	<g>
		<g>
			<path class="st0" d="M316,697.3c1.7,37,18.6,70.5,37.3,101.7c1,1.7,3.6,0.1,2.6-1.5c-18.4-30.8-35.2-63.7-36.9-100.2
				C318.9,695.3,315.9,695.3,316,697.3L316,697.3z"/>
		</g>
	</g>
	<g>
		<g>
			<path class="st0" d="M337.4,795.4c4.7,0.2,9.3,0.1,14-0.4c1.9-0.2,1.9-3.2,0-3c-4.7,0.5-9.3,0.6-14,0.4
				C335.4,792.3,335.4,795.3,337.4,795.4L337.4,795.4z"/>
		</g>
	</g>
	<g>
		<g>
			<path class="st0" d="M341,796.7c4-0.1,7.9,0.6,11.6,2.1c1.8,0.7,3.3-1.8,1.5-2.6c-4.2-1.8-8.5-2.7-13.1-2.6
				C339.1,793.8,339.1,796.8,341,796.7L341,796.7z"/>
		</g>
	</g>
	<g>
		<g>
			<path class="st0" d="M403.4,800.8c9.9-4.1,20.2-5.7,30.9-4.6c1.9,0.2,1.9-2.8,0-3c-10.9-1-21.6,0.5-31.7,4.8
				C400.9,798.6,401.6,801.5,403.4,800.8L403.4,800.8z"/>
		</g>
	</g>
	<g>
		<g>
			<path class="st0" d="M410,799.6c6.2-2.5,13-1.3,19.4-2.4c1.9-0.3,1.1-3.2-0.8-2.9c-6.5,1.1-13.2-0.2-19.4,2.4
				C407.5,797.5,408.3,800.4,410,799.6L410,799.6z"/>
		</g>
	</g>
	<g>
		<g>
			<path class="st0" d="M410.8,795.4c7.6,0.8,15.2,0.9,22.9,0.3c1.9-0.1,1.9-3.1,0-3c-7.7,0.5-15.3,0.4-22.9-0.3
				C408.9,792.2,408.9,795.2,410.8,795.4L410.8,795.4z"/>
		</g>
	</g>
	<g>
		<g>
			<path class="st0" d="M427.8,699.2c-7.3,36.1-35.7,63.5-43.4,99.5c-0.3,1.4,1.9,2,2.2,0.6c7.7-36,36.1-63.4,43.4-99.5
				C430.3,698.4,428.1,697.8,427.8,699.2L427.8,699.2z"/>
		</g>
	</g>
	<g>
		<g>
			<path class="st0" d="M315.3,696.8c2.5,24.4,9.4,47.9,20.6,69.7c0.7,1.3,2.6,0.2,1.9-1.1c-10.9-21.4-17.8-44.6-20.2-68.6
				C317.4,695.4,315.1,695.3,315.3,696.8L315.3,696.8z"/>
		</g>
	</g>
	<g>
		<g>
			<path class="st0" d="M317.2,697.5c7.9,6.2,16.9,10.2,26.9,11.7c1.4,0.2,2-2,0.6-2.2c-9.5-1.4-18.3-5.1-25.9-11.1
				C317.6,695,316,696.6,317.2,697.5L317.2,697.5z"/>
		</g>
	</g>
	<g>
		<g>
			<path class="st0" d="M393.1,740.9c2.7,8.8,3.9,17.7,3.5,26.8c-0.1,1.4,2.2,1.4,2.3,0c0.3-9.4-0.9-18.5-3.6-27.4
				C394.9,738.9,392.7,739.5,393.1,740.9L393.1,740.9z"/>
		</g>
	</g>
	<g>
		<g>
			<path class="st0" d="M426.9,694.1c1.2,4,0.9,8.1-1,11.9c-0.7,1.3,1.3,2.4,1.9,1.1c2.2-4.3,2.6-9,1.2-13.6
				C428.7,692.1,426.5,692.7,426.9,694.1L426.9,694.1z"/>
		</g>
	</g>
	<g>
		<g>
			<path class="st0" d="M408.6,748.4c10.1-7.7,20.2-15.4,28.2-25.5c0.9-1.1-0.7-2.7-1.6-1.6c-7.8,9.9-17.7,17.6-27.7,25.1
				C406.4,747.3,407.5,749.3,408.6,748.4L408.6,748.4z"/>
		</g>
	</g>
	<g>
		<g>
			<path class="st0" d="M317.8,701.4c8.4,15.1,17.6,29.6,27.7,43.6c9.5,13.2,21.6,25.5,26.8,41.1c0.5,1.4,2.6,0.8,2.2-0.6
				c-5.2-15.3-16.6-27.3-26-40.2c-10.5-14.4-20.1-29.5-28.8-45.1C319.1,699,317.1,700.2,317.8,701.4L317.8,701.4z"/>
		</g>
	</g>
	<g>
		<g>
			<path class="st0" d="M339.1,707.7c-0.6,10.2,0.3,20.3,2.6,30.2c0.3,1.4,2.5,0.8,2.2-0.6c-2.3-9.8-3.1-19.6-2.5-29.6
				C341.5,706.2,339.2,706.2,339.1,707.7L339.1,707.7z"/>
		</g>
	</g>
	<g>
		<g>
			<path class="st0" d="M369.4,733c-3,11.5-4.8,23.1-5.5,34.9c-0.1,1.4,2.2,1.4,2.3,0c0.7-11.6,2.5-23.1,5.4-34.3
				C372,732.2,369.8,731.6,369.4,733L369.4,733z"/>
		</g>
	</g>
	<g>
		<g>
			<path class="st0" d="M339.8,774.6c3.9,2.7,10.2,3.3,14.8,3.9c4.9,0.7,9.6,0.6,14.3-0.5c1.4-0.3,0.8-2.5-0.6-2.2
				c-5.1,1.1-9.9,1-15,0.2c-3.8-0.6-9.3-1.2-12.4-3.4C339.7,771.9,338.6,773.8,339.8,774.6L339.8,774.6z"/>
		</g>
	</g>
	<g>
		<g>
			<path class="st0" d="M1247.9,878.2c54.8,0,109.5,0,164.3,0c1.4,0,1.5-2.3,0-2.3c-54.8,0-109.5,0-164.3,0
				C1246.4,875.9,1246.4,878.2,1247.9,878.2L1247.9,878.2z"/>
		</g>
	</g>
	<g>
		<g>
			<path class="st0" d="M1292.3,875c-2.9,0.9-8.9-29.5-9.2-32.3c-1.3-11-1-22.2,0.8-33.2c-0.7,0-1.4,0-2.2,0
				c2,5.6,5.3,9.9,10.1,13.4c1.2,0.8,2.3-1.1,1.1-1.9c-4.3-3.1-7.3-7.1-9.1-12c-0.3-0.9-2-1.2-2.2,0c-2.2,13.3-2.2,26.9,0.1,40.2
				c1.2,7,3,13.8,5.5,20.5c0.8,2.2,2.1,8.8,5.7,7.6C1294.3,876.7,1293.7,874.5,1292.3,875L1292.3,875z"/>
		</g>
	</g>
	<g>
		<g>
			<path class="st0" d="M1293.5,820.6c-2.3-11.5,1.5-22.6,6.3-33c4.3-9.3,9.2-18.2,14.2-27.1c9.7-17.3,19.7-34.6,26.8-53.2
				c-0.7,0-1.4,0-2.2,0c5.8,17.3,9.6,35.1,11.1,53.3c0.7,8.9,0.8,17.9,0.6,26.8c-0.1,4.4,0.3,9.3-0.6,13.6c-1,5.1-4.9,7.8-9,10.4
				c-0.8,0.5-0.7,1.4,0,1.9c1.3,1,2.4,1.2,4.1,1.3c0.9,0,2.1-0.3,3-0.1c4.5,1.1,3.8,4.6,3.5,7.4c-0.7,6.7-2,13.4-3.8,19.9
				c-3.6,12.6-9.2,24.5-16.6,35.3c-0.8,1.2,1.1,2.3,1.9,1.1c8.8-12.9,15.1-27.3,18.5-42.5c0.8-3.4,1.4-6.9,1.8-10.4
				c0.4-2.9,1.3-6.5,0.3-9.4c-2.1-5.9-7.8-1.6-11.6-4.5c0,0.6,0,1.3,0,1.9c5.7-3.7,9.9-7.4,10.3-14.5c0.6-10.9,0.7-21.9,0.1-32.7
				c-1.1-20.3-5-40.3-11.5-59.5c-0.4-1.1-1.8-1-2.2,0c-7.8,20.7-19.4,39.7-30.1,59c-9.1,16.5-21.1,35.8-17.2,55.5
				C1291.6,822.6,1293.8,822,1293.5,820.6L1293.5,820.6z"/>
		</g>
	</g>
	<g>
		<g>
			<path class="st0" d="M1353.1,770c2.7-5.3,5.4-10.6,8.1-16c1.3-2.5,2.6-5,3.8-7.6c0.6-1.1,1.1-2.2,1.7-3.4
				c0.4-0.8,0.8-1.6,1.2-2.3c0.8-1.9,2.5-2.4,5.2-1.6c0,0.9,1.3,1.6,1.9,0.8c13.4-15.7,24.9-32.8,34.5-51.1
				c-0.7-0.2-1.4-0.4-2.1-0.6c-0.3,14.2-0.5,28.5,0.2,42.7c0.3,6.5,0.9,13.1,1.8,19.6c0.4,3,1.6,6.5,1.5,9.6
				c0.8,1.9,0.3,3.5-1.6,4.7c-0.6,2-1.9,3.2-3.8,3.5c-1.7,0.8-3.8,1.2-5.6,1.6c-1.1,0.3-1.1,1.9,0,2.2c9,2.3,5.9,13.7,4.6,20.1
				c-0.7,3.5-0.9,7.4-5.4,7.7c-1.8,0.1-2.9-0.5-4.7,0c-0.8,0.2-1,1-0.7,1.7c0.8,1.9,2.1,1.9,3.4,3.2c3.3,3.2,0.9,10,0,13.7
				c-1.6,6.9-3.7,13.6-6.3,20.2c-5.2,13.4-12.3,25.8-21,37.2c-0.9,1.2,1.1,2.3,1.9,1.1c9.5-12.5,17.1-26.2,22.4-41
				c2.7-7.4,4.8-15.1,6.3-22.8c0.4-2.2,1.6-5.6,0.6-7.8c-1.1-2.5-4.4-2.6-5.5-5.1c-0.2,0.6-0.4,1.1-0.7,1.7c3-0.8,6.9,1.8,9.4-0.9
				c2.6-2.7,2.5-9.4,3.2-12.9c1.3-7,1.3-16.2-7.1-18.3c0,0.7,0,1.4,0,2.2c4.3-1.2,12.8-2.1,13.3-7.8c0.2-2.8-0.9-5.9-1.4-8.6
				c-0.8-5-1.4-10-1.9-15.1c-1.5-17.4-1.2-34.9-0.9-52.4c0-1.1-1.6-1.6-2.1-0.6c-9.4,18.1-20.9,35.1-34.1,50.6
				c0.6,0.3,1.3,0.5,1.9,0.8c-0.2-6.1-6.9-3.7-9.1-0.2c-5.9,9.3-10.2,20.1-15.2,29.9C1350.5,770.1,1352.4,771.3,1353.1,770
				L1353.1,770z"/>
		</g>
	</g>
	<g>
		<g>
			<path class="st0" d="M1406,692.4c-10.3,64.4-41.5,122.6-61.6,184.2c-0.4,1.4,1.7,2,2.2,0.6c20-61.5,51.3-119.7,61.6-184.2
				C1408.4,691.6,1406.3,691,1406,692.4L1406,692.4z"/>
		</g>
	</g>
	<g>
		<g>
			<path class="st0" d="M1362.1,747c0.9,21.6,3.1,43.1,6.3,64.5c0.2,1.4,2.4,0.8,2.2-0.6c-3.2-21.2-5.3-42.5-6.2-63.9
				C1364.3,745.5,1362,745.5,1362.1,747L1362.1,747z"/>
		</g>
	</g>
	<g>
		<g>
			<path class="st0" d="M1385.6,774.3c7.1-11.2,17.1-20,25.4-30.2c0.9-1.1-0.7-2.7-1.6-1.6c-8.4,10.4-18.5,19.3-25.7,30.7
				C1382.8,774.4,1384.8,775.5,1385.6,774.3L1385.6,774.3z"/>
		</g>
	</g>
	<g>
		<g>
			<path class="st0" d="M1337.8,711.1c-0.7,56.5-30.5,108.8-26.7,165.7c0.1,1.4,2.3,1.4,2.3,0c-3.8-56.9,26-109.2,26.7-165.7
				C1340.1,709.6,1337.8,709.6,1337.8,711.1L1337.8,711.1z"/>
		</g>
	</g>
	<g>
		<g>
			<path class="st0" d="M1299.5,783.5c3.1,16.9,7.9,33.4,14.3,49.3c0.5,1.3,2.7,0.7,2.2-0.6c-6.4-15.9-11.2-32.4-14.3-49.3
				C1301.4,781.4,1299.3,782,1299.5,783.5L1299.5,783.5z"/>
		</g>
	</g>
	<g>
		<g>
			<path class="st0" d="M1323.9,796.5c9.9-11.3,21.4-23.3,27.6-37.1c0.6-1.3-1.3-2.5-1.9-1.1c-6.2,13.6-17.5,25.5-27.3,36.6
				C1321.4,796,1323,797.6,1323.9,796.5L1323.9,796.5z"/>
		</g>
	</g>
	<g>
		<g>
			<path class="st0" d="M1324,738.5c1.5,9,3.6,17.9,6,26.7c0.4,1.4,2.6,0.8,2.2-0.6c-2.5-8.8-4.5-17.7-6-26.7
				C1325.9,736.5,1323.8,737.1,1324,738.5L1324,738.5z"/>
		</g>
	</g>
	<g>
		<g>
			<path class="st0" d="M1350.1,866.5c8.8-5.6,17.8-11,26.4-17c6.9-4.8,14.6-10,18.9-17.3c0.7-1.3-1.2-2.4-1.9-1.1
				c-4.6,7.9-13.6,13.5-21,18.5c-7.7,5.2-15.6,10-23.4,15C1347.7,865.3,1348.9,867.3,1350.1,866.5L1350.1,866.5z"/>
		</g>
	</g>
	<g>
		<g>
			<path class="st0" d="M309.2,883.2c17.5,0,35,0,52.5,0c1.4,0,1.5-2.3,0-2.3c-17.5,0-35,0-52.5,0
				C307.7,881,307.7,883.2,309.2,883.2L309.2,883.2z"/>
		</g>
	</g>
	<g>
		<g>
			<path class="st0" d="M417.9,884c13.6,0,27.1,0,40.7,0c1.4,0,1.5-2.3,0-2.3c-13.6,0-27.1,0-40.7,0
				C416.5,881.7,416.5,884,417.9,884L417.9,884z"/>
		</g>
	</g>
	<g>
		<g>
			<path class="st0" d="M829.5,223.8c0,70.3,0,140.6,0,210.9c0,19.9,0,39.8,0,59.7c0,1.4,2.3,1.5,2.3,0c0-70.3,0-140.6,0-210.9
				c0-19.9,0-39.8,0-59.7C831.7,222.4,829.5,222.4,829.5,223.8L829.5,223.8z"/>
		</g>
	</g>
	<g>
		<g>
			<path class="st0" d="M830.8,224.9c74.1,0,148.2,0,222.4,0c20.9,0,41.9,0,62.8,0c1.4,0,1.5-2.3,0-2.3c-74.1,0-148.2,0-222.4,0
				c-20.9,0-41.9,0-62.8,0C829.4,222.7,829.4,224.9,830.8,224.9L830.8,224.9z"/>
		</g>
	</g>
	<g>
		<g>
			<path class="st0" d="M831.5,497.2c73.1,0,146.2,0,219.3,0c20.6,0,41.2,0,61.8,0c1.4,0,1.5-2.3,0-2.3c-73.1,0-146.2,0-219.3,0
				c-20.6,0-41.2,0-61.8,0C830.1,495,830.1,497.2,831.5,497.2L831.5,497.2z"/>
		</g>
	</g>
	<g>
		<g>
			<path class="st0" d="M1114.9,224.5c0,69.9,0,139.8,0,209.6c0,20,0,39.9,0,59.9c0,1.4,2.3,1.5,2.3,0c0-69.9,0-139.8,0-209.6
				c0-20,0-39.9,0-59.9C1117.2,223.1,1114.9,223,1114.9,224.5L1114.9,224.5z"/>
		</g>
	</g>
	<g>
		<g>
			<path class="st0" d="M1112.1,497.2c1.7,0.1,3.5-0.6,4.6-1.9c0.9-1.1-0.6-2.7-1.6-1.6c-0.8,0.9-1.8,1.3-3,1.2
				C1110.7,494.9,1110.7,497.1,1112.1,497.2L1112.1,497.2z"/>
		</g>
	</g>
	<g>
		<g>
			<path class="st0" d="M830.4,380.5c73.4,0,146.8,0,220.2,0c20.9,0,41.9,0,62.8,0c1.4,0,1.5-2.3,0-2.3c-73.4,0-146.8,0-220.2,0
				c-20.9,0-41.9,0-62.8,0C829,378.3,829,380.5,830.4,380.5L830.4,380.5z"/>
		</g>
	</g>
	<g>
		<g>
			<path class="st0" d="M845.2,351.4c82.4,0,164.8,0,247.1,0c1.4,0,1.5-2.3,0-2.3c-82.4,0-164.8,0-247.1,0
				C843.7,349.2,843.7,351.4,845.2,351.4L845.2,351.4z"/>
		</g>
	</g>
	<g>
		<g>
			<path class="st0" d="M844.6,319.1c79.9,0,159.8,0,239.7,0c1.4,0,1.5-2.3,0-2.3c-79.9,0-159.8,0-239.7,0
				C843.2,316.8,843.2,319.1,844.6,319.1L844.6,319.1z"/>
		</g>
	</g>
	<g>
		<g>
			<path class="st0" d="M859.5,283.5c70.2,0,140.4,0,210.5,0c1.4,0,1.5-2.3,0-2.3c-70.2,0-140.4,0-210.5,0
				C858,281.3,858,283.5,859.5,283.5L859.5,283.5z"/>
		</g>
	</g>
	<g>
		<g>
			<path class="st0" d="M881.2,244.8c64.3,0,128.7,0,193,0c1.4,0,1.5-2.3,0-2.3c-64.3,0-128.7,0-193,0
				C879.8,242.6,879.8,244.8,881.2,244.8L881.2,244.8z"/>
		</g>
	</g>
	<g>
		<g>
			<path class="st0" d="M836.1,380.5c0,35.2,0,70.4,0,105.5c0,1.4,2.3,1.5,2.3,0c0-35.2,0-70.4,0-105.5
				C838.3,379.1,836.1,379.1,836.1,380.5L836.1,380.5z"/>
		</g>
	</g>
	<g>
		<g>
			<path class="st0" d="M837.2,488.3c69.8,0,139.7,0,209.5,0c20,0,39.9,0,59.9,0c1.4,0,1.5-2.3,0-2.3c-69.8,0-139.7,0-209.5,0
				c-20,0-39.9,0-59.9,0C835.8,486,835.8,488.3,837.2,488.3L837.2,488.3z"/>
		</g>
	</g>
	<g>
		<g>
			<path class="st0" d="M1107.1,382.6c0,34.5,0,68.9,0,103.4c0,1.4,2.3,1.5,2.3,0c0-34.5,0-68.9,0-103.4
				C1109.3,381.2,1107.1,381.2,1107.1,382.6L1107.1,382.6z"/>
		</g>
	</g>
	<g>
		<g>
			<path class="st0" d="M838.5,447.3c-0.4-7,6.2-11.4,12.5-7.8c0.5,0.3,1.2,0.1,1.5-0.4c1.7-3,1.5-5.8,1.9-9.1
				c0.4-2.9,1.4-5.6,4.7-6c1.6-0.2,3.2,0.6,4.8,0.3c2.3-0.5,3.2-1.9,4.3-3.9c2-3.9,3.2-7.4,6.8-10.2c8.9-7.2,18.9,0.2,22.1,9.4
				c3,8.8,0.8,18.8,0.7,27.9c0,0.8,0.7,1.2,1.4,1.1c14.2-2.9,21.7,15.8,9.3,23.5c-0.8,0.5-0.7,1.8,0.3,2.1
				c5.1,1.6,11.9,6.1,7.9,12.4c-0.8,1.2,1.2,2.4,1.9,1.1c4.8-7.5-2.6-13.6-9.2-15.7c0.1,0.7,0.2,1.4,0.3,2.1
				c6.2-3.9,9.4-11.7,6.6-18.7c-2.8-7-10.6-10.4-17.7-8.9c0.5,0.4,0.9,0.7,1.4,1.1c0.1-10.3,2.8-21.7-2-31.4
				c-3.2-6.6-9.9-12.3-17.7-10.9c-3.5,0.6-6.6,2.7-9,5.3c-3,3.2-4.7,11.1-9.2,11.7c-3.6,0.5-5.9-1.1-8.3,2.5c-2.7,4-1,9.2-3.3,13.4
				c0.5-0.1,1-0.3,1.5-0.4c-7.6-4.3-16.4,0.9-15.9,9.8C836.3,448.8,838.6,448.8,838.5,447.3L838.5,447.3z"/>
		</g>
	</g>
	<g>
		<g>
			<path class="st0" d="M963.4,379.5c0,35.7,0,71.4,0,107.1c0,1.4,2.3,1.5,2.3,0c0-35.7,0-71.4,0-107.1
				C965.6,378,963.4,378,963.4,379.5L963.4,379.5z"/>
		</g>
	</g>
	<g>
		<g>
			<path class="st0" d="M970.3,380c0,35.5,0,71.1,0,106.6c0,1.4,2.3,1.5,2.3,0c0-35.5,0-71.1,0-106.6
				C972.5,378.6,970.3,378.5,970.3,380L970.3,380z"/>
		</g>
	</g>
	<g>
		<g>
			<path class="st0" d="M1038.4,486.1c-2.1-1.7-4.5-3.7-5.2-6.5c-1.3-5.5,2.5-6.2,5.6-8.2c1.8-1.2,3.6-2.6,4-4.8
				c0.5-2.5-1.2-4.4-2.3-6.5c-2.6-5.3-3.3-12.4,1.7-16.7c4.5-3.9,15,0.6,17.5-6.3c0.7-2.1-0.2-3.6-1-5.4c-2.2-5.2-3.8-10.3-3.3-16
				c0.3-4.1,0.9-5.9,5.6-6.5c2-0.3,1.5,0.5,3.2-0.7c0.5-0.4,0.8-1.1,1.2-1.5c2.6-2.6,3.7-5.2,7.9-5.3c11.1-0.2,11,14.7,11.5,22.2
				c0.3,3.8,0.7,13.5,6.2,13.9c2.3,0.2,2.8-1.6,3.8-3.2c3-4.5,6.4-7.3,12.1-6.9c1.4,0.1,1.4-2.1,0-2.3c-4.9-0.4-9.8,1.6-12.7,5.7
				c0.1-0.1-1.2,2.3-1.3,2.3c-1.2,0.4-4.3-1.7-4.8-2.5c-1.1-1.9-0.9-5-1.1-7.1c-0.2-3.3-0.2-6.7-0.7-10c-0.8-5.1-3.1-10.7-7.9-13.2
				c-4.2-2.2-9.5-1.3-12.8,2.1c-0.8,0.9-1.3,2.4-2.2,3.1c-1.4,1-3.7,0.3-5.3,0.8c-1.9,0.6-3,1.8-3.9,3.6c-2.6,5.4-1.4,13,0.6,18.4
				c0.4,1.2,1.6,2.9,1.8,4.2c-0.2,0.9-0.4,1.8-0.6,2.7c0.3,2.8-1,3.9-4,3.5c-0.8,0.1-1.6,0-2.3,0c-2.9,0-5.5,0.2-8,1.9
				c-4.4,3-6.2,8.5-5.5,13.6c0.5,3.7,2.5,6,3.6,9.4c1.8,5.4-4.7,6.1-7.5,9.3c-4.5,5.1,0,11.3,4.2,14.8
				C1037.9,488.6,1039.5,487,1038.4,486.1L1038.4,486.1z"/>
		</g>
	</g>
	<g>
		<g>
			<path class="st0" d="M432.5,373.8c0-3.4,0-6.7,0-10.1c0-1.4-2.3-1.5-2.3,0c0,3.4,0,6.7,0,10.1
				C430.2,375.3,432.5,375.3,432.5,373.8L432.5,373.8z"/>
		</g>
	</g>
	<g>
		<g>
			<path class="st0" d="M431.3,363.8c52.7,0,105.4,0,158.1,0c1.4,0,1.5-2.3,0-2.3c-52.7,0-105.4,0-158.1,0
				C429.9,361.5,429.9,363.8,431.3,363.8L431.3,363.8z"/>
		</g>
	</g>
	<g>
		<g>
			<path class="st0" d="M434.7,375.5c51.6,0,103.2,0,154.8,0c1.4,0,1.5-2.3,0-2.3c-51.6,0-103.2,0-154.8,0
				C433.2,373.2,433.2,375.5,434.7,375.5L434.7,375.5z"/>
		</g>
	</g>
	<g>
		<g>
			<path class="st0" d="M589.4,363.2c0,3.5,0,7.1,0,10.6c0,1.4,2.3,1.5,2.3,0c0-3.5,0-7.1,0-10.6
				C591.7,361.7,589.4,361.7,589.4,363.2L589.4,363.2z"/>
		</g>
	</g>
	<g>
		<g>
			<path class="st0" d="M443.2,362.3c0-40.1,0-80.2,0-120.3c0-1.4-2.3-1.5-2.3,0c0,40.1,0,80.2,0,120.3
				C440.9,363.8,443.2,363.8,443.2,362.3L443.2,362.3z"/>
		</g>
	</g>
	<g>
		<g>
			<path class="st0" d="M442.9,243.2c8,0,15.9,0,23.9,0c1.4,0,1.5-2.3,0-2.3c-8,0-15.9,0-23.9,0
				C441.5,240.9,441.5,243.2,442.9,243.2L442.9,243.2z"/>
		</g>
	</g>
	<g>
		<g>
			<path class="st0" d="M464.8,243.7c0,39.4,0,78.8,0,118.2c0,1.4,2.3,1.5,2.3,0c0-39.4,0-78.8,0-118.2
				C467.1,242.3,464.8,242.3,464.8,243.7L464.8,243.7z"/>
		</g>
	</g>
	<g>
		<g>
			<path class="st0" d="M466.4,265.4c8.9,0,17.9,0,26.8,0c1.4,0,1.5-2.3,0-2.3c-8.9,0-17.9,0-26.8,0
				C464.9,263.1,464.9,265.4,466.4,265.4L466.4,265.4z"/>
		</g>
	</g>
	<g>
		<g>
			<path class="st0" d="M491.2,264.7c0,31.7,0,63.4,0,95.1c0,1.4,2.3,1.5,2.3,0c0-31.7,0-63.4,0-95.1
				C493.5,263.2,491.2,263.2,491.2,264.7L491.2,264.7z"/>
		</g>
	</g>
	<g>
		<g>
			<path class="st0" d="M449.6,256.2c0.5,3.4,0.6,6.8,0.2,10.2c-0.2,1.4,2.1,1.4,2.3,0c0.4-3.6,0.3-7.2-0.3-10.8
				C451.6,254.2,449.4,254.8,449.6,256.2L449.6,256.2z"/>
		</g>
	</g>
	<g>
		<g>
			<path class="st0" d="M454.3,255.8c0.7,3.5,0.9,7,0.9,10.6c0,1.4,2.2,1.4,2.3,0c0.1-3.8-0.3-7.5-1-11.2
				C456.2,253.8,454.1,254.4,454.3,255.8L454.3,255.8z"/>
		</g>
	</g>
	<g>
		<g>
			<path class="st0" d="M473.2,282.3c4.1,0.6,8.3,1.2,12.5,1.5c1.4,0.1,1.4-2.1,0-2.3c-4-0.3-7.9-0.8-11.9-1.4
				C472.4,279.9,471.7,282,473.2,282.3L473.2,282.3z"/>
		</g>
	</g>
	<g>
		<g>
			<path class="st0" d="M477.3,289.3c2.8-0.2,5.6-0.4,8.4-0.5c1.4-0.1,1.4-2.3,0-2.3c-2.8,0.2-5.6,0.4-8.4,0.5
				C475.8,287.2,475.8,289.4,477.3,289.3L477.3,289.3z"/>
		</g>
	</g>
	<g>
		<g>
			<path class="st0" d="M502.3,360.7c0-5.6,0-11.2,0-16.8c0-1.4-2.3-1.5-2.3,0c0,5.6,0,11.2,0,16.8
				C500,362.1,502.3,362.1,502.3,360.7L502.3,360.7z"/>
		</g>
	</g>
	<g>
		<g>
			<path class="st0" d="M502.4,345.4c25,0,50,0,75,0c1.4,0,1.5-2.3,0-2.3c-25,0-50,0-75,0C501,343.2,501,345.4,502.4,345.4
				L502.4,345.4z"/>
		</g>
	</g>
	<g>
		<g>
			<path class="st0" d="M576.3,345.1c0,5.7,0,11.5,0,17.2c0,1.4,2.3,1.5,2.3,0c0-5.7,0-11.5,0-17.2
				C578.5,343.7,576.3,343.7,576.3,345.1L576.3,345.1z"/>
		</g>
	</g>
	<g>
		<g>
			<path class="st0" d="M517.4,343.1c0-3.8,0-7.5,0-11.3c0-1.4-2.3-1.5-2.3,0c0,3.8,0,7.5,0,11.3
				C515.1,344.5,517.4,344.5,517.4,343.1L517.4,343.1z"/>
		</g>
	</g>
	<g>
		<g>
			<path class="st0" d="M516.2,331.6c21.6,0,43.3,0,64.9,0c1.4,0,1.5-2.3,0-2.3c-21.6,0-43.3,0-64.9,0
				C514.8,329.4,514.8,331.6,516.2,331.6L516.2,331.6z"/>
		</g>
	</g>
	<g>
		<g>
			<path class="st0" d="M580.5,330.5c0,4.9,0,9.8,0,14.7c0,1.4,2.3,1.5,2.3,0c0-4.9,0-9.8,0-14.7C582.7,329,580.5,329,580.5,330.5
				L580.5,330.5z"/>
		</g>
	</g>
	<g>
		<g>
			<path class="st0" d="M578.6,346.4c0.9-0.3,1.8-0.5,2.7-0.3c1.4,0.3,2-1.9,0.6-2.2c-1.3-0.3-2.7-0.2-3.9,0.3
				c-0.6,0.2-1,0.8-0.8,1.4C577.4,346.1,578,346.6,578.6,346.4L578.6,346.4z"/>
		</g>
	</g>
	<g>
		<g>
			<path class="st0" d="M530.7,331.6c1.3,4,1.7,8.2,1.1,12.4c-0.2,1.4,2,2,2.2,0.6c0.7-4.6,0.3-9.1-1.1-13.6
				C532.4,329.6,530.3,330.2,530.7,331.6L530.7,331.6z"/>
		</g>
	</g>
	<g>
		<g>
			<path class="st0" d="M542.2,333.3c1.4,0,1.5-2.3,0-2.3C540.8,331,540.8,333.3,542.2,333.3L542.2,333.3z"/>
		</g>
	</g>
	<g>
		<g>
			<path class="st0" d="M542.9,331.1c0,0-0.1-0.1-0.1-0.1c0,0.5,0,1.1,0,1.6c0.1-0.1,0.1-0.1,0.2-0.2c-0.5,0.1-0.9,0.1-1.4,0.2
				c-0.3-0.4-0.3-0.2,0,0.6c0.1,0.5,0.2,0.9,0.2,1.4c0.1,1,0.1,2,0.1,3c-0.1,2.1-0.5,4-1.2,6c-0.5,1.4,1.7,2,2.2,0.6
				c1-2.7,1.4-5.5,1.3-8.3c-0.1-1.6,0-4.3-1.5-5.3c-0.4-0.2-1.1-0.2-1.4,0.2c-0.1,0.1-0.1,0.1-0.2,0.2c-0.4,0.5-0.5,1.1,0,1.6
				c0,0,0.1,0.1,0.1,0.1C542.4,333.7,544,332.1,542.9,331.1L542.9,331.1z"/>
		</g>
	</g>
	<g>
		<g>
			<path class="st0" d="M466.9,299.5c8,1.8,16,2.1,24.2,0.9c1.4-0.2,0.8-2.4-0.6-2.2c-7.7,1.1-15.4,0.8-23-0.9
				C466,297,465.4,299.2,466.9,299.5L466.9,299.5z"/>
		</g>
	</g>
	<g>
		<g>
			<path class="st0" d="M428.8,203.6c59.5,0,119,0,178.6,0c1.4,0,1.5-2.3,0-2.3c-59.5,0-119,0-178.6,0
				C427.4,201.3,427.4,203.6,428.8,203.6L428.8,203.6z"/>
		</g>
	</g>
	<g>
		<g>
			<path class="st0" d="M429.9,201.9c0-2.3,0-4.7,0-7c0-1.4-2.3-1.5-2.3,0c0,2.3,0,4.7,0,7C427.7,203.4,429.9,203.4,429.9,201.9
				L429.9,201.9z"/>
		</g>
	</g>
	<g>
		<g>
			<path class="st0" d="M428.3,195.5c59.5,0,119,0,178.6,0c1.4,0,1.5-2.3,0-2.3c-59.5,0-119,0-178.6,0
				C426.8,193.3,426.8,195.5,428.3,195.5L428.3,195.5z"/>
		</g>
	</g>
	<g>
		<g>
			<path class="st0" d="M606.2,194.9c0.2,2.1,0.4,4.3,0.7,6.4c0.1,1.4,2.4,1.4,2.3,0c-0.2-2.1-0.4-4.3-0.7-6.4
				C608.3,193.5,606.1,193.5,606.2,194.9L606.2,194.9z"/>
		</g>
	</g>
	<g>
		<g>
			<path class="st0" d="M443.2,192.7c0-18.7,0-37.3,0-56c0-1.4-2.3-1.5-2.3,0c0,18.7,0,37.3,0,56
				C440.9,194.1,443.2,194.1,443.2,192.7L443.2,192.7z"/>
		</g>
	</g>
	<g>
		<g>
			<path class="st0" d="M442,137.3c4.2,0,8.5,0,12.7,0c1.4,0,1.5-2.3,0-2.3c-4.2,0-8.5,0-12.7,0C440.6,135.1,440.6,137.3,442,137.3
				L442,137.3z"/>
		</g>
	</g>
	<g>
		<g>
			<path class="st0" d="M453.4,137.3c0,18.4,0,36.9,0,55.3c0,1.4,2.3,1.5,2.3,0c0-18.4,0-36.9,0-55.3
				C455.6,135.8,453.4,135.8,453.4,137.3L453.4,137.3z"/>
		</g>
	</g>
	<g>
		<g>
			<path class="st0" d="M463.2,192.3c0-32.4,0-64.7,0-97.1c0-1.4-2.3-1.5-2.3,0c0,32.4,0,64.7,0,97.1
				C460.9,193.7,463.2,193.7,463.2,192.3L463.2,192.3z"/>
		</g>
	</g>
	<g>
		<g>
			<path class="st0" d="M462.4,94.7c7.8,0,15.5,0,23.3,0c1.4,0,1.5-2.3,0-2.3c-7.8,0-15.5,0-23.3,0
				C460.9,92.5,460.9,94.7,462.4,94.7L462.4,94.7z"/>
		</g>
	</g>
	<g>
		<g>
			<path class="st0" d="M484.8,93.9c0,32.8,0,65.6,0,98.4c0,1.4,2.3,1.5,2.3,0c0-32.8,0-65.6,0-98.4
				C487.1,92.5,484.8,92.5,484.8,93.9L484.8,93.9z"/>
		</g>
	</g>
	<g>
		<g>
			<path class="st0" d="M461.8,112.4c7.8,4.4,16.2,2.5,24.2-0.4c1.4-0.5,0.8-2.7-0.6-2.2c-7.4,2.6-15.2,4.7-22.5,0.6
				C461.6,109.7,460.5,111.7,461.8,112.4L461.8,112.4z"/>
		</g>
	</g>
	<g>
		<g>
			<path class="st0" d="M463.4,130c2.9,1.8,6.2,1.6,9.5,1.5c4.3,0,8.5-0.4,12.7-1.4c1.4-0.4,0.8-2.5-0.6-2.2
				c-3.5,0.9-7,1.2-10.5,1.3c-3.2,0.1-7.2,0.6-10-1.2C463.3,127.3,462.2,129.2,463.4,130L463.4,130z"/>
		</g>
	</g>
	<g>
		<g>
			<path class="st0" d="M499.6,192.9c0-2.3,0-4.6,0-6.9c0-1.4-2.3-1.5-2.3,0c0,2.3,0,4.6,0,6.9C497.4,194.3,499.6,194.4,499.6,192.9
				L499.6,192.9z"/>
		</g>
	</g>
	<g>
		<g>
			<path class="st0" d="M499.1,186.8c23.6,0,47.1,0,70.7,0c1.4,0,1.5-2.3,0-2.3c-23.6,0-47.1,0-70.7,0
				C497.7,184.5,497.7,186.8,499.1,186.8L499.1,186.8z"/>
		</g>
	</g>
	<g>
		<g>
			<path class="st0" d="M569.3,186c0,2.7,0,5.4,0,8.2c0,1.4,2.3,1.5,2.3,0c0-2.7,0-5.4,0-8.2C571.6,184.5,569.3,184.5,569.3,186
				L569.3,186z"/>
		</g>
	</g>
	<g>
		<g>
			<path class="st0" d="M510.9,178.1c0.2,2.4,0.4,4.8,0.7,7.2c0.1,1.4,2.4,1.4,2.3,0c-0.2-2.4-0.4-4.8-0.7-7.2
				C513,176.7,510.7,176.7,510.9,178.1L510.9,178.1z"/>
		</g>
	</g>
	<g>
		<g>
			<path class="st0" d="M512,178.6c19.7,0,39.4,0,59.1,0c1.4,0,1.5-2.3,0-2.3c-19.7,0-39.4,0-59.1,0
				C510.6,176.4,510.6,178.6,512,178.6L512,178.6z"/>
		</g>
	</g>
	<g>
		<g>
			<path class="st0" d="M569.3,179.1c0,1.9,0,3.8,0,5.7c0,1.4,2.3,1.5,2.3,0c0-1.9,0-3.8,0-5.7C571.6,177.6,569.3,177.6,569.3,179.1
				L569.3,179.1z"/>
		</g>
	</g>
	<g>
		<g>
			<path class="st0" d="M538.3,176.6c0-3.6,0-7.1,0-10.7c0-1.4-2.3-1.5-2.3,0c0,3.6,0,7.1,0,10.7C536,178,538.3,178,538.3,176.6
				L538.3,176.6z"/>
		</g>
	</g>
	<g>
		<g>
			<path class="st0" d="M537.2,166.4c7.9,0,15.7,0,23.6,0c1.4,0,1.5-2.3,0-2.3c-7.9,0-15.7,0-23.6,0
				C535.7,164.1,535.7,166.4,537.2,166.4L537.2,166.4z"/>
		</g>
	</g>
	<g>
		<g>
			<path class="st0" d="M559.6,165.9c0,3.8,0,7.5,0,11.3c0,1.4,2.3,1.5,2.3,0c0-3.8,0-7.5,0-11.3
				C561.9,164.4,559.6,164.4,559.6,165.9L559.6,165.9z"/>
		</g>
	</g>
	<g>
		<g>
			<path class="st0" d="M542.3,163.3c-5.7-5.7-5.9-16.9-5.9-24.4c-0.6,0.3-1.3,0.5-1.9,0.8c6.7,7.2,11,15.8,12.6,25.5
				c0.2,1.4,2.4,0.8,2.2-0.6c-1.7-10.1-6.2-19-13.2-26.5c-0.7-0.7-1.9-0.2-1.9,0.8c-0.1,8.2,0.4,19.8,6.6,26
				C541.7,165.9,543.3,164.4,542.3,163.3L542.3,163.3z"/>
		</g>
	</g>
	<g>
		<g>
			<path class="st0" d="M548.3,160.2c2-9.7,9.3-17,12.3-26.3c-0.7-0.2-1.4-0.4-2.2-0.6c-0.9,4.3,0.2,8.8-0.2,13.2
				c-0.6,6.2-2.4,12.2-5.2,17.8c-0.7,1.3,1.3,2.4,1.9,1.1c2.4-4.8,4.2-9.8,5.1-15.1c0.9-5.4-0.5-11.2,0.6-16.4
				c0.3-1.4-1.7-2-2.2-0.6c-3,9.3-10.2,16.6-12.3,26.3C545.8,161,548,161.6,548.3,160.2L548.3,160.2z"/>
		</g>
	</g>
	<g>
		<g>
			<path class="st0" d="M674.7,470.2c30.9,0,61.9,0,92.8,0c1.4,0,1.5-2.3,0-2.3c-30.9,0-61.9,0-92.8,0
				C673.3,468,673.3,470.2,674.7,470.2L674.7,470.2z"/>
		</g>
	</g>
	<g>
		<g>
			<path class="st0" d="M720.8,470.2c0,8.8,0,17.6,0,26.4c0,1.4,2.3,1.5,2.3,0c0-8.8,0-17.6,0-26.4
				C723.1,468.8,720.8,468.8,720.8,470.2L720.8,470.2z"/>
		</g>
	</g>
	<g>
		<g>
			<path class="st0" d="M709,498.3c23.2,0,46.5,0,69.7,0c1.4,0,1.5-2.3,0-2.3c-23.2,0-46.5,0-69.7,0
				C707.6,496.1,707.6,498.3,709,498.3L709,498.3z"/>
		</g>
	</g>
	<g>
		<g>
			<path class="st0" d="M755.1,498.9c0,8.2,0,16.5,0,24.7c0,1.4,2.3,1.5,2.3,0c0-8.2,0-16.5,0-24.7
				C757.4,497.5,755.1,497.4,755.1,498.9L755.1,498.9z"/>
		</g>
	</g>
	<g>
		<g>
			<path class="st0" d="M966.3,795.2c31.3,0,62.7,0,94,0c1.4,0,1.5-2.3,0-2.3c-31.3,0-62.7,0-94,0
				C964.8,792.9,964.8,795.2,966.3,795.2L966.3,795.2z"/>
		</g>
	</g>
	<g>
		<g>
			<path class="st0" d="M1017.1,793.2c0-9.9,0-19.8,0-29.7c0-1.4-2.3-1.5-2.3,0c0,9.9,0,19.8,0,29.7
				C1014.9,794.7,1017.1,794.7,1017.1,793.2L1017.1,793.2z"/>
		</g>
	</g>
	<g>
		<g>
			<path class="st0" d="M994.3,763.6c26.7,0,53.4,0,80.1,0c1.4,0,1.5-2.3,0-2.3c-26.7,0-53.4,0-80.1,0
				C992.8,761.3,992.8,763.6,994.3,763.6L994.3,763.6z"/>
		</g>
	</g>
	<g>
		<g>
			<path class="st0" d="M1064.3,762.5c0-8.8,0-17.7,0-26.5c0-1.4-2.3-1.5-2.3,0c0,8.8,0,17.7,0,26.5
				C1062.1,763.9,1064.3,763.9,1064.3,762.5L1064.3,762.5z"/>
		</g>
	</g>
	<g>
		<g>
			<path class="st0" d="M1178.3,429.8c0,20.5,0,41.1,0,61.6c0,1.4,2.3,1.5,2.3,0c0-20.5,0-41.1,0-61.6
				C1180.6,428.4,1178.3,428.4,1178.3,429.8L1178.3,429.8z"/>
		</g>
	</g>
	<g>
		<g>
			<path class="st0" d="M1181.3,430c33.1,0,66.1,0,99.2,0c1.4,0,1.5-2.3,0-2.3c-33.1,0-66.1,0-99.2,0
				C1179.8,427.7,1179.8,430,1181.3,430L1181.3,430z"/>
		</g>
	</g>
	<g>
		<g>
			<path class="st0" d="M1278.5,429.2c0,19.6,0,39.3,0,58.9c0,1.4,2.3,1.5,2.3,0c0-19.6,0-39.3,0-58.9
				C1280.8,427.8,1278.5,427.8,1278.5,429.2L1278.5,429.2z"/>
		</g>
	</g>
	<g>
		<g>
			<path class="st0" d="M1180.5,492.8c33.5,0,66.9,0,100.4,0c1.4,0,1.5-2.3,0-2.3c-33.5,0-66.9,0-100.4,0
				C1179,490.6,1179,492.8,1180.5,492.8L1180.5,492.8z"/>
		</g>
	</g>
	<g>
		<g>
			<path class="st0" d="M1278.9,488.2c-0.5,1.4-0.5,2.8-0.3,4.3c0.1,0.6,0.8,0.9,1.4,0.8c0.6-0.2,0.9-0.8,0.8-1.4
				c-0.2-1,0-2.1,0.3-3.1C1281.5,487.4,1279.4,486.8,1278.9,488.2L1278.9,488.2z"/>
		</g>
	</g>
	<g>
		<g>
			<path class="st0" d="M1183,433.2c0,17.5,0,34.9,0,52.4c0,1.4,2.3,1.5,2.3,0c0-17.5,0-34.9,0-52.4
				C1185.2,431.8,1183,431.8,1183,433.2L1183,433.2z"/>
		</g>
	</g>
	<g>
		<g>
			<path class="st0" d="M1184.1,488.4c30.1,0,60.2,0,90.3,0c1.4,0,1.5-2.3,0-2.3c-30.1,0-60.2,0-90.3,0
				C1182.6,486.2,1182.6,488.4,1184.1,488.4L1184.1,488.4z"/>
		</g>
	</g>
	<g>
		<g>
			<path class="st0" d="M1276.4,486.9c0-17.2,0-34.4,0-51.6c0-1.4-2.3-1.5-2.3,0c0,17.2,0,34.4,0,51.6
				C1274.1,488.3,1276.4,488.3,1276.4,486.9L1276.4,486.9z"/>
		</g>
	</g>
	<g>
		<g>
			<path class="st0" d="M1184.5,434.8c30.1,0,60.2,0,90.3,0c1.4,0,1.5-2.3,0-2.3c-30.1,0-60.2,0-90.3,0
				C1183.1,432.5,1183,434.8,1184.5,434.8L1184.5,434.8z"/>
		</g>
	</g>
	<g>
		<g>
			<path class="st0" d="M1184.8,465.3c11.9-2.8,24.6,1.2,36.3,3.5c11.9,2.3,23.7,4.6,35.6,6.9c1.4,0.3,2-1.9,0.6-2.2
				c-13.2-2.6-26.3-5.1-39.5-7.7c-11-2.2-22.5-5.3-33.7-2.7C1182.8,463.5,1183.4,465.7,1184.8,465.3L1184.8,465.3z"/>
		</g>
	</g>
	<g>
		<g>
			<path class="st0" d="M1228.1,469.9c2.4,1.4,5,0.6,7.6,0.1c4.3-0.8,8.5-2,12.7-3.3c9.1-2.7,18.2-5.7,27.7-6.5
				c1.4-0.1,1.4-2.4,0-2.3c-7.7,0.6-15.1,2.6-22.4,4.8c-3.9,1.2-7.8,2.4-11.8,3.5c-3.2,0.9-9.7,3.5-12.7,1.7
				C1228,467.2,1226.9,469.2,1228.1,469.9L1228.1,469.9z"/>
		</g>
	</g>
	<g>
		<g>
			<path class="st0" d="M1233.5,452.9c-5-3.6,3.7-10.5,7.1-5.2c1.5,2.4,0.1,5-2.4,5.9c-2.2,0.7-4.6-0.1-6.5-1.2
				c-1.3-0.7-2.4,1.2-1.1,1.9c3.4,1.9,7.8,2.8,11-0.1c2.8-2.5,2.5-6.9-0.4-9.2c-6.5-5.2-16,4.7-8.8,9.8
				C1233.5,455.6,1234.6,453.7,1233.5,452.9L1233.5,452.9z"/>
		</g>
	</g>
	<g>
		<g>
			<path class="st0" d="M820,996.3c82.2,0,164.4,0,246.5,0c1.4,0,1.5-2.3,0-2.3c-82.2,0-164.4,0-246.5,0
				C818.6,994.1,818.6,996.3,820,996.3L820,996.3z"/>
		</g>
	</g>
	<g>
		<g>
			<path class="st0" d="M955.1,1017.8c65,0,130.1,0,195.1,0c1.4,0,1.5-2.3,0-2.3c-65,0-130.1,0-195.1,0
				C953.6,1015.5,953.6,1017.8,955.1,1017.8L955.1,1017.8z"/>
		</g>
	</g>
	<g>
		<g>
			<path class="st0" d="M952.9,972.7c59.7,0,119.3,0,179,0c1.4,0,1.5-2.3,0-2.3c-59.7,0-119.3,0-179,0
				C951.5,970.5,951.5,972.7,952.9,972.7L952.9,972.7z"/>
		</g>
	</g>
	<g>
		<g>
			<path class="st0" d="M1018.8,973.2c-4.1,7.5-8.6,14.6-13.7,21.5c-0.9,1.2,1.1,2.3,1.9,1.1c5-6.9,9.6-14,13.7-21.5
				C1021.4,973.1,1019.5,972,1018.8,973.2L1018.8,973.2z"/>
		</g>
	</g>
	<g>
		<g>
			<path class="st0" d="M1064.6,998c-1.6,5.9-3.6,11.6-6.2,17.2c-0.6,1.3,1.3,2.4,1.9,1.1c2.7-5.7,4.8-11.6,6.4-17.7
				C1067.2,997.2,1065,996.6,1064.6,998L1064.6,998z"/>
		</g>
	</g>
	<g>
		<g>
			<path class="st0" d="M256.3,938.8c29.6,0,59.3,0,88.9,0c1.9,0,1.9-3,0-3c-29.6,0-59.3,0-88.9,0
				C254.4,935.8,254.4,938.8,256.3,938.8L256.3,938.8z"/>
		</g>
	</g>
	<g>
		<g>
			<path class="st0" d="M294.1,966.8c50.8,0,101.5,0,152.3,0c1.9,0,1.9-3,0-3c-50.8,0-101.5,0-152.3,0
				C292.2,963.8,292.2,966.8,294.1,966.8L294.1,966.8z"/>
		</g>
	</g>
	<g>
		<g>
			<path class="st0" d="M343.8,937.9c-7.9,8.2-15.8,16.3-23.6,24.5c-1.3,1.4,0.8,3.5,2.1,2.1c7.9-8.2,15.8-16.3,23.6-24.5
				C347.3,938.6,345.2,936.5,343.8,937.9L343.8,937.9z"/>
		</g>
	</g>
	<g>
		<g>
			<path class="st0" d="M416.3,1015c77.1,0,154.1,0,231.2,0c1.9,0,1.9-3,0-3c-77.1,0-154.1,0-231.2,0
				C414.4,1012,414.4,1015,416.3,1015L416.3,1015z"/>
		</g>
	</g>
	<g>
		<g>
			<path class="st0" d="M530.4,990.9c55.4,0,110.9,0,166.3,0c1.9,0,1.9-3,0-3c-55.4,0-110.9,0-166.3,0
				C528.4,987.9,528.4,990.9,530.4,990.9L530.4,990.9z"/>
		</g>
	</g>
	<g>
		<g>
			<path class="st0" d="M611.2,988.6c-8.1,8-16.1,16-24.2,24c-1.4,1.4,0.7,3.5,2.1,2.1c8.1-8,16.1-16,24.2-24
				C614.7,989.4,612.5,987.3,611.2,988.6L611.2,988.6z"/>
		</g>
	</g>
	<g>
		<g>
			<path class="st0" d="M401.7,1042.2c36.3,0,72.5,0,108.8,0c1.9,0,1.9-3,0-3c-36.3,0-72.5,0-108.8,0
				C399.8,1039.2,399.8,1042.2,401.7,1042.2L401.7,1042.2z"/>
		</g>
	</g>
	<g>
		<g>
			<path class="st0" d="M520.8,1013.1c-4,9.1-8.1,18.2-12.1,27.2c-0.8,1.7,1.8,3.3,2.6,1.5c4-9.1,8.1-18.2,12.1-27.2
				C524.2,1012.8,521.6,1011.3,520.8,1013.1L520.8,1013.1z"/>
		</g>
	</g>
</g>
<g id="carpet">
	<path class="st1" d="M721.1,950c-116,0.6-148-0.6-270.9,0c-17.7,0.1-32.2,0.2-42,0.2c25.7-22.4,51.4-44.7,77.1-67.1
		c8.8-0.2,21.8-0.4,37.7-0.5c56.5-0.5,90.8,0.1,133,0.5c37.9,0.3,33.5-0.2,108.8-0.5c166.8-0.5,180.7,2.2,250.4,0.5
		c13.1-0.3,52.9-1.4,106.5-0.9c13.2,0.1,23.9,0.3,30.5,0.5c1.5-0.4,6.3-2,9.6-6.8c0.9-1.3,2.9-4.4,2.7-8.7
		c-0.3-7.3-7.1-11.5-7.7-11.8c14.9,5.2,27.1,9.6,35.5,12.7c44.8,16.7,80.6,32.5,107.9,44.6c7.4,3.3,13.5,6,17.3,7.7
		c1.2-0.2,6.6-1.1,11.4,2.3c0.8,0.6,5.9,4.2,5.5,9.1c-0.4,4.3-4.9,6.8-7.3,8.2c-5.6,3.2-11.2,3.2-12.3,3.2
		c-14.5,0.1-15.3,5.1-50.5,7.3c-19.3,1.2-27,0.2-54.6-0.5c-13.7-0.3-15.8-0.1-60.1,0c0,0-53.2,0.2-135.2,0
		c-46.4-0.1-62.4-0.3-97.9-0.5C863.9,949.3,815.6,949.6,721.1,950z"/>
	<g>
		<g>
			<path class="st2" d="M483.9,881.7c-26.2,22.6-52.4,45.2-78.6,67.8c-1.5,1.3,0.7,3.4,2.1,2.1c26.2-22.6,52.4-45.2,78.6-67.8
				C487.5,882.6,485.4,880.5,483.9,881.7L483.9,881.7z"/>
		</g>
	</g>
	<g>
		<g>
			<path class="st2" d="M485.8,884.3c87,0,174,0,260.9,0c86.6,0,173.3,0,259.9,0c49,0,98,0,147,0c1.9,0,1.9-3,0-3
				c-87,0-174,0-260.9,0c-86.6,0-173.3,0-259.9,0c-49,0-98,0-147,0C483.9,881.3,483.9,884.3,485.8,884.3L485.8,884.3z"/>
		</g>
	</g>
	<g>
		<g>
			<path class="st2" d="M407.7,951.5c108.5,0,216.9,0,325.4,0c108.1,0,216.3,0,324.4,0c60.9,0,121.8,0,182.7,0c1.9,0,1.9-3,0-3
				c-108.5,0-216.9,0-325.4,0c-108.1,0-216.3,0-324.4,0c-60.9,0-121.8,0-182.7,0C405.7,948.5,405.7,951.5,407.7,951.5L407.7,951.5z"
				/>
		</g>
	</g>
	<g>
		<g>
			<path class="st2" d="M1145.6,851.2c7.9,0,15.1,4.6,17,12.5c1.8,7.7-2.4,15.2-9.9,17.8c-1.8,0.6-1,3.5,0.8,2.9
				c8.4-3,13.7-11.1,12.2-20.1c-1.6-9.9-10.4-16.2-20.2-16.2C1143.7,848.2,1143.7,851.2,1145.6,851.2L1145.6,851.2z"/>
		</g>
	</g>
	<g>
		<g>
			<path class="st2" d="M1146.4,851.7c56.6,21.6,112.8,44.5,168.5,68.6c1.8,0.8,3.3-1.8,1.5-2.6c-55.9-24.2-112.3-47.1-169.2-68.9
				C1145.3,848.1,1144.6,851,1146.4,851.7L1146.4,851.7z"/>
		</g>
	</g>
	<g>
		<g>
			<path class="st2" d="M1316.6,921.3c5.1-0.2,11.5,1.2,14.8,5.5c5.1,6.6-2.4,11-7.8,12.6c-8.9,2.7-18.8,3.6-28,5.1
				c-10.2,1.6-20.4,2.9-30.7,3.4c-9.4,0.5-18.9-0.1-28.3,0.4c-1.9,0.1-1.9,3.1,0,3c13.3-0.8,26.6,0,40-1.3
				c13.1-1.3,26.2-3.6,39.2-5.8c7-1.2,19.6-3.2,20.4-12.4c0.9-9.5-12.2-13.7-19.6-13.4C1314.7,918.4,1314.7,921.4,1316.6,921.3
				L1316.6,921.3z"/>
		</g>
	</g>
</g>
<g id="girl_and_cat">
	<g id="hand_right">
		<path class="st3" d="M594.7,676.6c-19.7,15.9-12.4,49.1-5.7,125.1c3.2,36.5,5.3,71,6.5,103.2c-7.4,4.3-22.3,13.6-20.7,18
			c1.9,5.3,26.9,0.7,33.9-0.6c19.7,0,35.6,1.8,47,3.7c9.2,1.5,19,3.6,20.3,0.8c1.1-2.4-4.4-7.3-9.7-11.4c-10-5.7-20-11.4-30.1-17.1
			c-2.9-28.9-3.3-52.4-3.2-68.2c0.3-51.7,4.1-91.8,4.1-91.8c3.9-41.7,8.2-56.9-1.6-65C625.8,665.5,606.5,667.1,594.7,676.6z"/>
		<g>
			<g>
				<path class="st2" d="M600,925.2c6.2-1.4,11.9-3.9,17.2-7.3c0.8-0.5,0.1-1.8-0.8-1.3c-5.2,3.4-10.8,5.8-16.8,7.2
					C598.7,923.9,599.1,925.4,600,925.2L600,925.2z"/>
			</g>
		</g>
		<g>
			<g>
				<path class="st2" d="M608.3,923.3c4-1.1,7.5-4.7,11.5-4.1c5.7,0.8,11.6,3.2,17.1,4.8c0.9,0.3,1.3-1.2,0.4-1.4
					c-6-1.7-12-3.4-18-5c-0.9-0.3-1.6-0.6-2.5-0.4c-0.7,0.2-2.6,2-3.6,2.6c-1.7,1-3.5,1.6-5.4,2.1
					C606.9,922.1,607.3,923.5,608.3,923.3L608.3,923.3z"/>
			</g>
		</g>
		<g>
			<g>
				<path class="st2" d="M612.2,922.1c3.6-0.8,7-0.8,10.7,0c2.7,0.6,5.1,1.2,7.8,0.9c0.9-0.1,1-1.6,0-1.5c-3.6,0.4-6.8-0.9-10.3-1.3
					c-2.9-0.3-5.8-0.1-8.7,0.5C610.9,920.9,611.3,922.3,612.2,922.1L612.2,922.1z"/>
			</g>
		</g>
		<g>
			<g>
				<path class="st2" d="M614,920.5c5.9,0,11.7,0.7,17.5,2.2c0.9,0.2,1.3-1.2,0.4-1.4c-5.9-1.6-11.8-2.3-17.9-2.3
					C613,919,613,920.5,614,920.5L614,920.5z"/>
			</g>
		</g>
		<path class="st4" d="M605,672.7c5,3-0.6,20.5-2.3,26.1c-5.2,17.7-4.2,41.9-2.3,90.4c1.1,26.7,4.6,64,15.3,109.1
			c34.4,15.9,51.1,25.4,50,28.4c-1,2.8-17.1,0.2-48.3-8c-4.3,1.9-10.9,4.4-19.3,5.7c-1.6,0.2-20.9,3.1-22.7-1.7
			c-1.8-4.8,14.5-15.1,20.5-18.8c-1.6-24.9-3-46-4-62c-1.9-29.9-2-33.2-2.8-42.1c-3.1-34.3-5.5-36.8-6.8-60.2
			c-2.6-47.1,6.1-58.3,11.9-63.1C595.6,675.6,601.8,670.8,605,672.7z"/>
		<path class="st5" d="M582.3,710.8c10,92,18,160.3,21,180.7c0.3,2.2,1,6.8,4,11.9c8.9,15.6,29.3,20.1,42.6,21.6
			c-18.3-4.7-28.8-4.6-35.2-3.4c-0.9,0.2-3.3,0.6-6.8,1.1c-4.1,0.6-10.8,1.6-19.3,1.7c-3.8,0.1-8.9,0-14.8-0.6
			c0.4-1.1,1.1-2.8,2.3-4.5c1.9-2.9,4.2-4.6,8.5-7.4c3-2,6.9-4.3,11.4-6.8C591.4,840.4,586.9,775.6,582.3,710.8z"/>
	</g>
	<g id="leg_right">
		<path class="st2" d="M928.6,887.7c12.9-0.4,26.1-1,39.4-1.7c8.4-0.4,16.6-0.9,24.9-1.5c6.1-2.9,12.3-5.7,18.4-8.6
			c4,4.3,10.4,10.5,19.1,16.6c31.5,22.1,63.7,21.9,63.5,27.4c-0.2,3.7-15,6.6-26.5,7.4c-28.9,2-52.2-7.8-65.6-15.1
			c-22,3.7-44,7.3-66,11C933.4,911.4,931,899.6,928.6,887.7z"/>
		<path class="st6" d="M825.5,661c-21.1,21.5-27.5,55.3-16.9,87.1c-13.9,51-27.9,101.9-41.8,152.9c-0.8,2.5-3.4,11.5,0.9,20.4
			c5.1,10.5,17.6,16.7,31.1,15.1c51.6-1.5,103.1-3,154.7-4.4c3.3-23.1,6.5-46.2,9.8-69.3c-29.9,2.1-59.9,4.1-89.8,6.2
			c12-26.3,29-65.9,46.2-115.6c24.8-71.3,23.2-86,16-96C917.6,632.3,858,627.9,825.5,661z"/>
		<path class="st7" d="M825.2,707.4c-2.1-5.9-7.8-21.6-13-21c-5.8,0.6-9.5,21.3-8.3,38.1c0.8,10,3.2,18.1,5.3,23.5
			c-1.5,5.1-4,13.9-7.1,24.8c-24.8,87.9-22,79.5-24.9,90.2c-4.8,17.4-8.7,31.5-11.2,40.3c-0.6,2.4-2,8.7,0.7,15.9
			c2.8,7.5,8.3,11.3,10.5,12.8c1.6,1.1,6.2,4.1,12.5,4.8c1.2,0.1,1.7,0.1,8.8-0.2c3.3-0.1,6.7-0.2,10-0.3c9.5-0.4,19.8-0.5,23.3-0.5
			c8.5-0.1,36.6-0.9,121.5-3.8c1.8-11.8,3.6-23.7,5.3-35.5c-112.9,34.3-150,25.7-161,8.8C774.8,870,848.5,772.2,825.2,707.4z"/>
		<path class="st8" d="M768.2,896.6c10.5-38.7,21-77.5,31.4-116.2c-2.4,10-22.7,97.3-11.3,129.1c0.8,2.4,2.9,8,7.9,13.2
			c13.6,14.1,36,12.3,44,11.3c-13.9,1.5-25.9,2.3-35.4,2.6c-12,0.5-18.6,0.3-25.5-3.6c-2.2-1.2-7.8-4.5-11.3-11.3
			C762.3,910.3,767.4,898.4,768.2,896.6z"/>
	</g>
	<g id="leg_left">
		<path class="st2" d="M1172.9,606.6c11.9-5.1,23.9-10.4,36.1-15.9c7.6-3.5,15.2-6.9,22.6-10.4c4.7-4.9,9.4-9.8,14.1-14.7
			c5.3,2.6,13.5,6,23.8,8.6c37.4,9.1,67.3-2.8,69.1,2.4c1.2,3.5-11.6,11.6-22,16.5c-26.2,12.3-51.4,11.7-66.7,9.8
			c-19.2,11.4-38.3,22.8-57.5,34.2C1185.9,627,1179.4,616.8,1172.9,606.6z"/>
		<path class="st6" d="M821.9,642.4c3.9-1.4,10-3.5,17.8-5.3c46.7-10.9,78.4,6,119.1,11.6c36,5,63.6-1,92.5-7.1
			c28.8-6.2,75.8-20.6,127.1-58.7c5.1,3.1,15.6,10.4,23.1,24c8.5,15.3,8.4,29.7,8,35.6c-23.3,18-58.4,41.7-104.9,61.3
			c-29.7,12.6-54.5,18.7-104,31.1c-54.4,13.6-91.4,22.6-141.4,23.1c-25.6,0.3-46.6-1.8-60.5-3.6C806.5,717,814.2,679.7,821.9,642.4z
			"/>
		<path class="st9" d="M798.7,754c9.3,1.4,21.8,3,36.5,3.7c11,0.6,31.2,1.3,61.3-2.1c29.5-3.3,53.5-8.8,100.1-19.8
			c26.5-6.2,40.2-9.4,57.3-14.7c16.8-5.2,37.3-11.5,63-23.2c7-3.2,35.1-16.2,69.2-38.9c9.5-6.3,17.2-11.9,22.7-16
			c0.5-3.5,0.8-8.3,0.2-13.9c-0.8-6.4-2.5-11.5-4.1-15c-102,59.8-229.5,106.3-370.1,91.9c-8.5-0.9-16.9-1.9-25.2-3.2
			C806.1,719.9,802.4,736.9,798.7,754z"/>
		<path class="st4" d="M799,753.7c1.8-8.4,3.7-16.8,5.5-25.2c35.3,4.7,76.3,7.1,121.6,4.1c126.9-8.4,224.5-54.8,282.7-89.4
			c-16,12.1-39.8,28.6-70.5,44.6c-52.2,27.1-93.8,36.8-166.9,53.9c-63.9,14.9-94.7,16.5-117.9,16.3
			C831.1,757.6,812.3,755.6,799,753.7z"/>
	</g>
	<g id="torso">
		<path class="st3" d="M573.1,600.7c-24.8,6.7-43.8,57-32.7,95.5c11.3,39.3,50.7,54.9,81.7,67.2c58.9,23.3,114.1,12.6,141.2,7.3
			c19.8-3.8,35.8-9,46.8-13c5.8-5.2,22.9-22,29-51c7.3-34.6-6.4-61.9-9.7-68c-53.3,20.7-93.9,18-117.4,13.8
			c-53.6-9.7-92.9-31.6-92.9-31.6C594.2,607,585.9,597.2,573.1,600.7z"/>
		<path class="st9" d="M543.5,640.6c-0.7,22,59.8,41.2,63.3,42.4c20.9,7,53.4,14.7,134.8,11.2c24.6-1,58.5-3.3,99-8.7
			c0.1-5.9-0.2-13.4-2-22c-2.2-10.1-5.7-18.2-8.7-24c-6,1.9-14.5,4.5-24.8,7.4c-9,2.5-14.9,4.1-21.7,5.5c0,0-16.6,3.4-35.2,3.7
			c-26.9,0.4-49.4-6.2-72.2-13c-23.4-6.9-51-17.5-63.8-26.4c-4-2.8-7.5-4.8-14.4-8.9c-11.3-6.6-14.2-7.4-17.1-7.7
			c-7.6-0.7-13.7,3.1-16.7,5.1c-9.2,5.8-13.1,14.4-15.8,20.4C547.2,627.8,543.6,635.5,543.5,640.6z"/>
		<path class="st10" d="M570.4,601.8c16.5,12.9,40,29.1,70.5,43.6c16,7.6,41.8,19.6,75.6,26.3c24,4.7,67.6,9.9,122.5-3.9
			c-0.6-4.8-1.9-10.7-4.5-17.2c-1.7-4.2-3.6-7.9-5.4-10.9c-24.5,10.6-46,14.5-60.5,16c-35.7,3.8-63.4-2.9-79.9-7
			c-14.7-3.7-33-8.2-53.2-19.4c-7.4-4-20.1-11.8-41.4-22.7c-5-2.6-9.2-4.7-12.1-6C578,601,574.2,601.4,570.4,601.8z"/>
	</g>
	<g id="cat">
		<g id="body">
			<path class="st2" d="M717.3,607c6.1-3.8,11.2-4.5,22.1-6.2c28.1-4.5,25.4-4.7,30.7-4.9c12.7-0.5,21.3-0.9,30.5,4.3
				c2.9,1.6,10.1,5.8,14.2,14.6c0.7,1.5,5.7,12.5,1.7,21.7c-4.4,10.1-22.4,12.7-58.4,18c-5,0.7-19.2,2.7-36.7-0.4
				c-11.4-2-14.7-4.6-16.7-7.1c-6.3-7.9-3.6-21,1.3-29C709.7,611.8,714.7,608.6,717.3,607z"/>
		</g>
		<g id="tail">
			<path class="st2" d="M809.6,622.3c1.1-2.2,7.9-1.7,12.7,1.1c4.7,2.7,8.6,8.3,8.6,14.2c-0.1,6.4-4.7,10.9-11.4,17.4
				c-8.7,8.5-15.1,10.8-14.4,13.5c1,4.1,15.6,1.3,17.8,6.9c1.9,4.8-6.2,13.2-8.6,12.2c-1.6-0.7,0.4-4.9-2.1-7.7
				c-3.3-3.6-9.4,0-12.5-3.2c-2.5-2.7-1.4-8.2,0.2-11.6c2.2-4.4,5-4.5,13.5-12c6.5-5.7,7.2-7.7,7.3-9.2c0.1-1.4-0.2-2.9-4.3-9.4
				C811,625.6,808.8,623.7,809.6,622.3z"/>
		</g>
		<g id="leg_front">
			<path class="st2" d="M785.1,624c-2.5,1.7-8.5,6-9.2,13.7c-0.6,6.9,3.5,12,4.5,13.1c-15.4,5.1-18.7,7.5-18.5,8.8
				c0.5,2.5,14.3,3,25.8-0.2c4.3-1.2,8.2-2.9,11.2-4.3c5.7-2.6,8.6-3.8,10.1-5.8c3.8-4.9,2.5-11.8,1.5-16.7
				c-1.1-5.5-1.8-9.4-5.2-11.8C799.3,616.5,789.7,620.8,785.1,624z"/>
		</g>
		<g id="head_1_">
			<path class="st2" d="M686.6,629.5c-2.2-3.3-2.7-6.9-3-9.7c-1-7.2,0.8-13.1,2-16.2c-0.4-4.6-0.9-9.2-1.3-13.7
				c1.5,0.7,3.2,1.6,5,2.7c3.1,2,5.6,4.1,7.5,5.9c2.5-1.3,5.3-2.6,8.6-3.8c3.5-1.3,6.8-2.2,9.7-2.9c0.6-1.6,2-4.4,4.8-6.9
				c1.9-1.7,3.9-2.7,5.2-3.2c0,0.9,0,1.8,0.1,2.8c0.4,3.3,1.3,6.1,2.3,8.1c1.5,1.1,8.1,6.2,9.7,15.5c1.3,7.3-1.3,13.2-2.8,15.8
				c-5.9,10.7-17.8,13-20.5,13.5C705.4,639.1,692.2,638,686.6,629.5z"/>
			<g>
				<g>
					<path class="st1" d="M724.5,562.2c1.4-1.5,1.6-0.3,1.9,1.1c0.2,1.1,0.3,2.3,0.5,3.4c0.2,1.2,0.7,2.5,1.9,3.1
						c3,1.5,6.6-2.4,8.7-4.1c1.5-1.3-0.7-3.4-2.1-2.1c-1,0.9-2.1,1.7-3.2,2.5c-1.2,0.9-1.9,1.3-2.3-0.4c-0.4-1.8-0.3-3.8-1.1-5.5
						c-1.4-3-4.5-2-6.3,0C721.1,561.5,723.2,563.6,724.5,562.2L724.5,562.2z"/>
				</g>
			</g>
			<g>
				<g>
					<path class="st1" d="M691.6,618.1c4.7,4.4,12.2,2.3,13.6-4.1c0.2-0.9-1.2-1.3-1.4-0.4c-1.1,5.2-7.1,7.2-11,3.5
						C691.9,616.4,690.9,617.5,691.6,618.1L691.6,618.1z"/>
				</g>
			</g>
			<g>
				<g>
					<path class="st1" d="M713.6,617c-0.1,0-0.1,0.1-0.2,0.1c0.2,0.2,0.5,0.4,0.7,0.6c0-0.1,0-0.1,0-0.2c-0.2,0.2-0.3,0.3-0.5,0.5
						c-0.1-0.1-0.1-0.2-0.2-0.3c0.3,0.1,0.7,0.2,1,0.3c0-0.1-0.1-0.2-0.1-0.4c-0.5,0.2-0.9,0.4-1.4,0.6c1.3,2.4-0.7,5.2-3.4,4.7
						c-0.9-0.2-1.3,1.3-0.4,1.4c4,0.8,7-3.3,5.1-6.9c-0.4-0.8-1.5-0.2-1.4,0.6c0.1,0.3,0.1,0.5,0.3,0.7c0.2,0.4,0.7,0.4,1,0.3
						c1.6-0.7,0.6-2.9-1-2.4c-0.2,0.1-0.5,0.3-0.5,0.5c-0.1,0.4-0.1,0.6,0,1c0,0.3,0.4,0.6,0.7,0.6c0.4-0.1,0.6-0.1,1-0.3
						C715.2,617.8,714.5,616.5,713.6,617L713.6,617z"/>
				</g>
			</g>
			<g>
				<g>
					<path class="st1" d="M713.6,618.1c0.9,4.8,7.6,4.9,8.7,0.2c0.2-0.9-1.2-1.3-1.4-0.4c-0.8,3.3-5.2,3.1-5.8-0.2
						C714.9,616.7,713.4,617.1,713.6,618.1L713.6,618.1z"/>
				</g>
			</g>
			<g>
				<g>
					<path class="st1" d="M716.6,610.5c5.4,2.4,11.3-0.9,11.9-6.8c0.1-1-1.4-1-1.5,0c-0.5,4.7-5.3,7.5-9.7,5.5
						C716.5,608.8,715.7,610.1,716.6,610.5L716.6,610.5z"/>
				</g>
			</g>
		</g>
		<g id="paw_right">
			<path class="st2" d="M672.9,642.4c-0.9-3.3,0.4-7.4,3-9.7c3.2-2.8,7.4-2.1,12.7-1.3c5.4,0.9,17.7,2.9,23.4,13.1
				c1.4,2.5,3.3,5.9,1.9,8.4c-3,5.6-19.6,1.7-27.9-1.3C679.7,649.4,674.2,647.4,672.9,642.4z"/>
		</g>
		<g id="paw_left">
			<path class="st2" d="M746.5,620.6c-2.2,0.2-2,4-5.6,8.8c-3.5,4.6-7.9,6.7-15.9,10.3c-7.8,3.6-10.9,3.6-14.6,7.7
				c-0.9,1-4.4,4.9-3.2,7.5c1.2,2.6,6.4,2.4,9.7,2.4c2.7-0.1,4.8-0.4,15.5-3.6c4.7-1.4,8.6-2.7,13.5-4.9c4.3-2,5.4-3,6.2-4.1
				c2.9-3.9,2-9,1.5-11.8C752.6,627.5,749.5,620.3,746.5,620.6z"/>
		</g>
	</g>
	<g id="head">
		<path class="st3" d="M504.1,610.5c0.6,8,6.9,13.3,13.3,18.7c5.5,4.7,16.6,12.5,34.4,15.7c3.3-2.4,8.9-7,13.3-14.7
			c3.6-6.4,4.9-12.4,5.4-16.2c-15.9-9.5-31.7-19-47.6-28.5C510.9,591.5,503.4,601.2,504.1,610.5z"/>
		<path class="st3" d="M499.4,504.6c-9.5,3.2-14.9,10.6-25.2,25.1c-11.6,16.4-20.4,31-24.9,42c-0.7,1.6-0.2,3.5,1.2,4.6
			c1.8,1.4,5.4,2.5,7.4,3.4c-0.8,5.5-1.3,13.5,0.6,22.7c3.4,16.6,12.7,27.6,17.3,32.4c8.4,0.8,21.6,0.9,36.3-4.4
			c4.9-1.8,13.6-5,22.5-12.8c7.8-6.8,12.4-14.1,15-19c2.5,0.6,6.6,1,11-0.4c9.3-2.9,18.7-13.3,15.7-21.4c-2.2-6-10.9-9.9-20.8-8.3
			c0.9-3.8,1.8-9.3,1.8-15.9c0-1.6-0.3-13.7-4.6-23.2C544.5,511.3,518.7,498.1,499.4,504.6z"/>
		<path class="st11" d="M457.6,553.7c-2.1-5.4-6.4-18.7-2.3-34.4c1.4-5.3,4.2-15.4,13.6-23.6c11.3-9.9,24.6-10.4,28.4-10.4
			c2.2-2.5,6-6.1,11.6-8.4c2.2-0.9,8.3-3.1,21.6-1.2c7,1,17.6,3.4,29.6,9.6c9.3,4.9,15,10.4,18.4,14.4c15.4,18.1,9.6,34.4,25.6,48.5
			c6.2,5.5,7.9,3.8,17.2,11.6c3.3,2.8,11.6,10.2,18.8,21.6c5,7.9,17.6,27.7,14.7,52.8c-2.2,19.7-14.7,48.3-32.9,50.6
			c-19.7,2.5-24.5-28.7-63.8-43.7c-22.1-8.4-38.4-5.4-40.9-13.6c-2.7-9,14.2-22.1,28.3-31.5c2,1.3,5.9,3.5,10.4,2.8
			c9.3-1.4,15.7-14,12.4-21.6c-1.3-3.1-4-4.7-4.8-5.2c-6.7-3.9-14.2,0.1-14.8,0.4c-8.1-8.9-14-17.1-18-23.2
			c-5.4-8.3-7.9-13.7-8.8-15.6c-2.8-6.1-4.5-11.5-5.6-15.6c-5.8,0.3-13.8,1.4-22.4,4.8c-2,0.8-9,3.7-16.8,9.6c-1,0.7-5.3,4-10.2,9.4
			C462.9,546,459.8,550.3,457.6,553.7z"/>
		<g>
			<g>
				<path class="st2" d="M474.8,554.7c2.1,3.9,4.5,6.6,9,7.4c4.4,0.8,8.7-0.2,12.3-2.9c1.1-0.9,0-2.8-1.1-1.9
					c-2.8,2.1-6.1,3.1-9.6,2.8c-4.3-0.4-6.6-2.8-8.6-6.5C476,552.3,474.1,553.4,474.8,554.7L474.8,554.7z"/>
			</g>
		</g>
		<g>
			<g>
				<path class="st2" d="M477.9,541.5c7-4.1,14-2.4,20.6,1.9c1.2,0.8,2.3-1.2,1.1-1.9c-7.2-4.7-15.1-6.4-22.8-1.9
					C475.6,540.3,476.7,542.3,477.9,541.5L477.9,541.5z"/>
			</g>
		</g>
		<g>
			<g>
				<path class="st2" d="M483.7,576.2c-0.3,1.3-0.8,1.3-1.5,0c0.1-0.2,0.2-0.3,0.3-0.5c0.2-0.1,0.5-0.1,0.7,0c0.2,0.3,0.4,0.6,0.6,1
					c-0.1,0-0.1,0.1-0.1,0.2c-0.5,0-1.1,0-1.6,0c0.2-0.4,0.4-0.9,0.5-1.3c-0.6-0.1-1.1,0.6-1.1,1.1c0,0.7,0.5,1.1,1.1,1.1
					c1.3,0.1,2.1-1.7,1-2.5c-0.5-0.4-1.1-0.4-1.6,0c-0.8,0.7-0.8,2.2,0.3,2.6c0.9,0.3,2-0.4,2-1.4c0-1-0.9-1.7-1.8-1.5
					c-0.8,0.2-1.4,1-1.1,1.8C482,578.1,484.1,577.6,483.7,576.2L483.7,576.2z"/>
			</g>
		</g>
		<g>
			<g>
				<path class="st2" d="M494.4,572.5c0.1,0.5-0.6,0.8-1,0.4c-0.1-0.1-0.2-0.2-0.2-0.4c0.8-0.9,1.2-0.9,1.4,0.1
					c0.4-1.4-1.7-2-2.2-0.6c-0.3,1,0.5,2,1.5,2c1,0,1.7-0.8,1.5-1.8c-0.1-0.9-1-1.6-2-1.4c-1,0.2-1.5,1.3-1.3,2.2
					C492.6,574.5,494.8,573.9,494.4,572.5L494.4,572.5z"/>
			</g>
		</g>
		<g>
			<g>
				<path class="st2" d="M491.1,582c0.7,0,0.3,1.4-0.4,1c-0.8-0.4,0.3-1.7,0.7-0.9c-0.7-1.3-2.6-0.1-1.9,1.1
					c0.5,0.9,1.7,1.1,2.5,0.5c1-0.7,0.9-2.1-0.1-2.7c-0.9-0.6-2.2-0.2-2.5,0.9c-0.3,1.1,0.6,2.4,1.8,2.3c0.6,0,1.1-0.5,1.1-1.1
					C492.2,582.5,491.7,581.9,491.1,582L491.1,582z"/>
			</g>
		</g>
		<g>
			<g>
				<path class="st2" d="M458.6,598c7.9,0.1,15.1-2.8,20.7-8.4c1-1-0.6-2.6-1.6-1.6c-5.2,5.2-11.8,7.8-19.1,7.7
					C457.1,595.7,457.1,597.9,458.6,598L458.6,598z"/>
			</g>
		</g>
		<path class="st12" d="M516.3,517.5c1.6,11.4,3.5,20.7,4.8,27c3.6,16.9,6.2,23.7,4.8,34.4c-1.1,8.2-3.9,14.1-5.5,17.4
			c-11.6,24.2-37.3,35.4-45.4,38.6c4.5,0.4,9.9,0.5,15.8,0c10.8-1,19.7-3.8,26.1-6.4c2.4,2.4,5.4,5,9,7.4c9.7,6.4,19.3,8.5,25.4,9.3
			c2.4-1.6,4.7-3.2,7.1-4.8c4.7,2,11.6,5.3,19.2,10.7c22.8,16.1,28.3,33.9,42.1,33.3c6.9-0.3,13.3-4.9,14.7-6
			c3.7-2.8,6.4-6.1,9.4-11.3c3.8-6.6,11.2-19.7,11.5-38.6c0.2-11.7-2.5-21.4-5-28c-22.6,28.1-56.6,37.5-80.3,25.7
			c-15.9-7.9-23.1-23.3-25.8-30.3c8.4,4.5,18.1,2.2,22.5-4.2c3.3-4.8,4.4-13.2-1-18.3c-4.3-4.2-11.3-4.9-17.1-1.6
			c-5.3-5.5-11.1-12.6-16.7-21.2C524.2,538.4,519.3,526.7,516.3,517.5z"/>
	</g>
	<g id="hand_left">
		<path class="st3" d="M321.7,502.2c12.2-0.6,21.9,7.6,25.1,10.3c0.8,0.7,3.2,2.6,8.8,9.8c5.4,7,8,12.5,15.5,22.2
			c7.7,10,15.3,15.6,30.4,26.8c13.8,10.3,24.7,16.1,40.3,24.5c25.4,13.5,45.7,24.4,74.2,32.8c17.6,5.2,21.5,4.4,36.5,10.4
			c19.4,7.7,38.7,15.4,41.9,31.4c1.8,8.8-1.4,19.7-8.8,25.3c-7,5.3-17.5,5.8-46.4-4.6c-48.7-17.5-84-42.1-102.2-55.7
			c-5.2-3.9-12.2-9.7-26.3-21.2c-24.5-20-44.2-36.7-57.4-48.2c-3.3-0.7-10.1-2.1-18.9-3.9c-13.8-2.8-17.7-3.5-22.8-6.3
			c-7.2-3.9-15.5-10.9-14.2-14.2c1.7-4.2,18.8-0.6,21.6-0.1c-1.6-2.5-4.1-5.7-7.8-8.9c-8.6-7.4-14.8-6.7-15.9-10.5
			C293.6,516,307,502.9,321.7,502.2z"/>
		<g>
			<g>
				<path class="st2" d="M296.9,517.5c8.9,0.1,15.4,5.9,21.5,11.6c1.1,1,2.6-0.6,1.6-1.6c-6.6-6.2-13.7-12.2-23.1-12.3
					C295.5,515.3,295.5,517.5,296.9,517.5L296.9,517.5z"/>
			</g>
		</g>
		<g>
			<g>
				<path class="st2" d="M303.2,510.7c8.9,0.3,16.7,4.1,22.5,10.9c0.9,1.1,2.5-0.5,1.6-1.6c-6.1-7.2-14.7-11.2-24.1-11.5
					C301.7,508.4,301.7,510.6,303.2,510.7L303.2,510.7z"/>
			</g>
		</g>
		<g>
			<g>
				<path class="st2" d="M316.4,504.4c6.3,1.5,11.8,4.9,15.9,9.9c0.9,1.1,2.5-0.5,1.6-1.6c-4.4-5.3-10.2-8.9-16.9-10.5
					C315.6,501.9,315,504.1,316.4,504.4L316.4,504.4z"/>
			</g>
		</g>
		<path class="st13" d="M296.7,516.2c2.4-1.9,7.5,1,11.9,3.6c5.7,3.3,9.5,6.5,10.8,7.5l0,0l0,0c2.6,1.7,4.3,4.7,4.3,4.7
			c2.4,3.9,14.4,8.4,14.4,8.4c5.9,2.2,8.8,6.1,24.9,19.5c18,14.9,30.8,27.5,33.9,30.5c27.3,26.1,83,58.1,141.5,72
			c25,5.9,54,9.5,55.2,20.4c0.6,5.9-6.9,11.7-11.9,14.3c-5.4,2.9-19.2,8-74.7-19.1c-15.9-7.8-33.3-16.3-55.4-31.5
			c-9.2-6.3-15.7-11.4-47.4-37.7c-13.5-11.2-30.7-25.5-50.8-42.4c-10.6-1.6-43.3-7-53.7-19.2c-1-1.2-3.4-4-2.5-5.8
			c1.5-3.3,12.6-1.3,22.1,1c-3.7-6.1-7.7-9.5-10.5-11.6c-6.3-4.5-12.3-5.6-13.1-10.2C295.3,519.1,295.5,517.1,296.7,516.2z"/>
		<path class="st4" d="M297.8,542.2c4.2,2.3,8.8,4.6,13.8,6.8c16.5,7.2,32.1,10.5,44.9,12c2.4,1.8,6.2,4.6,10.8,8.2
			c17.4,13.9,29,25.7,31.5,28.3c15.8,15.8,51.3,41.2,88.1,59.7c23.1,11.6,57.6,26.1,102.6,34.6c-1.2,1.8-3.6,4.8-7.6,6.4
			c-2.2,0.9-4.6,1.3-10.1,0.9c-8.8-0.6-14.5-2.3-14.5-2.3c-27.3-8.1-55.4-22.1-55.4-22.1c-17-8.4-25.5-12.6-35.4-18.9
			c-15.2-9.5-25.6-18.1-31.5-23c-21.3-17.6-48.8-40.1-81.9-67.3c-10.6-1.3-19.3-3.2-25.8-4.8c-18-4.5-23.5-8.3-26.8-13.3
			C298.9,545.4,298.2,543.4,297.8,542.2z"/>
	</g>
</g>
</svg>
