<?xml version="1.0" encoding="iso-8859-1"?>
<!-- Generator: Adobe Illustrator 21.0.0, SVG Export Plug-In . SVG Version: 6.00 Build 0)  -->
<svg version="1.1" id="Capa_1" xmlns="http://www.w3.org/2000/svg" xmlns:xlink="http://www.w3.org/1999/xlink" x="0px" y="0px"
	 viewBox="0 0 512 512" style="enable-background:new 0 0 512 512;" xml:space="preserve">
<path style="fill:#6EB585;" d="M512,256c0,23.165-3.082,45.62-8.85,66.957c-0.888,3.291-1.839,6.541-2.853,9.77
	c-4.639,14.817-10.606,29.059-17.732,42.58c-1.536,2.884-3.114,5.747-4.744,8.568c-17.136,29.654-40.04,55.557-67.197,76.163
	c-39.56,30.03-88.106,48.818-140.905,51.597c-4.545,0.24-9.122,0.366-13.72,0.366c-4.598,0-9.174-0.125-13.72-0.366
	c-43.353-2.288-83.843-15.36-118.847-36.592C49.434,430.164,0,348.86,0,256C0,114.615,114.615,0,256,0S512,114.615,512,256z"/>
<path style="fill:#C6C6C6;" d="M113.876,0.001l276.347,243.084c0,0-148.374,85.315-237.399-3.709S113.876,0.001,113.876,0.001z"/>
<path style="fill:#D8D8D8;" d="M22.997,0.001l276.347,243.084c0,0-148.374,85.315-237.399-3.709S22.997,0.001,22.997,0.001z"/>
<path style="fill:#F9B7D2;" d="M211.167,214.82L48.17,75.332c0,0-45.333,152.147,119.112,189.64L211.167,214.82z"/>
<path style="fill:#D8D8D8;" d="M410.624,280.054v179.984c-39.56,30.03-88.106,48.818-140.905,51.597h-27.439
	c-43.353-2.288-83.843-15.36-118.847-36.592V280.054c0-79.308,64.293-143.6,143.6-143.6
	C346.331,136.453,410.624,200.746,410.624,280.054z"/>
<path style="fill:#C6C6C6;" d="M290.764,138.407c-68.012,11.316-119.86,70.426-119.86,141.646v217.454
	c-16.687-5.872-32.569-13.427-47.47-22.465V280.054c0-79.308,64.293-143.6,143.6-143.6
	C275.111,136.453,283.042,137.122,290.764,138.407z"/>
<ellipse style="fill:#3C363F;" cx="357.919" cy="239.323" rx="20.431" ry="31.799"/>
<ellipse style="fill:#5C5560;" cx="365.16" cy="236.638" rx="6.669" ry="16.226"/>
<ellipse style="fill:#3C363F;" cx="272.896" cy="239.323" rx="20.431" ry="31.799"/>
<ellipse style="fill:#5C5560;" cx="280.127" cy="236.638" rx="6.669" ry="16.226"/>
<circle style="fill:#3C363F;" cx="331.724" cy="302.467" r="33.35"/>
<circle style="fill:#C6C6C6;" cx="331.724" cy="369.162" r="33.35"/>
<g>
	<path style="fill:#BA4C20;" d="M407.146,316.915c-1.837,0-3.596-1.041-4.426-2.814c-1.144-2.443-0.091-5.35,2.351-6.494
		l73.488-34.418c2.442-1.144,5.35-0.091,6.494,2.352c1.144,2.443,0.091,5.35-2.351,6.494l-73.488,34.418
		C408.544,316.766,407.839,316.915,407.146,316.915z"/>
	<path style="fill:#BA4C20;" d="M482.565,375.306c-1.536,2.884-3.114,5.747-4.744,8.568l-65.776-30.804
		c-2.435-1.149-3.49-4.054-2.351-6.499c1.149-2.435,4.054-3.49,6.499-2.351L482.565,375.306z"/>
	<path style="fill:#BA4C20;" d="M503.15,322.957c-0.888,3.291-1.839,6.541-2.853,9.77h-79.203c-2.696,0-4.88-2.184-4.88-4.88
		c0-2.696,2.184-4.89,4.88-4.89H503.15z"/>
</g>
<path style="fill:#FFFFFF;" d="M382.544,274.401c-21.405,0-40.182,11.208-50.817,28.065c-10.635-16.857-29.412-28.065-50.817-28.065
	c-33.168,0-60.057,26.888-60.057,60.057s26.888,60.057,60.057,60.057c21.405,0,40.182-11.208,50.817-28.065
	c10.635,16.857,29.412,28.065,50.817,28.065c33.168,0,60.057-26.888,60.057-60.057C442.601,301.288,415.713,274.401,382.544,274.401
	z"/>
<g>
	<path style="fill:#EAEAEA;" d="M255.018,334.456c0-27.22,18.114-50.197,42.942-57.568c-5.407-1.601-11.122-2.489-17.05-2.489
		c-33.168,0-60.057,26.888-60.057,60.057s26.888,60.057,60.057,60.057c5.928,0,11.642-0.887,17.05-2.488
		C273.133,384.654,255.018,361.677,255.018,334.456z"/>
	<path style="fill:#EAEAEA;" d="M356.652,334.456c0-27.22,18.114-50.197,42.942-57.568c-5.407-1.601-11.122-2.489-17.05-2.489
		c-21.405,0-40.182,11.208-50.817,28.065v63.983l0,0c10.635,16.857,29.412,28.065,50.817,28.065c5.928,0,11.642-0.887,17.05-2.488
		C374.766,384.654,356.652,361.677,356.652,334.456z"/>
</g>
<g>
	<path style="fill:#BA4C20;" d="M277.141,316.915c-0.694,0-1.398-0.148-2.068-0.462l-73.488-34.418
		c-2.443-1.144-3.495-4.051-2.351-6.494c1.144-2.442,4.052-3.495,6.494-2.352l73.488,34.418c2.443,1.144,3.495,4.051,2.351,6.494
		C280.738,315.875,278.978,316.915,277.141,316.915z"/>
	<path style="fill:#BA4C20;" d="M196.683,387.95c-1.837,0-3.595-1.041-4.426-2.814c-1.144-2.443-0.091-5.35,2.351-6.494
		l73.488-34.418c2.443-1.144,5.35-0.091,6.494,2.352c1.144,2.443,0.091,5.35-2.351,6.494l-73.488,34.418
		C198.081,387.801,197.377,387.95,196.683,387.95z"/>
	<path style="fill:#BA4C20;" d="M263.192,332.728h-83.72c-2.697,0-4.884-2.186-4.884-4.884c0-2.697,2.186-4.884,4.884-4.884h83.72
		c2.697,0,4.884,2.186,4.884,4.884S265.889,332.728,263.192,332.728z"/>
</g>
<g>
</g>
<g>
</g>
<g>
</g>
<g>
</g>
<g>
</g>
<g>
</g>
<g>
</g>
<g>
</g>
<g>
</g>
<g>
</g>
<g>
</g>
<g>
</g>
<g>
</g>
<g>
</g>
<g>
</g>
</svg>
