<?xml version="1.0" encoding="utf-8"?>
<!-- Generator: Adobe Illustrator 21.0.0, SVG Export Plug-In . SVG Version: 6.00 Build 0)  -->
<svg version="1.1" id="Camada_1" xmlns="http://www.w3.org/2000/svg" xmlns:xlink="http://www.w3.org/1999/xlink" x="0px" y="0px"
	 viewBox="0 0 1282.4 1052.2" style="enable-background:new 0 0 1282.4 1052.2;" xml:space="preserve">
<style type="text/css">
	.st0{fill:#EC615B;}
	.st1{fill:#5222D0;}
	.st2{fill:#E8E8E8;}
	.st3{fill:#FFFFFF;}
	.st4{fill:#161616;}
	.st5{opacity:0.12;fill:#3F3F3F;enable-background:new    ;}
	.st6{opacity:0.13;fill:#3F3F3F;enable-background:new    ;}
	.st7{fill:#C64F4F;}
	.st8{opacity:0.19;fill:#3F3F3F;enable-background:new    ;}
	.st9{opacity:0.11;fill:#3F3F3F;enable-background:new    ;}
	.st10{opacity:0.1;fill:#3F3F3F;enable-background:new    ;}
	.st11{opacity:0.14;fill:#3F3F3F;enable-background:new    ;}
	.st12{opacity:0.2;fill:#3F3F3F;enable-background:new    ;}
	.st13{opacity:0.16;fill:#3F3F3F;enable-background:new    ;}
</style>
<g id="background">
	<g id="details">
		<circle class="st0" cx="887.5" cy="221.9" r="16.3"/>
		<circle class="st0" cx="904.8" cy="185.4" r="7.6"/>
		<circle class="st0" cx="406.5" cy="86.3" r="7.8"/>
		<circle class="st0" cx="916.9" cy="993.8" r="13.2"/>
		<circle class="st0" cx="316.2" cy="1046.1" r="6.1"/>
		<circle class="st0" cx="392.4" cy="595.3" r="6.3"/>
		<circle class="st1" cx="404.8" cy="627.6" r="6.1"/>
		<circle class="st1" cx="397.5" cy="792.3" r="11.4"/>
		<circle class="st1" cx="878.4" cy="148.6" r="7.2"/>
		<circle class="st1" cx="604.5" cy="162.1" r="6.3"/>
		<circle class="st1" cx="42.8" cy="656.4" r="4.8"/>
		<circle class="st1" cx="900.2" cy="1028" r="12"/>
		<circle class="st1" cx="1028.7" cy="6.3" r="6.3"/>
		<g>
			<g>
				<path class="st1" d="M416.6,289.5c-1-6.2-1.9-18.6,8-17.6c3.6,0.4,5.6,3.6,9.6,2.2c7.5-2.6,5.8-12.3,8.9-17.9
					c5.1-9,15,4.1,22.6-0.2c2.5-1.4,3.1-4,3-6.7c-0.2-10.1,8.7-9.4,16-7.4c1.9,0.5,2.7-2.4,0.8-2.9c-7.4-2-19.7-2.7-20,8
					c-0.1,2.6,1.3,5.2-2.5,6.8c-1.2,0.5-3.2-0.1-4.3-0.4c-2.6-0.8-4.9-2.6-7.6-3.3c-3.5-1-6.9-0.3-9.3,2.5c-3,3.6-2.9,8.5-4.3,12.7
					c-1.5,4.5-4.4,7.1-9.3,4.9c-2-0.9-3.8-1.7-6.1-1.4c-10.3,1.4-9.8,13.9-8.5,21.5C414,292.2,416.9,291.4,416.6,289.5L416.6,289.5z
					"/>
			</g>
		</g>
		<g>
			<g>
				<path class="st1" d="M428.4,295.3c0.8-6.2,5.8-8.9,11.6-8.9c3.1,0,6.2,0.5,9.2-0.6c6.8-2.6,5.5-10,7.1-15.8
					c3-11,16.9-4.2,24.6-6c5.2-1.3,9.6-6.5,7.4-12c-0.7-1.8-3.6-1-2.9,0.8c3.4,8.3-8.2,8.8-13.1,8.2c-3.6-0.4-7.1-1-10.7-0.1
					c-5.7,1.5-7.9,5.7-8.7,11.1c-0.7,5-0.6,10.5-7.1,11.3c-3.5,0.4-7-0.6-10.5,0.2c-5.6,1.3-9.2,6-9.9,11.6
					C425.1,297.2,428.1,297.2,428.4,295.3L428.4,295.3z"/>
			</g>
		</g>
		<g>
			<g>
				<path class="st1" d="M635,49.7c-3.5,4.4-7.2,9.8-5.5,15.7c1.4,4.8,5.2,6.6,9.8,6.3c2.7-0.2,5.5-0.9,7.7,1.5
					c1.7,1.8,0.6,5.6,0.1,7.6c-0.8,3.1-2.3,6.1-2,9.4c0.5,4.5,4.1,8,8.7,7c1.9-0.4,1.1-3.3-0.8-2.9c-8.7,2-2.7-12.5-2.3-16
					c0.3-2.9-0.2-6.1-2.4-8.2c-2.2-2.1-4.9-1.9-7.7-1.6c-4.4,0.5-8.5-0.9-8.7-6.2c-0.1-4,2.7-7.6,5.1-10.6
					C638.4,50.4,636.2,48.2,635,49.7L635,49.7z"/>
			</g>
		</g>
		<g>
			<g>
				<path class="st1" d="M658.6,48.2c-4.7,2-7.7,6.9-6.5,12c0.6,2.3,2,4.5,4,5.9c2.4,1.8,5.2,1.4,7.6,2.9c4.5,2.7,0.9,8,1.1,12.2
					c0.1,2.1,0.6,4,2.4,5.3c2.7,2.1,6.7,1.4,7.8-2c0.6-1.8-2.3-2.6-2.9-0.8c-3.8-0.5-5.1-2.2-4-5.1c0.2-1,0.4-2,0.6-3
					c0.2-1,0.3-2,0.3-3c0-2.1-0.6-4.3-2.2-5.8c-2.4-2.2-6.1-1.3-8.7-3.1c-5.3-3.7-3.4-10.7,2-13C661.9,50,660.3,47.5,658.6,48.2
					L658.6,48.2z"/>
			</g>
		</g>
		<g>
			<g>
				<path class="st0" d="M4.7,639.3c-2.3-3.6-2.3-8,0-11.7c2.3-3.6,5.5-3.7,9.2-5.1c5.1-2.1,5.2-7.4,4.9-12.2
					c-0.1-1.7-0.2-3.5,0.3-5.2c1.3-4,4.7-2.9,7.8-2.4c1.8,0.3,3.5,0,5-1c1.9-1.3,3.1-3.6,3.7-5.8c0.5-1.8,0.6-3.7,1-5.5
					c0.2-1.3,0.6-2.5,1.2-3.6c1.6-2.5,3.5-2.7,5.8-0.5c0.5,1.9,3.4,1.1,2.9-0.8c-1.8-6.5-9.8-3.6-11.8,1c-0.9,2.1-1,4.4-1.5,6.6
					c-0.3,1.3-0.5,2.7-1.2,3.9c-1.5,2.7-4.3,2.2-6.9,1.9c-3.1-0.3-5.5-0.6-7.5,2.3c-2.3,3.3-1.7,7.2-1.7,11c0.1,4.6-0.9,6.4-5.4,7.9
					c-1.8,0.6-3.3,0.9-4.9,2.1c-5.8,4.1-7.3,12.6-3.5,18.5C3.1,642.4,5.7,640.9,4.7,639.3L4.7,639.3z"/>
			</g>
		</g>
		<g>
			<g>
				<path class="st0" d="M17.2,646.2c-4.2-0.6-2.6-5.2-0.7-7c1.4-1.3,3.3-2.1,5.1-3c2.2-1.1,4.4-2.4,6-4.3
					c4.3-5.4-1.9-12.6,4.1-16.9c6-4.2,22.1-6.1,17.4-17.3c-0.7-1.8-3.3-0.2-2.6,1.5c3.4,8.1-13.1,10.5-17.3,13.9
					c-1.5,1.2-2.8,2.8-3.4,4.7c-1.2,4.2,2.3,8.5-0.8,12.5c-3.6,4.4-11.3,4.4-13.1,10.6c-1.1,3.5,0.8,7.7,4.6,8.3
					C18.3,649.4,19.1,646.5,17.2,646.2L17.2,646.2z"/>
			</g>
		</g>
		<g>
			<g>
				<path class="st0" d="M1113.4,413.8c-1.3-2.3-1.1-4.8,0.3-7c2.2-3.2,4.8-2.5,8.2-2.2c2.3,0.2,4.4,0.7,6.6-0.6
					c3.9-2.4,3.3-7.4,4-11.2c1.6-8.9,9.3-0.8,14.5-3.6c1.9-1,2.6-2.9,3-4.9c0.7-3.9,0.9-15.5,8.4-10.8c1.6,1,3.2-1.6,1.5-2.6
					c-6.7-4.1-12.1,2.7-12.7,9c-0.4,3.6,0,7.1-4.8,6.6c-1.7-0.2-3.4-1.1-5.1-1.3c-2.7-0.3-5.1,0.5-6.6,2.9c-1.7,2.8-1.1,6.3-1.8,9.3
					c-1.5,6.8-7.3,3-12,3.8c-6.3,1.1-9.2,8.7-6.2,14C1111.7,417,1114.3,415.5,1113.4,413.8L1113.4,413.8z"/>
			</g>
		</g>
		<g>
			<g>
				<path class="st0" d="M1128.3,420.1c-1.7-4.6,3.6-9.7,8.2-7.3c0.6,0.3,1.4,0.3,1.8-0.2c2.3-2.5,2.9-5.4,3.9-8.6
					c1.8-5.8,6.1-6.6,11.3-8.2c5.1-1.6,10.8-5.8,8.7-11.8c-0.7-1.8-3.6-1-2.9,0.8c2.9,7.9-11.3,8.5-15.5,11.4
					c-5.1,3.6-3.6,10.1-7.5,14.3c0.6-0.1,1.2-0.2,1.8-0.2c-6.7-3.5-15.2,3.4-12.6,10.7C1126.1,422.7,1129,422,1128.3,420.1
					L1128.3,420.1z"/>
			</g>
		</g>
		<g>
			<g>
				<path class="st0" d="M724.4,446.3c0.2,0,2.4,5.4,3.3,6.1c1.4,1.1,3.1,1.2,4.8,0.9c3-0.5,4.9-2.7,7.5-4.1
					c5.6-3.2,5.6,2.3,7.8,5.4c2.5,3.7,5.2,1.9,8.1,0.1c1.9-1.2,3.7-2,5.4-0.3c0.9,0.9,1.5,2.4,2.2,3.5c1.1,1.6,2.3,2.9,4.1,3.7
					c1.7,0.8,3.3-1.8,1.5-2.6c-4.1-1.8-4.6-8.6-9.5-9.3c-2.3-0.3-3.3,1-5.1,2c-2.2,1.3-3.5,2.2-4.9-0.3c-0.6-1-0.7-2.4-1.4-3.4
					c-3.2-5.3-8.2-2.4-12.2,0.2c-0.7,0.5-1.4,1-2.2,1.4c-1.7-0.5-3.5-1-5.2-1.5c-0.7-0.7-0.7-2.4-1.3-3.3c-1-1.4-2-1.8-3.6-1.5
					C721.7,443.7,722.5,446.6,724.4,446.3L724.4,446.3z"/>
			</g>
		</g>
		<g>
			<g>
				<path class="st0" d="M747.9,436.7c3-4.7,9.9,5.1,12.7,6.3c1.7,0.7,3.3,0.7,5.1,0.2c0.8-0.2,1.5-0.6,2.2-0.9
					c2.7-1.1,5-0.4,7.2,1.5c3.2,2.7,4.1,6.3,8.7,7.3c2.7,0.6,5.2-0.2,6.4-2.8c0.8-1.7-1.8-3.3-2.6-1.5c-2.8,6-10.5-5.8-12.5-7.1
					c-3.7-2.4-6-0.4-9.7,0.4c-5.9,1.2-7.8-5.4-12.7-7c-2.9-1-5.7-0.5-7.3,2.2C744.2,436.9,746.8,438.4,747.9,436.7L747.9,436.7z"/>
			</g>
		</g>
	</g>
	<g id="background_grey">
		<g>
			<g>
				<path class="st2" d="M1121.6,611.5c53.1,0,106.2,0,159.4,0c1.9,0,1.9-3,0-3c-53.1,0-106.2,0-159.4,0
					C1119.7,608.5,1119.7,611.5,1121.6,611.5L1121.6,611.5z"/>
			</g>
		</g>
		<g>
			<g>
				<path class="st2" d="M1165.1,610.8c0,15.5,0,30.9,0,46.4c0,1.9,3,1.9,3,0c0-15.5,0-30.9,0-46.4
					C1168.1,608.9,1165.1,608.9,1165.1,610.8L1165.1,610.8z"/>
			</g>
		</g>
		<g>
			<g>
				<path class="st2" d="M1239.3,609.3c0-21.6,0-43.2,0-64.8c0-1.9-3-1.9-3,0c0,21.6,0,43.2,0,64.8
					C1236.3,611.3,1239.3,611.3,1239.3,609.3L1239.3,609.3z"/>
			</g>
		</g>
		<g>
			<g>
				<path class="st2" d="M1204,545.7c20.1,0,40.2,0,60.3,0c1.9,0,1.9-3,0-3c-20.1,0-40.2,0-60.3,0
					C1202.1,542.7,1202.1,545.7,1204,545.7L1204,545.7z"/>
			</g>
		</g>
		<g>
			<g>
				<path class="st2" d="M1164.5,185.6c0,18.7,0,37.4,0,56c0,1.9,3,1.9,3,0c0-18.7,0-37.4,0-56
					C1167.5,183.7,1164.5,183.7,1164.5,185.6L1164.5,185.6z"/>
			</g>
		</g>
		<g>
			<g>
				<path class="st2" d="M1117.8,245.9c36.1,0,72.1,0,108.2,0c1.9,0,1.9-3,0-3c-36.1,0-72.1,0-108.2,0
					C1115.8,242.9,1115.8,245.9,1117.8,245.9L1117.8,245.9z"/>
			</g>
		</g>
		<g>
			<g>
				<path class="st2" d="M1225,245.5c0,12.4,0,24.8,0,37.2c0,1.9,3,1.9,3,0c0-12.4,0-24.8,0-37.2C1228,243.6,1225,243.6,1225,245.5
					L1225,245.5z"/>
			</g>
		</g>
		<g>
			<g>
				<path class="st2" d="M220.7,127.3c35.3,0,70.7,0,106,0c1.9,0,1.9-3,0-3c-35.3,0-70.7,0-106,0
					C218.8,124.3,218.7,127.3,220.7,127.3L220.7,127.3z"/>
			</g>
		</g>
		<g>
			<g>
				<path class="st2" d="M322.3,127c0,9.6,0,19.2,0,28.8c0,1.9,3,1.9,3,0c0-9.6,0-19.2,0-28.8C325.3,125,322.3,125,322.3,127
					L322.3,127z"/>
			</g>
		</g>
		<g>
			<g>
				<path class="st2" d="M290.2,124.6c0-15.4,0-30.7,0-46.1c0-1.9-3-1.9-3,0c0,15.4,0,30.7,0,46.1
					C287.2,126.6,290.2,126.6,290.2,124.6L290.2,124.6z"/>
			</g>
		</g>
		<g>
			<g>
				<path class="st2" d="M11,435.5c24.4,0,48.8,0,73.2,0c1.9,0,1.9-3,0-3c-24.4,0-48.8,0-73.2,0C9.1,432.5,9.1,435.5,11,435.5
					L11,435.5z"/>
			</g>
		</g>
		<g>
			<g>
				<path class="st2" d="M55.7,405.4c0,9,0,18,0,27c0,1.9,3,1.9,3,0c0-9,0-18,0-27C58.7,403.5,55.7,403.5,55.7,405.4L55.7,405.4z"/>
			</g>
		</g>
		<g>
			<g>
				<path class="st2" d="M38.1,406.9c13,0,26,0,39,0c1.9,0,1.9-3,0-3c-13,0-26,0-39,0C36.1,403.9,36.1,406.9,38.1,406.9L38.1,406.9z
					"/>
			</g>
		</g>
		<g>
			<g>
				<path class="st2" d="M478.5,1037.4c32.6,0,65.2,0,97.8,0c1.9,0,1.9-3,0-3c-32.6,0-65.2,0-97.8,0
					C476.5,1034.4,476.5,1037.4,478.5,1037.4L478.5,1037.4z"/>
			</g>
		</g>
		<g>
			<g>
				<path class="st2" d="M538.7,1034.4c0-7,0-14,0-21.1c0-1.9-3-1.9-3,0c0,7,0,14,0,21.1C535.7,1036.4,538.7,1036.4,538.7,1034.4
					L538.7,1034.4z"/>
			</g>
		</g>
		<g>
			<g>
				<path class="st2" d="M529.6,1013.4c13.5,0,27.1,0,40.6,0c1.9,0,1.9-3,0-3c-13.5,0-27.1,0-40.6,0
					C527.7,1010.4,527.7,1013.4,529.6,1013.4L529.6,1013.4z"/>
			</g>
		</g>
		<g>
			<g>
				<path class="st2" d="M13.3,984.8c32.6,0,65.2,0,97.8,0c1.9,0,1.9-3,0-3c-32.6,0-65.2,0-97.8,0C11.4,981.8,11.4,984.8,13.3,984.8
					L13.3,984.8z"/>
			</g>
		</g>
		<g>
			<g>
				<path class="st2" d="M58.5,945.6c0,11.5,0,23.1,0,34.6c0,1.9,3,1.9,3,0c0-11.5,0-23.1,0-34.6C61.5,943.7,58.5,943.7,58.5,945.6
					L58.5,945.6z"/>
			</g>
		</g>
		<g>
			<g>
				<path class="st2" d="M58.5,941.1c-13,0-26.1,0-39.1,0c-1.9,0-1.9,3,0,3c13,0,26.1,0,39.1,0C60.4,944.1,60.4,941.1,58.5,941.1
					L58.5,941.1z"/>
			</g>
		</g>
		<g>
			<g>
				<path class="st2" d="M1100.4,896.8c-3.3-3.3-2.5-9.7,2.6-10.8c2.7-0.6,5.3,1.1,7.9,1.4c2,0.3,4.1,0.1,5.4-1.7
					c2-2.6,0.4-5.6,0.3-8.5c-0.2-9.1,10.6-8.5,16-5.3c1.2,0.7,2.5-0.5,2.2-1.7c-2.6-12.5,11.7-21.1,21.5-12.8
					c1.5,1.2,3.6-0.9,2.1-2.1c-12.1-10.2-29.8,0.2-26.5,15.8c0.7-0.6,1.5-1.1,2.2-1.7c-4.6-2.8-10.5-4.2-15.4-1.1
					c-1.8,1.1-3.4,2.8-4.2,4.8c-0.6,1.4-0.9,2.7-0.8,4.2c0.1,2.7,1,2.5-1,5.1c-2.2,2.9-2.4,1.6-5.5,0.9c-1.1-0.3-2.1-0.5-3.3-0.4
					c-2.5,0.1-4.8,1.3-6.4,3.1c-3.5,3.9-2.6,9.4,0.9,12.9C1099.7,900.3,1101.8,898.2,1100.4,896.8L1100.4,896.8z"/>
			</g>
		</g>
		<g>
			<g>
				<path class="st2" d="M1119.9,899.8c-1.1-9.1,13.8-9.2,18-15.5c1.1-1.6,1.5-3.4,2.2-5.1c1.3-3.1,3.6-5.1,7-6
					c5.5-1.4,11.2,1.1,16.2,3.2c1.8,0.7,2.6-2.2,0.8-2.9c-9.2-3.8-21.6-6.7-26.7,4.5c-1.8,4-2.4,6.2-6.6,8.3
					c-2.5,1.2-5.1,1.9-7.5,3.3c-3.8,2.2-6.8,5.6-6.3,10.2C1117.2,901.7,1120.2,901.7,1119.9,899.8L1119.9,899.8z"/>
			</g>
		</g>
		<g>
			<g>
				<path class="st2" d="M689.8,609c2,5,4,10.1,6,15.1c0.2-0.6,0.5-1.1,0.7-1.7c-1.1,0.7-2.2,1.4-3.3,2.2c-1.7-4-1-5,2.2-3.2
					c1.9,1.2,2.8,3.8,3.2,5.9c0.9,4.8-0.1,9.8-1.7,14.4c-0.4,1.2,0.8,2,1.8,1.8c6-1.2,8.4,6,7.2,10.5c-0.9,3.3-2.7,6.2-4.5,9.1
					c-1,1.6,1.6,3.1,2.6,1.5c3.2-5,6.9-11.2,4.7-17.4c-1.7-4.6-5.9-7.5-10.8-6.6c0.6,0.6,1.2,1.2,1.8,1.8c2-5.8,3.3-13.1,0.8-19
					c-1.7-3.9-5.6-6.9-10-5.6c-3.4,1-5.1,4.4-3.5,7.7c2.7,5.5,7.4,1.8,10.9-0.5c0.5-0.3,0.9-1.1,0.7-1.7c-2-5-4-10.1-6-15.1
					C692,606.5,689.1,607.2,689.8,609L689.8,609z"/>
			</g>
		</g>
		<g>
			<g>
				<path class="st2" d="M98.4,135.9c-1.9-4.8,4.5-6.1,7.5-4.4c2.3,1.3,3.8,3.6,5.2,5.7c1.3,1.9,2.7,4,3.4,6.2
					c0.8,1.9,0.7,3.7-0.3,5.5c-3.5,1.6-5.3,1.2-5.4-1.1c-0.9-3.3,2.6-5.5,5.6-5.4c3.1,0.1,6,1.9,8.1,4.1c3.6,3.8,4.9,8.8,4.4,13.9
					c0.9-0.3,1.9-0.5,2.8-0.8c-2-2.9-0.1-6,2.6-7.5c2.3-1.2,4.9-0.9,7.1,0.3c3.6,1.9,6.1,5.4,8.4,8.6c1.1,1.6,3.7,0.1,2.6-1.5
					c-3.8-5.3-9.5-12.7-17-11c-5.5,1.2-9.9,7.6-6.3,12.6c0.9,1.3,2.6,0.7,2.8-0.8c0.9-9.5-6.1-22.5-17.3-20.9
					c-4,0.6-6.9,3.4-6.9,7.5c0,3.2,2,6.5,5.4,6.7c4,0.3,6.7-3.6,6.9-7.2c0.3-5-3.6-10.4-6.6-14.1c-2.8-3.3-6.9-6.1-11.3-4.4
					c-3.6,1.3-6,4.9-4.5,8.6C96.2,138.5,99.1,137.7,98.4,135.9L98.4,135.9z"/>
			</g>
		</g>
		<g>
			<g>
				<path class="st2" d="M625.2,282.6c-4.2-2.5-1.2-9.9,3.5-6.8c4.5,3-1.5,8.1-4.4,4.6c-1.2-1.5-3.3,0.6-2.1,2.1
					c2.3,2.8,6.7,2.6,9.3,0.3c3-2.7,2.2-7.1-0.9-9.3c-3.1-2.2-7.6-1.8-9.5,1.8c-1.9,3.4-0.6,8,2.7,9.9
					C625.3,286.1,626.8,283.6,625.2,282.6L625.2,282.6z"/>
			</g>
		</g>
		<g>
			<g>
				<path class="st2" d="M943.8,63.9c-2.2-3.1,1.6-7.8,5.1-6.4c-0.3-0.2-0.6-0.5-0.9-0.7c1.9,3.3-0.9,7.8-4.6,7.6
					c0.5,0.4,1,0.7,1.4,1.1c-0.6-1.7-1.3-3.5-1.9-5.2c-0.7-1.8-3.6-1-2.9,0.8c0.6,1.7,1.3,3.5,1.9,5.2c0.2,0.7,0.7,1.1,1.4,1.1
					c3.2,0.2,6-1.8,7.4-4.6c1.1-2.2,1.7-6.8-1-8.2c-5.9-2.9-12,5.9-8.5,10.8C942.3,67,944.9,65.5,943.8,63.9L943.8,63.9z"/>
			</g>
		</g>
		<g>
			<g>
				<path class="st2" d="M1025.2,212.6c-0.5-2.3,1.2-4.8,3.5-5.3c2.1-0.4,4,1.3,4.5,3.2c1.3,4.5-4.6,6.6-7.4,3.5
					c-1.3-1.4-3.4,0.7-2.1,2.1c5.2,5.8,15.2,0.1,12-7.3c-1.4-3.3-4.9-5.4-8.4-4.3c-3.7,1.2-5.9,5.1-5.1,8.9
					C1022.8,215.3,1025.7,214.5,1025.2,212.6L1025.2,212.6z"/>
			</g>
		</g>
		<g>
			<g>
				<path class="st2" d="M700.6,1040.3c-3.8-1.8-3.5-7,0-9c3.4-1.9,6.6-0.2,9.7,1.2c2.6,1.2,5.6,2.3,7.9,0c2.1-2,1.7-5.1,1.8-7.7
					c0.4-10.1,10.2-8.1,16.9-5.6c1.8,0.7,2.6-2.2,0.8-2.9c-5.9-2.3-14.1-4.5-18.8,1.3c-1.4,1.7-1.8,3.7-1.9,5.8
					c-0.1,1.4,0.5,4.5-0.3,5.8c-2.2,3.3-5.2,0.3-7.5-0.7c-4.4-1.9-10.7-1.4-13.4,3.2c-2.3,3.9-0.9,9.2,3.2,11.1
					C700.8,1043.7,702.3,1041.1,700.6,1040.3L700.6,1040.3z"/>
			</g>
		</g>
	</g>
	<g id="flower">
		<g>
			<g>
				<path class="st2" d="M749,804.6c-3,36.7-1.4,73.5,4.8,109.8c0.3,1.9,3.2,1.1,2.9-0.8c-6.1-36-7.7-72.6-4.7-109
					C752.2,802.7,749.2,802.7,749,804.6L749,804.6z"/>
			</g>
		</g>
		<g>
			<g>
				<path class="st2" d="M751,806.9c15.6,5.4,31.7,9,48.1,10.8c15.4,1.6,33.1,3.3,47.9-2.5c1.8-0.7,1-3.6-0.8-2.9
					c-14.4,5.7-31.9,4-47.1,2.4c-16.1-1.7-32-5.4-47.3-10.7C749.9,803.3,749.2,806.2,751,806.9L751,806.9z"/>
			</g>
		</g>
		<g>
			<g>
				<path class="st2" d="M774.8,811c-5.2-8.1-9.5-16.7-12.5-25.9c-1.4-4.4-2.6-8.8-3.5-13.3c-0.5-2.7-1-5.4-1.3-8.1
					c0-0.3-1.1-7.4,1-6.4c1,0.5,2.7-0.4,2.2-1.7c-5.5-13.9-8.5-28.5-8.8-43.5c-0.5,0.5-1,1-1.5,1.5c0.8,0.3,1.5,0.6,2.3,0.9
					c1,1.2,2.9-0.1,2.5-1.5c-2-6.4-3.3-13-3.7-19.8c-0.1-1.6,0.2-19.6,1.3-19.3c1.2,0.3,2-0.8,1.8-1.8c-1.9-11.3-2.8-22.8-2.3-34.2
					c0.2-5.7,0.7-11.3,1.6-16.9c0.8-5.1,1.2-11.3,5.2-15c-0.8-0.1-1.6-0.2-2.4-0.3c8.4,15.8,13.1,33.1,17.4,50.3
					c4.2,16.9,7.9,34,11.1,51.2c6.5,35.5,10.6,71.4,12.4,107.5c0.1,1.9,3.1,1.9,3,0c-1.8-36.3-5.9-72.5-12.5-108.3
					c-3.3-17.8-7.1-35.5-11.5-53.1c-4.3-16.9-9-33.7-17.3-49.2c-0.5-0.9-1.7-0.9-2.4-0.3c-3.4,3.1-4.4,7.2-5.2,11.5
					c-1.1,6.1-1.9,12.4-2.3,18.6c-0.8,13,0,26,2.2,38.9c0.6-0.6,1.2-1.2,1.8-1.8c-5.8-1.6-5.1,10.9-5.2,13.7c-0.4,9.8,1.1,19.6,4,29
					c0.8-0.5,1.7-1,2.5-1.5c-1.3-1.5-2.4-2-4.4-1.8c-0.8,0.1-1.5,0.6-1.5,1.5c0.3,15.2,3.3,30.1,8.9,44.3c0.7-0.6,1.5-1.1,2.2-1.7
					c-10-4.8-4.2,17.8-3.4,21.2c3,13,8.4,25.4,15.6,36.6C773.3,814.1,775.9,812.6,774.8,811L774.8,811z"/>
			</g>
		</g>
		<g>
			<g>
				<path class="st2" d="M790.7,711.1c-0.9-6.4-1.1-12.9-0.3-19.3c0.2-1.6,4-20.4,5.9-19.6c1,0.5,2.2-0.1,2.3-1.3
					c0.6-12.8,4.6-24.2,9.3-36c4.7-11.7,9.3-23,17.1-33.1c-0.7,0-1.4,0-2.1,0c5.7,6.5,5,16.4,5.3,24.5c0.4,9.1,0.7,18.2,0.8,27.3
					c0.2,17.9-0.1,35.8-0.9,53.7c-1.7,36.6-5.8,73.1-12,109.2c-0.3,1.9,2.6,2.7,2.9,0.8c6.5-37.6,10.6-75.7,12.3-113.9
					c0.8-19.2,1-38.4,0.6-57.6c-0.2-9.6-0.4-19.2-1.1-28.8c-0.4-6.3-1.4-12.5-5.8-17.4c-0.5-0.6-1.6-0.6-2.1,0
					c-7.7,10-12.5,21-17.1,32.7c-5.1,12.6-9.4,24.8-10.1,38.6c0.8-0.4,1.5-0.9,2.3-1.3c-6.1-2.7-8.1,10.3-8.9,13.8
					c-2.2,9.4-2.4,18.9-1,28.4C788,713.8,790.9,713,790.7,711.1L790.7,711.1z"/>
			</g>
		</g>
		<g>
			<g>
				<path class="st2" d="M755.2,916.9c31.3,10.1,65.2,9.6,96.2-1.4c1.8-0.6,1-3.5-0.8-2.9c-30.5,10.8-63.8,11.3-94.6,1.4
					C754.1,913.4,753.3,916.3,755.2,916.9L755.2,916.9z"/>
			</g>
		</g>
		<g>
			<g>
				<path class="st2" d="M846.6,814.2c1.2,16.2,2.5,32.4,3.6,48.6c1.1,16.5,1.5,33.2-1.2,49.6c-0.3,1.9,2.6,2.7,2.9,0.8
					c2.7-16.1,2.5-32.3,1.4-48.5c-1.1-16.8-2.4-33.7-3.7-50.5C849.5,812.3,846.5,812.3,846.6,814.2L846.6,814.2z"/>
			</g>
		</g>
	</g>
</g>
<g id="window">
	<path class="st3" d="M312.9,942.6c20.4-10.9,40.9-21.8,61.3-32.7c9.6,1.6,22.8,3.7,38.6,5.9c31.6,4.4,82.5,11.5,146.9,13.4
		c64.4,1.9,112.7-2.2,131.1-4c44.3-4.2,71.1-9.9,93-15.8c19.9-5.4,36.3-11.3,48-15.8c9.6,3.2,20.3,7.5,31.7,13.4
		c6.5,3.4,12.5,6.9,17.8,10.4c-18.8,5.4-44.1,12.3-74.2,19.3c-63.4,14.8-112,21.8-122.2,23.3c-58.3,8.3-141.4,20-245.9,7.9
		C406.5,964,363.2,956.9,312.9,942.6z"/>
	<path class="st4" d="M311.8,942.7c0.5,4.2,1.1,8.3,1.6,12.5c7.5,2.1,18.5,5.1,32.1,8.1c26,5.8,52.4,9.8,86.9,12.5
		c127.4,10,229.2,1.1,229.2,1.1c50.9-4.5,100.3-9.1,164.1-27.7c24-7,43.6-14.1,57.6-19.6c-1.1-4.7-2.2-9.4-3.3-14.1
		c-3.9,1.6-9.7,3.9-16.8,6.5c-48.2,17.6-87.9,23.4-123.3,27.7c-77.8,9.6-116.7,14.3-173.8,15.2C501.1,966,413.9,962.1,311.8,942.7z"
		/>
	<g>
		<g>
			<path class="st4" d="M311.1,944.6c0,3.2,0,6.4,0,9.6c0,1.9,3,1.9,3,0c0-3.2,0-6.4,0-9.6C314.1,942.6,311.1,942.6,311.1,944.6
				L311.1,944.6z"/>
		</g>
	</g>
	<g>
		<g>
			<path class="st4" d="M312.2,957c74.7,20.2,152.7,22.8,229.6,23.9c73.9,1,148.3-2.2,221.1-15.7c41-7.6,81.4-18.7,120.4-33.8
				c1.8-0.7,1-3.6-0.8-2.9c-68.8,26.7-141.9,40.3-215.4,46c-74.1,5.7-148.9,4.4-223-0.1c-44.3-2.8-88.2-8.6-131.1-20.2
				C311.1,953.6,310.3,956.5,312.2,957L312.2,957z"/>
		</g>
	</g>
	<g>
		<g>
			<path class="st4" d="M883.3,929.3c0.6-4.2,0.8-8.5,0.4-12.7c-0.2-1.9-3.2-1.9-3,0c0.3,4,0.3,8-0.3,11.9
				C880.1,930.3,883,931.2,883.3,929.3L883.3,929.3z"/>
		</g>
	</g>
	<g>
		<g>
			<path class="st4" d="M313.5,944.3c21-10,41.6-20.7,61.8-32.3c1.7-1,0.2-3.5-1.5-2.6c-20.2,11.5-40.8,22.3-61.8,32.3
				C310.2,942.5,311.7,945.1,313.5,944.3L313.5,944.3z"/>
		</g>
	</g>
	<g>
		<g>
			<path class="st4" d="M374.5,910.6c119.3,22.7,243.3,26.9,363.6,9.7c32-4.6,63.8-11.7,93.4-24.9c1.8-0.8,0.2-3.4-1.5-2.6
				c-26.6,11.8-55,18.7-83.7,23.2c-29.2,4.6-58.7,7.4-88.2,9.3c-59.9,3.8-120.1,2.8-179.8-2.9c-34.6-3.3-68.9-8.3-103-14.7
				C373.4,907.4,372.6,910.3,374.5,910.6L374.5,910.6z"/>
		</g>
	</g>
	<g>
		<g>
			<path class="st4" d="M830.9,894.9c17.8,5.8,34.5,13.9,50.1,24.2c1.6,1.1,3.1-1.5,1.5-2.6c-15.8-10.4-32.8-18.6-50.8-24.5
				C829.8,891.4,829,894.3,830.9,894.9L830.9,894.9z"/>
		</g>
	</g>
	<g>
		<g>
			<path class="st4" d="M313.7,942.7c35.3,11.9,72.1,17.5,109.1,20.5c37.5,3,75.3,3.9,112.9,3.9c74.7,0,149.6-5.1,223.2-18.5
				c41.8-7.6,83.2-17.9,123.5-31.4c1.8-0.6,1-3.5-0.8-2.9c-70.9,23.6-144.6,37.4-219,44.2c-74,6.8-148.8,7.2-223,2.8
				c-42.4-2.6-84.9-7.9-125.3-21.5C312.7,939.2,311.9,942.1,313.7,942.7L313.7,942.7z"/>
		</g>
	</g>
	<g>
		<g>
			<path class="st4" d="M371.3,371.6c122.2-28.3,248-34.5,373-35.7c35.4-0.4,70.8-0.3,106.2-0.3c1.9,0,1.9-3,0-3
				c-125.4-0.2-251.4-0.3-375.9,17c-35,4.9-69.7,11.1-104.1,19.1C368.6,369.2,369.4,372.1,371.3,371.6L371.3,371.6z"/>
		</g>
	</g>
	<path class="st3" d="M856.7,332.9c1.3,46.5,2.1,100.4,1.8,160.3c-0.2,34.8-0.5,18.2-3.6,163c-1.8,83.4-2.3,114.8-8.2,163
		c-3.8,31.4-8.4,57.2-11.8,74.7c25.8,7.2,50.4,14,72,20c33.4,9.3,42.3,11.8,55.6,13.7c20.6,2.8,45.7,3.2,74.7-2.7
		c10.7-87.6,16.6-162.3,20-219.5c12.2-201,0.8-293.6-3.6-326.1c-6-43.8-13.4-79.8-19.1-104.7c-21.4,4.1-38.8,8.5-51,11.8
		c-41.9,11.5-75.1,25-102.9,36.4C870.3,327.1,862,330.6,856.7,332.9z"/>
	<path class="st3" d="M167.3,276.4c-0.8,8.6-1.7,19.2-2.5,28.4c-16.6,189.3-24.9,284-27.6,344.9c-2.8,65.4-3,160.2,10.9,278.1
		c1.1,2.4,3.1,5.7,6.7,8.4c4.7,3.5,9,3.4,17.5,5.8c6.7,1.9,10.2,3.8,13.4,5c9.2,3.6,29.8,7.7,56,6.7c37.6-1.5,66.5-13,87.7-21.7
		c19.9-8.1,35.8-16.8,46.8-23.4c-6.2-55.7-10.8-114.5-13.4-176.2c-5.3-131.2,0-251.7,10.9-359.1c-4.6-1.8-11.3-4.3-19.2-7.5
		c-13.6-5.5-46.2-18.8-103.6-46.8C228.2,308,199.8,293.7,167.3,276.4z"/>
	<path class="st4" d="M1033.9,274.2c1.2,6.6,2.8,15.7,4.6,26.6c2.5,15.5,8.1,52.2,12.2,100.4c4.2,50.2,5.2,93.4,5.3,127.8
		c0.3,69.8-2.3,121-9.1,240.4c-2.1,37.2-5.2,91.7-9.1,158.2c4.1-0.3,8.1-0.5,12.2-0.8c2-16.6,4.7-41.3,6.8-71.5
		c1.6-21.8,2.3-37.7,3-54.8c3.5-78.4,4.1-77.5,5.3-109.5c2.4-63.1,1.9-111.6,1.5-155.2c-0.3-30.1-1.2-58.6-3-115.6
		c-1.3-38.8-2.6-73.2-11.4-117.9c-2.3-11.4-4.5-20.9-6.1-27.4C1042,274.7,1038,274.5,1033.9,274.2z"/>
	<path class="st4" d="M152,278.2c-0.7,3.5-1.8,8.9-2.9,15.5c-3.2,19.1-4,33.5-4.3,38.2c-2.2,34-6.6,50.6-13,126.1
		c-1.2,13.8-2.1,25.9-3.9,50.2c-3.7,49.6-5.5,74.4-6.8,102.4c-1.4,31.3-1.6,53.4-1.9,97.6c-0.3,38.2-0.5,65.8,0.5,101.9
		c0.8,28.8,2.4,67.9,6.3,114.5c8.1,2.4,16.1,4.8,24.2,7.2c-0.1-4.5-0.4-12.6-1-22.7c-2.4-44.9-6.3-63.1-7.2-100.5
		c-0.3-11.5-0.1-19.1,0-30c1.1-78.2-0.2-113.9,0.5-164.7c1.2-82.9,6.8-147.7,11.6-202.9c4.5-52.2,9.6-96.9,14-131.9
		C162.6,278.8,157.3,278.5,152,278.2z"/>
	<g>
		<g>
			<path class="st4" d="M854.3,334.6c3.7,73.4,3.2,147,2.2,220.4c-1.1,71.8-1.6,143.8-7.1,215.5c-3.1,40.8-8,81.5-15.6,121.8
				c-0.4,1.9,2.5,2.7,2.9,0.8c13.3-70.5,18.2-142.2,20.4-213.8c2.3-73.1,3.3-146.4,3.2-219.6c-0.1-41.7-0.8-83.4-2.9-125.1
				C857.2,332.7,854.2,332.7,854.3,334.6L854.3,334.6z"/>
		</g>
	</g>
	<g>
		<g>
			<path class="st4" d="M858,334.6c55.5-27.5,114.4-47.3,175.2-59c1.9-0.4,1.1-3.3-0.8-2.9c-61,11.8-120.2,31.8-175.9,59.3
				C854.8,332.9,856.3,335.5,858,334.6L858,334.6z"/>
		</g>
	</g>
	<g>
		<g>
			<path class="st4" d="M1032.2,274.7c16.5,83.1,21.5,168,21.4,252.6c-0.2,84.6-5.2,169-9.3,253.5c-2.4,48.7-4.8,97.3-7.2,146
				c-0.1,1.9,2.9,1.9,3,0c4.3-86.2,8.8-172.4,12.7-258.7c3.8-84.6,6.2-169.4,0.5-253.9c-3.2-47.1-8.9-94-18.1-140.2
				C1034.7,272,1031.8,272.8,1032.2,274.7L1032.2,274.7z"/>
		</g>
	</g>
	<g>
		<g>
			<path class="st4" d="M834.3,892.9c4.5,5.2,12.5,6.2,18.8,8.1c8.6,2.6,17.3,5.2,25.9,7.8c17.4,5.2,34.7,10.7,52.3,15.1
				c34.4,8.4,69.7,10.1,104.6,4.1c1.9-0.3,1.1-3.2-0.8-2.9c-34.4,5.9-69.2,4.2-103-4.1c-16.1-3.9-31.9-8.9-47.7-13.7
				c-8-2.4-16-4.8-24-7.2c-4-1.2-8-2.4-12-3.6c-4.2-1.3-8.9-2.2-11.9-5.7C835.1,889.4,833,891.5,834.3,892.9L834.3,892.9z"/>
		</g>
	</g>
	<g>
		<g>
			<path class="st4" d="M1034.2,274.8c3.7,0.9,7.4,1.8,11.2,2.7c1.9,0.5,2.7-2.4,0.8-2.9c-3.7-0.9-7.4-1.8-11.2-2.7
				C1033.1,271.5,1032.3,274.4,1034.2,274.8L1034.2,274.8z"/>
		</g>
	</g>
	<g>
		<g>
			<path class="st4" d="M1045.2,276.5c10,40.4,12.7,82.6,15.6,124.1c3,42.4,4.6,84.9,5.3,127.5c1.2,84.5-1.7,169-6.5,253.4
				c-2.7,47.8-6.1,95.6-9.6,143.4c-0.1,1.9,2.9,1.9,3,0c6.3-85,12-170,14.7-255.2c2.7-85,2.5-170.2-2.9-255.2
				c-2.9-46.2-5.5-93.6-16.6-138.7C1047.6,273.8,1044.7,274.6,1045.2,276.5L1045.2,276.5z"/>
		</g>
	</g>
	<g>
		<g>
			<path class="st4" d="M1038.7,928.5c4.4-0.4,8.7-0.8,13.1-1.2c1.9-0.2,1.9-3.2,0-3c-4.4,0.4-8.7,0.8-13.1,1.2
				C1036.8,925.7,1036.8,928.7,1038.7,928.5L1038.7,928.5z"/>
		</g>
	</g>
	<g>
		<g>
			<path class="st4" d="M371.2,372.5c-6.7,69.3-10.7,138.8-12,208.4c-1.3,69.9,0.1,139.9,4.3,209.7c2.3,39.2,5.6,78.3,9.6,117.3
				c0.2,1.9,3.2,1.9,3,0c-7.2-69.2-11.7-138.7-13.5-208.3c-1.8-69.9-0.9-139.9,2.8-209.7c2.1-39.2,5-78.3,8.7-117.4
				C374.4,370.6,371.4,370.6,371.2,372.5L371.2,372.5z"/>
		</g>
	</g>
	<g>
		<g>
			<path class="st4" d="M169.2,278.8c64.9,36.1,132.3,67.7,201.5,94.6c1.8,0.7,2.6-2.2,0.8-2.9c-69-26.8-136.1-58.3-200.8-94.3
				C169,275.2,167.5,277.8,169.2,278.8L169.2,278.8z"/>
		</g>
	</g>
	<g>
		<g>
			<path class="st4" d="M166.1,278.1c-11.1,84.6-18.8,169.7-23,255s-4.8,170.7-2,256c1.6,47.9,4.3,95.8,8.1,143.6
				c0.2,1.9,3.2,1.9,3,0c-6.8-85.1-10-170.5-9.8-255.8c0.2-85.4,4-170.7,11.2-255.8c4.1-47.8,9.3-95.4,15.5-143
				C169.3,276.2,166.3,276.2,166.1,278.1L166.1,278.1z"/>
		</g>
	</g>
	<g>
		<g>
			<path class="st4" d="M149.1,934.6c55.7,30.3,122.4,23.8,179-0.2c17-7.2,33.4-15.9,49.2-25.4c1.6-1,0.1-3.6-1.5-2.6
				C323.1,938.3,261.3,960.6,199,949c-16.9-3.1-33.3-8.8-48.4-17C149,931.1,147.4,933.7,149.1,934.6L149.1,934.6z"/>
		</g>
	</g>
	<g>
		<g>
			<path class="st4" d="M127,926.3c7,3.3,14.2,6.1,21.5,8.6c1.8,0.6,2.6-2.3,0.8-2.9c-7.1-2.4-14-5.1-20.8-8.3
				C126.7,922.9,125.2,925.5,127,926.3L127,926.3z"/>
		</g>
	</g>
	<g>
		<g>
			<path class="st4" d="M150,278.8c-10.8,83.8-19.8,167.8-25.7,252.1c-5.8,83.9-8.6,168-6.8,252.1c1,47.6,3.4,95.2,7.5,142.6
				c0.2,1.9,3.2,1.9,3,0c-7.2-84.1-9.3-168.5-7.3-252.9c1.9-84.1,7.7-168.1,16-251.9c4.7-47.4,10.2-94.8,16.3-142.1
				C153.3,276.9,150.3,276.9,150,278.8L150,278.8z"/>
		</g>
	</g>
	<g>
		<g>
			<path class="st4" d="M151.7,280.9c5.8-1.2,11.6-1.6,17.6-1.3c1.9,0.1,1.9-2.9,0-3c-6.2-0.3-12.3,0.2-18.4,1.4
				C149,278.4,149.8,281.3,151.7,280.9L151.7,280.9z"/>
		</g>
	</g>
	<g>
		<g>
			<path class="st4" d="M892.6,341.4c4.2,116,4,232.1-0.8,348.1c-1.3,32.5-3,64.9-5.1,97.4c-0.1,1.9,2.9,1.9,3,0
				c7.3-115.8,10.1-231.9,8.4-348c-0.5-32.5-1.3-65-2.5-97.5C895.5,339.5,892.5,339.5,892.6,341.4L892.6,341.4z"/>
		</g>
	</g>
	<g>
		<g>
			<path class="st4" d="M941.1,299.8c4,80.7,6,161.6,5.9,242.4c0,80.8-2,161.7-6,242.4c-2.2,45.7-5.1,91.3-8.6,136.9
				c-0.1,1.9,2.9,1.9,3,0c6.2-80.6,10.4-161.3,12.7-242.1c2.2-80.8,2.5-161.7,0.8-242.5c-1-45.7-2.6-91.4-4.8-137.1
				C944,297.9,941,297.9,941.1,299.8L941.1,299.8z"/>
		</g>
	</g>
	<g>
		<g>
			<path class="st4" d="M999.3,282c5.6,83.9,9,168,9.9,252.2c0.9,84.5-0.5,168.9-4.3,253.3c-2.1,47.3-5,94.6-8.7,141.8
				c-0.1,1.9,2.9,1.9,3,0c6.4-83.9,10.6-168,12.3-252.1c1.7-84.4,1.1-168.9-1.9-253.4c-1.7-47.3-4.1-94.6-7.3-141.9
				C1002.2,280,999.2,280,999.3,282L999.3,282z"/>
		</g>
	</g>
	<g>
		<g>
			<path class="st4" d="M882.3,824.4c-2.3,26.2-6.5,52.2-12.6,77.8c-0.4,1.9,2.4,2.7,2.9,0.8c6.2-25.9,10.4-52.1,12.7-78.6
				C885.5,822.5,882.5,822.5,882.3,824.4L882.3,824.4z"/>
		</g>
	</g>
	<g>
		<g>
			<path class="st4" d="M202,298.3c-12,83.9-17.1,168.7-17.9,253.4c-0.7,85.2,2.8,170.3,8,255.3c2.9,48.1,6.3,96.1,9.7,144.2
				c0.1,1.9,3.1,1.9,3,0c-6-84.7-12-169.4-15.3-254.2c-3.3-84.6-3.8-169.4,1.1-254c2.8-48.1,7.4-96.2,14.2-143.9
				C205.2,297.3,202.3,296.4,202,298.3L202,298.3z"/>
		</g>
	</g>
	<g>
		<g>
			<path class="st4" d="M259.5,326.3c-7.6,81.1-12.7,162.5-14.4,244c-1.6,81.4,0.3,162.8,7,244c3.7,45.1,8.9,90,15.7,134.7
				c0.3,1.9,3.2,1.1,2.9-0.8c-12.2-80.6-19.2-162-21.8-243.5c-2.6-80.4-1.1-161,3.3-241.3c2.5-45.7,6-91.4,10.3-137
				C262.7,324.4,259.7,324.4,259.5,326.3L259.5,326.3z"/>
		</g>
	</g>
	<g>
		<g>
			<path class="st4" d="M317.1,350.2c-9.8,75.7-15.5,151.9-17,228.2s1.1,152.7,7.8,228.7c3.8,42.4,8.8,84.6,15.1,126.7
				c0.3,1.9,3.2,1.1,2.9-0.8c-11.3-75.4-18.5-151.3-21.6-227.4c-3.1-75.9-2-152,3.1-227.9c2.9-42.6,7.1-85.2,12.6-127.6
				C320.4,348.3,317.4,348.3,317.1,350.2L317.1,350.2z"/>
		</g>
	</g>
	<path class="st5" d="M976.9,288.8c11.1,45.3,20.1,98.4,23.1,157.9c7.5,151.4-28.1,275.1-59.1,354.5
		c-21.9,35.1-43.7,70.2-65.6,105.3c21.3,9.2,52.9,19.9,92.3,23.1c27.2,2.2,50.8,0.2,69.2-2.8c0.2-4.4,3.5-71.3,3.7-75.7
		c10.9-224.1,11.6-239.4,12-254.8c1.8-62.7,1.5-152.7-9.2-265c-3.7-19.1-7.4-38.2-11.1-57.2C1013.9,278.9,995.4,283.8,976.9,288.8z"
		/>
	<path class="st6" d="M279,337.7c-2.6,10.9-6.5,27.2-11.1,47.1c-20.4,88.8-35.4,154.1-43.4,214.2c-14.2,105.9-27.9,208.5,30.5,292.7
		c17,24.5,35.6,41,48,50.8c-12,4.7-26.9,9-44.3,11.1c-48.4,5.7-87.2-10-106.2-19.4c-7.2-66.3-12.2-137.3-13.8-212.4
		c-3.6-166.2,9.9-315.6,30.5-444.1C205.7,297.7,242.3,317.7,279,337.7z"/>
</g>
<g id="cat">
	<path d="M174.1,230.1c-1.3,1-0.3,4.9,1.5,11.6c0.7,2.6,1.4,4.6,1.8,5.9c-0.8,5.4-1.5,10.8-2.3,16.2c-1.6,0.2-5.7,1.1-9.5,4.4
		c-3.5,3.1-4.9,6.7-5.4,8.3c3.2,0.3,7.1,1,11.3,2.3c6.1,1.9,10.9,4.5,14.4,6.7c0,1.2,0.2,3.5,1.8,5.2c1.4,1.4,3.1,1.6,4.1,1.8
		c3.6,0.6,7.9,1.4,13.4,2.6c2.4,1.4,6.4,3.7,11.3,6.4c16.6,9,22.6,10.5,39.2,19.3c10.7,5.7,9.8,5.9,17.3,9.5
		c11.5,5.6,21.4,8.9,28.1,10.8c2.8-3.1,7.3-9.1,9.8-17.8c2-6.9,1.9-12.9,1.5-16.8c1.7,0.9,4.4,1.9,7.5,1.5c8-0.9,13.1-10,14.7-16.5
		c1.4-5.7,0.1-9.3-1-16c-2.5-15-4.7-28.4,1.5-36.9c5.2-7.1,15.9-10.4,24.5-19.9c0.8-0.9,2.3-2.6,1.8-3.4c-0.9-1.5-7.9,1.1-11.3,2.6
		c-2.2,1-18.7,8.6-23.7,25.8c-0.8,2.7-0.9,10.5-1,26c-0.1,11.3,0.1,17.7-4.4,21.4c-2.3,1.9-5.7,3-8.8,2.3c-4.6-1-6.8-5.5-8.8-8.5
		c-5.2-7.9-12.6-11.2-21.7-15.7c-7.1-3.5-13.2-4.8-25.5-7.5c-11.6-2.5-15.1-2.2-20.1-5.9c-5.6-4.2-8.7-10.1-10.3-13.4
		c-1.6-3.1-4.1-8-5.2-15c-0.6-4.1-0.5-7-1.5-7.2c-1.8-0.4-2.7,7.9-8.8,10.8c-3.7,1.8-6.1,0.1-12.6,0.3c-4.2,0.1-9,1-14.4,3.4
		C181.5,233.4,175.9,228.8,174.1,230.1z"/>
	<g>
		<g>
			<path d="M177.1,263c-2.1-16.5,12.9-31.5,29.5-29.8c15.7,1.6,26.1,20.7,25.6,35c-0.1,1.9,2.9,1.9,3,0c0.5-15.8-11.3-36.6-28.6-38
				c-18.2-1.5-34.8,14.6-32.5,32.8C174.4,264.8,177.4,264.9,177.1,263L177.1,263z"/>
		</g>
	</g>
	<g>
		<g>
			<path d="M176.8,273.4c6.1,11.9,19.2,20.3,32.9,18.5c12.5-1.7,23.1-11.8,25-24.3c0.3-1.9-2.6-2.7-2.9-0.8
				c-1.7,11.4-11.1,20.6-22.5,22.1c-12.5,1.7-24.3-6.1-29.9-17C178.5,270.2,175.9,271.7,176.8,273.4L176.8,273.4z"/>
		</g>
	</g>
	<g>
		<g>
			<path d="M187.6,287.9c-0.3-3.8,10.5-5.4,13.2-6c4.9-1.1,9.9-1.7,14.9-1.7c9.3,0,18.2,2.4,26.1,7.3c1.6,1,3.2-1.6,1.5-2.6
				c-10.2-6.3-22.1-8.5-33.9-7.4c-6.2,0.6-12.3,1.9-18.2,3.9c-3.2,1.1-7,2.5-6.7,6.5C184.7,289.8,187.8,289.8,187.6,287.9
				L187.6,287.9z"/>
		</g>
	</g>
	<g>
		<g>
			<path d="M230.6,253.3c6.3,7.6,16.5,9.4,25.6,11.4c12.1,2.8,24.6,5.3,35.2,12c21.9,13.8,26,43.9,8.7,63.2
				c-1.3,1.4,0.8,3.6,2.1,2.1c15.4-17.1,15.8-43.3-0.1-60.3c-8.4-9-20.4-13.7-32.1-16.8c-11.9-3.1-29-3.6-37.4-13.8
				C231.5,249.7,229.4,251.8,230.6,253.3L230.6,253.3z"/>
		</g>
	</g>
	<g>
		<g>
			<path d="M300.6,305.6c-5-6.6-13.8-8.9-21.5-5.7c-9.5,3.9-10,15.6-8.9,24.5c0.2,1.9,3.2,1.9,3,0c-0.9-7-1-17.8,6.2-21.3
				c6.2-3.1,14.3-1.5,18.5,4.1C299.1,308.7,301.7,307.2,300.6,305.6L300.6,305.6z"/>
		</g>
	</g>
	<g>
		<g>
			<path d="M272.8,323c-5.5-4.2-11.2-7.8-18.3-5.9c-0.8,0.2-1.2,1.1-1,1.8c1.8,7,12.8,9.9,18.6,12.4c8.9,3.9,18,7.2,27.2,10.1
				c1.8,0.6,2.6-2.3,0.8-2.9c-7.4-2.3-14.6-4.8-21.8-7.8c-3.9-1.6-7.7-3.3-11.5-5.1c-3.4-1.6-9.5-3.5-10.5-7.5
				c-0.3,0.6-0.7,1.2-1,1.8c6.2-1.7,11.3,2,15.9,5.6C272.8,326.8,274.3,324.2,272.8,323L272.8,323z"/>
		</g>
	</g>
	<g>
		<g>
			<path d="M184.9,287.6c3.9,6.4,11.8,7.5,18.7,8.5c10.2,1.5,20.4,1.5,30.6,0.4c1.9-0.2,1.9-3.2,0-3c-8.2,0.9-16.4,1.1-24.6,0.3
				c-6.9-0.7-18-1.1-22.2-7.7C186.5,284.4,183.9,285.9,184.9,287.6L184.9,287.6z"/>
		</g>
	</g>
	<g>
		<g>
			<path d="M161.6,277.4c1.3-7,7.4-10.6,14.2-10.9c-0.5-0.4-1-0.7-1.4-1.1c0.5,2.4,1.2,4.7,2.2,6.9c0.7,1.8,3.6,1,2.9-0.8
				c-0.9-2.3-1.6-4.5-2.2-6.9c-0.1-0.6-0.8-1.1-1.4-1.1c-8,0.4-15.6,4.8-17.1,13.1C158.4,278.5,161.3,279.3,161.6,277.4L161.6,277.4
				z"/>
		</g>
	</g>
	<g>
		<g>
			<path d="M179,246.4c-1.5-4.3-2.6-8.8-3-13.4c0-0.4-0.1-0.8-0.1-1.2c-0.1-0.9,0-0.8,0.4,0.3c0.9,0.6,1.8,1.3,2.7,2
				c1.5,1.3,2.9,2.7,4.1,4.2c1.3,1.5,3.4-0.7,2.1-2.1c-1.7-2-8.8-10.2-11.8-7c-1.5,1.6-0.4,5.3-0.1,7.1c0.5,3.7,1.5,7.4,2.7,10.9
				C176.8,249,179.7,248.3,179,246.4L179,246.4z"/>
		</g>
	</g>
	<g>
		<g>
			<path d="M212.8,232.4c0.9-1.6,1.8-3.2,2.8-4.8c0.4-0.7,0.8-1.3,1.1-2c0.6-1,0.6-1.9,1.8-1.6c1.4,0.3,0.9,3.6,0.9,4.8
				c0,1.9,0.1,3.8,0.1,5.7c0,1.9,3,1.9,3,0c0-3.1,0.1-6.2-0.1-9.3c-0.1-2-0.8-4.2-3-4.9c-2-0.6-3.4,0.7-4.4,2.2
				c-1.7,2.7-3.2,5.6-4.8,8.3C209.2,232.6,211.8,234.1,212.8,232.4L212.8,232.4z"/>
		</g>
	</g>
	<g>
		<g>
			<path d="M308.6,297.8c0.6,7.6,9.1,10.1,15,6.4c8.7-5.4,10.6-17.6,9.5-26.8c-1.5-12.6-4.5-24.3-0.2-36.8
				c4.1-11.9,14.3-21.6,27.2-22.4c1.9-0.1,1.9-3.1,0-3c-17.6,1.1-29.6,16.1-32.1,32.7c-1.5,9.9,0.7,19.1,2,28.8
				c0.8,6.4,0.4,12.5-2.5,18.4c-1.3,2.5-3.1,5-5.5,6.6c-3.7,2.3-10.1,1.6-10.5-3.8C311.5,295.9,308.5,295.8,308.6,297.8L308.6,297.8
				z"/>
		</g>
	</g>
	<g>
		<g>
			<path d="M310.2,303.2c3.1,8.3,13.9,4.6,18.6-0.2c7.7-7.8,6-20.8,5.4-30.7c-0.1-1.9-3.1-1.9-3,0c0.4,6.3,1,13.1-0.1,19.4
				c-0.5,3-1.6,5.8-3.6,8.2c-2.2,2.7-11.8,9.5-14.4,2.5C312.4,300.6,309.5,301.4,310.2,303.2L310.2,303.2z"/>
		</g>
	</g>
	<g>
		<g>
			<path d="M360.2,215.1c-11.4,4.4-22.9,10.6-27.5,22.6c-5.3,13.8-1.5,28.8-1.8,43.1c0,1.9,3,1.9,3,0c0.3-12.5-2.7-25.3,0.3-37.7
				c3.3-13.6,14.6-20.4,26.8-25.1C362.8,217.3,362,214.4,360.2,215.1L360.2,215.1z"/>
		</g>
	</g>
	<g>
		<g>
			<path d="M357.9,216.8c-10.5,4.8-20.1,13.2-25,23.9c-2.6,5.6-2.2,11.8-2.2,17.9c0,7.8,0.3,15.7,0.9,23.5c0.1,1.9,3.1,1.9,3,0
				c-0.4-6.3-0.7-12.5-0.8-18.8c-0.1-6.6-1-14.4,1.5-20.6c4.3-10.5,14-18.6,24.1-23.3C361.2,218.6,359.7,216,357.9,216.8
				L357.9,216.8z"/>
		</g>
	</g>
	<g>
		<g>
			<path class="st3" d="M183,253c2.8,4.9,9.9,3.2,10.6-2.2c0.1-1-1.4-0.9-1.5,0c-0.5,4.1-5.7,4.9-7.8,1.5
				C183.8,251.4,182.5,252.2,183,253L183,253z"/>
		</g>
	</g>
	<g>
		<g>
			<path class="st3" d="M204.2,249.1c3.1,5.3,11,3.2,11.1-2.9c0-1-1.5-1-1.5,0c-0.1,4.7-5.9,6.2-8.3,2.2
				C205,247.5,203.7,248.2,204.2,249.1L204.2,249.1z"/>
		</g>
	</g>
	<g>
		<g>
			<path class="st3" d="M198.2,255.7c0.7,2.9,0.1,5.8-1.7,8.2c-0.6,0.8,0.7,1.5,1.3,0.8c2-2.7,2.6-6.1,1.9-9.4
				C199.4,254.4,197.9,254.8,198.2,255.7L198.2,255.7z"/>
		</g>
	</g>
	<g>
		<g>
			<path class="st3" d="M198.8,255.6c-0.3,3.8,1.8,7.4,5.3,9c0.9,0.4,1.6-0.9,0.8-1.3c-3-1.4-4.9-4.4-4.6-7.7
				C200.3,254.6,198.8,254.6,198.8,255.6L198.8,255.6z"/>
		</g>
	</g>
	<g>
		<g>
			<path class="st3" d="M174.4,264.5c8.8-0.7,14.4,6.5,20.3,11.8c0.7,0.6,1.8-0.4,1.1-1.1c-6.2-5.6-12.2-12.9-21.4-12.3
				C173.5,263,173.5,264.5,174.4,264.5L174.4,264.5z"/>
		</g>
	</g>
	<g>
		<g>
			<path class="st3" d="M190.8,282.1c11.3-7.2,24.7-9.6,37.8-6.7c0.9,0.2,1.3-1.2,0.4-1.4c-13.5-2.9-27.3-0.5-38.9,6.9
				C189.2,281.3,190,282.6,190.8,282.1L190.8,282.1z"/>
		</g>
	</g>
	<g>
		<g>
			<path class="st3" d="M219.2,295.8c9.3,0.6,18.1-2.3,25.2-8.4c0.7-0.6-0.3-1.7-1.1-1.1c-6.8,5.8-15.2,8.6-24.1,8
				C218.3,294.3,218.3,295.8,219.2,295.8L219.2,295.8z"/>
		</g>
	</g>
	<g>
		<g>
			<path class="st3" d="M216.5,224.8c-2.2,3.7-2.7,8-1.4,12.1c0.3,0.9,1.7,0.5,1.4-0.4c-1.2-3.7-0.8-7.6,1.2-10.9
				C218.3,224.7,217,223.9,216.5,224.8L216.5,224.8z"/>
		</g>
	</g>
	<g>
		<g>
			<path class="st3" d="M176.9,234.1c2.4,1.5,3.9,3.8,4.5,6.5c0.2,0.9,1.6,0.5,1.4-0.4c-0.7-3.1-2.5-5.7-5.2-7.4
				C176.8,232.3,176.1,233.6,176.9,234.1L176.9,234.1z"/>
		</g>
	</g>
	<g>
		<g>
			<path class="st3" d="M229.8,250.1c1.9,2.3,4.1,4.3,6.6,5.8c0.8,0.5,1.6-0.8,0.8-1.3c-2.4-1.5-4.6-3.4-6.3-5.6
				C230.2,248.3,229.2,249.4,229.8,250.1L229.8,250.1z"/>
		</g>
	</g>
	<g>
		<g>
			<path class="st3" d="M291.5,299.2c-2.1-5.3-12.2-1.7-15.5,0.4c-5.9,3.9-8.5,11.2-6.3,17.9c0.3,0.9,1.7,0.5,1.4-0.4
				c-1.7-5.3-0.3-11,3.9-14.9c1.8-1.7,4.2-2.9,6.6-3.5c1.7-0.5,7.5-1.6,8.4,0.8C290.4,300.5,291.8,300.1,291.5,299.2L291.5,299.2z"
				/>
		</g>
	</g>
	<g>
		<g>
			<path class="st3" d="M270.9,317.6c-7.8-3.3-16.1-3.6-24.2-1.1c-0.9,0.3-0.5,1.7,0.4,1.4c7.9-2.5,15.8-2.1,23.4,1.1
				C271.4,319.4,271.8,317.9,270.9,317.6L270.9,317.6z"/>
		</g>
	</g>
</g>
<g id="girl_waving">
	<g id="legs">
		<path class="st0" d="M545.6,733.5c-4.1,9.8-4.1,17.1-4.7,35.9c-0.7,23.2-2.7,46.3-2.9,69.4c-0.2,19.5-0.5,49-1.3,87.4
			c32,1.8,67.4,2.2,105.8,0.3c36.6-1.8,70.4-5.5,100.9-10.1c-14.4-48.7-23.9-84.2-30.7-111.7c-3.6-14.7-8.9-36.7-23.5-62.4
			c-8-14.1-16.3-24.7-22.4-31.8c-1.6-1.4-36.9-31.1-77.7-17.1C587.1,694.2,557.4,705,545.6,733.5z"/>
		<g>
			<g>
				<path class="st7" d="M604.5,791.8c6.7,11.9,13.4,23.8,20,35.7c0.9,1.7,3.5,0.2,2.6-1.5c-6.7-11.9-13.4-23.8-20-35.7
					C606.2,788.6,603.6,790.1,604.5,791.8L604.5,791.8z"/>
			</g>
		</g>
		<g>
			<g>
				<path class="st7" d="M603.7,791.2c15.4,19.2,24.3,41.1,29.1,65.1c4.5,22.7,7.4,45.7,9.1,68.8c0.1,1.9,3.1,1.9,3,0
					c-1.8-23.7-4.8-47.4-9.4-70.7c-4.8-24.1-14.2-46.1-29.6-65.3C604.7,787.5,602.5,789.7,603.7,791.2L603.7,791.2z"/>
			</g>
		</g>
		<path class="st8" d="M627.8,691.1c3.5,7,8.5,17.3,14.1,29.7c16.3,36.2,33.2,74.4,42.2,121.4c3.7,19,7.2,46.5,5.7,80.8
			c8.4-0.4,17.3-1.1,26.6-2.1s18.2-2.2,26.6-3.6c-2.6-8.8-6.8-22.8-11.5-40.1c-13.1-48.4-14.9-63.5-26.1-95.4
			c-8.3-23.7-16-39.8-27.1-55.2c-10-13.9-19.4-22.6-31.3-28.7C639.6,694.1,632.7,692.2,627.8,691.1z"/>
		<path class="st9" d="M603.9,792.3c3.9,14.6,7.3,32,8.9,51.6c2.8,33.9-0.8,62.8-5.2,84.4c11.5-0.7,22.9-1.4,34.4-2.1
			c-1.2-22.7-3.8-41.8-6.3-56.3c-6.3-36.9-12.9-50.6-18.2-59.4C612.5,802.4,607.5,796.3,603.9,792.3z"/>
	</g>
	<g id="hand_right">
		<path class="st3" d="M475.8,563.1c-3.3,2.2-5.3,6.4-9.2,14.7c-3.2,6.8-4.7,12.1-7.1,20c-6.6,22.4-5.9,18.6-8.2,27.1
			c-3,11.3-8.4,31.1-11.4,57.2c-2.9,25.3-2.3,44.8-2.2,49.5c1.1,29.7,6.3,51.8,9.8,66c6.2,25.5,14.5,46.7,31,89
			c3.6,9.1,6.6,16.6,8.7,21.8c-1.5,0.2-3.9,0.5-6.8,0.9c-15.1,1.8-17.2,1.4-23.3,2.7c-7.8,1.7-14.8,3.4-17.5,9.3
			c-1.2,2.7-1.7,6.5-0.2,7.8c1.9,1.6,5.6-2,12-4.1c5.4-1.7,10.2-1.6,13.5-1.1c-2.6,5.1-4.1,9.7-5,13c-2.2,7.6-3.9,13.8-1.1,18.2
			c1.4,2.2,4.1,4.2,6.3,3.6c1.2-0.3,2.3-1.4,5.3-9.3c2.9-7.9,3.1-10.4,5.5-13.5c2.1-2.6,4.5-4,6.1-4.8c-0.8,2.5-1.7,6.2-2.1,10.7
			c-0.2,2.7-0.5,5.2,0,8.4c0.4,2.9,1.3,9.1,5.9,12.5c0.8,0.6,4.1,3.1,6.1,1.8c1.7-1,1.2-3.8,1.9-12.8c0.6-7.6,1.2-9.7,1.7-10.9
			c1.3-3.5,3.3-6,4.8-7.5c-0.5,7.2-0.4,13.2-0.2,17.6c0.4,7.1,1.1,10.3,3.4,12.3c1.3,1.1,3.5,2.2,5.3,1.4c1.8-0.8,2.4-3.3,2.9-6.4
			c2.2-11.7,0.9-15.1,3.4-21c1-2.3,2.1-5.1,4.8-7.1c5.7-4.2,13.8-1.7,14.9-1.4c4.8,1.5,6.6,4.1,9,3c2-0.9,3.1-3.8,3.2-6.2
			c0.1-5.9-6.4-10.4-12-14.1c-2.8-1.9-7-4.4-12.6-6.4c-4.9-9.7-11.1-23.8-16.2-41.7c-3.4-12-5-21.2-6.5-29.9
			c-5.3-30.5-3.4-42.2-9.3-72.5c-1.4-7.3-2.8-13.1-3.6-16.4c0.4-5,1.1-12.8,2.1-22.3c3.3-31,5.5-50.4,12.2-73.2
			c5.3-17.9,10.7-32.6,10.7-32.6c6.8-18.3,9-20.8,8.2-26.7C517.2,571.1,488.1,554.9,475.8,563.1z"/>
		<g>
			<g>
				<path class="st4" d="M468.1,572.6c-17.8,41.1-29,85-31.4,129.8c-2.5,45.7,5.4,90.4,20.2,133.6c8.4,24.7,18.6,48.7,29,72.7
					c0.8,1.8,3.3,0.2,2.6-1.5c-18-41.6-35.6-83.8-44-128.4c-8.3-44-6.6-89.5,3-133.2c5.4-24.5,13.2-48.4,23.2-71.4
					C471.4,572.4,468.9,570.8,468.1,572.6L468.1,572.6z"/>
			</g>
		</g>
		<g>
			<g>
				<path class="st4" d="M505.4,629.7c-12.6,38.1-19.2,78-19.9,118.1c0,1.9,3,1.9,3,0c0.7-39.9,7.3-79.4,19.8-117.3
					C508.9,628.7,506,627.9,505.4,629.7L505.4,629.7z"/>
			</g>
		</g>
		<g>
			<g>
				<path class="st4" d="M475,729.6c8.9,12.4,12.5,27.2,14.6,42c2.2,15.1,3.2,30.4,5.4,45.5c4.4,30.7,11.6,61.3,26.1,88.8
					c0.9,1.7,3.5,0.2,2.6-1.5c-15.1-28.6-22.2-60.5-26.4-92.3c-3.7-27.9-2.6-60.2-19.7-84C476.5,726.6,473.9,728.1,475,729.6
					L475,729.6z"/>
			</g>
		</g>
		<g>
			<g>
				<path class="st4" d="M485.5,907.3c-9.3,0.5-18.6,1.4-27.7,3.1c-6.5,1.3-13.4,3.4-17.9,8.6c-2.6,3.1-5.9,10.5-0.2,12.6
					c2.5,0.9,4.7-0.8,6.8-2c5.2-3,10.6-6.1,16.8-4.4c1.9,0.5,2.7-2.4,0.8-2.9c-5.1-1.4-9.7-0.2-14.3,2.1c-1.4,0.7-2.7,1.4-4,2.2
					c-0.8,0.4-1.5,0.9-2.3,1.4c-0.9-1.6-1.9-3.2-2.8-4.8c0.2-2.5,5.2-5.4,7-6.4c4.9-2.6,10.6-3.5,16-4.3c7.3-1.1,14.6-1.8,21.9-2.2
					C487.5,910.2,487.5,907.2,485.5,907.3L485.5,907.3z"/>
			</g>
		</g>
		<g>
			<g>
				<path class="st4" d="M477.3,916.2c-7.9,1.3-14.4,6.7-17.4,14c-3.2,7.6-5.9,18.9-2.2,26.7c2.8,5.9,9.7,8,12.3,0.8
					c1.6-4.5,1.3-9.4,2.9-13.9c2-5.6,5.4-10.4,10.4-13.7c1.6-1.1,0.1-3.7-1.5-2.6c-4.7,3.1-8.2,7.3-10.5,12.4
					c-1.2,2.6-2.1,5.3-2.7,8.1c-0.5,2.3-0.8,13.9-6.3,10.5c-3.1-1.9-3.4-8-3.3-11.1c0.2-4.6,1.4-9.9,2.9-14.3
					c2.5-7.4,8.4-12.7,16.1-14C480,918.8,479.2,915.9,477.3,916.2L477.3,916.2z"/>
			</g>
		</g>
		<g>
			<g>
				<path class="st4" d="M486.7,923.6c-6.2,4-8.4,12.7-9,19.7c-0.6,7.5,1.5,15.6,7.1,20.9c3.3,3.1,8.4,4.7,9.3-1.1
					c1.5-9.7-2.4-23.4,8.2-29.2c1.7-0.9,0.2-3.5-1.5-2.6c-3.8,2.1-6.2,5.5-7.7,9.6c-2.1,6-0.9,12.1-1.8,18.3
					c-0.4,2.8-1.2,5.8-4.3,2.9c-1.1-1-2.1-2.3-2.9-3.6c-1.9-3-3-6.4-3.3-9.9c-0.7-7,1.1-18.2,7.5-22.4
					C489.8,925.1,488.3,922.5,486.7,923.6L486.7,923.6z"/>
			</g>
		</g>
		<g>
			<g>
				<path class="st4" d="M500.9,931.6c-1.9,7.2-3.7,14.7-2.5,22.2c0.5,3.6,2.6,12.4,7.2,13.3c5.2,1,7.3-8.2,7.8-11.6
					c1.1-7.4-0.3-16.3,5.5-22c1.4-1.4-0.7-3.5-2.1-2.1c-7,6.9-4.6,16.9-6.7,25.7c-0.7,3.2-2.7,8-6,4.3c-1.8-1.9-2.3-5.6-2.7-8.1
					c-1-7,0.7-14,2.5-20.8C504.3,930.6,501.4,929.8,500.9,931.6L500.9,931.6z"/>
			</g>
		</g>
		<g>
			<g>
				<path class="st4" d="M522.5,907.6c5.9,2.4,12,5,16.6,9.6c2.1,2.1,4.7,5.3,5.3,8.3c1.5,8.3-4.7,3-7,2c-6.3-2.8-18.8-0.8-22.4,5.6
					c-0.9,1.7,1.7,3.2,2.6,1.5c1.9-3.5,7.1-4.4,10.7-4.9c2.2-0.3,4.7-0.5,6.8,0.1c2.4,0.7,3.9,2.8,6.2,3.5c3.3,1,5.8-1.3,6.3-4.5
					c0.9-5.2-3.6-11-7.1-14.4c-4.9-4.7-11.2-7.3-17.4-9.8C521.5,904,520.8,906.9,522.5,907.6L522.5,907.6z"/>
			</g>
		</g>
		<path class="st6" d="M502.3,597.4c-11.5,0.7-18.4,30.1-22.2,46.4c-4.3,18.3-8.2,43.5-7.4,80.2c0.7,32.8,4.9,57.8,6.3,66.5
			c6.3,37.4,16.2,68.8,25.9,93.4c3.2,9,6.3,18,9.5,26.9c-1.8,7.4-3.6,15-5.3,22.9c-2.2,10.4-4.2,20.6-5.8,30.4
			c1.9,0.2,4.5,0.1,6.3-1.7c2.3-2.3,2-6,2.1-9.2c0.1-3,0.4-17.5,6.9-22.9c4-3.3,10.4-3.3,14.8-1.7c4.5,1.7,6.5,5,9.5,4
			c2.3-0.7,3.9-3.5,4.2-5.7c1-7.3-13-14.8-15.3-16c-4.5-2.4-6.6-2.7-9.5-5.7c-3.6-3.8-4.8-8.3-5.3-10.3c-8.3-31.6-12.4-29.6-18-65.9
			c-4.2-27.4-1.5-25.8-5.8-47.6c-3-15.4-5.5-21.7-6.3-35c-0.9-14.6,0.8-26,2.6-36.1c7.5-41.3,21.9-91.3,25.4-103.2
			C511.7,602.1,507.3,597.1,502.3,597.4z"/>
	</g>
	<g id="hand_left">
		<path class="st3" d="M706.4,186.3c-3.1-0.1-5.5,5.5-6.1,7c-0.9,2.2-2.3,6.5-1.3,12.6c0,0,0.6,4.2,2.6,29.6
			c0.5,5.7,0.6,14-0.9,24.4c-4,11-7.8,19.6-10.4,25.2c-8.8,18.8-14.7,26.3-27,50.1c-4.6,8.9-5,10.3-10.4,21.3
			c-13.5,27.3-23.4,44.4-33.5,62.7c-8.9,16-21.4,39.5-36.1,69.7c-0.7,2.6-4.2,16.5,3.9,28.7c8.6,12.9,26.6,18.7,44,13.1
			c2.7-3.8,6.5-9.7,10-17.4c3.4-7.5,5-13.3,6.1-17s5.5-16.2,14.4-41.4c2.8-7.8,6.2-17.1,13.1-35.3c10.5-27.9,15.7-41.8,19.2-50.5
			c7.9-19.8,13.9-33.5,25.7-60.1c6.2-14,13.8-30.9,22.6-50.1c5.1-2.9,12.1-7.4,19.6-13.9c10.8-9.3,16.2-17.2,26.6-32.2
			c6.7-9.8,11.8-18.4,10.4-27c-0.2-1.2-0.7-4.7-2.6-5.2c-2.4-0.7-5.4,4.1-8.7,8.3c-3.4,4.3-8.5,9.9-16.1,15.7
			c2.6-7.2,5.2-12.8,7-16.5c4.1-8.4,7.5-13.8,9.6-23.1c2.3-9.9,0.2-11.7-0.4-12.2c-2.7-2-7.3,1.8-10-0.4c-2.4-2.1-0.3-6.7-2.2-7.8
			s-6.1,2.2-9.1,5.7c-5.2,6-6.4,11.8-8.3,17.4c-1.8,5.5-5.1,13-11.3,21.3c-1.5,0.2-3.5,0.3-4.4-0.9c-1-1.4,0.4-3.7,1.7-7.4
			c0.3-0.9,0.1-0.4,2.2-9.6c0.8-3.5,2.3-10,3.5-15.2c1.7-7.5,2.5-10.6,0.9-13.9c-0.3-0.7-1.6-3.4-3.5-3.5c-2.2-0.1-3.9,3.4-5.2,6.1
			c-5.3,10.9-8,16.4-8.7,18.3c-3.5,9.5-8.2,24-8.9,29c-0.1,0.6-0.3,2.7-1.3,5.4c-0.5,1.3-0.8,1.8-1.1,2.6c-2.5,5.6-0.4,9.3-3,11.3
			c-0.3,0.2-1.8,1.3-3,0.9c-1.3-0.4-1.9-2.1-2.6-7.8c-1-7.8-0.4-10.1-2.2-13.5C710,189.3,708.5,186.4,706.4,186.3z"/>
		<g>
			<g>
				<path class="st4" d="M701.6,232.6c0.7-7.3-0.4-14.4-0.8-21.7c-0.2-3.5-0.2-7.1,0.3-10.6c0.3-2,0.7-4,1.3-5.9
					c1-2.9,1.1-5.3,4.3-5.4c3-0.1,2.8,1.7,3.3,4.2c0.5,2.2,0.6,4.5,0.7,6.7c0.2,3.1,0.3,6.3,1,9.3c0.7,3.1,2.6,5.7,6.1,4.6
					c1.8-0.6,1.1-3.5-0.8-2.9c-3.5,1-3.2-10.8-3.4-12.8c-0.3-3.2-0.6-6.5-1.8-9.5c-1.7-4.2-5.6-6.3-8.9-2.4c-4.3,5-5.2,14-5.2,20.2
					c0,8.8,1.7,17.4,0.9,26.2C698.5,234.5,701.5,234.5,701.6,232.6L701.6,232.6z"/>
			</g>
		</g>
		<g>
			<g>
				<path class="st4" d="M719,212.6c5-9.7,6.5-20.7,9.4-31.1c3.1-11.2,7-22.2,12.8-32.2c1.3-2.2,2.6-5.3,4.5-7
					c3.7-3.4,3.7,3.1,3.4,5.9c-0.6,6.2-2.2,12.5-3.6,18.6c-1.3,5.6-3.1,11-4.4,16.6c-0.7,3.1-0.7,5.8,1.5,8.2
					c1.3,1.4,3.4-0.7,2.1-2.1c-2.5-2.7,0.1-8.1,0.9-11c0.9-3.3,1.8-6.6,2.5-9.9c1.4-6.1,2.8-12.3,3.7-18.6c0.5-3.3,1.2-9.1-1.7-11.6
					c-2.5-2.1-5-0.1-6.7,1.9c-7.3,9.1-11.8,21.1-15.4,32.1c-4.1,12.7-5.4,26.9-11.6,38.8C715.5,212.8,718.1,214.3,719,212.6
					L719,212.6z"/>
			</g>
		</g>
		<g>
			<g>
				<path class="st4" d="M743.3,191.9c3,0.3,4.1-1.9,5.5-4.3c2.2-3.8,4.2-7.8,6.1-11.7c3.7-7.6,6.3-15.9,10.8-23
					c1-1.6,2.2-3.6,3.8-4.8c1.3-1.5,3-2,5.2-1.3c0.3,1.4,0.5,2.8,0.5,4.2c0.1,4.9-1.5,9.8-3.2,14.4c-3.4,9.1-7.2,18.1-10.9,27.2
					c-0.7,1.8,2.2,2.6,2.9,0.8c2.1-5.2,23.7-50.8,9.6-51.1c-2.8-0.1-6,3.4-7.6,5.3c-2.8,3.3-4.8,7.1-6.6,11c-2.1,4.7-4,9.4-6.2,14
					c-1.3,2.8-2.8,5.7-4.2,8.4c-0.9,1.8-3.1,8-5.6,7.8C741.4,188.7,741.4,191.7,743.3,191.9L743.3,191.9z"/>
			</g>
		</g>
		<g>
			<g>
				<path class="st4" d="M778.7,155.1c1.1-5.8,7.4-1.8,8.2,1.9c0.7,3.1-0.5,6.2-1.5,9.1c-1.5,4.4-3.2,8.7-5,12.9
					c-3.5,8.2-7.6,16-12.2,23.7c-1,1.7,1.6,3.2,2.6,1.5c4.3-7.1,8.1-14.5,11.5-22c2.9-6.5,6.4-13.7,7.5-20.8
					c0.7-4.5-0.6-10.3-5.6-11.9c-3.7-1.2-7.7,1.1-8.4,4.9C775.5,156.2,778.4,157,778.7,155.1L778.7,155.1z"/>
			</g>
		</g>
		<g>
			<g>
				<path class="st4" d="M772.9,205.4c3.8-4.3,7.5-8.6,11.3-12.9c2-2.3,3.8-4.8,6-6.8c0.7-0.6,1.4-1.1,2-1.7
					c1.7,0.6,3.4,1.2,5.2,1.8c0.5,0.9-0.7,3.5-1,4.3c-3.1,9.5-7.6,18.5-12.9,26.9c-10.7,16.9-25.4,31.1-42.6,41.4
					c-1.7,1-0.1,3.6,1.5,2.6c21.4-12.8,39-31.6,50.1-53.9c2.7-5.4,5.3-11.1,7-16.9c1-3.4,1.6-8-2.3-9.8c-3.8-1.8-7.8,1.7-10.2,4.2
					c-5.7,5.9-10.9,12.5-16.3,18.7C769.5,204.7,771.6,206.8,772.9,205.4L772.9,205.4z"/>
			</g>
		</g>
		<g>
			<g>
				<path class="st4" d="M699,229.5c0.7,9.2,1.4,18.6-0.1,27.8c-1.5,9.1-5.3,17.5-9.5,25.7c-8.5,16.6-17.4,33-26.1,49.5
					c-17.4,33-34.8,65.9-52.2,98.9c-10,18.9-20,37.9-30,56.8c-0.9,1.7,1.7,3.2,2.6,1.5c35.9-68.1,72.5-135.9,107.8-204.4
					c4.2-8.1,8.1-16.4,9.8-25.3c2-10.1,1.3-20.3,0.5-30.5C701.9,227.6,698.9,227.6,699,229.5L699,229.5z"/>
			</g>
		</g>
		<g>
			<g>
				<path class="st4" d="M740.7,257.7c-32,67.6-59.9,136.8-84.5,207.4c-7.2,20.5-14.4,41-23.1,60.9c-0.8,1.8,1.8,3.3,2.6,1.5
					c14.9-33.9,25.8-69.4,38.6-104c13.1-35.6,27.3-70.9,42.4-105.7c8.6-19.7,17.4-39.2,26.6-58.6C744.1,257.5,741.5,256,740.7,257.7
					L740.7,257.7z"/>
			</g>
		</g>
		<path class="st10" d="M785.9,153.9c-4.1-0.6-9.6,16.2-12.8,24.6c-9.7,25.8-17.9,28.8-38.7,63.8c-7.7,12.9-18.3,32.3-29,57.6
			c-32,67.4-63.9,134.9-95.9,202.3c7.8,9.5,15.5,19.1,23.3,28.6c3.9-11.1,9.6-27.4,16.7-47.1c12.9-35.5,29.6-81.2,53.2-136.8
			c9.4-22,22.4-51.7,39.1-86.6c4.6-2.9,11-7.4,18-13.6c9.4-8.2,21.8-19.3,30.3-37.4c2.7-5.6,6.1-14.2,7.9-25.5
			c-1.3-0.6-3.2-1.3-5.3-0.9c-3.6,0.7-5.5,4.2-7,6.6c-5.8,8.9-14.3,14.8-15.4,14.1c-0.6-0.5,1.1-3.4,5.7-12.8
			c9.4-19.3,5.5-14.2,9.2-20.7c2.1-3.7,4.2-6.9,3.5-11C788.7,157.3,787.6,154.2,785.9,153.9z"/>
		<path class="st6" d="M779.8,222.1c-5,3.2-12.1,7.9-20.2,14.1c-9.3,7-19.3,14.6-27.7,24.2c-11.4,13-16.4,25.9-19.4,33.4
			C685,364,652.3,440.2,643,461.4c-5.1,11.6-13.1,29.1-23.7,50.1c4.8,6.3,9.7,12.6,14.5,18.9c13.8-42.1,29.7-86.2,47.9-131.9
			c19.6-49.1,39.9-95,60.3-137.7c5.5-3.7,11.7-8.4,18-14.5C768.9,237.8,775.3,229.2,779.8,222.1z"/>
	</g>
	<g id="torso">
		<path class="st3" d="M513.9,511.6c-3.7,2.5-12,8.3-20.5,17.7c-8.8,9.7-13.9,18.8-18.1,26.5c-3.3,5.9-5.7,11.1-7.4,14.9
			c2.6,5,6.8,12.7,12.6,21.9c10.3,16.3,18.3,25.1,32.1,42.8c5.8,7.4,14.2,18.5,24.2,32.5c1.6,7.5,3,15.4,4.2,23.7
			c2.4,17,3.3,32.8,3.3,47c3.7,4,10.1,9.8,19.5,13.9c15.6,6.9,29.8,4.9,37.2,3.7c16.4-2.5,27.6-9.8,35.3-14.9
			c14-9.2,23.5-20.2,29.8-29.3c-1.3-15.6-3-31.7-5.1-48.4c-1.8-14.2-3.8-28-6-41.4c-0.2-10.5-1.2-24.8-4.6-41.4
			c-2.8-13.9-6.2-30.1-16.3-49.3c-12.6-23.9-28.3-38.4-34.4-43.7c-5.4-4.7-10.3-8.2-13.9-10.7c-14.6,9.3-27.2,15.1-35.8,18.6
			C534,502.3,526.5,503.3,513.9,511.6z"/>
		<g>
			<g>
				<path class="st4" d="M469.5,571.1c3.1-11.8,11.7-22.8,19.1-32.4c7.8-10,16.6-19.1,27.1-26.4c1.6-1.1,0.1-3.7-1.5-2.6
					c-10.8,7.5-19.9,16.8-27.9,27.1c-7.7,9.9-16.4,21.1-19.6,33.4C466.2,572.2,469.1,572.9,469.5,571.1L469.5,571.1z"/>
			</g>
		</g>
		<g>
			<g>
				<path class="st4" d="M467.3,572.1c20.6,36,45,69.8,72.7,100.7c1.3,1.4,3.4-0.7,2.1-2.1c-27.5-30.7-51.7-64.3-72.2-100.1
					C468.9,568.9,466.3,570.4,467.3,572.1L467.3,572.1z"/>
			</g>
		</g>
		<g>
			<g>
				<path class="st4" d="M551.9,497.1c11.2-7.9,23.5-13.8,36.6-17.6c1.9-0.5,1.1-3.4-0.8-2.9c-13.4,3.9-25.9,9.9-37.3,17.9
					C548.8,495.6,550.3,498.2,551.9,497.1L551.9,497.1z"/>
			</g>
		</g>
		<g>
			<g>
				<path class="st4" d="M586,480.3c47.8,33.3,68.3,91.7,66,148.2c-0.1,1.9,2.9,1.9,3,0c2.4-57.7-18.8-116.9-67.5-150.8
					C586,476.6,584.5,479.2,586,480.3L586,480.3z"/>
			</g>
		</g>
		<g>
			<g>
				<path class="st4" d="M533.5,666.9c5.2,10.7,5.8,24,6.9,35.6c1.2,11.8,1.6,23.7,1.6,35.6c0,1.9,3,1.9,3,0
					c0.1-13.2-0.5-26.4-2-39.5c-1.2-11.1-2-23.1-6.9-33.3C535.2,663.6,532.7,665.1,533.5,666.9L533.5,666.9z"/>
			</g>
		</g>
		<g>
			<g>
				<path class="st4" d="M543.9,738.7c15,18.4,40.6,23.6,62.9,17.9c12.4-3.2,23.9-9.3,34.2-16.9c10.3-7.6,20.1-16.4,25.9-28
					c0.9-1.7-1.7-3.2-2.6-1.5c-5.6,11.1-15,19.6-24.9,26.9c-9.6,7.1-20.3,12.9-31.9,16.2c-21.8,6.1-46.9,1.4-61.6-16.7
					C544.8,735.1,542.7,737.2,543.9,738.7L543.9,738.7z"/>
			</g>
		</g>
		<g>
			<g>
				<path class="st4" d="M653.1,624c4.9,29.3,9.7,58.6,11.4,88.2c0.1,1.9,3.1,1.9,3,0c-1.8-29.9-6.6-59.5-11.5-89
					C655.7,621.3,652.8,622.1,653.1,624L653.1,624z"/>
			</g>
		</g>
		<path class="st6" d="M555.7,493.1c11.1,13.1,26.3,33.5,39,61.1c18.6,40.4,22.3,75.3,25.1,105c2.2,22.6,3.4,54.1-1,91.7
			c8.5-3.7,20.5-10.1,32.1-21.2c6.4-6.2,11.2-12.4,14.8-17.8c-3.3-27.9-6.6-55.9-9.9-83.8c0.6-23-3-41.6-6.4-54.2
			c-10.5-39-30.7-64.1-37.5-72c-9.3-10.9-18.4-18.9-25.1-24.2C576.4,482.9,566.1,488,555.7,493.1z"/>
		<path class="st11" d="M630.2,528.1c-1.8,0.5,2.4,16.8,6.4,40.9c0,0,6.1,36.6,7.4,72c0.9,23.4-0.3,57.6-10.8,100.1
			c4.8-2.4,10.7-5.9,16.8-10.8c7.4-6,12.7-12.3,16.3-17.3c-1.3-40.3-4.7-61.2-7.9-73c-0.6-2.3-2.2-7.7-3.5-15.3
			c-2.4-14.2-1.2-20.3-2.5-32.1c-1-9.4-2.9-15.6-6.4-27.1C640.7,548.2,632.2,527.5,630.2,528.1z"/>
	</g>
	<g id="head">
		<path class="st1" d="M512.5,347.1c-6.6,3.7-15,9.3-23.1,17.8c-16.8,17.9-22.2,37.9-24.1,47.8c-1.5-0.2-5.6-0.5-8.9,2.1
			c-4.9,3.8-5,11.3-3.1,15.7c0.7,1.6,1.7,2.9,3.8,5.5c2.5,3.1,4.1,5,6.7,6.1c1.1,0.5,3.6,1.2,7.2,0.4c1.1,3.3,2.9,7.9,5.6,13.2
			c3.5,6.8,8.8,16.9,19.4,25.7c3.1,2.6,7.9,6,14.4,9.1c2.4,3.1,6.8,9.6,7.3,18.4c1,15.5-10.3,28.4-21,34.1
			c-18.6,9.9-38.8,0-46.2-3.7c-4-2-24.1-12.4-32.5-35.2c-10.2-27.5,3.1-55,11-71.4c8-16.5,11.7-15.4,17.8-31.5
			c8.1-21.3,3.8-28.8,13.1-45.1c3.6-6.4,10.9-19.2,26.2-25.2c13.1-5.1,25.2-2.5,30.4-1c4.3-2.6,11.9-6.3,21.5-6.3
			c22.8,0,37.4,21.6,40.9,26.8c10.4,15.3,4.9,20,14.2,41.5c11.7,27.1,23.1,25.5,33.6,50.9c5.1,12.4,13.6,32.9,4.2,52.5
			c-9.7,20.2-31.8,26.1-34.6,26.8c-5.1,1.3-18.8,4.7-32.5-2.6c-1.3-0.7-18.5-10.1-19.9-26.2c-0.5-5.9,1.2-11.4,1.6-12.6
			c2.1-6.5,5.7-10.7,6.8-12.1c4.3-5.3,9.5-15.1,13.1-34.6c1.7-0.1,4.5-0.5,7.3-2.1c5.9-3.4,8.7-10.3,8.4-16.3
			c-0.1-1.4-0.5-9.4-6.3-12.1c-2.4-1.1-4.9-0.8-6.3-0.5C549.9,384.2,531.2,365.7,512.5,347.1z"/>
		<path class="st3" d="M512.5,347c-11.1,6.5-18.8,13.7-23.7,19c-16.3,17.7-21.5,36.2-22.6,40.5c-0.7,2.7-1.2,4.9-1.4,6.5
			c-1.1-0.4-3.6-1.1-6.1,0c-3.8,1.7-4.6,6.3-5,8.6c-1,5.3,1,9.5,1.8,11.1c1.1,2.3,2.9,6,7.2,7.9c3.5,1.6,6.8,1,8.2,0.7
			c1.4,3.6,3.4,8.6,6.5,14.3c4.7,9,9.1,17.3,17.6,24.7c3.3,2.9,8.7,6.9,16.5,10c1.6,2.5,3.8,6.4,5,11.5c1,4,1.2,7.4,1.1,10
			c2.6,1.3,7.5,3.3,13.6,3.2c11.7-0.2,19.4-7.5,21.2-9.3c-1.9-5.7-3.6-12.7-4.3-20.8c-0.3-3.7-0.4-7.2-0.4-10.4
			c3.1-3.3,6.9-8,10-14.3c5.5-10.9,6.4-21,6.5-26.9c1.4,0.2,4.2,0.5,7.2-0.7c4.2-1.7,6.1-5.4,7.2-7.5c0.3-0.5,4.5-9.1,0.7-17.6
			c-0.9-1.9-2.4-5.4-5.4-5.7c-2.2-0.2-4,1.5-4.7,2.2c-4.1-4.9-11.8-14-22.6-26.5c-9.3-10.9-15.2-17.7-25.1-24.7
			C517.9,350.2,514.7,348.3,512.5,347z"/>
		<path d="M498.7,453.1c-1,2.3,3.7,6.4,5.9,8.1c4.6,3.4,9.5,3.9,11.3,4c2.1,0.2,9,0.7,15.3-3.8c1.5-1.1,5.7-4,7.3-9.4
			c1.1-3.9,0.8-9.3-1.3-10.2c-1.6-0.6-3.1,1.4-6.5,3.8c-6,4.1-12.2,5.1-17.5,5.9C504.2,452.9,499.7,451.1,498.7,453.1z"/>
		<g>
			<g>
				<path class="st4" d="M467,430c3.6,15,9.4,29.7,19,41.9c8.5,10.9,21.1,21.4,35.8,20c13.6-1.3,24.7-11.9,31.9-22.7
					c8.5-12.6,12.6-27.7,12.2-42.9c-0.1-1.9-3.1-1.9-3,0c0.4,13.9-3.2,27.5-10.5,39.3c-6.9,11.1-18.3,22.8-32.2,23.4
					c-14.7,0.6-26.8-11.4-34.6-22.6c-7.8-11.2-12.6-24.1-15.8-37.3C469.4,427.3,466.5,428.1,467,430L467,430z"/>
			</g>
		</g>
		<g>
			<g>
				<path class="st4" d="M509.5,490.5c4.2,6.4,6.3,13.4,6.3,21.1c0,1.9,3,1.9,3,0c0-8.1-2.3-15.8-6.7-22.6
					C511.1,487.3,508.5,488.8,509.5,490.5L509.5,490.5z"/>
			</g>
		</g>
		<g>
			<g>
				<path class="st4" d="M517.2,512.8c12.2,7,28,3.6,36.3-7.6c1.2-1.5-1.4-3-2.6-1.5c-7.4,9.9-21.6,12.7-32.2,6.5
					C517,509.3,515.5,511.9,517.2,512.8L517.2,512.8z"/>
			</g>
		</g>
		<g>
			<g>
				<path class="st4" d="M546,477.1c0.1,9.1,1.5,18.1,4.4,26.8c0.6,1.8,3.5,1,2.9-0.8c-2.7-8.5-4.2-17.1-4.3-26
					C549,475.1,546,475.1,546,477.1L546,477.1z"/>
			</g>
		</g>
		<g>
			<g>
				<path class="st4" d="M470,439.5c-1.3,1.4-4.5,0.9-6,0.1c-1.2-0.6-2.3-1.5-3.2-2.4c-2-1.9-3.6-4.2-4.6-6.7
					c-2-4.7-2.9-18.2,6-15.8c1.9,0.5,2.7-2.4,0.8-2.9c-11-2.9-12.7,11.7-9.9,19c2.2,5.9,12.3,18.1,19.1,10.8
					C473.4,440.2,471.3,438.1,470,439.5L470,439.5z"/>
			</g>
		</g>
		<g>
			<g>
				<path class="st4" d="M570.5,404.5c1.2-4,6.4,3.7,7,5.1c1.2,3.2,1.6,6.7,1.1,10.1c-0.8,6.8-6.2,13.3-13.7,11.4
					c-1.9-0.5-2.7,2.4-0.8,2.9c12.1,3.1,18.6-9.5,17.5-19.8c-0.5-4.5-2.3-10.3-6.6-12.7c-2.8-1.5-6.4-1.1-7.4,2.1
					C567,405.6,569.9,406.3,570.5,404.5L570.5,404.5z"/>
			</g>
		</g>
		<g>
			<g>
				<path class="st4" d="M480.7,383.3c3.3-6.3,9.1-10.4,16.1-11.4c1.9-0.3,1.1-3.2-0.8-2.9c-7.7,1.1-14.3,5.9-17.9,12.8
					C477.2,383.5,479.8,385,480.7,383.3L480.7,383.3z"/>
			</g>
		</g>
		<g>
			<g>
				<path class="st4" d="M526.9,367.9c8.4-2,16.8,2.2,20.6,9.8c0.9,1.7,3.4,0.2,2.6-1.5c-4.4-8.9-14.4-13.5-24-11.2
					C524.2,365.5,525,368.4,526.9,367.9L526.9,367.9z"/>
			</g>
		</g>
		<g>
			<g>
				<path class="st4" d="M505.1,380.2c1.9,10.6,2.4,21.5,1.3,32.3c-0.4,3.3-2,8-0.5,11.3c1.6,3.6,5.9,6.7,8.6,9.5
					c1.3,1.4,3.5-0.7,2.1-2.1c-1.8-1.9-3.6-3.7-5.4-5.6c-2.8-2.9-3.1-3.8-2.5-8c0.5-3.8,1-7.7,1.2-11.6c0.4-8.9-0.3-17.8-1.9-26.5
					C507.7,377.5,504.8,378.3,505.1,380.2L505.1,380.2z"/>
			</g>
		</g>
		<g>
			<g>
				<path class="st4" d="M492.5,405.9c-1.5-2.4-2.2-5-2-7.8c0-0.6,0.4-3.2,0.9-3.3c0.3,0,0.8,3.5,0.9,3.9c0.2,1.3,0.3,2.7,0.3,4
					c0,0.4-0.1,3.7-0.1,1.7c-0.1-2.9,0.1-5.8,0.2-8.7c-1,0.1-2,0.3-2.9,0.4c0.5,3.1,0.8,6.2,0.8,9.4c1,0,2,0,3,0c0-0.4,0-0.8,0-1.2
					c0-1.9-3-1.9-3,0c0,0.4,0,0.8,0,1.2c0,1.9,3,1.9,3,0c0-3.4-0.3-6.8-0.9-10.2c-0.3-1.7-2.9-1.2-2.9,0.4c-0.1,3.2-0.5,6.7-0.1,9.9
					c0.2,1.5,0.9,2.9,2.6,3.2c5,1,3.5-8.8,3.1-11.2c-0.3-1.9-0.6-4.8-2.4-5.9c-1.5-0.9-3.1,0-4,1.4c-2.5,4.2-1.1,10.4,1.2,14.2
					C490.9,409,493.5,407.5,492.5,405.9L492.5,405.9z"/>
			</g>
		</g>
		<g>
			<g>
				<path class="st4" d="M538.7,400.6c-1.5-2.4-2.2-5-2-7.8c0-0.6,0.4-3.2,0.9-3.3c0.3,0,0.8,3.5,0.9,3.9c0.2,1.3,0.3,2.7,0.3,4
					c0,0.4-0.1,3.7-0.1,1.7c-0.1-2.9,0.1-5.8,0.2-8.7c-1,0.1-2,0.3-2.9,0.4c0.5,3.1,0.8,6.2,0.8,9.4c1,0,2,0,3,0c0-0.4,0-0.8,0-1.2
					c0-1.9-3-1.9-3,0c0,0.4,0,0.8,0,1.2c0,1.9,3,1.9,3,0c0-3.4-0.3-6.8-0.9-10.2c-0.3-1.7-2.9-1.2-2.9,0.4c-0.1,3.2-0.5,6.7-0.1,9.9
					c0.2,1.5,0.9,2.9,2.6,3.2c5,1,3.5-8.8,3.1-11.2c-0.3-1.9-0.6-4.8-2.4-5.9c-1.5-0.9-3.1,0-4,1.4c-2.5,4.2-1.1,10.4,1.2,14.2
					C537.1,403.8,539.7,402.3,538.7,400.6L538.7,400.6z"/>
			</g>
		</g>
		<g>
			<g>
				<path class="st4" d="M477.7,415.1c1.9,0,1.9-3,0-3S475.8,415.1,477.7,415.1L477.7,415.1z"/>
			</g>
		</g>
		<g>
			<g>
				<path class="st4" d="M489.5,417.3c0.1,0,0.2,0,0.4,0c0.8,0,1.5-0.7,1.5-1.5s-0.7-1.5-1.5-1.5c-0.1,0-0.2,0-0.4,0
					c-0.8,0-1.5,0.7-1.5,1.5S488.6,417.3,489.5,417.3L489.5,417.3z"/>
			</g>
		</g>
		<g>
			<g>
				<path class="st4" d="M482.5,426.5c1.9,0,1.9-3,0-3S480.5,426.5,482.5,426.5L482.5,426.5z"/>
			</g>
		</g>
		<g>
			<g>
				<path class="st4" d="M539.3,413.6c0.1,0,0.2,0,0.4,0c0.8,0,1.5-0.7,1.5-1.5s-0.7-1.5-1.5-1.5c-0.1,0-0.2,0-0.4,0
					c-0.8,0-1.5,0.7-1.5,1.5S538.4,413.6,539.3,413.6L539.3,413.6z"/>
			</g>
		</g>
		<g>
			<g>
				<path class="st4" d="M550.3,406.2c1.9,0,1.9-3,0-3C548.4,403.2,548.4,406.2,550.3,406.2L550.3,406.2z"/>
			</g>
		</g>
		<g>
			<g>
				<path class="st4" d="M548.8,414.3c0.1,0,0.2,0,0.4,0c0.8,0,1.5-0.7,1.5-1.5s-0.7-1.5-1.5-1.5c-0.1,0-0.2,0-0.4,0
					c-0.8,0-1.5,0.7-1.5,1.5C547.4,413.6,548,414.3,548.8,414.3L548.8,414.3z"/>
			</g>
		</g>
		<g>
			<g>
				<path class="st4" d="M501.2,455.4c-1.6-2.3-4.2-5.6-3.1-8.6c1.3-3.4,5.4-2.9,8.1-2.5c3.3,0.5,6,1.1,9.2,0.1
					c2.6-0.8,4.9-2.5,7.3-3.8c5.7-3.2,12.4-3.5,14.2,4c5.1,20.5-31.1,26.3-36.7,8.3c-0.6-1.8-3.5-1.1-2.9,0.8
					c6.9,22.1,49.7,13.9,42.2-10.6c-1.3-4.1-4.4-7.6-8.8-8.1c-7.2-0.7-11.9,6.5-18.8,7c-5.1,0.4-11.3-3.5-15.4,1.3
					c-3.7,4.3-0.7,9.8,2,13.6C499.7,458.5,502.3,457,501.2,455.4L501.2,455.4z"/>
			</g>
		</g>
		<g>
			<g>
				<path class="st4" d="M495.4,449.7c2.2,6.1,13.2,4.2,18,3.5c9.2-1.4,17.6-5.4,24.7-11.3c1.5-1.2-0.6-3.4-2.1-2.1
					c-5.2,4.4-11.2,7.6-17.8,9.4c-2.9,0.8-18.2,4.2-19.8-0.2C497.6,447.1,494.7,447.9,495.4,449.7L495.4,449.7z"/>
			</g>
		</g>
		<g>
			<g>
				<path class="st4" d="M513.2,493.6c11.7,3,27.3-4.4,33.9-14.1c1.1-1.6-1.5-3.1-2.6-1.5c-5.8,8.5-20.3,15.3-30.5,12.7
					C512.1,490.2,511.3,493.1,513.2,493.6L513.2,493.6z"/>
			</g>
		</g>
		<g>
			<g>
				<path class="st4" d="M514.3,494.5c10.4,6.5,27.5-2.7,32.5-12.6c0.9-1.7-1.7-3.2-2.6-1.5c-4.2,8.4-19.5,17.1-28.4,11.6
					C514.1,490.9,512.6,493.5,514.3,494.5L514.3,494.5z"/>
			</g>
		</g>
		<path class="st12" d="M555.8,388.5c0.7,3.6,1.6,9.3,2.2,16.2c1.4,18.4,3.8,49.2-14.8,69.7c-4,4.4-12.5,12.2-28.2,16.6
			c5-0.2,11.1-0.8,17.7-2.5c3.3-0.8,6.3-1.8,9-2.9c0.4,8.9,0.7,17.8,1.1,26.7c3.4-2.2,6.7-4.3,10.1-6.5c-4.6-10.2-4.6-18.1-4-23.1
			c0.9-7,3.5-12.7,6.1-18.4c2.3-5,4.7-9,6.6-11.8c0.2,2.1,0.7,4.3,2.1,6.4c6.1,9.1,25.2,10,37.2,2.2c11.1-7.2,16.5-21.8,13.7-36.8
			c1.9,1.6,3.9,3.5,5.8,5.8c1.5,1.8,5.4,7,10.8,25.3c1.7,5.7,2.5,8.6,3,11.5c0.6,4,1.7,11.6-0.4,20.2c-3.6,14.8-14.3,23.3-17.5,25.7
			c-2.3,1.7-9.3,6.8-19.8,9.2c-5,1.1-20,4.7-34.1-3.5c-5.3-3.1-8.2-5.4-9.8-8.2c-1.7-3.1-1.9-6-2.1-8.2c-0.9-13.7-1.3-20.6-0.4-25.3
			c2.7-13.6,8.8-15,12.2-30.5c1.2-5.6,1.5-10.3,1.6-13.3c1.3,0.2,3.3,0.4,5.7-0.2c5-1.3,7.5-5.4,8.4-6.9c3.6-5.7,5.2-15.9-0.4-20.6
			c-0.8-0.7-3.6-2.8-9-2.4C564.5,398.1,560.2,393.3,555.8,388.5z"/>
		<path class="st6" d="M508.4,420.9c5.1,1.5,10.3,3.1,15.4,4.6c-1.3,1.2-2.6,2.3-4,3.5c-1.3,1.1-2.5,2-3.8,3
			c-1.6-1.2-3.9-3.3-5.7-6.5C509.3,423.8,508.7,422.2,508.4,420.9z"/>
		<path class="st13" d="M428.2,433.4c-10.9,38.5-2.8,69.6,13.5,76.4c12.8,5.3,35.9-2.2,40.2-15.3c0.6-1.7,1.2-4.7-1.1-13.9
			c-2-8.1-6.1-20.3-15.3-34.2c-1.6-1-3.7-2.6-5.7-5c-3.5-4.3-4.5-8.9-4.8-11.1c2.9,3,7.1,6.8,9.8,5.6c2.6-1.2,4.2-4.8,3.3-8.4
			c0.9,4.6,2.3,10.9,4.9,18.2c3.4,9.7,6.8,19.1,14.7,28c3.6,4.1,10.7,10.8,22.7,15.6c2,2.5,5.7,7.9,6.9,15.8
			c0.2,1.2,0.9,6.7-0.9,13.6c-0.4,1.6-2.8,10.3-10.7,17.8c-9.2,8.8-20.2,10.4-23.8,10.9c-27.1,3.6-48.1-20.1-51.8-24.2
			c-3.7-4.2-9.8-11.2-13.3-22c-5.6-17.2-1.3-32.7,1.8-44C421.5,446.6,425.4,438.6,428.2,433.4z"/>
	</g>
</g>
</svg>
